G04 #@! TF.GenerationSoftware,KiCad,Pcbnew,7.0.10-7.0.10~ubuntu22.04.1*
G04 #@! TF.CreationDate,2025-04-10T19:03:43-06:00*
G04 #@! TF.ProjectId,OAC,4f41432e-6b69-4636-9164-5f7063625858,rev?*
G04 #@! TF.SameCoordinates,Original*
G04 #@! TF.FileFunction,Soldermask,Top*
G04 #@! TF.FilePolarity,Negative*
%FSLAX46Y46*%
G04 Gerber Fmt 4.6, Leading zero omitted, Abs format (unit mm)*
G04 Created by KiCad (PCBNEW 7.0.10-7.0.10~ubuntu22.04.1) date 2025-04-10 19:03:43*
%MOMM*%
%LPD*%
G01*
G04 APERTURE LIST*
G04 Aperture macros list*
%AMRoundRect*
0 Rectangle with rounded corners*
0 $1 Rounding radius*
0 $2 $3 $4 $5 $6 $7 $8 $9 X,Y pos of 4 corners*
0 Add a 4 corners polygon primitive as box body*
4,1,4,$2,$3,$4,$5,$6,$7,$8,$9,$2,$3,0*
0 Add four circle primitives for the rounded corners*
1,1,$1+$1,$2,$3*
1,1,$1+$1,$4,$5*
1,1,$1+$1,$6,$7*
1,1,$1+$1,$8,$9*
0 Add four rect primitives between the rounded corners*
20,1,$1+$1,$2,$3,$4,$5,0*
20,1,$1+$1,$4,$5,$6,$7,0*
20,1,$1+$1,$6,$7,$8,$9,0*
20,1,$1+$1,$8,$9,$2,$3,0*%
G04 Aperture macros list end*
%ADD10C,2.750000*%
%ADD11C,2.000000*%
%ADD12C,6.200000*%
%ADD13C,6.000000*%
%ADD14R,1.700000X1.700000*%
%ADD15O,1.700000X1.700000*%
%ADD16RoundRect,0.500000X0.643000X0.500000X-0.643000X0.500000X-0.643000X-0.500000X0.643000X-0.500000X0*%
%ADD17RoundRect,0.102000X-0.335876X-0.724784X0.724784X0.335876X0.335876X0.724784X-0.724784X-0.335876X0*%
%ADD18RoundRect,0.102000X0.335876X-0.724784X0.724784X-0.335876X-0.335876X0.724784X-0.724784X0.335876X0*%
%ADD19RoundRect,0.102000X0.350000X-0.450000X0.350000X0.450000X-0.350000X0.450000X-0.350000X-0.450000X0*%
%ADD20RoundRect,0.250000X-1.400000X-0.600000X1.400000X-0.600000X1.400000X0.600000X-1.400000X0.600000X0*%
%ADD21RoundRect,0.500000X-0.643000X-0.500000X0.643000X-0.500000X0.643000X0.500000X-0.643000X0.500000X0*%
%ADD22RoundRect,0.250000X0.400000X1.075000X-0.400000X1.075000X-0.400000X-1.075000X0.400000X-1.075000X0*%
%ADD23RoundRect,0.237500X0.008839X0.344715X-0.344715X-0.008839X-0.008839X-0.344715X0.344715X0.008839X0*%
%ADD24RoundRect,0.250001X-0.799999X-2.474999X0.799999X-2.474999X0.799999X2.474999X-0.799999X2.474999X0*%
%ADD25RoundRect,0.237500X0.300000X0.237500X-0.300000X0.237500X-0.300000X-0.237500X0.300000X-0.237500X0*%
%ADD26RoundRect,0.069600X0.162400X-0.452400X0.162400X0.452400X-0.162400X0.452400X-0.162400X-0.452400X0*%
%ADD27RoundRect,0.102000X1.175000X-0.750000X1.175000X0.750000X-1.175000X0.750000X-1.175000X-0.750000X0*%
%ADD28RoundRect,0.237500X0.237500X-0.250000X0.237500X0.250000X-0.237500X0.250000X-0.237500X-0.250000X0*%
%ADD29RoundRect,0.237500X0.044194X0.380070X-0.380070X-0.044194X-0.044194X-0.380070X0.380070X0.044194X0*%
%ADD30RoundRect,0.200000X-0.275000X0.200000X-0.275000X-0.200000X0.275000X-0.200000X0.275000X0.200000X0*%
%ADD31RoundRect,0.099250X-0.297750X0.792750X-0.297750X-0.792750X0.297750X-0.792750X0.297750X0.792750X0*%
%ADD32RoundRect,0.250000X-1.500000X-0.650000X1.500000X-0.650000X1.500000X0.650000X-1.500000X0.650000X0*%
%ADD33RoundRect,0.250000X-0.400000X-1.075000X0.400000X-1.075000X0.400000X1.075000X-0.400000X1.075000X0*%
%ADD34RoundRect,0.200000X-0.335876X-0.053033X-0.053033X-0.335876X0.335876X0.053033X0.053033X0.335876X0*%
%ADD35R,1.500000X0.900000*%
%ADD36RoundRect,0.237500X0.250000X0.237500X-0.250000X0.237500X-0.250000X-0.237500X0.250000X-0.237500X0*%
%ADD37R,1.000000X1.500000*%
%ADD38R,0.900000X1.500000*%
%ADD39RoundRect,0.102000X-0.279400X0.990600X-0.279400X-0.990600X0.279400X-0.990600X0.279400X0.990600X0*%
%ADD40RoundRect,0.237500X-0.300000X-0.237500X0.300000X-0.237500X0.300000X0.237500X-0.300000X0.237500X0*%
%ADD41RoundRect,0.250000X0.650000X-1.500000X0.650000X1.500000X-0.650000X1.500000X-0.650000X-1.500000X0*%
%ADD42RoundRect,0.237500X-0.008839X-0.344715X0.344715X0.008839X0.008839X0.344715X-0.344715X-0.008839X0*%
%ADD43R,0.711200X0.990600*%
%ADD44RoundRect,0.250001X-0.462499X-1.074999X0.462499X-1.074999X0.462499X1.074999X-0.462499X1.074999X0*%
%ADD45RoundRect,0.237500X-0.250000X-0.237500X0.250000X-0.237500X0.250000X0.237500X-0.250000X0.237500X0*%
%ADD46RoundRect,0.250000X1.412500X0.550000X-1.412500X0.550000X-1.412500X-0.550000X1.412500X-0.550000X0*%
%ADD47RoundRect,0.250000X-0.650000X1.500000X-0.650000X-1.500000X0.650000X-1.500000X0.650000X1.500000X0*%
%ADD48RoundRect,0.250000X1.400000X0.600000X-1.400000X0.600000X-1.400000X-0.600000X1.400000X-0.600000X0*%
%ADD49RoundRect,0.250000X0.300000X-2.050000X0.300000X2.050000X-0.300000X2.050000X-0.300000X-2.050000X0*%
%ADD50RoundRect,0.250002X5.149998X-4.449998X5.149998X4.449998X-5.149998X4.449998X-5.149998X-4.449998X0*%
%ADD51RoundRect,0.237500X-0.344715X0.008839X0.008839X-0.344715X0.344715X-0.008839X-0.008839X0.344715X0*%
%ADD52RoundRect,0.237500X-0.044194X-0.380070X0.380070X0.044194X0.044194X0.380070X-0.380070X-0.044194X0*%
%ADD53RoundRect,0.250001X-2.474999X0.799999X-2.474999X-0.799999X2.474999X-0.799999X2.474999X0.799999X0*%
%ADD54RoundRect,0.237500X0.237500X-0.300000X0.237500X0.300000X-0.237500X0.300000X-0.237500X-0.300000X0*%
%ADD55R,0.558800X1.460500*%
%ADD56RoundRect,0.250000X-0.550000X1.500000X-0.550000X-1.500000X0.550000X-1.500000X0.550000X1.500000X0*%
%ADD57RoundRect,0.250001X0.799999X2.474999X-0.799999X2.474999X-0.799999X-2.474999X0.799999X-2.474999X0*%
%ADD58RoundRect,0.305500X0.916500X0.956500X-0.916500X0.956500X-0.916500X-0.956500X0.916500X-0.956500X0*%
%ADD59RoundRect,0.237500X-0.380070X0.044194X0.044194X-0.380070X0.380070X-0.044194X-0.044194X0.380070X0*%
%ADD60RoundRect,0.200000X0.200000X0.275000X-0.200000X0.275000X-0.200000X-0.275000X0.200000X-0.275000X0*%
%ADD61RoundRect,0.250000X1.414214X-0.565685X-0.565685X1.414214X-1.414214X0.565685X0.565685X-1.414214X0*%
%ADD62RoundRect,0.237500X-0.237500X0.250000X-0.237500X-0.250000X0.237500X-0.250000X0.237500X0.250000X0*%
%ADD63RoundRect,0.102000X-2.750000X-1.000000X2.750000X-1.000000X2.750000X1.000000X-2.750000X1.000000X0*%
%ADD64RoundRect,0.099250X-0.792750X-0.297750X0.792750X-0.297750X0.792750X0.297750X-0.792750X0.297750X0*%
%ADD65RoundRect,0.102000X-1.625000X-2.750000X1.625000X-2.750000X1.625000X2.750000X-1.625000X2.750000X0*%
%ADD66R,1.460500X0.558800*%
%ADD67RoundRect,0.200000X0.275000X-0.200000X0.275000X0.200000X-0.275000X0.200000X-0.275000X-0.200000X0*%
%ADD68RoundRect,0.200000X-0.200000X-0.275000X0.200000X-0.275000X0.200000X0.275000X-0.200000X0.275000X0*%
%ADD69RoundRect,0.237500X0.344715X-0.008839X-0.008839X0.344715X-0.344715X0.008839X0.008839X-0.344715X0*%
%ADD70RoundRect,0.500000X-0.808223X0.101116X0.101116X-0.808223X0.808223X-0.101116X-0.101116X0.808223X0*%
%ADD71RoundRect,0.250000X-0.412500X-1.100000X0.412500X-1.100000X0.412500X1.100000X-0.412500X1.100000X0*%
%ADD72RoundRect,0.200000X0.335876X0.053033X0.053033X0.335876X-0.335876X-0.053033X-0.053033X-0.335876X0*%
G04 APERTURE END LIST*
D10*
X238860000Y-98567500D03*
X238860000Y-133407500D03*
D11*
X245945174Y-116308579D03*
X245945174Y-128808579D03*
D12*
X256435174Y-116398579D03*
D11*
X266945174Y-116318579D03*
X266945174Y-128818579D03*
D10*
X273700000Y-98567500D03*
X273700000Y-133407500D03*
D13*
X127490682Y-185414257D03*
X185490682Y-185414257D03*
X127490682Y-162414257D03*
X185490682Y-162414257D03*
D14*
X180620682Y-184144257D03*
D15*
X180620682Y-186684257D03*
X178080682Y-184144257D03*
X178080682Y-186684257D03*
X175540682Y-184144257D03*
X175540682Y-186684257D03*
X173000682Y-184144257D03*
X173000682Y-186684257D03*
X170460682Y-184144257D03*
X170460682Y-186684257D03*
X167920682Y-184144257D03*
X167920682Y-186684257D03*
X165380682Y-184144257D03*
X165380682Y-186684257D03*
X162840682Y-184144257D03*
X162840682Y-186684257D03*
X160300682Y-184144257D03*
X160300682Y-186684257D03*
X157760682Y-184144257D03*
X157760682Y-186684257D03*
X155220682Y-184144257D03*
X155220682Y-186684257D03*
X152680682Y-184144257D03*
X152680682Y-186684257D03*
X150140682Y-184144257D03*
X150140682Y-186684257D03*
X147600682Y-184144257D03*
X147600682Y-186684257D03*
X145060682Y-184144257D03*
X145060682Y-186684257D03*
X142520682Y-184144257D03*
X142520682Y-186684257D03*
X139980682Y-184144257D03*
X139980682Y-186684257D03*
X137440682Y-184144257D03*
X137440682Y-186684257D03*
X134900682Y-184144257D03*
X134900682Y-186684257D03*
X132360682Y-184144257D03*
X132360682Y-186684257D03*
D10*
X238655386Y-152910000D03*
X238655386Y-187750000D03*
D11*
X245740560Y-170651079D03*
X245740560Y-183151079D03*
X266740560Y-170661079D03*
X266740560Y-183161079D03*
D10*
X273495386Y-152910000D03*
X273495386Y-187750000D03*
D14*
X254795000Y-133507500D03*
D15*
X257335000Y-133507500D03*
D14*
X188105000Y-152480000D03*
D15*
X188105000Y-155020000D03*
X190645000Y-152480000D03*
X190645000Y-155020000D03*
X193185000Y-152480000D03*
X193185000Y-155020000D03*
D14*
X274150000Y-113677500D03*
D15*
X274150000Y-116217500D03*
D16*
X258426500Y-109214407D03*
X271126500Y-106674407D03*
D17*
X171879542Y-173190660D03*
X172445227Y-173756346D03*
X173010913Y-174322031D03*
X173576598Y-174887716D03*
X174142284Y-175453402D03*
X174707969Y-176019087D03*
X175273654Y-176584773D03*
X175839340Y-177150458D03*
D18*
X177960660Y-177150458D03*
X178526346Y-176584773D03*
X179092031Y-176019087D03*
X179657716Y-175453402D03*
X180223402Y-174887716D03*
X180789087Y-174322031D03*
X181354773Y-173756346D03*
X181920458Y-173190660D03*
D17*
X181920458Y-171069340D03*
X181354773Y-170503654D03*
X180789087Y-169937969D03*
X180223402Y-169372284D03*
X179657716Y-168806598D03*
X179092031Y-168240913D03*
X178526346Y-167675227D03*
X177960660Y-167109542D03*
D18*
X175839340Y-167109542D03*
X175273654Y-167675227D03*
X174707969Y-168240913D03*
X174142284Y-168806598D03*
X173576598Y-169372284D03*
X173010913Y-169937969D03*
X172445227Y-170503654D03*
X171879542Y-171069340D03*
D19*
X121160000Y-116794998D03*
X122110000Y-116794998D03*
X123060000Y-116794998D03*
X123060000Y-114294998D03*
X122110000Y-114294998D03*
X121160000Y-114294998D03*
D20*
X139270000Y-111902500D03*
X144770000Y-111902500D03*
D21*
X254423500Y-106890594D03*
X241723500Y-109430594D03*
D22*
X181010000Y-120702500D03*
X177910000Y-120702500D03*
D23*
X168695235Y-176114765D03*
X167404765Y-177405235D03*
D24*
X138885000Y-125252500D03*
X145835000Y-125252500D03*
D25*
X192282500Y-166500000D03*
X190557500Y-166500000D03*
D26*
X168240000Y-124137500D03*
X168740000Y-124137500D03*
X169240000Y-124137500D03*
X169740000Y-124137500D03*
X170240000Y-124137500D03*
X170240000Y-121267500D03*
X169740000Y-121267500D03*
X169240000Y-121267500D03*
X168740000Y-121267500D03*
X168240000Y-121267500D03*
D27*
X169240000Y-122702500D03*
D28*
X149285001Y-177826300D03*
X149285001Y-176001300D03*
D25*
X254265000Y-101977500D03*
X252540000Y-101977500D03*
D29*
X173099880Y-163740120D03*
X171880120Y-164959880D03*
D30*
X134820000Y-111647500D03*
X134820000Y-113297500D03*
D31*
X126790000Y-124852500D03*
X125520000Y-124852500D03*
X124250000Y-124852500D03*
X122980000Y-124852500D03*
X122980000Y-119602500D03*
X126790000Y-119602500D03*
X125520000Y-119602500D03*
X124250000Y-119602500D03*
D32*
X156665000Y-112952500D03*
X161665000Y-112952500D03*
D25*
X166252500Y-124052500D03*
X164527500Y-124052500D03*
D33*
X159582500Y-116642500D03*
X162682500Y-116642500D03*
D34*
X165256637Y-118789137D03*
X166423363Y-119955863D03*
D35*
X250160000Y-101917500D03*
X250160000Y-98617500D03*
X245260000Y-98617500D03*
X245260000Y-101917500D03*
D36*
X207910000Y-132862500D03*
X206085000Y-132862500D03*
D37*
X151155001Y-176503799D03*
X152455001Y-176503799D03*
D38*
X212320000Y-182400000D03*
X215620000Y-182400000D03*
X215620000Y-177500000D03*
X212320000Y-177500000D03*
D30*
X130790000Y-172805000D03*
X130790000Y-174455000D03*
D39*
X151585000Y-168876200D03*
X150315000Y-168876200D03*
X149045000Y-168876200D03*
X147775000Y-168876200D03*
X147775000Y-173803800D03*
X149045000Y-173803800D03*
X150315000Y-173803800D03*
X151585000Y-173803800D03*
D40*
X172137500Y-124032500D03*
X173862500Y-124032500D03*
D41*
X156822500Y-108942500D03*
X156822500Y-103942500D03*
D14*
X254464998Y-187700000D03*
D15*
X257004998Y-187700000D03*
D23*
X166175235Y-178634765D03*
X164884765Y-179925235D03*
D42*
X170480049Y-163644661D03*
X171770519Y-162354191D03*
D43*
X213820002Y-163180002D03*
X213820002Y-158680000D03*
X215970000Y-163180002D03*
X215970000Y-158680000D03*
D14*
X238259998Y-164700000D03*
D15*
X238259998Y-162160000D03*
X238259998Y-159620000D03*
D44*
X172320000Y-127002500D03*
X175295000Y-127002500D03*
D14*
X238590000Y-105442500D03*
D15*
X238590000Y-107982500D03*
X238590000Y-110522500D03*
D45*
X202585000Y-132852500D03*
X204410000Y-132852500D03*
D21*
X271383500Y-123600594D03*
X258683500Y-126140594D03*
D25*
X213760000Y-184610000D03*
X212035000Y-184610000D03*
D46*
X207157500Y-122862500D03*
X202082500Y-122862500D03*
D31*
X121035000Y-124799998D03*
X119765000Y-124799998D03*
X118495000Y-124799998D03*
X117225000Y-124799998D03*
X117225000Y-119549998D03*
X121035000Y-119549998D03*
X119765000Y-119549998D03*
X118495000Y-119549998D03*
D47*
X195660000Y-121402500D03*
X195660000Y-126402500D03*
D40*
X123267500Y-109332500D03*
X124992500Y-109332500D03*
X119885000Y-112494998D03*
X121610000Y-112494998D03*
D48*
X132197500Y-129922500D03*
X126697500Y-129922500D03*
D49*
X184565000Y-120217500D03*
X186265000Y-120217500D03*
X187965000Y-120217500D03*
D50*
X187965000Y-111067500D03*
D49*
X189665000Y-120217500D03*
X191365000Y-120217500D03*
D51*
X166444765Y-168534765D03*
X167735235Y-169825235D03*
D42*
X168824765Y-178885235D03*
X170115235Y-177594765D03*
D25*
X121602500Y-110884998D03*
X119877500Y-110884998D03*
D14*
X256464998Y-152420000D03*
D15*
X259004998Y-152420000D03*
D43*
X124320002Y-171690002D03*
X124320002Y-167190000D03*
X126470000Y-171690002D03*
X126470000Y-167190000D03*
D14*
X256795000Y-98227500D03*
D15*
X259335000Y-98227500D03*
D52*
X171510120Y-181599880D03*
X172729880Y-180380120D03*
D40*
X199070000Y-166610000D03*
X200795000Y-166610000D03*
D53*
X146350000Y-102152500D03*
X146350000Y-109102500D03*
D45*
X241277500Y-101987500D03*
X243102500Y-101987500D03*
D54*
X153315000Y-174123800D03*
X153315000Y-172398800D03*
D25*
X207852500Y-131242000D03*
X206127500Y-131242000D03*
D55*
X138005000Y-103768350D03*
X139275000Y-103768350D03*
X140545000Y-103768350D03*
X141815000Y-103768350D03*
X141815000Y-109216650D03*
X138005000Y-109216650D03*
X139275000Y-109216650D03*
X140545000Y-109216650D03*
D22*
X181020000Y-113852500D03*
X177920000Y-113852500D03*
D56*
X184310000Y-125802500D03*
X184310000Y-131202500D03*
D57*
X134535000Y-105552500D03*
X127585000Y-105552500D03*
D14*
X238600000Y-114237500D03*
D15*
X238600000Y-116777500D03*
D58*
X207297500Y-128448000D03*
X202427500Y-128448000D03*
D15*
X148530000Y-155030000D03*
X151070000Y-155030000D03*
X148530000Y-152490000D03*
D14*
X151070000Y-152490000D03*
D59*
X180010120Y-165810120D03*
X181229880Y-167029880D03*
D60*
X123015000Y-130202500D03*
X121365000Y-130202500D03*
D61*
X169152457Y-165877351D03*
X165263369Y-161988263D03*
D14*
X273819998Y-167870000D03*
D15*
X273819998Y-170410000D03*
D62*
X128680000Y-176547500D03*
X128680000Y-178372500D03*
D44*
X159755000Y-109362500D03*
X162730000Y-109362500D03*
D63*
X190980000Y-170210000D03*
X200480000Y-170210000D03*
D64*
X136540850Y-176550000D03*
X136540850Y-177820000D03*
X136540850Y-179090000D03*
X136540850Y-180360000D03*
X131290850Y-180360000D03*
X131290850Y-176550000D03*
X131290850Y-177820000D03*
X131290850Y-179090000D03*
D65*
X195840000Y-112697500D03*
X207090000Y-112697500D03*
D23*
X171455235Y-179004765D03*
X170164765Y-180295235D03*
D66*
X135584150Y-123377500D03*
X135584150Y-124647500D03*
X135584150Y-125917500D03*
X135584150Y-127187500D03*
X130135850Y-127187500D03*
X130135850Y-123377500D03*
X130135850Y-124647500D03*
X130135850Y-125917500D03*
D67*
X123240000Y-112547500D03*
X123240000Y-110897500D03*
X124680000Y-116847500D03*
X124680000Y-115197500D03*
D11*
X118170000Y-153230000D03*
X118170000Y-188070000D03*
X216370000Y-153230000D03*
X216370000Y-188070000D03*
D14*
X156829318Y-152425743D03*
D15*
X159369318Y-152425743D03*
X161909318Y-152425743D03*
X164449318Y-152425743D03*
X166989318Y-152425743D03*
X169529318Y-152425743D03*
X172069318Y-152425743D03*
X174609318Y-152425743D03*
X177149318Y-152425743D03*
X179689318Y-152425743D03*
X182229318Y-152425743D03*
X156829318Y-154965743D03*
X159369318Y-154965743D03*
X161909318Y-154965743D03*
X164449318Y-154965743D03*
X166989318Y-154965743D03*
X169529318Y-154965743D03*
X172069318Y-154965743D03*
X174609318Y-154965743D03*
X177149318Y-154965743D03*
X179689318Y-154965743D03*
X182229318Y-154965743D03*
D22*
X181040000Y-117262500D03*
X177940000Y-117262500D03*
D23*
X170427016Y-160982404D03*
X169136546Y-162272874D03*
D51*
X183124765Y-177374765D03*
X184415235Y-178665235D03*
D40*
X116267500Y-114052500D03*
X117992500Y-114052500D03*
D28*
X147635000Y-177826300D03*
X147635000Y-176001300D03*
D14*
X238269998Y-168430000D03*
D15*
X238269998Y-170970000D03*
D68*
X119735000Y-109392500D03*
X121385000Y-109392500D03*
D69*
X185680000Y-177390000D03*
X184389530Y-176099530D03*
D70*
X253435094Y-128519603D03*
X242658786Y-121335398D03*
D71*
X178087500Y-160030000D03*
X181212500Y-160030000D03*
D25*
X181190000Y-123712500D03*
X179465000Y-123712500D03*
D72*
X182883363Y-179853363D03*
X181716637Y-178686637D03*
D11*
X215900000Y-132702500D03*
X215900000Y-97862500D03*
X117700000Y-132702500D03*
X117700000Y-97862500D03*
D14*
X177240682Y-97058243D03*
D15*
X174700682Y-97058243D03*
X172160682Y-97058243D03*
X169620682Y-97058243D03*
X167080682Y-97058243D03*
X164540682Y-97058243D03*
X162000682Y-97058243D03*
X159460682Y-97058243D03*
X156920682Y-97058243D03*
X154380682Y-97058243D03*
X151840682Y-97058243D03*
X177240682Y-99598243D03*
X174700682Y-99598243D03*
X172160682Y-99598243D03*
X169620682Y-99598243D03*
X167080682Y-99598243D03*
X164540682Y-99598243D03*
X162000682Y-99598243D03*
X159460682Y-99598243D03*
X156920682Y-99598243D03*
X154380682Y-99598243D03*
X151840682Y-99598243D03*
M02*
