G04 #@! TF.GenerationSoftware,KiCad,Pcbnew,7.0.10-7.0.10~ubuntu22.04.1*
G04 #@! TF.CreationDate,2025-04-10T19:03:43-06:00*
G04 #@! TF.ProjectId,OAC,4f41432e-6b69-4636-9164-5f7063625858,rev?*
G04 #@! TF.SameCoordinates,Original*
G04 #@! TF.FileFunction,Profile,NP*
%FSLAX46Y46*%
G04 Gerber Fmt 4.6, Leading zero omitted, Abs format (unit mm)*
G04 Created by KiCad (PCBNEW 7.0.10-7.0.10~ubuntu22.04.1) date 2025-04-10 19:03:43*
%MOMM*%
%LPD*%
G01*
G04 APERTURE LIST*
G04 #@! TA.AperFunction,Profile*
%ADD10C,0.050000*%
G04 #@! TD*
G04 APERTURE END LIST*
D10*
X236320000Y-133947500D02*
X236320000Y-98027500D01*
X238320000Y-96027500D02*
X274240000Y-96027500D01*
X274240000Y-135947500D02*
X238320000Y-135947500D01*
X276240000Y-98027500D02*
X276240000Y-133947500D01*
X238320000Y-96027500D02*
G75*
G03*
X236320000Y-98027500I-1J-1999999D01*
G01*
X236320000Y-133947500D02*
G75*
G03*
X238320000Y-135947500I2000000J0D01*
G01*
X276240000Y-98027500D02*
G75*
G03*
X274240000Y-96027500I-2000000J0D01*
G01*
X274240000Y-135947500D02*
G75*
G03*
X276240000Y-133947500I0J2000000D01*
G01*
X236115386Y-188290000D02*
X236115386Y-152370000D01*
X238115386Y-150370000D02*
X274035386Y-150370000D01*
X274035386Y-190290000D02*
X238115386Y-190290000D01*
X276035386Y-152370000D02*
X276035386Y-188290000D01*
X238115386Y-150370000D02*
G75*
G03*
X236115386Y-152370000I-1J-1999999D01*
G01*
X236115386Y-188290000D02*
G75*
G03*
X238115386Y-190290000I1999999J-1D01*
G01*
X276035398Y-152370000D02*
G75*
G03*
X274035386Y-150370000I-2000000J0D01*
G01*
X274035386Y-190289988D02*
G75*
G03*
X276035386Y-188290000I12J1999988D01*
G01*
X115630000Y-188610000D02*
X115630000Y-152690000D01*
X117630000Y-150690000D02*
X216910000Y-150690000D01*
X216910000Y-190610000D02*
X117630000Y-190610000D01*
X218910000Y-152690000D02*
X218910000Y-188610000D01*
X117630000Y-150690000D02*
G75*
G03*
X115630000Y-152690000I-1J-1999999D01*
G01*
X115630000Y-188610000D02*
G75*
G03*
X117630000Y-190610000I2000000J0D01*
G01*
X218910000Y-152690000D02*
G75*
G03*
X216910000Y-150690000I-2000000J0D01*
G01*
X216910000Y-190610000D02*
G75*
G03*
X218910000Y-188610000I0J2000000D01*
G01*
X218440000Y-133242500D02*
X218440000Y-97322500D01*
X216440000Y-95322500D02*
X117160000Y-95322500D01*
X117160000Y-135242500D02*
X216440000Y-135242500D01*
X115160000Y-97322500D02*
X115160000Y-133242500D01*
X216440000Y-135242500D02*
G75*
G03*
X218440000Y-133242500I1J1999999D01*
G01*
X218440000Y-97322500D02*
G75*
G03*
X216440000Y-95322500I-2000000J0D01*
G01*
X115160000Y-133242500D02*
G75*
G03*
X117160000Y-135242500I2000000J0D01*
G01*
X117160000Y-95322500D02*
G75*
G03*
X115160000Y-97322500I0J-2000000D01*
G01*
M02*
