G04 #@! TF.GenerationSoftware,KiCad,Pcbnew,7.0.10-7.0.10~ubuntu22.04.1*
G04 #@! TF.CreationDate,2025-04-10T19:03:43-06:00*
G04 #@! TF.ProjectId,OAC,4f41432e-6b69-4636-9164-5f7063625858,rev?*
G04 #@! TF.SameCoordinates,Original*
G04 #@! TF.FileFunction,Paste,Bot*
G04 #@! TF.FilePolarity,Positive*
%FSLAX46Y46*%
G04 Gerber Fmt 4.6, Leading zero omitted, Abs format (unit mm)*
G04 Created by KiCad (PCBNEW 7.0.10-7.0.10~ubuntu22.04.1) date 2025-04-10 19:03:43*
%MOMM*%
%LPD*%
G01*
G04 APERTURE LIST*
G04 Aperture macros list*
%AMRoundRect*
0 Rectangle with rounded corners*
0 $1 Rounding radius*
0 $2 $3 $4 $5 $6 $7 $8 $9 X,Y pos of 4 corners*
0 Add a 4 corners polygon primitive as box body*
4,1,4,$2,$3,$4,$5,$6,$7,$8,$9,$2,$3,0*
0 Add four circle primitives for the rounded corners*
1,1,$1+$1,$2,$3*
1,1,$1+$1,$4,$5*
1,1,$1+$1,$6,$7*
1,1,$1+$1,$8,$9*
0 Add four rect primitives between the rounded corners*
20,1,$1+$1,$2,$3,$4,$5,0*
20,1,$1+$1,$4,$5,$6,$7,0*
20,1,$1+$1,$6,$7,$8,$9,0*
20,1,$1+$1,$8,$9,$2,$3,0*%
%AMFreePoly0*
4,1,17,0.500000,0.989801,1.044902,0.444901,1.063500,0.400000,1.063500,-0.400000,1.044902,-0.444901,0.500000,-0.989801,0.500000,-2.600000,-0.500000,-2.600000,-0.500000,-0.989802,-1.044901,-0.444901,-1.063500,-0.400000,-1.063500,0.400000,-1.044901,0.444901,-0.500000,0.989802,-0.500000,2.600000,0.500000,2.600000,0.500000,0.989801,0.500000,0.989801,$1*%
G04 Aperture macros list end*
%ADD10RoundRect,0.250000X0.650000X-1.500000X0.650000X1.500000X-0.650000X1.500000X-0.650000X-1.500000X0*%
%ADD11RoundRect,0.250000X0.350000X0.450000X-0.350000X0.450000X-0.350000X-0.450000X0.350000X-0.450000X0*%
%ADD12RoundRect,0.250000X1.075000X-0.400000X1.075000X0.400000X-1.075000X0.400000X-1.075000X-0.400000X0*%
%ADD13RoundRect,0.250000X1.500000X0.650000X-1.500000X0.650000X-1.500000X-0.650000X1.500000X-0.650000X0*%
%ADD14R,3.251200X2.489200*%
%ADD15RoundRect,0.250000X0.400000X1.075000X-0.400000X1.075000X-0.400000X-1.075000X0.400000X-1.075000X0*%
%ADD16RoundRect,0.237500X-0.250000X-0.237500X0.250000X-0.237500X0.250000X0.237500X-0.250000X0.237500X0*%
%ADD17RoundRect,0.250000X0.450000X-0.350000X0.450000X0.350000X-0.450000X0.350000X-0.450000X-0.350000X0*%
%ADD18R,0.700000X1.500000*%
%ADD19FreePoly0,0.000000*%
%ADD20RoundRect,0.250000X-0.450000X0.350000X-0.450000X-0.350000X0.450000X-0.350000X0.450000X0.350000X0*%
%ADD21RoundRect,0.250000X-1.500000X-0.650000X1.500000X-0.650000X1.500000X0.650000X-1.500000X0.650000X0*%
%ADD22RoundRect,0.250000X-0.400000X-1.075000X0.400000X-1.075000X0.400000X1.075000X-0.400000X1.075000X0*%
%ADD23R,2.489200X3.251200*%
%ADD24R,4.240000X5.200000*%
%ADD25R,4.240000X3.300000*%
%ADD26RoundRect,0.250000X-0.350000X-0.450000X0.350000X-0.450000X0.350000X0.450000X-0.350000X0.450000X0*%
%ADD27R,1.500000X0.700000*%
%ADD28FreePoly0,270.000000*%
%ADD29RoundRect,0.250000X-1.075000X0.400000X-1.075000X-0.400000X1.075000X-0.400000X1.075000X0.400000X0*%
G04 APERTURE END LIST*
D10*
X262149998Y-179240000D03*
X262149998Y-174240000D03*
D11*
X270859998Y-166740000D03*
X268859998Y-166740000D03*
D12*
X242889998Y-164880000D03*
X242889998Y-161780000D03*
D13*
X269299998Y-163300000D03*
X264299998Y-163300000D03*
D14*
X245749998Y-158114400D03*
X245749998Y-152120000D03*
D15*
X241949998Y-182340000D03*
X238849998Y-182340000D03*
D16*
X237307498Y-156610000D03*
X239132498Y-156610000D03*
D10*
X252279998Y-157910000D03*
X252279998Y-152910000D03*
D17*
X260699998Y-162880000D03*
X260699998Y-160880000D03*
D18*
X255499998Y-155510000D03*
D19*
X256999998Y-157360000D03*
D18*
X258499998Y-155510000D03*
X258499998Y-159210000D03*
X255499998Y-159210000D03*
X248719998Y-182720000D03*
D19*
X250219998Y-184570000D03*
D18*
X251719998Y-182720000D03*
X251719998Y-186420000D03*
X248719998Y-186420000D03*
D12*
X246270000Y-164900000D03*
X246270000Y-161800000D03*
D20*
X261569998Y-186630000D03*
X261569998Y-188630000D03*
D21*
X239742498Y-178240000D03*
X244742498Y-178240000D03*
D22*
X259959998Y-183590000D03*
X263059998Y-183590000D03*
D14*
X271919998Y-179914400D03*
X271919998Y-173920000D03*
X251919998Y-174072800D03*
X251919998Y-180067200D03*
D23*
X269547198Y-156790000D03*
X263552798Y-156790000D03*
D12*
X273779998Y-159770000D03*
X273779998Y-156670000D03*
D22*
X242269998Y-187350000D03*
X245369998Y-187350000D03*
D12*
X257839998Y-180650000D03*
X257839998Y-177550000D03*
D15*
X253539998Y-162140000D03*
X250439998Y-162140000D03*
D22*
X255569998Y-162150000D03*
X258669998Y-162150000D03*
D24*
X144740000Y-106292500D03*
D25*
X128730000Y-106479544D03*
X205455000Y-106462500D03*
D24*
X189445000Y-106462500D03*
D26*
X249339998Y-188570000D03*
X251339998Y-188570000D03*
D24*
X144922500Y-125257044D03*
D25*
X128912500Y-125444088D03*
X205637500Y-125427044D03*
D24*
X189627500Y-125427044D03*
D18*
X260521748Y-166624250D03*
D19*
X262021748Y-168474250D03*
D18*
X263521748Y-166624250D03*
X263521748Y-170324250D03*
X260521748Y-170324250D03*
D27*
X267959998Y-186030000D03*
D28*
X266109998Y-187530000D03*
D27*
X267959998Y-189030000D03*
X264259998Y-189030000D03*
X264259998Y-186030000D03*
D29*
X273779998Y-161730000D03*
X273779998Y-164830000D03*
M02*
