%TF.GenerationSoftware,KiCad,Pcbnew,7.0.11+dfsg-1build4*%
%TF.CreationDate,2025-02-09T17:53:57-07:00*%
%TF.ProjectId,iJet,694a6574-2e6b-4696-9361-645f70636258,rev?*%
%TF.SameCoordinates,Original*%
%TF.FileFunction,Drillmap*%
%TF.FilePolarity,Positive*%
%FSLAX45Y45*%
G04 Gerber Fmt 4.5, Leading zero omitted, Abs format (unit mm)*
G04 Created by KiCad (PCBNEW 7.0.11+dfsg-1build4) date 2025-02-09 17:53:57*
%MOMM*%
%LPD*%
G01*
G04 APERTURE LIST*
%ADD10C,0.050000*%
%ADD11C,0.100000*%
%ADD12C,0.200000*%
G04 APERTURE END LIST*
D10*
X11346200Y-14876800D02*
X12819400Y-14876800D01*
X12819400Y-16400800D01*
X11346200Y-16400800D01*
X11346200Y-14876800D01*
D11*
X14222000Y-16363200D02*
X14222000Y-17312668D01*
X18230400Y-16415332D02*
X18230400Y-16372132D01*
X18229424Y-17370274D02*
X18230400Y-16415332D01*
X14522000Y-13663200D02*
G75*
G03*
X14222000Y-13963200I0J-300000D01*
G01*
X14222000Y-17362668D02*
G75*
G03*
X14522000Y-17662668I300000J0D01*
G01*
X14222000Y-17312668D02*
X14222000Y-17362668D01*
X17878400Y-17669600D02*
X14522000Y-17662668D01*
X17930400Y-13672132D02*
X14522000Y-13663200D01*
X17929424Y-17670274D02*
G75*
G03*
X18229424Y-17370274I0J300000D01*
G01*
X14222000Y-13963200D02*
X14222000Y-16363200D01*
X18230400Y-13972132D02*
G75*
G03*
X17930400Y-13672132I-300000J0D01*
G01*
X18230400Y-16372132D02*
X18230400Y-13972132D01*
X17929424Y-17670274D02*
X17878400Y-17669600D01*
X10405200Y-13667732D02*
X13761600Y-13674664D01*
X14061600Y-14974132D02*
X14061600Y-14024664D01*
X14061600Y-14024664D02*
X14061600Y-13974664D01*
X14061600Y-13974664D02*
G75*
G03*
X13761600Y-13674664I-300000J0D01*
G01*
X14061600Y-17374132D02*
X14061600Y-14974132D01*
X13761600Y-17674132D02*
G75*
G03*
X14061600Y-17374132I0J300000D01*
G01*
X10053200Y-17365200D02*
G75*
G03*
X10353200Y-17665200I300000J0D01*
G01*
X10354176Y-13667058D02*
X10405200Y-13667732D01*
X10054176Y-13967058D02*
X10053200Y-14922000D01*
X10354176Y-13667058D02*
G75*
G03*
X10054176Y-13967058I0J-300000D01*
G01*
X10053200Y-14965200D02*
X10053200Y-17365200D01*
X10053200Y-14922000D02*
X10053200Y-14965200D01*
X10353200Y-17665200D02*
X13761600Y-17674132D01*
X10314924Y-13348328D02*
X16214924Y-13348328D01*
X10000000Y-7256800D02*
X10000000Y-7300000D01*
X10000976Y-6301858D02*
X10000000Y-7256800D01*
X16500000Y-7300000D02*
X16500000Y-6350532D01*
X16214924Y-10298329D02*
X10314924Y-10298329D01*
X10014924Y-10648329D02*
X10014924Y-13048328D01*
X16514924Y-13048328D02*
X16514924Y-10648329D01*
X16514924Y-10598329D02*
G75*
G03*
X16214924Y-10298329I-300000J0D01*
G01*
X10014924Y-10648329D02*
X10014924Y-10598329D01*
X10014924Y-13048328D02*
G75*
G03*
X10314924Y-13348328I300000J0D01*
G01*
X16514924Y-10648329D02*
X16514924Y-10598329D01*
X16214924Y-13348328D02*
G75*
G03*
X16514924Y-13048328I0J300000D01*
G01*
X10314924Y-10298329D02*
G75*
G03*
X10014924Y-10598329I0J-300000D01*
G01*
X16252000Y-6002532D02*
X10304800Y-6001858D01*
X16200000Y-10000000D02*
G75*
G03*
X16500000Y-9700000I0J300000D01*
G01*
X10000000Y-7300000D02*
X10000000Y-9700000D01*
X16500000Y-6350532D02*
X16500000Y-6300532D01*
X16500000Y-9700000D02*
X16500000Y-7300000D01*
X10304800Y-6001858D02*
G75*
G03*
X10000952Y-6301858I-3824J-300000D01*
G01*
X10000000Y-9700000D02*
G75*
G03*
X10300000Y-10000000I300000J0D01*
G01*
X10300000Y-10000000D02*
X16200000Y-10000000D01*
X16500440Y-6300532D02*
G75*
G03*
X16252000Y-6002532I-302943J0D01*
G01*
D12*
D11*
X10074650Y-8897474D02*
X10104650Y-8927474D01*
X10104650Y-8897474D02*
X10074650Y-8927474D01*
X10216029Y-8900310D02*
X10246029Y-8930310D01*
X10246029Y-8900310D02*
X10216029Y-8930310D01*
X10273944Y-16265408D02*
X10303944Y-16295408D01*
X10303944Y-16265408D02*
X10273944Y-16295408D01*
X10366000Y-14938245D02*
X10396000Y-14968245D01*
X10396000Y-14938245D02*
X10366000Y-14968245D01*
X10391400Y-14760200D02*
X10421400Y-14790200D01*
X10421400Y-14760200D02*
X10391400Y-14790200D01*
X10391400Y-16944600D02*
X10421400Y-16974600D01*
X10421400Y-16944600D02*
X10391400Y-16974600D01*
X10454800Y-8219408D02*
X10484800Y-8249408D01*
X10484800Y-8219408D02*
X10454800Y-8249408D01*
X10504000Y-16228600D02*
X10534000Y-16258600D01*
X10534000Y-16228600D02*
X10504000Y-16258600D01*
X10696200Y-14404600D02*
X10726200Y-14434600D01*
X10726200Y-14404600D02*
X10696200Y-14434600D01*
X10899400Y-16233400D02*
X10929400Y-16263400D01*
X10929400Y-16233400D02*
X10899400Y-16263400D01*
X10966000Y-6936456D02*
X10996000Y-6966456D01*
X10996000Y-6936456D02*
X10966000Y-6966456D01*
X11102600Y-15065000D02*
X11132600Y-15095000D01*
X11132600Y-15065000D02*
X11102600Y-15095000D01*
X11255000Y-17198600D02*
X11285000Y-17228600D01*
X11285000Y-17198600D02*
X11255000Y-17228600D01*
X11325050Y-17319291D02*
X11355050Y-17349291D01*
X11355050Y-17319291D02*
X11325050Y-17349291D01*
X11350000Y-6936456D02*
X11380000Y-6966456D01*
X11380000Y-6936456D02*
X11350000Y-6966456D01*
X11407400Y-9832600D02*
X11437400Y-9862600D01*
X11437400Y-9832600D02*
X11407400Y-9862600D01*
X11407400Y-14455400D02*
X11437400Y-14485400D01*
X11437400Y-14455400D02*
X11407400Y-14485400D01*
X11423014Y-13866970D02*
X11453014Y-13896970D01*
X11453014Y-13866970D02*
X11423014Y-13896970D01*
X11432800Y-14085400D02*
X11462800Y-14115400D01*
X11462800Y-14085400D02*
X11432800Y-14115400D01*
X11763000Y-10950200D02*
X11793000Y-10980200D01*
X11793000Y-10950200D02*
X11763000Y-10980200D01*
X11763000Y-11102600D02*
X11793000Y-11132600D01*
X11793000Y-11102600D02*
X11763000Y-11132600D01*
X11763000Y-11255000D02*
X11793000Y-11285000D01*
X11793000Y-11255000D02*
X11763000Y-11285000D01*
X11763000Y-11407400D02*
X11793000Y-11437400D01*
X11793000Y-11407400D02*
X11763000Y-11437400D01*
X11763000Y-11559800D02*
X11793000Y-11589800D01*
X11793000Y-11559800D02*
X11763000Y-11589800D01*
X11763000Y-11712200D02*
X11793000Y-11742200D01*
X11793000Y-11712200D02*
X11763000Y-11742200D01*
X11915400Y-10950200D02*
X11945400Y-10980200D01*
X11945400Y-10950200D02*
X11915400Y-10980200D01*
X11915400Y-11102600D02*
X11945400Y-11132600D01*
X11945400Y-11102600D02*
X11915400Y-11132600D01*
X11915400Y-11255000D02*
X11945400Y-11285000D01*
X11945400Y-11255000D02*
X11915400Y-11285000D01*
X11915400Y-11407400D02*
X11945400Y-11437400D01*
X11945400Y-11407400D02*
X11915400Y-11437400D01*
X11915400Y-11559800D02*
X11945400Y-11589800D01*
X11945400Y-11559800D02*
X11915400Y-11589800D01*
X11915400Y-11712200D02*
X11945400Y-11742200D01*
X11945400Y-11712200D02*
X11915400Y-11742200D01*
X12067800Y-10950200D02*
X12097800Y-10980200D01*
X12097800Y-10950200D02*
X12067800Y-10980200D01*
X12067800Y-11102600D02*
X12097800Y-11132600D01*
X12097800Y-11102600D02*
X12067800Y-11132600D01*
X12067800Y-11255000D02*
X12097800Y-11285000D01*
X12097800Y-11255000D02*
X12067800Y-11285000D01*
X12067800Y-11407400D02*
X12097800Y-11437400D01*
X12097800Y-11407400D02*
X12067800Y-11437400D01*
X12067800Y-11559800D02*
X12097800Y-11589800D01*
X12097800Y-11559800D02*
X12067800Y-11589800D01*
X12067800Y-11712200D02*
X12097800Y-11742200D01*
X12097800Y-11712200D02*
X12067800Y-11742200D01*
X12118600Y-8179915D02*
X12148600Y-8209915D01*
X12148600Y-8179915D02*
X12118600Y-8209915D01*
X12118600Y-8308600D02*
X12148600Y-8338600D01*
X12148600Y-8308600D02*
X12118600Y-8338600D01*
X12187282Y-7734780D02*
X12217282Y-7764780D01*
X12217282Y-7734780D02*
X12187282Y-7764780D01*
X12220200Y-10950200D02*
X12250200Y-10980200D01*
X12250200Y-10950200D02*
X12220200Y-10980200D01*
X12220200Y-11102600D02*
X12250200Y-11132600D01*
X12250200Y-11102600D02*
X12220200Y-11132600D01*
X12220200Y-11255000D02*
X12250200Y-11285000D01*
X12250200Y-11255000D02*
X12220200Y-11285000D01*
X12220200Y-11407400D02*
X12250200Y-11437400D01*
X12250200Y-11407400D02*
X12220200Y-11437400D01*
X12220200Y-11559800D02*
X12250200Y-11589800D01*
X12250200Y-11559800D02*
X12220200Y-11589800D01*
X12220200Y-11712200D02*
X12250200Y-11742200D01*
X12250200Y-11712200D02*
X12220200Y-11742200D01*
X12372600Y-10950200D02*
X12402600Y-10980200D01*
X12402600Y-10950200D02*
X12372600Y-10980200D01*
X12372600Y-11102600D02*
X12402600Y-11132600D01*
X12402600Y-11102600D02*
X12372600Y-11132600D01*
X12372600Y-11255000D02*
X12402600Y-11285000D01*
X12402600Y-11255000D02*
X12372600Y-11285000D01*
X12372600Y-11407400D02*
X12402600Y-11437400D01*
X12402600Y-11407400D02*
X12372600Y-11437400D01*
X12372600Y-11559800D02*
X12402600Y-11589800D01*
X12402600Y-11559800D02*
X12372600Y-11589800D01*
X12372600Y-11712200D02*
X12402600Y-11742200D01*
X12402600Y-11712200D02*
X12372600Y-11742200D01*
X12385778Y-12208669D02*
X12415778Y-12238669D01*
X12415778Y-12208669D02*
X12385778Y-12238669D01*
X12525000Y-8969000D02*
X12555000Y-8999000D01*
X12555000Y-8969000D02*
X12525000Y-8999000D01*
X12525000Y-10950200D02*
X12555000Y-10980200D01*
X12555000Y-10950200D02*
X12525000Y-10980200D01*
X12525000Y-11102600D02*
X12555000Y-11132600D01*
X12555000Y-11102600D02*
X12525000Y-11132600D01*
X12525000Y-11255000D02*
X12555000Y-11285000D01*
X12555000Y-11255000D02*
X12525000Y-11285000D01*
X12525000Y-11407400D02*
X12555000Y-11437400D01*
X12555000Y-11407400D02*
X12525000Y-11437400D01*
X12525000Y-11559800D02*
X12555000Y-11589800D01*
X12555000Y-11559800D02*
X12525000Y-11589800D01*
X12677400Y-10950200D02*
X12707400Y-10980200D01*
X12707400Y-10950200D02*
X12677400Y-10980200D01*
X12677400Y-11102600D02*
X12707400Y-11132600D01*
X12707400Y-11102600D02*
X12677400Y-11132600D01*
X12677400Y-11255000D02*
X12707400Y-11285000D01*
X12707400Y-11255000D02*
X12677400Y-11285000D01*
X12677400Y-11407400D02*
X12707400Y-11437400D01*
X12707400Y-11407400D02*
X12677400Y-11437400D01*
X12698172Y-17396316D02*
X12728172Y-17426316D01*
X12728172Y-17396316D02*
X12698172Y-17426316D01*
X12702800Y-16777800D02*
X12732800Y-16807800D01*
X12732800Y-16777800D02*
X12702800Y-16807800D01*
X12702800Y-17147800D02*
X12732800Y-17177800D01*
X12732800Y-17147800D02*
X12702800Y-17177800D01*
X12724373Y-7735331D02*
X12754373Y-7765331D01*
X12754373Y-7735331D02*
X12724373Y-7765331D01*
X12759750Y-13979109D02*
X12789750Y-14009109D01*
X12789750Y-13979109D02*
X12759750Y-14009109D01*
X12880600Y-14099800D02*
X12910600Y-14129800D01*
X12910600Y-14099800D02*
X12880600Y-14129800D01*
X13247200Y-14861800D02*
X13277200Y-14891800D01*
X13277200Y-14861800D02*
X13247200Y-14891800D01*
X13481536Y-14370878D02*
X13511536Y-14400878D01*
X13511536Y-14370878D02*
X13481536Y-14400878D01*
X13591800Y-16335000D02*
X13621800Y-16365000D01*
X13621800Y-16335000D02*
X13591800Y-16365000D01*
X13617200Y-14861800D02*
X13647200Y-14891800D01*
X13647200Y-14861800D02*
X13617200Y-14891800D01*
X13644627Y-7734246D02*
X13674627Y-7764246D01*
X13674627Y-7734246D02*
X13644627Y-7764246D01*
X13693400Y-16233400D02*
X13723400Y-16263400D01*
X13723400Y-16233400D02*
X13693400Y-16263400D01*
X13795000Y-9289800D02*
X13825000Y-9319800D01*
X13825000Y-9289800D02*
X13795000Y-9319800D01*
X13820698Y-14850697D02*
X13850698Y-14880697D01*
X13850698Y-14850697D02*
X13820698Y-14880697D01*
X13890945Y-11261081D02*
X13920945Y-11291081D01*
X13920945Y-11261081D02*
X13890945Y-11291081D01*
X13919000Y-8251252D02*
X13949000Y-8281252D01*
X13949000Y-8251252D02*
X13919000Y-8281252D01*
X14049000Y-8511800D02*
X14079000Y-8541800D01*
X14079000Y-8511800D02*
X14049000Y-8541800D01*
X14150600Y-9019800D02*
X14180600Y-9049800D01*
X14180600Y-9019800D02*
X14150600Y-9049800D01*
X14150600Y-9129800D02*
X14180600Y-9159800D01*
X14180600Y-9129800D02*
X14150600Y-9159800D01*
X14164859Y-8613344D02*
X14194859Y-8643344D01*
X14194859Y-8613344D02*
X14164859Y-8643344D01*
X14404600Y-9121400D02*
X14434600Y-9151400D01*
X14434600Y-9121400D02*
X14404600Y-9151400D01*
X14498000Y-6792800D02*
X14528000Y-6822800D01*
X14528000Y-6792800D02*
X14498000Y-6822800D01*
X15430699Y-8902304D02*
X15460699Y-8932304D01*
X15460699Y-8902304D02*
X15430699Y-8932304D01*
X15515301Y-6247898D02*
X15545301Y-6277898D01*
X15545301Y-6247898D02*
X15515301Y-6277898D01*
X15535967Y-6737157D02*
X15565967Y-6767157D01*
X15565967Y-6737157D02*
X15535967Y-6767157D01*
X15593302Y-15831018D02*
X15623302Y-15861018D01*
X15623302Y-15831018D02*
X15593302Y-15861018D01*
X15593750Y-8605114D02*
X15623750Y-8635114D01*
X15623750Y-8605114D02*
X15593750Y-8635114D01*
X16072100Y-15723800D02*
X16102100Y-15753800D01*
X16102100Y-15723800D02*
X16072100Y-15753800D01*
X16530963Y-15621987D02*
X16560963Y-15651987D01*
X16560963Y-15621987D02*
X16530963Y-15651987D01*
X10800793Y-9077593D02*
G75*
G03*
X10750793Y-9077593I-25000J0D01*
G01*
X10750793Y-9077593D02*
G75*
G03*
X10800793Y-9077593I25000J0D01*
G01*
X10800793Y-9872593D02*
G75*
G03*
X10750793Y-9872593I-25000J0D01*
G01*
X10750793Y-9872593D02*
G75*
G03*
X10800793Y-9872593I25000J0D01*
G01*
X11250793Y-9077593D02*
G75*
G03*
X11200793Y-9077593I-25000J0D01*
G01*
X11200793Y-9077593D02*
G75*
G03*
X11250793Y-9077593I25000J0D01*
G01*
X11250793Y-9872593D02*
G75*
G03*
X11200793Y-9872593I-25000J0D01*
G01*
X11200793Y-9872593D02*
G75*
G03*
X11250793Y-9872593I25000J0D01*
G01*
X15315760Y-9098650D02*
G75*
G03*
X15265760Y-9098650I-25000J0D01*
G01*
X15265760Y-9098650D02*
G75*
G03*
X15315760Y-9098650I25000J0D01*
G01*
X15315760Y-9893650D02*
G75*
G03*
X15265760Y-9893650I-25000J0D01*
G01*
X15265760Y-9893650D02*
G75*
G03*
X15315760Y-9893650I25000J0D01*
G01*
X15765760Y-9098650D02*
G75*
G03*
X15715760Y-9098650I-25000J0D01*
G01*
X15715760Y-9098650D02*
G75*
G03*
X15765760Y-9098650I25000J0D01*
G01*
X15765760Y-9893650D02*
G75*
G03*
X15715760Y-9893650I-25000J0D01*
G01*
X15715760Y-9893650D02*
G75*
G03*
X15765760Y-9893650I25000J0D01*
G01*
X11634717Y-8818000D02*
X11634717Y-8898000D01*
X11594717Y-8858000D02*
X11674717Y-8858000D01*
X11634717Y-9580000D02*
X11634717Y-9660000D01*
X11594717Y-9620000D02*
X11674717Y-9620000D01*
X11888717Y-8818000D02*
X11888717Y-8898000D01*
X11848717Y-8858000D02*
X11928717Y-8858000D01*
X11888717Y-9580000D02*
X11888717Y-9660000D01*
X11848717Y-9620000D02*
X11928717Y-9620000D01*
X12142717Y-8818000D02*
X12142717Y-8898000D01*
X12102717Y-8858000D02*
X12182717Y-8858000D01*
X12142717Y-9580000D02*
X12142717Y-9660000D01*
X12102717Y-9620000D02*
X12182717Y-9620000D01*
X12396717Y-8818000D02*
X12396717Y-8898000D01*
X12356717Y-8858000D02*
X12436717Y-8858000D01*
X12396717Y-9580000D02*
X12396717Y-9660000D01*
X12356717Y-9620000D02*
X12436717Y-9620000D01*
X12650717Y-8818000D02*
X12650717Y-8898000D01*
X12610717Y-8858000D02*
X12690717Y-8858000D01*
X12650717Y-9580000D02*
X12650717Y-9660000D01*
X12610717Y-9620000D02*
X12690717Y-9620000D01*
X12904717Y-8818000D02*
X12904717Y-8898000D01*
X12864717Y-8858000D02*
X12944717Y-8858000D01*
X12904717Y-9580000D02*
X12904717Y-9660000D01*
X12864717Y-9620000D02*
X12944717Y-9620000D01*
X12962806Y-8172572D02*
X12962806Y-8252572D01*
X12922806Y-8212572D02*
X13002806Y-8212572D01*
X13158717Y-8818000D02*
X13158717Y-8898000D01*
X13118717Y-8858000D02*
X13198717Y-8858000D01*
X13158717Y-9580000D02*
X13158717Y-9660000D01*
X13118717Y-9620000D02*
X13198717Y-9620000D01*
X13412717Y-8818000D02*
X13412717Y-8898000D01*
X13372717Y-8858000D02*
X13452717Y-8858000D01*
X13412717Y-9580000D02*
X13412717Y-9660000D01*
X13372717Y-9620000D02*
X13452717Y-9620000D01*
X13450806Y-8172572D02*
X13450806Y-8252572D01*
X13410806Y-8212572D02*
X13490806Y-8212572D01*
X13666717Y-8818000D02*
X13666717Y-8898000D01*
X13626717Y-8858000D02*
X13706717Y-8858000D01*
X13666717Y-9580000D02*
X13666717Y-9660000D01*
X13626717Y-9620000D02*
X13706717Y-9620000D01*
X13920717Y-8818000D02*
X13920717Y-8898000D01*
X13880717Y-8858000D02*
X13960717Y-8858000D01*
X13920717Y-9580000D02*
X13920717Y-9660000D01*
X13880717Y-9620000D02*
X13960717Y-9620000D01*
X14174717Y-8818000D02*
X14174717Y-8898000D01*
X14134717Y-8858000D02*
X14214717Y-8858000D01*
X14174717Y-9580000D02*
X14174717Y-9660000D01*
X14134717Y-9620000D02*
X14214717Y-9620000D01*
X14428717Y-8818000D02*
X14428717Y-8898000D01*
X14388717Y-8858000D02*
X14468717Y-8858000D01*
X14428717Y-9580000D02*
X14428717Y-9660000D01*
X14388717Y-9620000D02*
X14468717Y-9620000D01*
X14682717Y-8818000D02*
X14682717Y-8898000D01*
X14642717Y-8858000D02*
X14722717Y-8858000D01*
X14682717Y-9580000D02*
X14682717Y-9660000D01*
X14642717Y-9620000D02*
X14722717Y-9620000D01*
X14936717Y-8818000D02*
X14936717Y-8898000D01*
X14896717Y-8858000D02*
X14976717Y-8858000D01*
X14936717Y-9580000D02*
X14936717Y-9660000D01*
X14896717Y-9620000D02*
X14976717Y-9620000D01*
X10390956Y-11712756D02*
X10390956Y-11642044D01*
X10320244Y-11642044D01*
X10320244Y-11712756D01*
X10390956Y-11712756D01*
X10390956Y-11966756D02*
X10390956Y-11896044D01*
X10320244Y-11896044D01*
X10320244Y-11966756D01*
X10390956Y-11966756D01*
X10795728Y-8420501D02*
X10795728Y-8349789D01*
X10725017Y-8349789D01*
X10725017Y-8420501D01*
X10795728Y-8420501D01*
X10798856Y-8051656D02*
X10798856Y-7980944D01*
X10728144Y-7980944D01*
X10728144Y-8051656D01*
X10798856Y-8051656D01*
X10872356Y-7258356D02*
X10872356Y-7187644D01*
X10801644Y-7187644D01*
X10801644Y-7258356D01*
X10872356Y-7258356D01*
X10872356Y-7512356D02*
X10872356Y-7441644D01*
X10801644Y-7441644D01*
X10801644Y-7512356D01*
X10872356Y-7512356D01*
X10924356Y-16842556D02*
X10924356Y-16771844D01*
X10853644Y-16771844D01*
X10853644Y-16842556D01*
X10924356Y-16842556D01*
X10924356Y-17096556D02*
X10924356Y-17025844D01*
X10853644Y-17025844D01*
X10853644Y-17096556D01*
X10924356Y-17096556D01*
X10924356Y-17350556D02*
X10924356Y-17279844D01*
X10853644Y-17279844D01*
X10853644Y-17350556D01*
X10924356Y-17350556D01*
X11049728Y-8420501D02*
X11049728Y-8349789D01*
X10979017Y-8349789D01*
X10979017Y-8420501D01*
X11049728Y-8420501D01*
X11052856Y-8051656D02*
X11052856Y-7980944D01*
X10982144Y-7980944D01*
X10982144Y-8051656D01*
X11052856Y-8051656D01*
X11126356Y-7258356D02*
X11126356Y-7187644D01*
X11055644Y-7187644D01*
X11055644Y-7258356D01*
X11126356Y-7258356D01*
X11126356Y-7512356D02*
X11126356Y-7441644D01*
X11055644Y-7441644D01*
X11055644Y-7512356D01*
X11126356Y-7512356D01*
X11303728Y-8420501D02*
X11303728Y-8349789D01*
X11233017Y-8349789D01*
X11233017Y-8420501D01*
X11303728Y-8420501D01*
X11306856Y-8051656D02*
X11306856Y-7980944D01*
X11236144Y-7980944D01*
X11236144Y-8051656D01*
X11306856Y-8051656D01*
X11380356Y-7258356D02*
X11380356Y-7187644D01*
X11309644Y-7187644D01*
X11309644Y-7258356D01*
X11380356Y-7258356D01*
X11380356Y-7512356D02*
X11380356Y-7441644D01*
X11309644Y-7441644D01*
X11309644Y-7512356D01*
X11380356Y-7512356D01*
X11634356Y-7258356D02*
X11634356Y-7187644D01*
X11563644Y-7187644D01*
X11563644Y-7258356D01*
X11634356Y-7258356D01*
X11634356Y-7512356D02*
X11634356Y-7441644D01*
X11563644Y-7441644D01*
X11563644Y-7512356D01*
X11634356Y-7512356D01*
X11813356Y-6377756D02*
X11813356Y-6307044D01*
X11742644Y-6307044D01*
X11742644Y-6377756D01*
X11813356Y-6377756D01*
X11813356Y-6631756D02*
X11813356Y-6561044D01*
X11742644Y-6561044D01*
X11742644Y-6631756D01*
X11813356Y-6631756D01*
X11813356Y-6885756D02*
X11813356Y-6815044D01*
X11742644Y-6815044D01*
X11742644Y-6885756D01*
X11813356Y-6885756D01*
X11888356Y-7258356D02*
X11888356Y-7187644D01*
X11817644Y-7187644D01*
X11817644Y-7258356D01*
X11888356Y-7258356D01*
X11888356Y-7512356D02*
X11888356Y-7441644D01*
X11817644Y-7441644D01*
X11817644Y-7512356D01*
X11888356Y-7512356D01*
X12142356Y-7258356D02*
X12142356Y-7187644D01*
X12071644Y-7187644D01*
X12071644Y-7258356D01*
X12142356Y-7258356D01*
X12142356Y-7512356D02*
X12142356Y-7441644D01*
X12071644Y-7441644D01*
X12071644Y-7512356D01*
X12142356Y-7512356D01*
X12396356Y-7258356D02*
X12396356Y-7187644D01*
X12325644Y-7187644D01*
X12325644Y-7258356D01*
X12396356Y-7258356D01*
X12396356Y-7512356D02*
X12396356Y-7441644D01*
X12325644Y-7441644D01*
X12325644Y-7512356D01*
X12396356Y-7512356D01*
X12650356Y-7258356D02*
X12650356Y-7187644D01*
X12579644Y-7187644D01*
X12579644Y-7258356D01*
X12650356Y-7258356D01*
X12650356Y-7512356D02*
X12650356Y-7441644D01*
X12579644Y-7441644D01*
X12579644Y-7512356D01*
X12650356Y-7512356D01*
X12904356Y-7258356D02*
X12904356Y-7187644D01*
X12833644Y-7187644D01*
X12833644Y-7258356D01*
X12904356Y-7258356D01*
X12904356Y-7512356D02*
X12904356Y-7441644D01*
X12833644Y-7441644D01*
X12833644Y-7512356D01*
X12904356Y-7512356D01*
X13158356Y-7258356D02*
X13158356Y-7187644D01*
X13087644Y-7187644D01*
X13087644Y-7258356D01*
X13158356Y-7258356D01*
X13158356Y-7512356D02*
X13158356Y-7441644D01*
X13087644Y-7441644D01*
X13087644Y-7512356D01*
X13158356Y-7512356D01*
X13258656Y-13948456D02*
X13258656Y-13877744D01*
X13187944Y-13877744D01*
X13187944Y-13948456D01*
X13258656Y-13948456D01*
X13258656Y-14202456D02*
X13258656Y-14131744D01*
X13187944Y-14131744D01*
X13187944Y-14202456D01*
X13258656Y-14202456D01*
X13258656Y-14456456D02*
X13258656Y-14385744D01*
X13187944Y-14385744D01*
X13187944Y-14456456D01*
X13258656Y-14456456D01*
X13412356Y-7258356D02*
X13412356Y-7187644D01*
X13341644Y-7187644D01*
X13341644Y-7258356D01*
X13412356Y-7258356D01*
X13412356Y-7512356D02*
X13412356Y-7441644D01*
X13341644Y-7441644D01*
X13341644Y-7512356D01*
X13412356Y-7512356D01*
X13666356Y-7258356D02*
X13666356Y-7187644D01*
X13595644Y-7187644D01*
X13595644Y-7258356D01*
X13666356Y-7258356D01*
X13666356Y-7512356D02*
X13666356Y-7441644D01*
X13595644Y-7441644D01*
X13595644Y-7512356D01*
X13666356Y-7512356D01*
X13920356Y-7258356D02*
X13920356Y-7187644D01*
X13849644Y-7187644D01*
X13849644Y-7258356D01*
X13920356Y-7258356D01*
X13920356Y-7512356D02*
X13920356Y-7441644D01*
X13849644Y-7441644D01*
X13849644Y-7512356D01*
X13920356Y-7512356D01*
X14174356Y-7258356D02*
X14174356Y-7187644D01*
X14103644Y-7187644D01*
X14103644Y-7258356D01*
X14174356Y-7258356D01*
X14174356Y-7512356D02*
X14174356Y-7441644D01*
X14103644Y-7441644D01*
X14103644Y-7512356D01*
X14174356Y-7512356D01*
X14252204Y-6377756D02*
X14252204Y-6307044D01*
X14181493Y-6307044D01*
X14181493Y-6377756D01*
X14252204Y-6377756D01*
X14252204Y-6631756D02*
X14252204Y-6561044D01*
X14181493Y-6561044D01*
X14181493Y-6631756D01*
X14252204Y-6631756D01*
X14252204Y-6885756D02*
X14252204Y-6815044D01*
X14181493Y-6815044D01*
X14181493Y-6885756D01*
X14252204Y-6885756D01*
X14428356Y-7258356D02*
X14428356Y-7187644D01*
X14357644Y-7187644D01*
X14357644Y-7258356D01*
X14428356Y-7258356D01*
X14428356Y-7512356D02*
X14428356Y-7441644D01*
X14357644Y-7441644D01*
X14357644Y-7512356D01*
X14428356Y-7512356D01*
X14599224Y-15615224D02*
X14599224Y-15544512D01*
X14528512Y-15544512D01*
X14528512Y-15615224D01*
X14599224Y-15615224D01*
X14599224Y-15869224D02*
X14599224Y-15798512D01*
X14528512Y-15798512D01*
X14528512Y-15869224D01*
X14599224Y-15869224D01*
X14599224Y-16123224D02*
X14599224Y-16052512D01*
X14528512Y-16052512D01*
X14528512Y-16123224D01*
X14599224Y-16123224D01*
X14682356Y-7258356D02*
X14682356Y-7187644D01*
X14611644Y-7187644D01*
X14611644Y-7258356D01*
X14682356Y-7258356D01*
X14682356Y-7512356D02*
X14682356Y-7441644D01*
X14611644Y-7441644D01*
X14611644Y-7512356D01*
X14682356Y-7512356D01*
X14936356Y-7258356D02*
X14936356Y-7187644D01*
X14865644Y-7187644D01*
X14865644Y-7258356D01*
X14936356Y-7258356D01*
X14936356Y-7512356D02*
X14936356Y-7441644D01*
X14865644Y-7441644D01*
X14865644Y-7512356D01*
X14936356Y-7512356D01*
X15115356Y-6632756D02*
X15115356Y-6562044D01*
X15044644Y-6562044D01*
X15044644Y-6632756D01*
X15115356Y-6632756D01*
X15115356Y-6886756D02*
X15115356Y-6816044D01*
X15044644Y-6816044D01*
X15044644Y-6886756D01*
X15115356Y-6886756D01*
X15190356Y-7258356D02*
X15190356Y-7187644D01*
X15119644Y-7187644D01*
X15119644Y-7258356D01*
X15190356Y-7258356D01*
X15190356Y-7512356D02*
X15190356Y-7441644D01*
X15119644Y-7441644D01*
X15119644Y-7512356D01*
X15190356Y-7512356D01*
X15444356Y-7258356D02*
X15444356Y-7187644D01*
X15373644Y-7187644D01*
X15373644Y-7258356D01*
X15444356Y-7258356D01*
X15444356Y-7512356D02*
X15444356Y-7441644D01*
X15373644Y-7441644D01*
X15373644Y-7512356D01*
X15444356Y-7512356D01*
X15698356Y-7258356D02*
X15698356Y-7187644D01*
X15627644Y-7187644D01*
X15627644Y-7258356D01*
X15698356Y-7258356D01*
X15698356Y-7512356D02*
X15698356Y-7441644D01*
X15627644Y-7441644D01*
X15627644Y-7512356D01*
X15698356Y-7512356D01*
X15837626Y-6373899D02*
X15837626Y-6303187D01*
X15766915Y-6303187D01*
X15766915Y-6373899D01*
X15837626Y-6373899D01*
X15837626Y-6627899D02*
X15837626Y-6557187D01*
X15766915Y-6557187D01*
X15766915Y-6627899D01*
X15837626Y-6627899D01*
X15837626Y-6881899D02*
X15837626Y-6811187D01*
X15766915Y-6811187D01*
X15766915Y-6881899D01*
X15837626Y-6881899D01*
X16339059Y-8511356D02*
X16339059Y-8440644D01*
X16268347Y-8440644D01*
X16268347Y-8511356D01*
X16339059Y-8511356D01*
X16339059Y-8765356D02*
X16339059Y-8694644D01*
X16268347Y-8694644D01*
X16268347Y-8765356D01*
X16339059Y-8765356D01*
X16351483Y-11858184D02*
X16351483Y-11787473D01*
X16280772Y-11787473D01*
X16280772Y-11858184D01*
X16351483Y-11858184D01*
X16351483Y-12112184D02*
X16351483Y-12041473D01*
X16280772Y-12041473D01*
X16280772Y-12112184D01*
X16351483Y-12112184D01*
X17410956Y-15668306D02*
X17410956Y-15597594D01*
X17340244Y-15597594D01*
X17340244Y-15668306D01*
X17410956Y-15668306D01*
X17425600Y-15732950D02*
X17425600Y-15532950D01*
X17425600Y-15532950D02*
G75*
G03*
X17325600Y-15532950I-50000J0D01*
G01*
X17325600Y-15532950D02*
X17325600Y-15732950D01*
X17325600Y-15732950D02*
G75*
G03*
X17425600Y-15732950I50000J0D01*
G01*
X17710956Y-15198306D02*
X17710956Y-15127594D01*
X17640244Y-15127594D01*
X17640244Y-15198306D01*
X17710956Y-15198306D01*
X17775600Y-15112950D02*
X17575600Y-15112950D01*
X17575600Y-15112950D02*
G75*
G03*
X17575600Y-15212950I0J-50000D01*
G01*
X17575600Y-15212950D02*
X17775600Y-15212950D01*
X17775600Y-15212950D02*
G75*
G03*
X17775600Y-15112950I0J50000D01*
G01*
X18010956Y-15668306D02*
X18010956Y-15597594D01*
X17940244Y-15597594D01*
X17940244Y-15668306D01*
X18010956Y-15668306D01*
X18025600Y-15732950D02*
X18025600Y-15532950D01*
X18025600Y-15532950D02*
G75*
G03*
X17925600Y-15532950I-50000J0D01*
G01*
X17925600Y-15532950D02*
X17925600Y-15732950D01*
X17925600Y-15732950D02*
G75*
G03*
X18025600Y-15732950I50000J0D01*
G01*
D12*
X10255777Y-17990616D02*
X10255777Y-17790616D01*
X10255777Y-17790616D02*
X10303396Y-17790616D01*
X10303396Y-17790616D02*
X10331967Y-17800140D01*
X10331967Y-17800140D02*
X10351015Y-17819187D01*
X10351015Y-17819187D02*
X10360539Y-17838235D01*
X10360539Y-17838235D02*
X10370063Y-17876330D01*
X10370063Y-17876330D02*
X10370063Y-17904902D01*
X10370063Y-17904902D02*
X10360539Y-17942997D01*
X10360539Y-17942997D02*
X10351015Y-17962044D01*
X10351015Y-17962044D02*
X10331967Y-17981092D01*
X10331967Y-17981092D02*
X10303396Y-17990616D01*
X10303396Y-17990616D02*
X10255777Y-17990616D01*
X10455777Y-17990616D02*
X10455777Y-17857282D01*
X10455777Y-17895378D02*
X10465301Y-17876330D01*
X10465301Y-17876330D02*
X10474824Y-17866806D01*
X10474824Y-17866806D02*
X10493872Y-17857282D01*
X10493872Y-17857282D02*
X10512920Y-17857282D01*
X10579586Y-17990616D02*
X10579586Y-17857282D01*
X10579586Y-17790616D02*
X10570063Y-17800140D01*
X10570063Y-17800140D02*
X10579586Y-17809663D01*
X10579586Y-17809663D02*
X10589110Y-17800140D01*
X10589110Y-17800140D02*
X10579586Y-17790616D01*
X10579586Y-17790616D02*
X10579586Y-17809663D01*
X10703396Y-17990616D02*
X10684348Y-17981092D01*
X10684348Y-17981092D02*
X10674824Y-17962044D01*
X10674824Y-17962044D02*
X10674824Y-17790616D01*
X10808158Y-17990616D02*
X10789110Y-17981092D01*
X10789110Y-17981092D02*
X10779586Y-17962044D01*
X10779586Y-17962044D02*
X10779586Y-17790616D01*
X11036729Y-17990616D02*
X11036729Y-17790616D01*
X11036729Y-17790616D02*
X11103396Y-17933473D01*
X11103396Y-17933473D02*
X11170063Y-17790616D01*
X11170063Y-17790616D02*
X11170063Y-17990616D01*
X11351015Y-17990616D02*
X11351015Y-17885854D01*
X11351015Y-17885854D02*
X11341491Y-17866806D01*
X11341491Y-17866806D02*
X11322443Y-17857282D01*
X11322443Y-17857282D02*
X11284348Y-17857282D01*
X11284348Y-17857282D02*
X11265301Y-17866806D01*
X11351015Y-17981092D02*
X11331967Y-17990616D01*
X11331967Y-17990616D02*
X11284348Y-17990616D01*
X11284348Y-17990616D02*
X11265301Y-17981092D01*
X11265301Y-17981092D02*
X11255777Y-17962044D01*
X11255777Y-17962044D02*
X11255777Y-17942997D01*
X11255777Y-17942997D02*
X11265301Y-17923949D01*
X11265301Y-17923949D02*
X11284348Y-17914425D01*
X11284348Y-17914425D02*
X11331967Y-17914425D01*
X11331967Y-17914425D02*
X11351015Y-17904902D01*
X11446253Y-17857282D02*
X11446253Y-18057282D01*
X11446253Y-17866806D02*
X11465301Y-17857282D01*
X11465301Y-17857282D02*
X11503396Y-17857282D01*
X11503396Y-17857282D02*
X11522443Y-17866806D01*
X11522443Y-17866806D02*
X11531967Y-17876330D01*
X11531967Y-17876330D02*
X11541491Y-17895378D01*
X11541491Y-17895378D02*
X11541491Y-17952521D01*
X11541491Y-17952521D02*
X11531967Y-17971568D01*
X11531967Y-17971568D02*
X11522443Y-17981092D01*
X11522443Y-17981092D02*
X11503396Y-17990616D01*
X11503396Y-17990616D02*
X11465301Y-17990616D01*
X11465301Y-17990616D02*
X11446253Y-17981092D01*
X11627205Y-17971568D02*
X11636729Y-17981092D01*
X11636729Y-17981092D02*
X11627205Y-17990616D01*
X11627205Y-17990616D02*
X11617682Y-17981092D01*
X11617682Y-17981092D02*
X11627205Y-17971568D01*
X11627205Y-17971568D02*
X11627205Y-17990616D01*
X11627205Y-17866806D02*
X11636729Y-17876330D01*
X11636729Y-17876330D02*
X11627205Y-17885854D01*
X11627205Y-17885854D02*
X11617682Y-17876330D01*
X11617682Y-17876330D02*
X11627205Y-17866806D01*
X11627205Y-17866806D02*
X11627205Y-17885854D01*
D11*
X9965000Y-18304132D02*
X9995000Y-18334132D01*
X9995000Y-18304132D02*
X9965000Y-18334132D01*
D12*
X10293872Y-18210616D02*
X10312920Y-18210616D01*
X10312920Y-18210616D02*
X10331967Y-18220140D01*
X10331967Y-18220140D02*
X10341491Y-18229663D01*
X10341491Y-18229663D02*
X10351015Y-18248711D01*
X10351015Y-18248711D02*
X10360539Y-18286806D01*
X10360539Y-18286806D02*
X10360539Y-18334425D01*
X10360539Y-18334425D02*
X10351015Y-18372521D01*
X10351015Y-18372521D02*
X10341491Y-18391568D01*
X10341491Y-18391568D02*
X10331967Y-18401092D01*
X10331967Y-18401092D02*
X10312920Y-18410616D01*
X10312920Y-18410616D02*
X10293872Y-18410616D01*
X10293872Y-18410616D02*
X10274824Y-18401092D01*
X10274824Y-18401092D02*
X10265301Y-18391568D01*
X10265301Y-18391568D02*
X10255777Y-18372521D01*
X10255777Y-18372521D02*
X10246253Y-18334425D01*
X10246253Y-18334425D02*
X10246253Y-18286806D01*
X10246253Y-18286806D02*
X10255777Y-18248711D01*
X10255777Y-18248711D02*
X10265301Y-18229663D01*
X10265301Y-18229663D02*
X10274824Y-18220140D01*
X10274824Y-18220140D02*
X10293872Y-18210616D01*
X10446253Y-18391568D02*
X10455777Y-18401092D01*
X10455777Y-18401092D02*
X10446253Y-18410616D01*
X10446253Y-18410616D02*
X10436729Y-18401092D01*
X10436729Y-18401092D02*
X10446253Y-18391568D01*
X10446253Y-18391568D02*
X10446253Y-18410616D01*
X10522444Y-18210616D02*
X10646253Y-18210616D01*
X10646253Y-18210616D02*
X10579586Y-18286806D01*
X10579586Y-18286806D02*
X10608158Y-18286806D01*
X10608158Y-18286806D02*
X10627205Y-18296330D01*
X10627205Y-18296330D02*
X10636729Y-18305854D01*
X10636729Y-18305854D02*
X10646253Y-18324902D01*
X10646253Y-18324902D02*
X10646253Y-18372521D01*
X10646253Y-18372521D02*
X10636729Y-18391568D01*
X10636729Y-18391568D02*
X10627205Y-18401092D01*
X10627205Y-18401092D02*
X10608158Y-18410616D01*
X10608158Y-18410616D02*
X10551015Y-18410616D01*
X10551015Y-18410616D02*
X10531967Y-18401092D01*
X10531967Y-18401092D02*
X10522444Y-18391568D01*
X10770063Y-18210616D02*
X10789110Y-18210616D01*
X10789110Y-18210616D02*
X10808158Y-18220140D01*
X10808158Y-18220140D02*
X10817682Y-18229663D01*
X10817682Y-18229663D02*
X10827205Y-18248711D01*
X10827205Y-18248711D02*
X10836729Y-18286806D01*
X10836729Y-18286806D02*
X10836729Y-18334425D01*
X10836729Y-18334425D02*
X10827205Y-18372521D01*
X10827205Y-18372521D02*
X10817682Y-18391568D01*
X10817682Y-18391568D02*
X10808158Y-18401092D01*
X10808158Y-18401092D02*
X10789110Y-18410616D01*
X10789110Y-18410616D02*
X10770063Y-18410616D01*
X10770063Y-18410616D02*
X10751015Y-18401092D01*
X10751015Y-18401092D02*
X10741491Y-18391568D01*
X10741491Y-18391568D02*
X10731967Y-18372521D01*
X10731967Y-18372521D02*
X10722444Y-18334425D01*
X10722444Y-18334425D02*
X10722444Y-18286806D01*
X10722444Y-18286806D02*
X10731967Y-18248711D01*
X10731967Y-18248711D02*
X10741491Y-18229663D01*
X10741491Y-18229663D02*
X10751015Y-18220140D01*
X10751015Y-18220140D02*
X10770063Y-18210616D01*
X10960539Y-18210616D02*
X10979586Y-18210616D01*
X10979586Y-18210616D02*
X10998634Y-18220140D01*
X10998634Y-18220140D02*
X11008158Y-18229663D01*
X11008158Y-18229663D02*
X11017682Y-18248711D01*
X11017682Y-18248711D02*
X11027205Y-18286806D01*
X11027205Y-18286806D02*
X11027205Y-18334425D01*
X11027205Y-18334425D02*
X11017682Y-18372521D01*
X11017682Y-18372521D02*
X11008158Y-18391568D01*
X11008158Y-18391568D02*
X10998634Y-18401092D01*
X10998634Y-18401092D02*
X10979586Y-18410616D01*
X10979586Y-18410616D02*
X10960539Y-18410616D01*
X10960539Y-18410616D02*
X10941491Y-18401092D01*
X10941491Y-18401092D02*
X10931967Y-18391568D01*
X10931967Y-18391568D02*
X10922444Y-18372521D01*
X10922444Y-18372521D02*
X10912920Y-18334425D01*
X10912920Y-18334425D02*
X10912920Y-18286806D01*
X10912920Y-18286806D02*
X10922444Y-18248711D01*
X10922444Y-18248711D02*
X10931967Y-18229663D01*
X10931967Y-18229663D02*
X10941491Y-18220140D01*
X10941491Y-18220140D02*
X10960539Y-18210616D01*
X11112920Y-18410616D02*
X11112920Y-18277282D01*
X11112920Y-18296330D02*
X11122444Y-18286806D01*
X11122444Y-18286806D02*
X11141491Y-18277282D01*
X11141491Y-18277282D02*
X11170063Y-18277282D01*
X11170063Y-18277282D02*
X11189110Y-18286806D01*
X11189110Y-18286806D02*
X11198634Y-18305854D01*
X11198634Y-18305854D02*
X11198634Y-18410616D01*
X11198634Y-18305854D02*
X11208158Y-18286806D01*
X11208158Y-18286806D02*
X11227205Y-18277282D01*
X11227205Y-18277282D02*
X11255777Y-18277282D01*
X11255777Y-18277282D02*
X11274824Y-18286806D01*
X11274824Y-18286806D02*
X11284348Y-18305854D01*
X11284348Y-18305854D02*
X11284348Y-18410616D01*
X11379586Y-18410616D02*
X11379586Y-18277282D01*
X11379586Y-18296330D02*
X11389110Y-18286806D01*
X11389110Y-18286806D02*
X11408158Y-18277282D01*
X11408158Y-18277282D02*
X11436729Y-18277282D01*
X11436729Y-18277282D02*
X11455777Y-18286806D01*
X11455777Y-18286806D02*
X11465301Y-18305854D01*
X11465301Y-18305854D02*
X11465301Y-18410616D01*
X11465301Y-18305854D02*
X11474824Y-18286806D01*
X11474824Y-18286806D02*
X11493872Y-18277282D01*
X11493872Y-18277282D02*
X11522443Y-18277282D01*
X11522443Y-18277282D02*
X11541491Y-18286806D01*
X11541491Y-18286806D02*
X11551015Y-18305854D01*
X11551015Y-18305854D02*
X11551015Y-18410616D01*
X11941491Y-18201092D02*
X11770063Y-18458235D01*
X12198634Y-18210616D02*
X12217682Y-18210616D01*
X12217682Y-18210616D02*
X12236729Y-18220140D01*
X12236729Y-18220140D02*
X12246253Y-18229663D01*
X12246253Y-18229663D02*
X12255777Y-18248711D01*
X12255777Y-18248711D02*
X12265301Y-18286806D01*
X12265301Y-18286806D02*
X12265301Y-18334425D01*
X12265301Y-18334425D02*
X12255777Y-18372521D01*
X12255777Y-18372521D02*
X12246253Y-18391568D01*
X12246253Y-18391568D02*
X12236729Y-18401092D01*
X12236729Y-18401092D02*
X12217682Y-18410616D01*
X12217682Y-18410616D02*
X12198634Y-18410616D01*
X12198634Y-18410616D02*
X12179586Y-18401092D01*
X12179586Y-18401092D02*
X12170063Y-18391568D01*
X12170063Y-18391568D02*
X12160539Y-18372521D01*
X12160539Y-18372521D02*
X12151015Y-18334425D01*
X12151015Y-18334425D02*
X12151015Y-18286806D01*
X12151015Y-18286806D02*
X12160539Y-18248711D01*
X12160539Y-18248711D02*
X12170063Y-18229663D01*
X12170063Y-18229663D02*
X12179586Y-18220140D01*
X12179586Y-18220140D02*
X12198634Y-18210616D01*
X12351015Y-18391568D02*
X12360539Y-18401092D01*
X12360539Y-18401092D02*
X12351015Y-18410616D01*
X12351015Y-18410616D02*
X12341491Y-18401092D01*
X12341491Y-18401092D02*
X12351015Y-18391568D01*
X12351015Y-18391568D02*
X12351015Y-18410616D01*
X12484348Y-18210616D02*
X12503396Y-18210616D01*
X12503396Y-18210616D02*
X12522444Y-18220140D01*
X12522444Y-18220140D02*
X12531967Y-18229663D01*
X12531967Y-18229663D02*
X12541491Y-18248711D01*
X12541491Y-18248711D02*
X12551015Y-18286806D01*
X12551015Y-18286806D02*
X12551015Y-18334425D01*
X12551015Y-18334425D02*
X12541491Y-18372521D01*
X12541491Y-18372521D02*
X12531967Y-18391568D01*
X12531967Y-18391568D02*
X12522444Y-18401092D01*
X12522444Y-18401092D02*
X12503396Y-18410616D01*
X12503396Y-18410616D02*
X12484348Y-18410616D01*
X12484348Y-18410616D02*
X12465301Y-18401092D01*
X12465301Y-18401092D02*
X12455777Y-18391568D01*
X12455777Y-18391568D02*
X12446253Y-18372521D01*
X12446253Y-18372521D02*
X12436729Y-18334425D01*
X12436729Y-18334425D02*
X12436729Y-18286806D01*
X12436729Y-18286806D02*
X12446253Y-18248711D01*
X12446253Y-18248711D02*
X12455777Y-18229663D01*
X12455777Y-18229663D02*
X12465301Y-18220140D01*
X12465301Y-18220140D02*
X12484348Y-18210616D01*
X12741491Y-18410616D02*
X12627206Y-18410616D01*
X12684348Y-18410616D02*
X12684348Y-18210616D01*
X12684348Y-18210616D02*
X12665301Y-18239187D01*
X12665301Y-18239187D02*
X12646253Y-18258235D01*
X12646253Y-18258235D02*
X12627206Y-18267759D01*
X12931967Y-18410616D02*
X12817682Y-18410616D01*
X12874825Y-18410616D02*
X12874825Y-18210616D01*
X12874825Y-18210616D02*
X12855777Y-18239187D01*
X12855777Y-18239187D02*
X12836729Y-18258235D01*
X12836729Y-18258235D02*
X12817682Y-18267759D01*
X13046253Y-18296330D02*
X13027206Y-18286806D01*
X13027206Y-18286806D02*
X13017682Y-18277282D01*
X13017682Y-18277282D02*
X13008158Y-18258235D01*
X13008158Y-18258235D02*
X13008158Y-18248711D01*
X13008158Y-18248711D02*
X13017682Y-18229663D01*
X13017682Y-18229663D02*
X13027206Y-18220140D01*
X13027206Y-18220140D02*
X13046253Y-18210616D01*
X13046253Y-18210616D02*
X13084348Y-18210616D01*
X13084348Y-18210616D02*
X13103396Y-18220140D01*
X13103396Y-18220140D02*
X13112920Y-18229663D01*
X13112920Y-18229663D02*
X13122444Y-18248711D01*
X13122444Y-18248711D02*
X13122444Y-18258235D01*
X13122444Y-18258235D02*
X13112920Y-18277282D01*
X13112920Y-18277282D02*
X13103396Y-18286806D01*
X13103396Y-18286806D02*
X13084348Y-18296330D01*
X13084348Y-18296330D02*
X13046253Y-18296330D01*
X13046253Y-18296330D02*
X13027206Y-18305854D01*
X13027206Y-18305854D02*
X13017682Y-18315378D01*
X13017682Y-18315378D02*
X13008158Y-18334425D01*
X13008158Y-18334425D02*
X13008158Y-18372521D01*
X13008158Y-18372521D02*
X13017682Y-18391568D01*
X13017682Y-18391568D02*
X13027206Y-18401092D01*
X13027206Y-18401092D02*
X13046253Y-18410616D01*
X13046253Y-18410616D02*
X13084348Y-18410616D01*
X13084348Y-18410616D02*
X13103396Y-18401092D01*
X13103396Y-18401092D02*
X13112920Y-18391568D01*
X13112920Y-18391568D02*
X13122444Y-18372521D01*
X13122444Y-18372521D02*
X13122444Y-18334425D01*
X13122444Y-18334425D02*
X13112920Y-18315378D01*
X13112920Y-18315378D02*
X13103396Y-18305854D01*
X13103396Y-18305854D02*
X13084348Y-18296330D01*
X13198634Y-18210616D02*
X13198634Y-18248711D01*
X13274825Y-18210616D02*
X13274825Y-18248711D01*
X13570063Y-18486806D02*
X13560539Y-18477282D01*
X13560539Y-18477282D02*
X13541491Y-18448711D01*
X13541491Y-18448711D02*
X13531968Y-18429663D01*
X13531968Y-18429663D02*
X13522444Y-18401092D01*
X13522444Y-18401092D02*
X13512920Y-18353473D01*
X13512920Y-18353473D02*
X13512920Y-18315378D01*
X13512920Y-18315378D02*
X13522444Y-18267759D01*
X13522444Y-18267759D02*
X13531968Y-18239187D01*
X13531968Y-18239187D02*
X13541491Y-18220140D01*
X13541491Y-18220140D02*
X13560539Y-18191568D01*
X13560539Y-18191568D02*
X13570063Y-18182044D01*
X13655777Y-18410616D02*
X13693872Y-18410616D01*
X13693872Y-18410616D02*
X13712920Y-18401092D01*
X13712920Y-18401092D02*
X13722444Y-18391568D01*
X13722444Y-18391568D02*
X13741491Y-18362997D01*
X13741491Y-18362997D02*
X13751015Y-18324902D01*
X13751015Y-18324902D02*
X13751015Y-18248711D01*
X13751015Y-18248711D02*
X13741491Y-18229663D01*
X13741491Y-18229663D02*
X13731968Y-18220140D01*
X13731968Y-18220140D02*
X13712920Y-18210616D01*
X13712920Y-18210616D02*
X13674825Y-18210616D01*
X13674825Y-18210616D02*
X13655777Y-18220140D01*
X13655777Y-18220140D02*
X13646253Y-18229663D01*
X13646253Y-18229663D02*
X13636729Y-18248711D01*
X13636729Y-18248711D02*
X13636729Y-18296330D01*
X13636729Y-18296330D02*
X13646253Y-18315378D01*
X13646253Y-18315378D02*
X13655777Y-18324902D01*
X13655777Y-18324902D02*
X13674825Y-18334425D01*
X13674825Y-18334425D02*
X13712920Y-18334425D01*
X13712920Y-18334425D02*
X13731968Y-18324902D01*
X13731968Y-18324902D02*
X13741491Y-18315378D01*
X13741491Y-18315378D02*
X13751015Y-18296330D01*
X13827206Y-18229663D02*
X13836729Y-18220140D01*
X13836729Y-18220140D02*
X13855777Y-18210616D01*
X13855777Y-18210616D02*
X13903396Y-18210616D01*
X13903396Y-18210616D02*
X13922444Y-18220140D01*
X13922444Y-18220140D02*
X13931968Y-18229663D01*
X13931968Y-18229663D02*
X13941491Y-18248711D01*
X13941491Y-18248711D02*
X13941491Y-18267759D01*
X13941491Y-18267759D02*
X13931968Y-18296330D01*
X13931968Y-18296330D02*
X13817682Y-18410616D01*
X13817682Y-18410616D02*
X13941491Y-18410616D01*
X14179587Y-18410616D02*
X14179587Y-18210616D01*
X14265301Y-18410616D02*
X14265301Y-18305854D01*
X14265301Y-18305854D02*
X14255777Y-18286806D01*
X14255777Y-18286806D02*
X14236730Y-18277282D01*
X14236730Y-18277282D02*
X14208158Y-18277282D01*
X14208158Y-18277282D02*
X14189110Y-18286806D01*
X14189110Y-18286806D02*
X14179587Y-18296330D01*
X14389110Y-18410616D02*
X14370063Y-18401092D01*
X14370063Y-18401092D02*
X14360539Y-18391568D01*
X14360539Y-18391568D02*
X14351015Y-18372521D01*
X14351015Y-18372521D02*
X14351015Y-18315378D01*
X14351015Y-18315378D02*
X14360539Y-18296330D01*
X14360539Y-18296330D02*
X14370063Y-18286806D01*
X14370063Y-18286806D02*
X14389110Y-18277282D01*
X14389110Y-18277282D02*
X14417682Y-18277282D01*
X14417682Y-18277282D02*
X14436730Y-18286806D01*
X14436730Y-18286806D02*
X14446253Y-18296330D01*
X14446253Y-18296330D02*
X14455777Y-18315378D01*
X14455777Y-18315378D02*
X14455777Y-18372521D01*
X14455777Y-18372521D02*
X14446253Y-18391568D01*
X14446253Y-18391568D02*
X14436730Y-18401092D01*
X14436730Y-18401092D02*
X14417682Y-18410616D01*
X14417682Y-18410616D02*
X14389110Y-18410616D01*
X14570063Y-18410616D02*
X14551015Y-18401092D01*
X14551015Y-18401092D02*
X14541491Y-18382044D01*
X14541491Y-18382044D02*
X14541491Y-18210616D01*
X14722444Y-18401092D02*
X14703396Y-18410616D01*
X14703396Y-18410616D02*
X14665301Y-18410616D01*
X14665301Y-18410616D02*
X14646253Y-18401092D01*
X14646253Y-18401092D02*
X14636730Y-18382044D01*
X14636730Y-18382044D02*
X14636730Y-18305854D01*
X14636730Y-18305854D02*
X14646253Y-18286806D01*
X14646253Y-18286806D02*
X14665301Y-18277282D01*
X14665301Y-18277282D02*
X14703396Y-18277282D01*
X14703396Y-18277282D02*
X14722444Y-18286806D01*
X14722444Y-18286806D02*
X14731968Y-18305854D01*
X14731968Y-18305854D02*
X14731968Y-18324902D01*
X14731968Y-18324902D02*
X14636730Y-18343949D01*
X14808158Y-18401092D02*
X14827206Y-18410616D01*
X14827206Y-18410616D02*
X14865301Y-18410616D01*
X14865301Y-18410616D02*
X14884349Y-18401092D01*
X14884349Y-18401092D02*
X14893872Y-18382044D01*
X14893872Y-18382044D02*
X14893872Y-18372521D01*
X14893872Y-18372521D02*
X14884349Y-18353473D01*
X14884349Y-18353473D02*
X14865301Y-18343949D01*
X14865301Y-18343949D02*
X14836730Y-18343949D01*
X14836730Y-18343949D02*
X14817682Y-18334425D01*
X14817682Y-18334425D02*
X14808158Y-18315378D01*
X14808158Y-18315378D02*
X14808158Y-18305854D01*
X14808158Y-18305854D02*
X14817682Y-18286806D01*
X14817682Y-18286806D02*
X14836730Y-18277282D01*
X14836730Y-18277282D02*
X14865301Y-18277282D01*
X14865301Y-18277282D02*
X14884349Y-18286806D01*
X14960539Y-18486806D02*
X14970063Y-18477282D01*
X14970063Y-18477282D02*
X14989111Y-18448711D01*
X14989111Y-18448711D02*
X14998634Y-18429663D01*
X14998634Y-18429663D02*
X15008158Y-18401092D01*
X15008158Y-18401092D02*
X15017682Y-18353473D01*
X15017682Y-18353473D02*
X15017682Y-18315378D01*
X15017682Y-18315378D02*
X15008158Y-18267759D01*
X15008158Y-18267759D02*
X14998634Y-18239187D01*
X14998634Y-18239187D02*
X14989111Y-18220140D01*
X14989111Y-18220140D02*
X14970063Y-18191568D01*
X14970063Y-18191568D02*
X14960539Y-18182044D01*
D11*
X9995000Y-18583132D02*
G75*
G03*
X9945000Y-18583132I-25000J0D01*
G01*
X9945000Y-18583132D02*
G75*
G03*
X9995000Y-18583132I25000J0D01*
G01*
D12*
X10293872Y-18474616D02*
X10312920Y-18474616D01*
X10312920Y-18474616D02*
X10331967Y-18484140D01*
X10331967Y-18484140D02*
X10341491Y-18493663D01*
X10341491Y-18493663D02*
X10351015Y-18512711D01*
X10351015Y-18512711D02*
X10360539Y-18550806D01*
X10360539Y-18550806D02*
X10360539Y-18598425D01*
X10360539Y-18598425D02*
X10351015Y-18636521D01*
X10351015Y-18636521D02*
X10341491Y-18655568D01*
X10341491Y-18655568D02*
X10331967Y-18665092D01*
X10331967Y-18665092D02*
X10312920Y-18674616D01*
X10312920Y-18674616D02*
X10293872Y-18674616D01*
X10293872Y-18674616D02*
X10274824Y-18665092D01*
X10274824Y-18665092D02*
X10265301Y-18655568D01*
X10265301Y-18655568D02*
X10255777Y-18636521D01*
X10255777Y-18636521D02*
X10246253Y-18598425D01*
X10246253Y-18598425D02*
X10246253Y-18550806D01*
X10246253Y-18550806D02*
X10255777Y-18512711D01*
X10255777Y-18512711D02*
X10265301Y-18493663D01*
X10265301Y-18493663D02*
X10274824Y-18484140D01*
X10274824Y-18484140D02*
X10293872Y-18474616D01*
X10446253Y-18655568D02*
X10455777Y-18665092D01*
X10455777Y-18665092D02*
X10446253Y-18674616D01*
X10446253Y-18674616D02*
X10436729Y-18665092D01*
X10436729Y-18665092D02*
X10446253Y-18655568D01*
X10446253Y-18655568D02*
X10446253Y-18674616D01*
X10636729Y-18474616D02*
X10541491Y-18474616D01*
X10541491Y-18474616D02*
X10531967Y-18569854D01*
X10531967Y-18569854D02*
X10541491Y-18560330D01*
X10541491Y-18560330D02*
X10560539Y-18550806D01*
X10560539Y-18550806D02*
X10608158Y-18550806D01*
X10608158Y-18550806D02*
X10627205Y-18560330D01*
X10627205Y-18560330D02*
X10636729Y-18569854D01*
X10636729Y-18569854D02*
X10646253Y-18588902D01*
X10646253Y-18588902D02*
X10646253Y-18636521D01*
X10646253Y-18636521D02*
X10636729Y-18655568D01*
X10636729Y-18655568D02*
X10627205Y-18665092D01*
X10627205Y-18665092D02*
X10608158Y-18674616D01*
X10608158Y-18674616D02*
X10560539Y-18674616D01*
X10560539Y-18674616D02*
X10541491Y-18665092D01*
X10541491Y-18665092D02*
X10531967Y-18655568D01*
X10770063Y-18474616D02*
X10789110Y-18474616D01*
X10789110Y-18474616D02*
X10808158Y-18484140D01*
X10808158Y-18484140D02*
X10817682Y-18493663D01*
X10817682Y-18493663D02*
X10827205Y-18512711D01*
X10827205Y-18512711D02*
X10836729Y-18550806D01*
X10836729Y-18550806D02*
X10836729Y-18598425D01*
X10836729Y-18598425D02*
X10827205Y-18636521D01*
X10827205Y-18636521D02*
X10817682Y-18655568D01*
X10817682Y-18655568D02*
X10808158Y-18665092D01*
X10808158Y-18665092D02*
X10789110Y-18674616D01*
X10789110Y-18674616D02*
X10770063Y-18674616D01*
X10770063Y-18674616D02*
X10751015Y-18665092D01*
X10751015Y-18665092D02*
X10741491Y-18655568D01*
X10741491Y-18655568D02*
X10731967Y-18636521D01*
X10731967Y-18636521D02*
X10722444Y-18598425D01*
X10722444Y-18598425D02*
X10722444Y-18550806D01*
X10722444Y-18550806D02*
X10731967Y-18512711D01*
X10731967Y-18512711D02*
X10741491Y-18493663D01*
X10741491Y-18493663D02*
X10751015Y-18484140D01*
X10751015Y-18484140D02*
X10770063Y-18474616D01*
X10960539Y-18474616D02*
X10979586Y-18474616D01*
X10979586Y-18474616D02*
X10998634Y-18484140D01*
X10998634Y-18484140D02*
X11008158Y-18493663D01*
X11008158Y-18493663D02*
X11017682Y-18512711D01*
X11017682Y-18512711D02*
X11027205Y-18550806D01*
X11027205Y-18550806D02*
X11027205Y-18598425D01*
X11027205Y-18598425D02*
X11017682Y-18636521D01*
X11017682Y-18636521D02*
X11008158Y-18655568D01*
X11008158Y-18655568D02*
X10998634Y-18665092D01*
X10998634Y-18665092D02*
X10979586Y-18674616D01*
X10979586Y-18674616D02*
X10960539Y-18674616D01*
X10960539Y-18674616D02*
X10941491Y-18665092D01*
X10941491Y-18665092D02*
X10931967Y-18655568D01*
X10931967Y-18655568D02*
X10922444Y-18636521D01*
X10922444Y-18636521D02*
X10912920Y-18598425D01*
X10912920Y-18598425D02*
X10912920Y-18550806D01*
X10912920Y-18550806D02*
X10922444Y-18512711D01*
X10922444Y-18512711D02*
X10931967Y-18493663D01*
X10931967Y-18493663D02*
X10941491Y-18484140D01*
X10941491Y-18484140D02*
X10960539Y-18474616D01*
X11112920Y-18674616D02*
X11112920Y-18541282D01*
X11112920Y-18560330D02*
X11122444Y-18550806D01*
X11122444Y-18550806D02*
X11141491Y-18541282D01*
X11141491Y-18541282D02*
X11170063Y-18541282D01*
X11170063Y-18541282D02*
X11189110Y-18550806D01*
X11189110Y-18550806D02*
X11198634Y-18569854D01*
X11198634Y-18569854D02*
X11198634Y-18674616D01*
X11198634Y-18569854D02*
X11208158Y-18550806D01*
X11208158Y-18550806D02*
X11227205Y-18541282D01*
X11227205Y-18541282D02*
X11255777Y-18541282D01*
X11255777Y-18541282D02*
X11274824Y-18550806D01*
X11274824Y-18550806D02*
X11284348Y-18569854D01*
X11284348Y-18569854D02*
X11284348Y-18674616D01*
X11379586Y-18674616D02*
X11379586Y-18541282D01*
X11379586Y-18560330D02*
X11389110Y-18550806D01*
X11389110Y-18550806D02*
X11408158Y-18541282D01*
X11408158Y-18541282D02*
X11436729Y-18541282D01*
X11436729Y-18541282D02*
X11455777Y-18550806D01*
X11455777Y-18550806D02*
X11465301Y-18569854D01*
X11465301Y-18569854D02*
X11465301Y-18674616D01*
X11465301Y-18569854D02*
X11474824Y-18550806D01*
X11474824Y-18550806D02*
X11493872Y-18541282D01*
X11493872Y-18541282D02*
X11522443Y-18541282D01*
X11522443Y-18541282D02*
X11541491Y-18550806D01*
X11541491Y-18550806D02*
X11551015Y-18569854D01*
X11551015Y-18569854D02*
X11551015Y-18674616D01*
X11941491Y-18465092D02*
X11770063Y-18722235D01*
X12198634Y-18474616D02*
X12217682Y-18474616D01*
X12217682Y-18474616D02*
X12236729Y-18484140D01*
X12236729Y-18484140D02*
X12246253Y-18493663D01*
X12246253Y-18493663D02*
X12255777Y-18512711D01*
X12255777Y-18512711D02*
X12265301Y-18550806D01*
X12265301Y-18550806D02*
X12265301Y-18598425D01*
X12265301Y-18598425D02*
X12255777Y-18636521D01*
X12255777Y-18636521D02*
X12246253Y-18655568D01*
X12246253Y-18655568D02*
X12236729Y-18665092D01*
X12236729Y-18665092D02*
X12217682Y-18674616D01*
X12217682Y-18674616D02*
X12198634Y-18674616D01*
X12198634Y-18674616D02*
X12179586Y-18665092D01*
X12179586Y-18665092D02*
X12170063Y-18655568D01*
X12170063Y-18655568D02*
X12160539Y-18636521D01*
X12160539Y-18636521D02*
X12151015Y-18598425D01*
X12151015Y-18598425D02*
X12151015Y-18550806D01*
X12151015Y-18550806D02*
X12160539Y-18512711D01*
X12160539Y-18512711D02*
X12170063Y-18493663D01*
X12170063Y-18493663D02*
X12179586Y-18484140D01*
X12179586Y-18484140D02*
X12198634Y-18474616D01*
X12351015Y-18655568D02*
X12360539Y-18665092D01*
X12360539Y-18665092D02*
X12351015Y-18674616D01*
X12351015Y-18674616D02*
X12341491Y-18665092D01*
X12341491Y-18665092D02*
X12351015Y-18655568D01*
X12351015Y-18655568D02*
X12351015Y-18674616D01*
X12484348Y-18474616D02*
X12503396Y-18474616D01*
X12503396Y-18474616D02*
X12522444Y-18484140D01*
X12522444Y-18484140D02*
X12531967Y-18493663D01*
X12531967Y-18493663D02*
X12541491Y-18512711D01*
X12541491Y-18512711D02*
X12551015Y-18550806D01*
X12551015Y-18550806D02*
X12551015Y-18598425D01*
X12551015Y-18598425D02*
X12541491Y-18636521D01*
X12541491Y-18636521D02*
X12531967Y-18655568D01*
X12531967Y-18655568D02*
X12522444Y-18665092D01*
X12522444Y-18665092D02*
X12503396Y-18674616D01*
X12503396Y-18674616D02*
X12484348Y-18674616D01*
X12484348Y-18674616D02*
X12465301Y-18665092D01*
X12465301Y-18665092D02*
X12455777Y-18655568D01*
X12455777Y-18655568D02*
X12446253Y-18636521D01*
X12446253Y-18636521D02*
X12436729Y-18598425D01*
X12436729Y-18598425D02*
X12436729Y-18550806D01*
X12436729Y-18550806D02*
X12446253Y-18512711D01*
X12446253Y-18512711D02*
X12455777Y-18493663D01*
X12455777Y-18493663D02*
X12465301Y-18484140D01*
X12465301Y-18484140D02*
X12484348Y-18474616D01*
X12741491Y-18674616D02*
X12627206Y-18674616D01*
X12684348Y-18674616D02*
X12684348Y-18474616D01*
X12684348Y-18474616D02*
X12665301Y-18503187D01*
X12665301Y-18503187D02*
X12646253Y-18522235D01*
X12646253Y-18522235D02*
X12627206Y-18531759D01*
X12836729Y-18674616D02*
X12874825Y-18674616D01*
X12874825Y-18674616D02*
X12893872Y-18665092D01*
X12893872Y-18665092D02*
X12903396Y-18655568D01*
X12903396Y-18655568D02*
X12922444Y-18626997D01*
X12922444Y-18626997D02*
X12931967Y-18588902D01*
X12931967Y-18588902D02*
X12931967Y-18512711D01*
X12931967Y-18512711D02*
X12922444Y-18493663D01*
X12922444Y-18493663D02*
X12912920Y-18484140D01*
X12912920Y-18484140D02*
X12893872Y-18474616D01*
X12893872Y-18474616D02*
X12855777Y-18474616D01*
X12855777Y-18474616D02*
X12836729Y-18484140D01*
X12836729Y-18484140D02*
X12827206Y-18493663D01*
X12827206Y-18493663D02*
X12817682Y-18512711D01*
X12817682Y-18512711D02*
X12817682Y-18560330D01*
X12817682Y-18560330D02*
X12827206Y-18579378D01*
X12827206Y-18579378D02*
X12836729Y-18588902D01*
X12836729Y-18588902D02*
X12855777Y-18598425D01*
X12855777Y-18598425D02*
X12893872Y-18598425D01*
X12893872Y-18598425D02*
X12912920Y-18588902D01*
X12912920Y-18588902D02*
X12922444Y-18579378D01*
X12922444Y-18579378D02*
X12931967Y-18560330D01*
X12998634Y-18474616D02*
X13131967Y-18474616D01*
X13131967Y-18474616D02*
X13046253Y-18674616D01*
X13198634Y-18474616D02*
X13198634Y-18512711D01*
X13274825Y-18474616D02*
X13274825Y-18512711D01*
X13570063Y-18750806D02*
X13560539Y-18741282D01*
X13560539Y-18741282D02*
X13541491Y-18712711D01*
X13541491Y-18712711D02*
X13531968Y-18693663D01*
X13531968Y-18693663D02*
X13522444Y-18665092D01*
X13522444Y-18665092D02*
X13512920Y-18617473D01*
X13512920Y-18617473D02*
X13512920Y-18579378D01*
X13512920Y-18579378D02*
X13522444Y-18531759D01*
X13522444Y-18531759D02*
X13531968Y-18503187D01*
X13531968Y-18503187D02*
X13541491Y-18484140D01*
X13541491Y-18484140D02*
X13560539Y-18455568D01*
X13560539Y-18455568D02*
X13570063Y-18446044D01*
X13674825Y-18560330D02*
X13655777Y-18550806D01*
X13655777Y-18550806D02*
X13646253Y-18541282D01*
X13646253Y-18541282D02*
X13636729Y-18522235D01*
X13636729Y-18522235D02*
X13636729Y-18512711D01*
X13636729Y-18512711D02*
X13646253Y-18493663D01*
X13646253Y-18493663D02*
X13655777Y-18484140D01*
X13655777Y-18484140D02*
X13674825Y-18474616D01*
X13674825Y-18474616D02*
X13712920Y-18474616D01*
X13712920Y-18474616D02*
X13731968Y-18484140D01*
X13731968Y-18484140D02*
X13741491Y-18493663D01*
X13741491Y-18493663D02*
X13751015Y-18512711D01*
X13751015Y-18512711D02*
X13751015Y-18522235D01*
X13751015Y-18522235D02*
X13741491Y-18541282D01*
X13741491Y-18541282D02*
X13731968Y-18550806D01*
X13731968Y-18550806D02*
X13712920Y-18560330D01*
X13712920Y-18560330D02*
X13674825Y-18560330D01*
X13674825Y-18560330D02*
X13655777Y-18569854D01*
X13655777Y-18569854D02*
X13646253Y-18579378D01*
X13646253Y-18579378D02*
X13636729Y-18598425D01*
X13636729Y-18598425D02*
X13636729Y-18636521D01*
X13636729Y-18636521D02*
X13646253Y-18655568D01*
X13646253Y-18655568D02*
X13655777Y-18665092D01*
X13655777Y-18665092D02*
X13674825Y-18674616D01*
X13674825Y-18674616D02*
X13712920Y-18674616D01*
X13712920Y-18674616D02*
X13731968Y-18665092D01*
X13731968Y-18665092D02*
X13741491Y-18655568D01*
X13741491Y-18655568D02*
X13751015Y-18636521D01*
X13751015Y-18636521D02*
X13751015Y-18598425D01*
X13751015Y-18598425D02*
X13741491Y-18579378D01*
X13741491Y-18579378D02*
X13731968Y-18569854D01*
X13731968Y-18569854D02*
X13712920Y-18560330D01*
X13989110Y-18674616D02*
X13989110Y-18474616D01*
X14074825Y-18674616D02*
X14074825Y-18569854D01*
X14074825Y-18569854D02*
X14065301Y-18550806D01*
X14065301Y-18550806D02*
X14046253Y-18541282D01*
X14046253Y-18541282D02*
X14017682Y-18541282D01*
X14017682Y-18541282D02*
X13998634Y-18550806D01*
X13998634Y-18550806D02*
X13989110Y-18560330D01*
X14198634Y-18674616D02*
X14179587Y-18665092D01*
X14179587Y-18665092D02*
X14170063Y-18655568D01*
X14170063Y-18655568D02*
X14160539Y-18636521D01*
X14160539Y-18636521D02*
X14160539Y-18579378D01*
X14160539Y-18579378D02*
X14170063Y-18560330D01*
X14170063Y-18560330D02*
X14179587Y-18550806D01*
X14179587Y-18550806D02*
X14198634Y-18541282D01*
X14198634Y-18541282D02*
X14227206Y-18541282D01*
X14227206Y-18541282D02*
X14246253Y-18550806D01*
X14246253Y-18550806D02*
X14255777Y-18560330D01*
X14255777Y-18560330D02*
X14265301Y-18579378D01*
X14265301Y-18579378D02*
X14265301Y-18636521D01*
X14265301Y-18636521D02*
X14255777Y-18655568D01*
X14255777Y-18655568D02*
X14246253Y-18665092D01*
X14246253Y-18665092D02*
X14227206Y-18674616D01*
X14227206Y-18674616D02*
X14198634Y-18674616D01*
X14379587Y-18674616D02*
X14360539Y-18665092D01*
X14360539Y-18665092D02*
X14351015Y-18646044D01*
X14351015Y-18646044D02*
X14351015Y-18474616D01*
X14531968Y-18665092D02*
X14512920Y-18674616D01*
X14512920Y-18674616D02*
X14474825Y-18674616D01*
X14474825Y-18674616D02*
X14455777Y-18665092D01*
X14455777Y-18665092D02*
X14446253Y-18646044D01*
X14446253Y-18646044D02*
X14446253Y-18569854D01*
X14446253Y-18569854D02*
X14455777Y-18550806D01*
X14455777Y-18550806D02*
X14474825Y-18541282D01*
X14474825Y-18541282D02*
X14512920Y-18541282D01*
X14512920Y-18541282D02*
X14531968Y-18550806D01*
X14531968Y-18550806D02*
X14541491Y-18569854D01*
X14541491Y-18569854D02*
X14541491Y-18588902D01*
X14541491Y-18588902D02*
X14446253Y-18607949D01*
X14617682Y-18665092D02*
X14636730Y-18674616D01*
X14636730Y-18674616D02*
X14674825Y-18674616D01*
X14674825Y-18674616D02*
X14693872Y-18665092D01*
X14693872Y-18665092D02*
X14703396Y-18646044D01*
X14703396Y-18646044D02*
X14703396Y-18636521D01*
X14703396Y-18636521D02*
X14693872Y-18617473D01*
X14693872Y-18617473D02*
X14674825Y-18607949D01*
X14674825Y-18607949D02*
X14646253Y-18607949D01*
X14646253Y-18607949D02*
X14627206Y-18598425D01*
X14627206Y-18598425D02*
X14617682Y-18579378D01*
X14617682Y-18579378D02*
X14617682Y-18569854D01*
X14617682Y-18569854D02*
X14627206Y-18550806D01*
X14627206Y-18550806D02*
X14646253Y-18541282D01*
X14646253Y-18541282D02*
X14674825Y-18541282D01*
X14674825Y-18541282D02*
X14693872Y-18550806D01*
X14770063Y-18750806D02*
X14779587Y-18741282D01*
X14779587Y-18741282D02*
X14798634Y-18712711D01*
X14798634Y-18712711D02*
X14808158Y-18693663D01*
X14808158Y-18693663D02*
X14817682Y-18665092D01*
X14817682Y-18665092D02*
X14827206Y-18617473D01*
X14827206Y-18617473D02*
X14827206Y-18579378D01*
X14827206Y-18579378D02*
X14817682Y-18531759D01*
X14817682Y-18531759D02*
X14808158Y-18503187D01*
X14808158Y-18503187D02*
X14798634Y-18484140D01*
X14798634Y-18484140D02*
X14779587Y-18455568D01*
X14779587Y-18455568D02*
X14770063Y-18446044D01*
D11*
X9955000Y-18807132D02*
X9955000Y-18887132D01*
X9915000Y-18847132D02*
X9995000Y-18847132D01*
D12*
X10293872Y-18738616D02*
X10312920Y-18738616D01*
X10312920Y-18738616D02*
X10331967Y-18748140D01*
X10331967Y-18748140D02*
X10341491Y-18757663D01*
X10341491Y-18757663D02*
X10351015Y-18776711D01*
X10351015Y-18776711D02*
X10360539Y-18814806D01*
X10360539Y-18814806D02*
X10360539Y-18862425D01*
X10360539Y-18862425D02*
X10351015Y-18900521D01*
X10351015Y-18900521D02*
X10341491Y-18919568D01*
X10341491Y-18919568D02*
X10331967Y-18929092D01*
X10331967Y-18929092D02*
X10312920Y-18938616D01*
X10312920Y-18938616D02*
X10293872Y-18938616D01*
X10293872Y-18938616D02*
X10274824Y-18929092D01*
X10274824Y-18929092D02*
X10265301Y-18919568D01*
X10265301Y-18919568D02*
X10255777Y-18900521D01*
X10255777Y-18900521D02*
X10246253Y-18862425D01*
X10246253Y-18862425D02*
X10246253Y-18814806D01*
X10246253Y-18814806D02*
X10255777Y-18776711D01*
X10255777Y-18776711D02*
X10265301Y-18757663D01*
X10265301Y-18757663D02*
X10274824Y-18748140D01*
X10274824Y-18748140D02*
X10293872Y-18738616D01*
X10446253Y-18919568D02*
X10455777Y-18929092D01*
X10455777Y-18929092D02*
X10446253Y-18938616D01*
X10446253Y-18938616D02*
X10436729Y-18929092D01*
X10436729Y-18929092D02*
X10446253Y-18919568D01*
X10446253Y-18919568D02*
X10446253Y-18938616D01*
X10570063Y-18824330D02*
X10551015Y-18814806D01*
X10551015Y-18814806D02*
X10541491Y-18805282D01*
X10541491Y-18805282D02*
X10531967Y-18786235D01*
X10531967Y-18786235D02*
X10531967Y-18776711D01*
X10531967Y-18776711D02*
X10541491Y-18757663D01*
X10541491Y-18757663D02*
X10551015Y-18748140D01*
X10551015Y-18748140D02*
X10570063Y-18738616D01*
X10570063Y-18738616D02*
X10608158Y-18738616D01*
X10608158Y-18738616D02*
X10627205Y-18748140D01*
X10627205Y-18748140D02*
X10636729Y-18757663D01*
X10636729Y-18757663D02*
X10646253Y-18776711D01*
X10646253Y-18776711D02*
X10646253Y-18786235D01*
X10646253Y-18786235D02*
X10636729Y-18805282D01*
X10636729Y-18805282D02*
X10627205Y-18814806D01*
X10627205Y-18814806D02*
X10608158Y-18824330D01*
X10608158Y-18824330D02*
X10570063Y-18824330D01*
X10570063Y-18824330D02*
X10551015Y-18833854D01*
X10551015Y-18833854D02*
X10541491Y-18843378D01*
X10541491Y-18843378D02*
X10531967Y-18862425D01*
X10531967Y-18862425D02*
X10531967Y-18900521D01*
X10531967Y-18900521D02*
X10541491Y-18919568D01*
X10541491Y-18919568D02*
X10551015Y-18929092D01*
X10551015Y-18929092D02*
X10570063Y-18938616D01*
X10570063Y-18938616D02*
X10608158Y-18938616D01*
X10608158Y-18938616D02*
X10627205Y-18929092D01*
X10627205Y-18929092D02*
X10636729Y-18919568D01*
X10636729Y-18919568D02*
X10646253Y-18900521D01*
X10646253Y-18900521D02*
X10646253Y-18862425D01*
X10646253Y-18862425D02*
X10636729Y-18843378D01*
X10636729Y-18843378D02*
X10627205Y-18833854D01*
X10627205Y-18833854D02*
X10608158Y-18824330D01*
X10770063Y-18738616D02*
X10789110Y-18738616D01*
X10789110Y-18738616D02*
X10808158Y-18748140D01*
X10808158Y-18748140D02*
X10817682Y-18757663D01*
X10817682Y-18757663D02*
X10827205Y-18776711D01*
X10827205Y-18776711D02*
X10836729Y-18814806D01*
X10836729Y-18814806D02*
X10836729Y-18862425D01*
X10836729Y-18862425D02*
X10827205Y-18900521D01*
X10827205Y-18900521D02*
X10817682Y-18919568D01*
X10817682Y-18919568D02*
X10808158Y-18929092D01*
X10808158Y-18929092D02*
X10789110Y-18938616D01*
X10789110Y-18938616D02*
X10770063Y-18938616D01*
X10770063Y-18938616D02*
X10751015Y-18929092D01*
X10751015Y-18929092D02*
X10741491Y-18919568D01*
X10741491Y-18919568D02*
X10731967Y-18900521D01*
X10731967Y-18900521D02*
X10722444Y-18862425D01*
X10722444Y-18862425D02*
X10722444Y-18814806D01*
X10722444Y-18814806D02*
X10731967Y-18776711D01*
X10731967Y-18776711D02*
X10741491Y-18757663D01*
X10741491Y-18757663D02*
X10751015Y-18748140D01*
X10751015Y-18748140D02*
X10770063Y-18738616D01*
X10960539Y-18738616D02*
X10979586Y-18738616D01*
X10979586Y-18738616D02*
X10998634Y-18748140D01*
X10998634Y-18748140D02*
X11008158Y-18757663D01*
X11008158Y-18757663D02*
X11017682Y-18776711D01*
X11017682Y-18776711D02*
X11027205Y-18814806D01*
X11027205Y-18814806D02*
X11027205Y-18862425D01*
X11027205Y-18862425D02*
X11017682Y-18900521D01*
X11017682Y-18900521D02*
X11008158Y-18919568D01*
X11008158Y-18919568D02*
X10998634Y-18929092D01*
X10998634Y-18929092D02*
X10979586Y-18938616D01*
X10979586Y-18938616D02*
X10960539Y-18938616D01*
X10960539Y-18938616D02*
X10941491Y-18929092D01*
X10941491Y-18929092D02*
X10931967Y-18919568D01*
X10931967Y-18919568D02*
X10922444Y-18900521D01*
X10922444Y-18900521D02*
X10912920Y-18862425D01*
X10912920Y-18862425D02*
X10912920Y-18814806D01*
X10912920Y-18814806D02*
X10922444Y-18776711D01*
X10922444Y-18776711D02*
X10931967Y-18757663D01*
X10931967Y-18757663D02*
X10941491Y-18748140D01*
X10941491Y-18748140D02*
X10960539Y-18738616D01*
X11112920Y-18938616D02*
X11112920Y-18805282D01*
X11112920Y-18824330D02*
X11122444Y-18814806D01*
X11122444Y-18814806D02*
X11141491Y-18805282D01*
X11141491Y-18805282D02*
X11170063Y-18805282D01*
X11170063Y-18805282D02*
X11189110Y-18814806D01*
X11189110Y-18814806D02*
X11198634Y-18833854D01*
X11198634Y-18833854D02*
X11198634Y-18938616D01*
X11198634Y-18833854D02*
X11208158Y-18814806D01*
X11208158Y-18814806D02*
X11227205Y-18805282D01*
X11227205Y-18805282D02*
X11255777Y-18805282D01*
X11255777Y-18805282D02*
X11274824Y-18814806D01*
X11274824Y-18814806D02*
X11284348Y-18833854D01*
X11284348Y-18833854D02*
X11284348Y-18938616D01*
X11379586Y-18938616D02*
X11379586Y-18805282D01*
X11379586Y-18824330D02*
X11389110Y-18814806D01*
X11389110Y-18814806D02*
X11408158Y-18805282D01*
X11408158Y-18805282D02*
X11436729Y-18805282D01*
X11436729Y-18805282D02*
X11455777Y-18814806D01*
X11455777Y-18814806D02*
X11465301Y-18833854D01*
X11465301Y-18833854D02*
X11465301Y-18938616D01*
X11465301Y-18833854D02*
X11474824Y-18814806D01*
X11474824Y-18814806D02*
X11493872Y-18805282D01*
X11493872Y-18805282D02*
X11522443Y-18805282D01*
X11522443Y-18805282D02*
X11541491Y-18814806D01*
X11541491Y-18814806D02*
X11551015Y-18833854D01*
X11551015Y-18833854D02*
X11551015Y-18938616D01*
X11941491Y-18729092D02*
X11770063Y-18986235D01*
X12198634Y-18738616D02*
X12217682Y-18738616D01*
X12217682Y-18738616D02*
X12236729Y-18748140D01*
X12236729Y-18748140D02*
X12246253Y-18757663D01*
X12246253Y-18757663D02*
X12255777Y-18776711D01*
X12255777Y-18776711D02*
X12265301Y-18814806D01*
X12265301Y-18814806D02*
X12265301Y-18862425D01*
X12265301Y-18862425D02*
X12255777Y-18900521D01*
X12255777Y-18900521D02*
X12246253Y-18919568D01*
X12246253Y-18919568D02*
X12236729Y-18929092D01*
X12236729Y-18929092D02*
X12217682Y-18938616D01*
X12217682Y-18938616D02*
X12198634Y-18938616D01*
X12198634Y-18938616D02*
X12179586Y-18929092D01*
X12179586Y-18929092D02*
X12170063Y-18919568D01*
X12170063Y-18919568D02*
X12160539Y-18900521D01*
X12160539Y-18900521D02*
X12151015Y-18862425D01*
X12151015Y-18862425D02*
X12151015Y-18814806D01*
X12151015Y-18814806D02*
X12160539Y-18776711D01*
X12160539Y-18776711D02*
X12170063Y-18757663D01*
X12170063Y-18757663D02*
X12179586Y-18748140D01*
X12179586Y-18748140D02*
X12198634Y-18738616D01*
X12351015Y-18919568D02*
X12360539Y-18929092D01*
X12360539Y-18929092D02*
X12351015Y-18938616D01*
X12351015Y-18938616D02*
X12341491Y-18929092D01*
X12341491Y-18929092D02*
X12351015Y-18919568D01*
X12351015Y-18919568D02*
X12351015Y-18938616D01*
X12484348Y-18738616D02*
X12503396Y-18738616D01*
X12503396Y-18738616D02*
X12522444Y-18748140D01*
X12522444Y-18748140D02*
X12531967Y-18757663D01*
X12531967Y-18757663D02*
X12541491Y-18776711D01*
X12541491Y-18776711D02*
X12551015Y-18814806D01*
X12551015Y-18814806D02*
X12551015Y-18862425D01*
X12551015Y-18862425D02*
X12541491Y-18900521D01*
X12541491Y-18900521D02*
X12531967Y-18919568D01*
X12531967Y-18919568D02*
X12522444Y-18929092D01*
X12522444Y-18929092D02*
X12503396Y-18938616D01*
X12503396Y-18938616D02*
X12484348Y-18938616D01*
X12484348Y-18938616D02*
X12465301Y-18929092D01*
X12465301Y-18929092D02*
X12455777Y-18919568D01*
X12455777Y-18919568D02*
X12446253Y-18900521D01*
X12446253Y-18900521D02*
X12436729Y-18862425D01*
X12436729Y-18862425D02*
X12436729Y-18814806D01*
X12436729Y-18814806D02*
X12446253Y-18776711D01*
X12446253Y-18776711D02*
X12455777Y-18757663D01*
X12455777Y-18757663D02*
X12465301Y-18748140D01*
X12465301Y-18748140D02*
X12484348Y-18738616D01*
X12617682Y-18738616D02*
X12741491Y-18738616D01*
X12741491Y-18738616D02*
X12674825Y-18814806D01*
X12674825Y-18814806D02*
X12703396Y-18814806D01*
X12703396Y-18814806D02*
X12722444Y-18824330D01*
X12722444Y-18824330D02*
X12731967Y-18833854D01*
X12731967Y-18833854D02*
X12741491Y-18852902D01*
X12741491Y-18852902D02*
X12741491Y-18900521D01*
X12741491Y-18900521D02*
X12731967Y-18919568D01*
X12731967Y-18919568D02*
X12722444Y-18929092D01*
X12722444Y-18929092D02*
X12703396Y-18938616D01*
X12703396Y-18938616D02*
X12646253Y-18938616D01*
X12646253Y-18938616D02*
X12627206Y-18929092D01*
X12627206Y-18929092D02*
X12617682Y-18919568D01*
X12931967Y-18938616D02*
X12817682Y-18938616D01*
X12874825Y-18938616D02*
X12874825Y-18738616D01*
X12874825Y-18738616D02*
X12855777Y-18767187D01*
X12855777Y-18767187D02*
X12836729Y-18786235D01*
X12836729Y-18786235D02*
X12817682Y-18795759D01*
X13112920Y-18738616D02*
X13017682Y-18738616D01*
X13017682Y-18738616D02*
X13008158Y-18833854D01*
X13008158Y-18833854D02*
X13017682Y-18824330D01*
X13017682Y-18824330D02*
X13036729Y-18814806D01*
X13036729Y-18814806D02*
X13084348Y-18814806D01*
X13084348Y-18814806D02*
X13103396Y-18824330D01*
X13103396Y-18824330D02*
X13112920Y-18833854D01*
X13112920Y-18833854D02*
X13122444Y-18852902D01*
X13122444Y-18852902D02*
X13122444Y-18900521D01*
X13122444Y-18900521D02*
X13112920Y-18919568D01*
X13112920Y-18919568D02*
X13103396Y-18929092D01*
X13103396Y-18929092D02*
X13084348Y-18938616D01*
X13084348Y-18938616D02*
X13036729Y-18938616D01*
X13036729Y-18938616D02*
X13017682Y-18929092D01*
X13017682Y-18929092D02*
X13008158Y-18919568D01*
X13198634Y-18738616D02*
X13198634Y-18776711D01*
X13274825Y-18738616D02*
X13274825Y-18776711D01*
X13570063Y-19014806D02*
X13560539Y-19005282D01*
X13560539Y-19005282D02*
X13541491Y-18976711D01*
X13541491Y-18976711D02*
X13531968Y-18957663D01*
X13531968Y-18957663D02*
X13522444Y-18929092D01*
X13522444Y-18929092D02*
X13512920Y-18881473D01*
X13512920Y-18881473D02*
X13512920Y-18843378D01*
X13512920Y-18843378D02*
X13522444Y-18795759D01*
X13522444Y-18795759D02*
X13531968Y-18767187D01*
X13531968Y-18767187D02*
X13541491Y-18748140D01*
X13541491Y-18748140D02*
X13560539Y-18719568D01*
X13560539Y-18719568D02*
X13570063Y-18710044D01*
X13627206Y-18738616D02*
X13751015Y-18738616D01*
X13751015Y-18738616D02*
X13684348Y-18814806D01*
X13684348Y-18814806D02*
X13712920Y-18814806D01*
X13712920Y-18814806D02*
X13731968Y-18824330D01*
X13731968Y-18824330D02*
X13741491Y-18833854D01*
X13741491Y-18833854D02*
X13751015Y-18852902D01*
X13751015Y-18852902D02*
X13751015Y-18900521D01*
X13751015Y-18900521D02*
X13741491Y-18919568D01*
X13741491Y-18919568D02*
X13731968Y-18929092D01*
X13731968Y-18929092D02*
X13712920Y-18938616D01*
X13712920Y-18938616D02*
X13655777Y-18938616D01*
X13655777Y-18938616D02*
X13636729Y-18929092D01*
X13636729Y-18929092D02*
X13627206Y-18919568D01*
X13874825Y-18738616D02*
X13893872Y-18738616D01*
X13893872Y-18738616D02*
X13912920Y-18748140D01*
X13912920Y-18748140D02*
X13922444Y-18757663D01*
X13922444Y-18757663D02*
X13931968Y-18776711D01*
X13931968Y-18776711D02*
X13941491Y-18814806D01*
X13941491Y-18814806D02*
X13941491Y-18862425D01*
X13941491Y-18862425D02*
X13931968Y-18900521D01*
X13931968Y-18900521D02*
X13922444Y-18919568D01*
X13922444Y-18919568D02*
X13912920Y-18929092D01*
X13912920Y-18929092D02*
X13893872Y-18938616D01*
X13893872Y-18938616D02*
X13874825Y-18938616D01*
X13874825Y-18938616D02*
X13855777Y-18929092D01*
X13855777Y-18929092D02*
X13846253Y-18919568D01*
X13846253Y-18919568D02*
X13836729Y-18900521D01*
X13836729Y-18900521D02*
X13827206Y-18862425D01*
X13827206Y-18862425D02*
X13827206Y-18814806D01*
X13827206Y-18814806D02*
X13836729Y-18776711D01*
X13836729Y-18776711D02*
X13846253Y-18757663D01*
X13846253Y-18757663D02*
X13855777Y-18748140D01*
X13855777Y-18748140D02*
X13874825Y-18738616D01*
X14179587Y-18938616D02*
X14179587Y-18738616D01*
X14265301Y-18938616D02*
X14265301Y-18833854D01*
X14265301Y-18833854D02*
X14255777Y-18814806D01*
X14255777Y-18814806D02*
X14236730Y-18805282D01*
X14236730Y-18805282D02*
X14208158Y-18805282D01*
X14208158Y-18805282D02*
X14189110Y-18814806D01*
X14189110Y-18814806D02*
X14179587Y-18824330D01*
X14389110Y-18938616D02*
X14370063Y-18929092D01*
X14370063Y-18929092D02*
X14360539Y-18919568D01*
X14360539Y-18919568D02*
X14351015Y-18900521D01*
X14351015Y-18900521D02*
X14351015Y-18843378D01*
X14351015Y-18843378D02*
X14360539Y-18824330D01*
X14360539Y-18824330D02*
X14370063Y-18814806D01*
X14370063Y-18814806D02*
X14389110Y-18805282D01*
X14389110Y-18805282D02*
X14417682Y-18805282D01*
X14417682Y-18805282D02*
X14436730Y-18814806D01*
X14436730Y-18814806D02*
X14446253Y-18824330D01*
X14446253Y-18824330D02*
X14455777Y-18843378D01*
X14455777Y-18843378D02*
X14455777Y-18900521D01*
X14455777Y-18900521D02*
X14446253Y-18919568D01*
X14446253Y-18919568D02*
X14436730Y-18929092D01*
X14436730Y-18929092D02*
X14417682Y-18938616D01*
X14417682Y-18938616D02*
X14389110Y-18938616D01*
X14570063Y-18938616D02*
X14551015Y-18929092D01*
X14551015Y-18929092D02*
X14541491Y-18910044D01*
X14541491Y-18910044D02*
X14541491Y-18738616D01*
X14722444Y-18929092D02*
X14703396Y-18938616D01*
X14703396Y-18938616D02*
X14665301Y-18938616D01*
X14665301Y-18938616D02*
X14646253Y-18929092D01*
X14646253Y-18929092D02*
X14636730Y-18910044D01*
X14636730Y-18910044D02*
X14636730Y-18833854D01*
X14636730Y-18833854D02*
X14646253Y-18814806D01*
X14646253Y-18814806D02*
X14665301Y-18805282D01*
X14665301Y-18805282D02*
X14703396Y-18805282D01*
X14703396Y-18805282D02*
X14722444Y-18814806D01*
X14722444Y-18814806D02*
X14731968Y-18833854D01*
X14731968Y-18833854D02*
X14731968Y-18852902D01*
X14731968Y-18852902D02*
X14636730Y-18871949D01*
X14808158Y-18929092D02*
X14827206Y-18938616D01*
X14827206Y-18938616D02*
X14865301Y-18938616D01*
X14865301Y-18938616D02*
X14884349Y-18929092D01*
X14884349Y-18929092D02*
X14893872Y-18910044D01*
X14893872Y-18910044D02*
X14893872Y-18900521D01*
X14893872Y-18900521D02*
X14884349Y-18881473D01*
X14884349Y-18881473D02*
X14865301Y-18871949D01*
X14865301Y-18871949D02*
X14836730Y-18871949D01*
X14836730Y-18871949D02*
X14817682Y-18862425D01*
X14817682Y-18862425D02*
X14808158Y-18843378D01*
X14808158Y-18843378D02*
X14808158Y-18833854D01*
X14808158Y-18833854D02*
X14817682Y-18814806D01*
X14817682Y-18814806D02*
X14836730Y-18805282D01*
X14836730Y-18805282D02*
X14865301Y-18805282D01*
X14865301Y-18805282D02*
X14884349Y-18814806D01*
X14960539Y-19014806D02*
X14970063Y-19005282D01*
X14970063Y-19005282D02*
X14989111Y-18976711D01*
X14989111Y-18976711D02*
X14998634Y-18957663D01*
X14998634Y-18957663D02*
X15008158Y-18929092D01*
X15008158Y-18929092D02*
X15017682Y-18881473D01*
X15017682Y-18881473D02*
X15017682Y-18843378D01*
X15017682Y-18843378D02*
X15008158Y-18795759D01*
X15008158Y-18795759D02*
X14998634Y-18767187D01*
X14998634Y-18767187D02*
X14989111Y-18748140D01*
X14989111Y-18748140D02*
X14970063Y-18719568D01*
X14970063Y-18719568D02*
X14960539Y-18710044D01*
D11*
X9980356Y-19146488D02*
X9980356Y-19075776D01*
X9909644Y-19075776D01*
X9909644Y-19146488D01*
X9980356Y-19146488D01*
D12*
X10360539Y-19202616D02*
X10246253Y-19202616D01*
X10303396Y-19202616D02*
X10303396Y-19002616D01*
X10303396Y-19002616D02*
X10284348Y-19031187D01*
X10284348Y-19031187D02*
X10265301Y-19050235D01*
X10265301Y-19050235D02*
X10246253Y-19059759D01*
X10446253Y-19183568D02*
X10455777Y-19193092D01*
X10455777Y-19193092D02*
X10446253Y-19202616D01*
X10446253Y-19202616D02*
X10436729Y-19193092D01*
X10436729Y-19193092D02*
X10446253Y-19183568D01*
X10446253Y-19183568D02*
X10446253Y-19202616D01*
X10579586Y-19002616D02*
X10598634Y-19002616D01*
X10598634Y-19002616D02*
X10617682Y-19012140D01*
X10617682Y-19012140D02*
X10627205Y-19021663D01*
X10627205Y-19021663D02*
X10636729Y-19040711D01*
X10636729Y-19040711D02*
X10646253Y-19078806D01*
X10646253Y-19078806D02*
X10646253Y-19126425D01*
X10646253Y-19126425D02*
X10636729Y-19164521D01*
X10636729Y-19164521D02*
X10627205Y-19183568D01*
X10627205Y-19183568D02*
X10617682Y-19193092D01*
X10617682Y-19193092D02*
X10598634Y-19202616D01*
X10598634Y-19202616D02*
X10579586Y-19202616D01*
X10579586Y-19202616D02*
X10560539Y-19193092D01*
X10560539Y-19193092D02*
X10551015Y-19183568D01*
X10551015Y-19183568D02*
X10541491Y-19164521D01*
X10541491Y-19164521D02*
X10531967Y-19126425D01*
X10531967Y-19126425D02*
X10531967Y-19078806D01*
X10531967Y-19078806D02*
X10541491Y-19040711D01*
X10541491Y-19040711D02*
X10551015Y-19021663D01*
X10551015Y-19021663D02*
X10560539Y-19012140D01*
X10560539Y-19012140D02*
X10579586Y-19002616D01*
X10770063Y-19002616D02*
X10789110Y-19002616D01*
X10789110Y-19002616D02*
X10808158Y-19012140D01*
X10808158Y-19012140D02*
X10817682Y-19021663D01*
X10817682Y-19021663D02*
X10827205Y-19040711D01*
X10827205Y-19040711D02*
X10836729Y-19078806D01*
X10836729Y-19078806D02*
X10836729Y-19126425D01*
X10836729Y-19126425D02*
X10827205Y-19164521D01*
X10827205Y-19164521D02*
X10817682Y-19183568D01*
X10817682Y-19183568D02*
X10808158Y-19193092D01*
X10808158Y-19193092D02*
X10789110Y-19202616D01*
X10789110Y-19202616D02*
X10770063Y-19202616D01*
X10770063Y-19202616D02*
X10751015Y-19193092D01*
X10751015Y-19193092D02*
X10741491Y-19183568D01*
X10741491Y-19183568D02*
X10731967Y-19164521D01*
X10731967Y-19164521D02*
X10722444Y-19126425D01*
X10722444Y-19126425D02*
X10722444Y-19078806D01*
X10722444Y-19078806D02*
X10731967Y-19040711D01*
X10731967Y-19040711D02*
X10741491Y-19021663D01*
X10741491Y-19021663D02*
X10751015Y-19012140D01*
X10751015Y-19012140D02*
X10770063Y-19002616D01*
X10960539Y-19002616D02*
X10979586Y-19002616D01*
X10979586Y-19002616D02*
X10998634Y-19012140D01*
X10998634Y-19012140D02*
X11008158Y-19021663D01*
X11008158Y-19021663D02*
X11017682Y-19040711D01*
X11017682Y-19040711D02*
X11027205Y-19078806D01*
X11027205Y-19078806D02*
X11027205Y-19126425D01*
X11027205Y-19126425D02*
X11017682Y-19164521D01*
X11017682Y-19164521D02*
X11008158Y-19183568D01*
X11008158Y-19183568D02*
X10998634Y-19193092D01*
X10998634Y-19193092D02*
X10979586Y-19202616D01*
X10979586Y-19202616D02*
X10960539Y-19202616D01*
X10960539Y-19202616D02*
X10941491Y-19193092D01*
X10941491Y-19193092D02*
X10931967Y-19183568D01*
X10931967Y-19183568D02*
X10922444Y-19164521D01*
X10922444Y-19164521D02*
X10912920Y-19126425D01*
X10912920Y-19126425D02*
X10912920Y-19078806D01*
X10912920Y-19078806D02*
X10922444Y-19040711D01*
X10922444Y-19040711D02*
X10931967Y-19021663D01*
X10931967Y-19021663D02*
X10941491Y-19012140D01*
X10941491Y-19012140D02*
X10960539Y-19002616D01*
X11112920Y-19202616D02*
X11112920Y-19069282D01*
X11112920Y-19088330D02*
X11122444Y-19078806D01*
X11122444Y-19078806D02*
X11141491Y-19069282D01*
X11141491Y-19069282D02*
X11170063Y-19069282D01*
X11170063Y-19069282D02*
X11189110Y-19078806D01*
X11189110Y-19078806D02*
X11198634Y-19097854D01*
X11198634Y-19097854D02*
X11198634Y-19202616D01*
X11198634Y-19097854D02*
X11208158Y-19078806D01*
X11208158Y-19078806D02*
X11227205Y-19069282D01*
X11227205Y-19069282D02*
X11255777Y-19069282D01*
X11255777Y-19069282D02*
X11274824Y-19078806D01*
X11274824Y-19078806D02*
X11284348Y-19097854D01*
X11284348Y-19097854D02*
X11284348Y-19202616D01*
X11379586Y-19202616D02*
X11379586Y-19069282D01*
X11379586Y-19088330D02*
X11389110Y-19078806D01*
X11389110Y-19078806D02*
X11408158Y-19069282D01*
X11408158Y-19069282D02*
X11436729Y-19069282D01*
X11436729Y-19069282D02*
X11455777Y-19078806D01*
X11455777Y-19078806D02*
X11465301Y-19097854D01*
X11465301Y-19097854D02*
X11465301Y-19202616D01*
X11465301Y-19097854D02*
X11474824Y-19078806D01*
X11474824Y-19078806D02*
X11493872Y-19069282D01*
X11493872Y-19069282D02*
X11522443Y-19069282D01*
X11522443Y-19069282D02*
X11541491Y-19078806D01*
X11541491Y-19078806D02*
X11551015Y-19097854D01*
X11551015Y-19097854D02*
X11551015Y-19202616D01*
X11941491Y-18993092D02*
X11770063Y-19250235D01*
X12198634Y-19002616D02*
X12217682Y-19002616D01*
X12217682Y-19002616D02*
X12236729Y-19012140D01*
X12236729Y-19012140D02*
X12246253Y-19021663D01*
X12246253Y-19021663D02*
X12255777Y-19040711D01*
X12255777Y-19040711D02*
X12265301Y-19078806D01*
X12265301Y-19078806D02*
X12265301Y-19126425D01*
X12265301Y-19126425D02*
X12255777Y-19164521D01*
X12255777Y-19164521D02*
X12246253Y-19183568D01*
X12246253Y-19183568D02*
X12236729Y-19193092D01*
X12236729Y-19193092D02*
X12217682Y-19202616D01*
X12217682Y-19202616D02*
X12198634Y-19202616D01*
X12198634Y-19202616D02*
X12179586Y-19193092D01*
X12179586Y-19193092D02*
X12170063Y-19183568D01*
X12170063Y-19183568D02*
X12160539Y-19164521D01*
X12160539Y-19164521D02*
X12151015Y-19126425D01*
X12151015Y-19126425D02*
X12151015Y-19078806D01*
X12151015Y-19078806D02*
X12160539Y-19040711D01*
X12160539Y-19040711D02*
X12170063Y-19021663D01*
X12170063Y-19021663D02*
X12179586Y-19012140D01*
X12179586Y-19012140D02*
X12198634Y-19002616D01*
X12351015Y-19183568D02*
X12360539Y-19193092D01*
X12360539Y-19193092D02*
X12351015Y-19202616D01*
X12351015Y-19202616D02*
X12341491Y-19193092D01*
X12341491Y-19193092D02*
X12351015Y-19183568D01*
X12351015Y-19183568D02*
X12351015Y-19202616D01*
X12484348Y-19002616D02*
X12503396Y-19002616D01*
X12503396Y-19002616D02*
X12522444Y-19012140D01*
X12522444Y-19012140D02*
X12531967Y-19021663D01*
X12531967Y-19021663D02*
X12541491Y-19040711D01*
X12541491Y-19040711D02*
X12551015Y-19078806D01*
X12551015Y-19078806D02*
X12551015Y-19126425D01*
X12551015Y-19126425D02*
X12541491Y-19164521D01*
X12541491Y-19164521D02*
X12531967Y-19183568D01*
X12531967Y-19183568D02*
X12522444Y-19193092D01*
X12522444Y-19193092D02*
X12503396Y-19202616D01*
X12503396Y-19202616D02*
X12484348Y-19202616D01*
X12484348Y-19202616D02*
X12465301Y-19193092D01*
X12465301Y-19193092D02*
X12455777Y-19183568D01*
X12455777Y-19183568D02*
X12446253Y-19164521D01*
X12446253Y-19164521D02*
X12436729Y-19126425D01*
X12436729Y-19126425D02*
X12436729Y-19078806D01*
X12436729Y-19078806D02*
X12446253Y-19040711D01*
X12446253Y-19040711D02*
X12455777Y-19021663D01*
X12455777Y-19021663D02*
X12465301Y-19012140D01*
X12465301Y-19012140D02*
X12484348Y-19002616D01*
X12617682Y-19002616D02*
X12741491Y-19002616D01*
X12741491Y-19002616D02*
X12674825Y-19078806D01*
X12674825Y-19078806D02*
X12703396Y-19078806D01*
X12703396Y-19078806D02*
X12722444Y-19088330D01*
X12722444Y-19088330D02*
X12731967Y-19097854D01*
X12731967Y-19097854D02*
X12741491Y-19116902D01*
X12741491Y-19116902D02*
X12741491Y-19164521D01*
X12741491Y-19164521D02*
X12731967Y-19183568D01*
X12731967Y-19183568D02*
X12722444Y-19193092D01*
X12722444Y-19193092D02*
X12703396Y-19202616D01*
X12703396Y-19202616D02*
X12646253Y-19202616D01*
X12646253Y-19202616D02*
X12627206Y-19193092D01*
X12627206Y-19193092D02*
X12617682Y-19183568D01*
X12836729Y-19202616D02*
X12874825Y-19202616D01*
X12874825Y-19202616D02*
X12893872Y-19193092D01*
X12893872Y-19193092D02*
X12903396Y-19183568D01*
X12903396Y-19183568D02*
X12922444Y-19154997D01*
X12922444Y-19154997D02*
X12931967Y-19116902D01*
X12931967Y-19116902D02*
X12931967Y-19040711D01*
X12931967Y-19040711D02*
X12922444Y-19021663D01*
X12922444Y-19021663D02*
X12912920Y-19012140D01*
X12912920Y-19012140D02*
X12893872Y-19002616D01*
X12893872Y-19002616D02*
X12855777Y-19002616D01*
X12855777Y-19002616D02*
X12836729Y-19012140D01*
X12836729Y-19012140D02*
X12827206Y-19021663D01*
X12827206Y-19021663D02*
X12817682Y-19040711D01*
X12817682Y-19040711D02*
X12817682Y-19088330D01*
X12817682Y-19088330D02*
X12827206Y-19107378D01*
X12827206Y-19107378D02*
X12836729Y-19116902D01*
X12836729Y-19116902D02*
X12855777Y-19126425D01*
X12855777Y-19126425D02*
X12893872Y-19126425D01*
X12893872Y-19126425D02*
X12912920Y-19116902D01*
X12912920Y-19116902D02*
X12922444Y-19107378D01*
X12922444Y-19107378D02*
X12931967Y-19088330D01*
X13103396Y-19069282D02*
X13103396Y-19202616D01*
X13055777Y-18993092D02*
X13008158Y-19135949D01*
X13008158Y-19135949D02*
X13131967Y-19135949D01*
X13198634Y-19002616D02*
X13198634Y-19040711D01*
X13274825Y-19002616D02*
X13274825Y-19040711D01*
X13570063Y-19278806D02*
X13560539Y-19269282D01*
X13560539Y-19269282D02*
X13541491Y-19240711D01*
X13541491Y-19240711D02*
X13531968Y-19221663D01*
X13531968Y-19221663D02*
X13522444Y-19193092D01*
X13522444Y-19193092D02*
X13512920Y-19145473D01*
X13512920Y-19145473D02*
X13512920Y-19107378D01*
X13512920Y-19107378D02*
X13522444Y-19059759D01*
X13522444Y-19059759D02*
X13531968Y-19031187D01*
X13531968Y-19031187D02*
X13541491Y-19012140D01*
X13541491Y-19012140D02*
X13560539Y-18983568D01*
X13560539Y-18983568D02*
X13570063Y-18974044D01*
X13627206Y-19002616D02*
X13760539Y-19002616D01*
X13760539Y-19002616D02*
X13674825Y-19202616D01*
X13827206Y-19021663D02*
X13836729Y-19012140D01*
X13836729Y-19012140D02*
X13855777Y-19002616D01*
X13855777Y-19002616D02*
X13903396Y-19002616D01*
X13903396Y-19002616D02*
X13922444Y-19012140D01*
X13922444Y-19012140D02*
X13931968Y-19021663D01*
X13931968Y-19021663D02*
X13941491Y-19040711D01*
X13941491Y-19040711D02*
X13941491Y-19059759D01*
X13941491Y-19059759D02*
X13931968Y-19088330D01*
X13931968Y-19088330D02*
X13817682Y-19202616D01*
X13817682Y-19202616D02*
X13941491Y-19202616D01*
X14179587Y-19202616D02*
X14179587Y-19002616D01*
X14265301Y-19202616D02*
X14265301Y-19097854D01*
X14265301Y-19097854D02*
X14255777Y-19078806D01*
X14255777Y-19078806D02*
X14236730Y-19069282D01*
X14236730Y-19069282D02*
X14208158Y-19069282D01*
X14208158Y-19069282D02*
X14189110Y-19078806D01*
X14189110Y-19078806D02*
X14179587Y-19088330D01*
X14389110Y-19202616D02*
X14370063Y-19193092D01*
X14370063Y-19193092D02*
X14360539Y-19183568D01*
X14360539Y-19183568D02*
X14351015Y-19164521D01*
X14351015Y-19164521D02*
X14351015Y-19107378D01*
X14351015Y-19107378D02*
X14360539Y-19088330D01*
X14360539Y-19088330D02*
X14370063Y-19078806D01*
X14370063Y-19078806D02*
X14389110Y-19069282D01*
X14389110Y-19069282D02*
X14417682Y-19069282D01*
X14417682Y-19069282D02*
X14436730Y-19078806D01*
X14436730Y-19078806D02*
X14446253Y-19088330D01*
X14446253Y-19088330D02*
X14455777Y-19107378D01*
X14455777Y-19107378D02*
X14455777Y-19164521D01*
X14455777Y-19164521D02*
X14446253Y-19183568D01*
X14446253Y-19183568D02*
X14436730Y-19193092D01*
X14436730Y-19193092D02*
X14417682Y-19202616D01*
X14417682Y-19202616D02*
X14389110Y-19202616D01*
X14570063Y-19202616D02*
X14551015Y-19193092D01*
X14551015Y-19193092D02*
X14541491Y-19174044D01*
X14541491Y-19174044D02*
X14541491Y-19002616D01*
X14722444Y-19193092D02*
X14703396Y-19202616D01*
X14703396Y-19202616D02*
X14665301Y-19202616D01*
X14665301Y-19202616D02*
X14646253Y-19193092D01*
X14646253Y-19193092D02*
X14636730Y-19174044D01*
X14636730Y-19174044D02*
X14636730Y-19097854D01*
X14636730Y-19097854D02*
X14646253Y-19078806D01*
X14646253Y-19078806D02*
X14665301Y-19069282D01*
X14665301Y-19069282D02*
X14703396Y-19069282D01*
X14703396Y-19069282D02*
X14722444Y-19078806D01*
X14722444Y-19078806D02*
X14731968Y-19097854D01*
X14731968Y-19097854D02*
X14731968Y-19116902D01*
X14731968Y-19116902D02*
X14636730Y-19135949D01*
X14808158Y-19193092D02*
X14827206Y-19202616D01*
X14827206Y-19202616D02*
X14865301Y-19202616D01*
X14865301Y-19202616D02*
X14884349Y-19193092D01*
X14884349Y-19193092D02*
X14893872Y-19174044D01*
X14893872Y-19174044D02*
X14893872Y-19164521D01*
X14893872Y-19164521D02*
X14884349Y-19145473D01*
X14884349Y-19145473D02*
X14865301Y-19135949D01*
X14865301Y-19135949D02*
X14836730Y-19135949D01*
X14836730Y-19135949D02*
X14817682Y-19126425D01*
X14817682Y-19126425D02*
X14808158Y-19107378D01*
X14808158Y-19107378D02*
X14808158Y-19097854D01*
X14808158Y-19097854D02*
X14817682Y-19078806D01*
X14817682Y-19078806D02*
X14836730Y-19069282D01*
X14836730Y-19069282D02*
X14865301Y-19069282D01*
X14865301Y-19069282D02*
X14884349Y-19078806D01*
X15131968Y-19126425D02*
X15284349Y-19126425D01*
X15208158Y-19202616D02*
X15208158Y-19050235D01*
X15512920Y-19002616D02*
X15636730Y-19002616D01*
X15636730Y-19002616D02*
X15570063Y-19078806D01*
X15570063Y-19078806D02*
X15598634Y-19078806D01*
X15598634Y-19078806D02*
X15617682Y-19088330D01*
X15617682Y-19088330D02*
X15627206Y-19097854D01*
X15627206Y-19097854D02*
X15636730Y-19116902D01*
X15636730Y-19116902D02*
X15636730Y-19164521D01*
X15636730Y-19164521D02*
X15627206Y-19183568D01*
X15627206Y-19183568D02*
X15617682Y-19193092D01*
X15617682Y-19193092D02*
X15598634Y-19202616D01*
X15598634Y-19202616D02*
X15541492Y-19202616D01*
X15541492Y-19202616D02*
X15522444Y-19193092D01*
X15522444Y-19193092D02*
X15512920Y-19183568D01*
X15865301Y-19193092D02*
X15884349Y-19202616D01*
X15884349Y-19202616D02*
X15922444Y-19202616D01*
X15922444Y-19202616D02*
X15941492Y-19193092D01*
X15941492Y-19193092D02*
X15951015Y-19174044D01*
X15951015Y-19174044D02*
X15951015Y-19164521D01*
X15951015Y-19164521D02*
X15941492Y-19145473D01*
X15941492Y-19145473D02*
X15922444Y-19135949D01*
X15922444Y-19135949D02*
X15893873Y-19135949D01*
X15893873Y-19135949D02*
X15874825Y-19126425D01*
X15874825Y-19126425D02*
X15865301Y-19107378D01*
X15865301Y-19107378D02*
X15865301Y-19097854D01*
X15865301Y-19097854D02*
X15874825Y-19078806D01*
X15874825Y-19078806D02*
X15893873Y-19069282D01*
X15893873Y-19069282D02*
X15922444Y-19069282D01*
X15922444Y-19069282D02*
X15941492Y-19078806D01*
X16065301Y-19202616D02*
X16046254Y-19193092D01*
X16046254Y-19193092D02*
X16036730Y-19174044D01*
X16036730Y-19174044D02*
X16036730Y-19002616D01*
X16170063Y-19202616D02*
X16151015Y-19193092D01*
X16151015Y-19193092D02*
X16141492Y-19183568D01*
X16141492Y-19183568D02*
X16131968Y-19164521D01*
X16131968Y-19164521D02*
X16131968Y-19107378D01*
X16131968Y-19107378D02*
X16141492Y-19088330D01*
X16141492Y-19088330D02*
X16151015Y-19078806D01*
X16151015Y-19078806D02*
X16170063Y-19069282D01*
X16170063Y-19069282D02*
X16198635Y-19069282D01*
X16198635Y-19069282D02*
X16217682Y-19078806D01*
X16217682Y-19078806D02*
X16227206Y-19088330D01*
X16227206Y-19088330D02*
X16236730Y-19107378D01*
X16236730Y-19107378D02*
X16236730Y-19164521D01*
X16236730Y-19164521D02*
X16227206Y-19183568D01*
X16227206Y-19183568D02*
X16217682Y-19193092D01*
X16217682Y-19193092D02*
X16198635Y-19202616D01*
X16198635Y-19202616D02*
X16170063Y-19202616D01*
X16293873Y-19069282D02*
X16370063Y-19069282D01*
X16322444Y-19002616D02*
X16322444Y-19174044D01*
X16322444Y-19174044D02*
X16331968Y-19193092D01*
X16331968Y-19193092D02*
X16351015Y-19202616D01*
X16351015Y-19202616D02*
X16370063Y-19202616D01*
X16427206Y-19193092D02*
X16446254Y-19202616D01*
X16446254Y-19202616D02*
X16484349Y-19202616D01*
X16484349Y-19202616D02*
X16503396Y-19193092D01*
X16503396Y-19193092D02*
X16512920Y-19174044D01*
X16512920Y-19174044D02*
X16512920Y-19164521D01*
X16512920Y-19164521D02*
X16503396Y-19145473D01*
X16503396Y-19145473D02*
X16484349Y-19135949D01*
X16484349Y-19135949D02*
X16455777Y-19135949D01*
X16455777Y-19135949D02*
X16436730Y-19126425D01*
X16436730Y-19126425D02*
X16427206Y-19107378D01*
X16427206Y-19107378D02*
X16427206Y-19097854D01*
X16427206Y-19097854D02*
X16436730Y-19078806D01*
X16436730Y-19078806D02*
X16455777Y-19069282D01*
X16455777Y-19069282D02*
X16484349Y-19069282D01*
X16484349Y-19069282D02*
X16503396Y-19078806D01*
X16579587Y-19278806D02*
X16589111Y-19269282D01*
X16589111Y-19269282D02*
X16608158Y-19240711D01*
X16608158Y-19240711D02*
X16617682Y-19221663D01*
X16617682Y-19221663D02*
X16627206Y-19193092D01*
X16627206Y-19193092D02*
X16636730Y-19145473D01*
X16636730Y-19145473D02*
X16636730Y-19107378D01*
X16636730Y-19107378D02*
X16627206Y-19059759D01*
X16627206Y-19059759D02*
X16617682Y-19031187D01*
X16617682Y-19031187D02*
X16608158Y-19012140D01*
X16608158Y-19012140D02*
X16589111Y-18983568D01*
X16589111Y-18983568D02*
X16579587Y-18974044D01*
M02*
