M48
; DRILL file {KiCad 7.0.10-7.0.10~ubuntu22.04.1} date Thu 10 Apr 2025 07:05:00 PM
; FORMAT={-:-/ absolute / metric / decimal}
; #@! TF.CreationDate,2025-04-10T19:05:00-06:00
; #@! TF.GenerationSoftware,Kicad,Pcbnew,7.0.10-7.0.10~ubuntu22.04.1
; #@! TF.FileFunction,Plated,1,2,PTH
FMAT,2
METRIC
; #@! TA.AperFunction,Plated,PTH,ViaDrill
T1C0.300
; #@! TA.AperFunction,Plated,PTH,ViaDrill
T2C0.500
; #@! TA.AperFunction,Plated,PTH,ViaDrill
T3C0.600
; #@! TA.AperFunction,Plated,PTH,ComponentDrill
T4C1.000
%
G90
G05
T1
X124.45Y-169.96
X132.55Y-172.79
X162.85Y-166.96
X164.92Y-179.9
X165.467Y-172.084
X165.58Y-165.82
X167.048Y-172.27
X168.16Y-160.27
X168.2Y-181.51
X168.825Y-178.885
X170.092Y-180.332
X170.38Y-160.98
X172.73Y-180.38
X173.106Y-163.696
X174.14Y-180.38
X174.336Y-172.156
X174.63Y-173.26
X174.74Y-162.05
X176.23Y-177.79
X176.52Y-170.0
X177.02Y-168.27
X177.94Y-174.83
X180.03Y-172.41
X182.87Y-179.85
X184.415Y-178.665
X212.32Y-177.5
X215.65Y-182.36
X239.57Y-175.41
X242.27Y-187.35
X246.52Y-176.37
X248.42Y-163.23
X248.72Y-186.42
X251.34Y-188.57
X251.72Y-182.72
X251.91Y-168.43
X252.28Y-152.91
X255.5Y-155.51
X255.57Y-162.15
X257.84Y-180.65
X258.47Y-155.5
X259.96Y-183.59
X260.522Y-170.324
X260.64Y-166.62
X260.79Y-162.92
X262.3Y-179.24
X263.54Y-170.37
X263.76Y-164.79
X265.03Y-161.47
X268.86Y-166.74
X269.3Y-163.3
X269.547Y-156.79
X269.89Y-187.69
X272.13Y-180.13
X273.78Y-161.73
T2
X116.79Y-115.532
X116.79Y-116.703
X116.79Y-117.782
X117.88Y-115.562
X117.88Y-116.733
X117.88Y-117.812
X118.28Y-109.062
X118.96Y-115.593
X118.96Y-116.762
X118.96Y-117.843
X120.06Y-115.593
X120.06Y-116.762
X120.06Y-117.843
X121.37Y-128.952
X122.9Y-103.72
X122.9Y-104.954
X122.9Y-106.188
X122.9Y-107.422
X124.08Y-103.69
X124.08Y-104.924
X124.08Y-106.158
X124.08Y-107.392
X124.89Y-110.852
X125.29Y-103.69
X125.29Y-104.924
X125.29Y-106.158
X125.29Y-107.392
X130.17Y-114.182
X130.17Y-115.262
X130.18Y-116.412
X131.33Y-114.182
X131.33Y-115.262
X131.34Y-116.412
X132.49Y-114.182
X132.49Y-115.262
X132.5Y-116.412
X133.65Y-114.182
X133.65Y-115.262
X133.66Y-116.412
X134.81Y-115.262
X134.82Y-116.412
X136.55Y-111.752
X145.38Y-99.192
X145.39Y-98.093
X146.47Y-99.192
X146.48Y-98.093
X147.56Y-99.192
X147.57Y-98.093
X148.15Y-123.447
X148.15Y-124.676
X148.15Y-125.904
X148.15Y-127.132
X149.32Y-123.447
X149.32Y-124.676
X149.32Y-125.904
X149.32Y-127.132
X150.51Y-123.447
X150.51Y-124.676
X150.51Y-125.904
X150.51Y-127.132
X189.65Y-116.942
X206.06Y-134.322
T3
X258.426Y-109.214
T4
X132.361Y-184.144
X132.361Y-186.684
X134.901Y-184.144
X134.901Y-186.684
X137.441Y-184.144
X137.441Y-186.684
X139.981Y-184.144
X139.981Y-186.684
X142.521Y-184.144
X142.521Y-186.684
X145.061Y-184.144
X145.061Y-186.684
X147.601Y-184.144
X147.601Y-186.684
X148.53Y-152.49
X148.53Y-155.03
X150.141Y-184.144
X150.141Y-186.684
X151.07Y-152.49
X151.07Y-155.03
X151.841Y-97.058
X151.841Y-99.598
X152.681Y-184.144
X152.681Y-186.684
X154.381Y-97.058
X154.381Y-99.598
X155.221Y-184.144
X155.221Y-186.684
X156.829Y-152.426
X156.829Y-154.966
X156.921Y-97.058
X156.921Y-99.598
X157.761Y-184.144
X157.761Y-186.684
X159.369Y-152.426
X159.369Y-154.966
X159.461Y-97.058
X159.461Y-99.598
X160.301Y-184.144
X160.301Y-186.684
X161.909Y-152.426
X161.909Y-154.966
X162.001Y-97.058
X162.001Y-99.598
X162.841Y-184.144
X162.841Y-186.684
X164.449Y-152.426
X164.449Y-154.966
X164.541Y-97.058
X164.541Y-99.598
X165.381Y-184.144
X165.381Y-186.684
X166.989Y-152.426
X166.989Y-154.966
X167.081Y-97.058
X167.081Y-99.598
X167.921Y-184.144
X167.921Y-186.684
X169.529Y-152.426
X169.529Y-154.966
X169.621Y-97.058
X169.621Y-99.598
X170.461Y-184.144
X170.461Y-186.684
X172.069Y-152.426
X172.069Y-154.966
X172.161Y-97.058
X172.161Y-99.598
X173.001Y-184.144
X173.001Y-186.684
X174.609Y-152.426
X174.609Y-154.966
X174.701Y-97.058
X174.701Y-99.598
X175.541Y-184.144
X175.541Y-186.684
X177.149Y-152.426
X177.149Y-154.966
X177.241Y-97.058
X177.241Y-99.598
X178.081Y-184.144
X178.081Y-186.684
X179.689Y-152.426
X179.689Y-154.966
X180.621Y-184.144
X180.621Y-186.684
X182.229Y-152.426
X182.229Y-154.966
X188.105Y-152.48
X188.105Y-155.02
X190.645Y-152.48
X190.645Y-155.02
X193.185Y-152.48
X193.185Y-155.02
X238.26Y-159.62
X238.26Y-162.16
X238.26Y-164.7
X238.27Y-168.43
X238.27Y-170.97
X238.59Y-105.442
X238.59Y-107.983
X238.59Y-110.522
X238.6Y-114.237
X238.6Y-116.777
X254.465Y-187.7
X254.795Y-133.507
X256.465Y-152.42
X256.795Y-98.227
X257.005Y-187.7
X257.335Y-133.507
X259.005Y-152.42
X259.335Y-98.227
X273.82Y-167.87
X273.82Y-170.41
X274.15Y-113.677
X274.15Y-116.218
M30
