G04 #@! TF.GenerationSoftware,KiCad,Pcbnew,9.0.1-9.0.1-0~ubuntu24.04.1*
G04 #@! TF.CreationDate,2025-04-20T11:34:57-06:00*
G04 #@! TF.ProjectId,Controller,436f6e74-726f-46c6-9c65-722e6b696361,rev?*
G04 #@! TF.SameCoordinates,Original*
G04 #@! TF.FileFunction,Paste,Top*
G04 #@! TF.FilePolarity,Positive*
%FSLAX46Y46*%
G04 Gerber Fmt 4.6, Leading zero omitted, Abs format (unit mm)*
G04 Created by KiCad (PCBNEW 9.0.1-9.0.1-0~ubuntu24.04.1) date 2025-04-20 11:34:57*
%MOMM*%
%LPD*%
G01*
G04 APERTURE LIST*
G04 Aperture macros list*
%AMRoundRect*
0 Rectangle with rounded corners*
0 $1 Rounding radius*
0 $2 $3 $4 $5 $6 $7 $8 $9 X,Y pos of 4 corners*
0 Add a 4 corners polygon primitive as box body*
4,1,4,$2,$3,$4,$5,$6,$7,$8,$9,$2,$3,0*
0 Add four circle primitives for the rounded corners*
1,1,$1+$1,$2,$3*
1,1,$1+$1,$4,$5*
1,1,$1+$1,$6,$7*
1,1,$1+$1,$8,$9*
0 Add four rect primitives between the rounded corners*
20,1,$1+$1,$2,$3,$4,$5,0*
20,1,$1+$1,$4,$5,$6,$7,0*
20,1,$1+$1,$6,$7,$8,$9,0*
20,1,$1+$1,$8,$9,$2,$3,0*%
%AMRotRect*
0 Rectangle, with rotation*
0 The origin of the aperture is its center*
0 $1 length*
0 $2 width*
0 $3 Rotation angle, in degrees counterclockwise*
0 Add horizontal line*
21,1,$1,$2,0,0,$3*%
G04 Aperture macros list end*
%ADD10RoundRect,0.237500X-0.044194X-0.380070X0.380070X0.044194X0.044194X0.380070X-0.380070X-0.044194X0*%
%ADD11RoundRect,0.073750X-0.716250X-0.221250X0.716250X-0.221250X0.716250X0.221250X-0.716250X0.221250X0*%
%ADD12R,0.558800X1.981200*%
%ADD13R,0.711200X0.990600*%
%ADD14RotRect,1.300000X1.100000X225.000000*%
%ADD15RoundRect,0.237500X-0.344715X0.008839X0.008839X-0.344715X0.344715X-0.008839X-0.008839X0.344715X0*%
%ADD16RoundRect,0.200000X0.335876X0.053033X0.053033X0.335876X-0.335876X-0.053033X-0.053033X-0.335876X0*%
%ADD17RoundRect,0.237500X0.344715X-0.008839X-0.008839X0.344715X-0.344715X0.008839X0.008839X-0.344715X0*%
%ADD18RoundRect,0.237500X0.044194X0.380070X-0.380070X-0.044194X-0.044194X-0.380070X0.380070X0.044194X0*%
%ADD19RoundRect,0.250000X0.353553X0.000000X0.000000X0.353553X-0.353553X0.000000X0.000000X-0.353553X0*%
%ADD20RotRect,1.600000X0.550000X45.000000*%
%ADD21RotRect,1.600000X0.550000X135.000000*%
%ADD22RoundRect,0.237500X0.008839X0.344715X-0.344715X-0.008839X-0.008839X-0.344715X0.344715X0.008839X0*%
%ADD23RoundRect,0.237500X-0.380070X0.044194X0.044194X-0.380070X0.380070X-0.044194X-0.044194X0.380070X0*%
%ADD24RoundRect,0.250000X0.412500X1.100000X-0.412500X1.100000X-0.412500X-1.100000X0.412500X-1.100000X0*%
%ADD25RoundRect,0.237500X0.237500X-0.250000X0.237500X0.250000X-0.237500X0.250000X-0.237500X-0.250000X0*%
%ADD26R,0.900000X1.500000*%
%ADD27RoundRect,0.200000X-0.275000X0.200000X-0.275000X-0.200000X0.275000X-0.200000X0.275000X0.200000X0*%
%ADD28RoundRect,0.237500X0.300000X0.237500X-0.300000X0.237500X-0.300000X-0.237500X0.300000X-0.237500X0*%
%ADD29RoundRect,0.237500X0.237500X-0.300000X0.237500X0.300000X-0.237500X0.300000X-0.237500X-0.300000X0*%
%ADD30RoundRect,0.237500X-0.237500X0.250000X-0.237500X-0.250000X0.237500X-0.250000X0.237500X0.250000X0*%
G04 APERTURE END LIST*
D10*
X160350120Y-173761880D03*
X161569880Y-172542120D03*
D11*
X136540850Y-176550000D03*
X136540850Y-177820000D03*
X136540850Y-179090000D03*
X136540850Y-180360000D03*
X131290850Y-180360000D03*
X131290850Y-176550000D03*
X131290850Y-177820000D03*
X131290850Y-179090000D03*
D12*
X151585000Y-168876200D03*
X150315000Y-168876200D03*
X149045000Y-168876200D03*
X147775000Y-168876200D03*
X147775000Y-173803800D03*
X149045000Y-173803800D03*
X150315000Y-173803800D03*
X151585000Y-173803800D03*
D13*
X124320002Y-171690002D03*
X124320002Y-167190000D03*
X126470000Y-171690002D03*
X126470000Y-167190000D03*
X213820002Y-163180002D03*
X213820002Y-158680000D03*
X215970000Y-163180002D03*
X215970000Y-158680000D03*
D14*
X164569664Y-175592764D03*
X162943318Y-177219110D03*
X164216110Y-178491902D03*
X165842456Y-176865556D03*
D15*
X173776765Y-177123529D03*
X172486295Y-175833059D03*
D16*
X171552637Y-177140637D03*
X172719363Y-178307363D03*
D17*
X173660000Y-174676000D03*
X174950470Y-175966470D03*
D10*
X165669293Y-180079551D03*
X166889053Y-178859791D03*
D18*
X163400475Y-174362428D03*
X162180715Y-175582188D03*
D19*
X161187353Y-163046396D03*
X159419587Y-161278630D03*
D20*
X162594897Y-170113305D03*
X163160583Y-170678990D03*
X163726268Y-171244676D03*
X164291953Y-171810361D03*
X164857639Y-172376047D03*
X165423324Y-172941732D03*
X165989010Y-173507417D03*
X166554695Y-174073103D03*
D21*
X168605305Y-174073103D03*
X169170990Y-173507417D03*
X169736676Y-172941732D03*
X170302361Y-172376047D03*
X170868047Y-171810361D03*
X171433732Y-171244676D03*
X171999417Y-170678990D03*
X172565103Y-170113305D03*
D20*
X172565103Y-168062695D03*
X171999417Y-167497010D03*
X171433732Y-166931324D03*
X170868047Y-166365639D03*
X170302361Y-165799953D03*
X169736676Y-165234268D03*
X169170990Y-164668583D03*
X168605305Y-164102897D03*
D21*
X166554695Y-164102897D03*
X165989010Y-164668583D03*
X165423324Y-165234268D03*
X164857639Y-165799953D03*
X164291953Y-166365639D03*
X163726268Y-166931324D03*
X163160583Y-167497010D03*
X162594897Y-168062695D03*
D15*
X154801221Y-165928749D03*
X156091691Y-167219219D03*
D17*
X162472705Y-161791748D03*
X161182235Y-160501278D03*
D15*
X162346765Y-159298765D03*
X163637235Y-160589235D03*
X158134235Y-162533278D03*
X159424705Y-163823748D03*
X157003861Y-163675841D03*
X158294331Y-164966311D03*
D17*
X157176033Y-166087026D03*
X155885563Y-164796556D03*
D22*
X159658303Y-170717876D03*
X158367833Y-172008346D03*
D23*
X163484480Y-158189668D03*
X164704240Y-159409428D03*
X172198210Y-164234300D03*
X173417970Y-165454060D03*
D24*
X173525495Y-158528772D03*
X170400495Y-158528772D03*
D25*
X149285001Y-177826300D03*
X149285001Y-176001300D03*
D26*
X212320000Y-182400000D03*
X215620000Y-182400000D03*
X215620000Y-177500000D03*
X212320000Y-177500000D03*
D27*
X130790000Y-172805000D03*
X130790000Y-174455000D03*
D28*
X213760000Y-184610000D03*
X212035000Y-184610000D03*
D29*
X153315000Y-174123800D03*
X153315000Y-172398800D03*
D30*
X128680000Y-176547500D03*
X128680000Y-178372500D03*
D25*
X147635000Y-177826300D03*
X147635000Y-176001300D03*
M02*
