G04 #@! TF.GenerationSoftware,KiCad,Pcbnew,9.0.1-9.0.1-0~ubuntu24.04.1*
G04 #@! TF.CreationDate,2025-04-20T11:34:57-06:00*
G04 #@! TF.ProjectId,Controller,436f6e74-726f-46c6-9c65-722e6b696361,rev?*
G04 #@! TF.SameCoordinates,Original*
G04 #@! TF.FileFunction,Copper,L2,Bot*
G04 #@! TF.FilePolarity,Positive*
%FSLAX46Y46*%
G04 Gerber Fmt 4.6, Leading zero omitted, Abs format (unit mm)*
G04 Created by KiCad (PCBNEW 9.0.1-9.0.1-0~ubuntu24.04.1) date 2025-04-20 11:34:57*
%MOMM*%
%LPD*%
G01*
G04 APERTURE LIST*
G04 #@! TA.AperFunction,ComponentPad*
%ADD10R,1.700000X1.700000*%
G04 #@! TD*
G04 #@! TA.AperFunction,ComponentPad*
%ADD11O,1.700000X1.700000*%
G04 #@! TD*
G04 #@! TA.AperFunction,ViaPad*
%ADD12C,1.000000*%
G04 #@! TD*
G04 #@! TA.AperFunction,ViaPad*
%ADD13C,0.900000*%
G04 #@! TD*
G04 #@! TA.AperFunction,Conductor*
%ADD14C,0.300000*%
G04 #@! TD*
G04 #@! TA.AperFunction,Conductor*
%ADD15C,0.500000*%
G04 #@! TD*
G04 APERTURE END LIST*
D10*
X180620682Y-184144257D03*
D11*
X180620682Y-186684257D03*
X178080682Y-184144257D03*
X178080682Y-186684257D03*
X175540682Y-184144257D03*
X175540682Y-186684257D03*
X173000682Y-184144257D03*
X173000682Y-186684257D03*
X170460682Y-184144257D03*
X170460682Y-186684257D03*
X167920682Y-184144257D03*
X167920682Y-186684257D03*
X165380682Y-184144257D03*
X165380682Y-186684257D03*
X162840682Y-184144257D03*
X162840682Y-186684257D03*
X160300682Y-184144257D03*
X160300682Y-186684257D03*
X157760682Y-184144257D03*
X157760682Y-186684257D03*
X155220682Y-184144257D03*
X155220682Y-186684257D03*
X152680682Y-184144257D03*
X152680682Y-186684257D03*
X150140682Y-184144257D03*
X150140682Y-186684257D03*
X147600682Y-184144257D03*
X147600682Y-186684257D03*
X145060682Y-184144257D03*
X145060682Y-186684257D03*
X142520682Y-184144257D03*
X142520682Y-186684257D03*
X139980682Y-184144257D03*
X139980682Y-186684257D03*
X137440682Y-184144257D03*
X137440682Y-186684257D03*
X134900682Y-184144257D03*
X134900682Y-186684257D03*
X132360682Y-184144257D03*
X132360682Y-186684257D03*
D10*
X193660144Y-155100134D03*
D11*
X193660144Y-152560134D03*
X191120144Y-155100134D03*
X191120144Y-152560134D03*
X188580144Y-155100134D03*
X188580144Y-152560134D03*
D10*
X151070000Y-152490000D03*
D11*
X148530000Y-152490000D03*
X151070000Y-155030000D03*
X148530000Y-155030000D03*
D10*
X156829318Y-152425743D03*
D11*
X159369318Y-152425743D03*
X161909318Y-152425743D03*
X164449318Y-152425743D03*
X166989318Y-152425743D03*
X169529318Y-152425743D03*
X172069318Y-152425743D03*
X174609318Y-152425743D03*
X177149318Y-152425743D03*
X179689318Y-152425743D03*
X182229318Y-152425743D03*
X156829318Y-154965743D03*
X159369318Y-154965743D03*
X161909318Y-154965743D03*
X164449318Y-154965743D03*
X166989318Y-154965743D03*
X169529318Y-154965743D03*
X172069318Y-154965743D03*
X174609318Y-154965743D03*
X177149318Y-154965743D03*
X179689318Y-154965743D03*
X182229318Y-154965743D03*
D12*
X138608000Y-174168000D03*
X140132000Y-174168000D03*
X140132000Y-170104000D03*
X187884000Y-173660000D03*
X185852000Y-173660000D03*
X187884000Y-176708000D03*
X185852000Y-176708000D03*
X187884000Y-180264000D03*
X185852000Y-180264000D03*
X183820000Y-180264000D03*
X183820000Y-176708000D03*
X183820000Y-173660000D03*
X203632000Y-173152000D03*
X185344000Y-171628000D03*
X184328000Y-171628000D03*
X183312000Y-171628000D03*
X160452000Y-166040000D03*
X164516000Y-169596000D03*
X140132000Y-168072000D03*
X140132000Y-166040000D03*
X140132000Y-164008000D03*
X146228000Y-162992000D03*
X149276000Y-159944000D03*
X147752000Y-162992000D03*
X147752000Y-159944000D03*
X159436000Y-158420000D03*
X159436000Y-156896000D03*
X167056000Y-161468000D03*
X167056000Y-159944000D03*
X167056000Y-158420000D03*
X167056000Y-156896000D03*
X178232000Y-173660000D03*
X180264000Y-173660000D03*
X178232000Y-176708000D03*
X180264000Y-176708000D03*
X180264000Y-180264000D03*
X178232000Y-180264000D03*
X169088000Y-177724000D03*
X170612000Y-179248000D03*
X169088000Y-180264000D03*
X160452000Y-180264000D03*
X158420000Y-178232000D03*
X156896000Y-176708000D03*
X155372000Y-175184000D03*
X137084000Y-174168000D03*
X135560000Y-174168000D03*
X134036000Y-174168000D03*
X132512000Y-174168000D03*
X132512000Y-175692000D03*
X132512000Y-177216000D03*
X132512000Y-178740000D03*
X176200000Y-180264000D03*
X153340000Y-169596000D03*
X197536000Y-169088000D03*
X176200000Y-177216000D03*
X211760000Y-160960000D03*
X140132000Y-161468000D03*
X146228000Y-161468000D03*
X160493206Y-171586794D03*
X165024000Y-161976000D03*
X172136000Y-173152000D03*
X144888003Y-181788000D03*
X158420000Y-167056000D03*
X143688000Y-181788000D03*
X156896000Y-173660000D03*
X212268000Y-175184000D03*
X174676000Y-161976000D03*
X164615966Y-168162948D03*
X166548000Y-168580000D03*
X180264000Y-169088000D03*
X176200000Y-174334000D03*
X176160394Y-168619606D03*
X190932000Y-159436000D03*
X176200000Y-170104000D03*
X176200000Y-171628000D03*
D13*
X161293472Y-165092025D03*
X132550000Y-172790000D03*
D12*
X180264000Y-164516000D03*
D14*
X203632000Y-173152000D02*
X194961144Y-164481144D01*
X194961144Y-164481144D02*
X194961144Y-162010856D01*
D15*
X184328000Y-171628000D02*
X185344000Y-171628000D01*
X183312000Y-171628000D02*
X184328000Y-171628000D01*
X185344000Y-171628000D02*
X194961144Y-162010856D01*
X194961144Y-162010856D02*
X194961144Y-153861134D01*
X194961144Y-153861134D02*
X193660144Y-152560134D01*
D14*
X146228000Y-161468000D02*
X140132000Y-161468000D01*
X166868504Y-167056000D02*
X172644000Y-167056000D01*
X165761556Y-168162948D02*
X166868504Y-167056000D01*
X164615966Y-168162948D02*
X165761556Y-168162948D01*
X172644000Y-167056000D02*
X174676000Y-165024000D01*
X174676000Y-165024000D02*
X174676000Y-161976000D01*
X167056000Y-181788000D02*
X171628000Y-181788000D01*
X161501682Y-182837682D02*
X161468000Y-182804000D01*
X161501682Y-185483257D02*
X161501682Y-182837682D01*
X171628000Y-181788000D02*
X176200000Y-177216000D01*
X160300682Y-186684257D02*
X161501682Y-185483257D01*
X161468000Y-182804000D02*
X162484000Y-181788000D01*
X162484000Y-181788000D02*
X167056000Y-181788000D01*
X211760000Y-159944000D02*
X211760000Y-160960000D01*
X174077000Y-150891000D02*
X174676000Y-150891000D01*
X173270318Y-151697682D02*
X174077000Y-150891000D01*
X173270318Y-153764743D02*
X173270318Y-151697682D01*
X172069318Y-154965743D02*
X173270318Y-153764743D01*
X174676000Y-150891000D02*
X202707000Y-150891000D01*
X202707000Y-150891000D02*
X211760000Y-159944000D01*
X160493206Y-171586794D02*
X159290000Y-172790000D01*
X159290000Y-172790000D02*
X132550000Y-172790000D01*
X163500000Y-164008000D02*
X165024000Y-162484000D01*
X165024000Y-162484000D02*
X165024000Y-161976000D01*
X159369318Y-152425743D02*
X158168318Y-153626743D01*
X158168318Y-153626743D02*
X158168318Y-158676318D01*
X158168318Y-158676318D02*
X163500000Y-164008000D01*
X170612000Y-174676000D02*
X165532000Y-174676000D01*
X172136000Y-173152000D02*
X170612000Y-174676000D01*
X165532000Y-174676000D02*
X162992000Y-172136000D01*
X162992000Y-172136000D02*
X162992000Y-165024000D01*
X162992000Y-165024000D02*
X156829318Y-158861318D01*
X156829318Y-158861318D02*
X156829318Y-154965743D01*
X176200000Y-174334000D02*
X176200000Y-173152000D01*
X176200000Y-173152000D02*
X180264000Y-169088000D01*
X146261682Y-187409682D02*
X146736000Y-187884000D01*
X144888003Y-181788000D02*
X146261682Y-183161679D01*
X146261682Y-183161679D02*
X146261682Y-187409682D01*
X169260939Y-187884000D02*
X170460682Y-186684257D01*
X146736000Y-187884000D02*
X169260939Y-187884000D01*
X149731000Y-158367000D02*
X158420000Y-167056000D01*
X149731000Y-153691000D02*
X149731000Y-158367000D01*
X148530000Y-152490000D02*
X149731000Y-153691000D01*
X170784939Y-188900000D02*
X167564000Y-188900000D01*
X173000682Y-186684257D02*
X170784939Y-188900000D01*
X167564000Y-188900000D02*
X145439954Y-188900000D01*
X145439954Y-188900000D02*
X143721682Y-187181728D01*
X143721682Y-187181728D02*
X143721682Y-181821682D01*
X143721682Y-181821682D02*
X143688000Y-181788000D01*
X212268000Y-175184000D02*
X158420000Y-175184000D01*
X158420000Y-175184000D02*
X156896000Y-173660000D01*
X166548000Y-168580000D02*
X167519870Y-167608130D01*
X167519870Y-167608130D02*
X175139870Y-167608130D01*
X175139870Y-167608130D02*
X187647866Y-155100134D01*
X187647866Y-155100134D02*
X188580144Y-155100134D01*
X176160394Y-168619606D02*
X178740000Y-166040000D01*
X178740000Y-166040000D02*
X186868000Y-166040000D01*
X189916000Y-156304278D02*
X191120144Y-155100134D01*
X186868000Y-166040000D02*
X189916000Y-162992000D01*
X189916000Y-162992000D02*
X189916000Y-156304278D01*
X176200000Y-170104000D02*
X179248000Y-167056000D01*
X179248000Y-167056000D02*
X187376000Y-167056000D01*
X187376000Y-167056000D02*
X190932000Y-163500000D01*
X190932000Y-163500000D02*
X190932000Y-159436000D01*
X176200000Y-171628000D02*
X179756000Y-168072000D01*
X179756000Y-168072000D02*
X187376000Y-168072000D01*
X192321144Y-163126856D02*
X192321144Y-153761134D01*
X187376000Y-168072000D02*
X192321144Y-163126856D01*
X192321144Y-153761134D02*
X191120144Y-152560134D01*
X161293472Y-165092025D02*
X161132025Y-165092025D01*
X161132025Y-165092025D02*
X151070000Y-155030000D01*
G04 #@! TA.AperFunction,Conductor*
G36*
X173428785Y-150760185D02*
G01*
X173474540Y-150812989D01*
X173484484Y-150882147D01*
X173455459Y-150945703D01*
X173449427Y-150952181D01*
X172949840Y-151451766D01*
X172949838Y-151451769D01*
X172897109Y-151543096D01*
X172876799Y-151618900D01*
X172869818Y-151644952D01*
X172869818Y-153547487D01*
X172850133Y-153614526D01*
X172833499Y-153635168D01*
X172568917Y-153899749D01*
X172507594Y-153933234D01*
X172442918Y-153929999D01*
X172327016Y-153892340D01*
X172195589Y-153871524D01*
X172155929Y-153865243D01*
X171982707Y-153865243D01*
X171943046Y-153871524D01*
X171811620Y-153892340D01*
X171646870Y-153945871D01*
X171492529Y-154024511D01*
X171459458Y-154048539D01*
X171352390Y-154126329D01*
X171352388Y-154126331D01*
X171352387Y-154126331D01*
X171229906Y-154248812D01*
X171229906Y-154248813D01*
X171229904Y-154248815D01*
X171186177Y-154308999D01*
X171128086Y-154388954D01*
X171049446Y-154543295D01*
X171049445Y-154543297D01*
X171049445Y-154543298D01*
X171029234Y-154605500D01*
X170995915Y-154708045D01*
X170972763Y-154854223D01*
X170968818Y-154879132D01*
X170968818Y-155052354D01*
X170995916Y-155223444D01*
X171049445Y-155388188D01*
X171128086Y-155542531D01*
X171229904Y-155682671D01*
X171352390Y-155805157D01*
X171492530Y-155906975D01*
X171646873Y-155985616D01*
X171811617Y-156039145D01*
X171982707Y-156066243D01*
X171982708Y-156066243D01*
X172155928Y-156066243D01*
X172155929Y-156066243D01*
X172327019Y-156039145D01*
X172491763Y-155985616D01*
X172646106Y-155906975D01*
X172786246Y-155805157D01*
X172908732Y-155682671D01*
X173010550Y-155542531D01*
X173089191Y-155388188D01*
X173142720Y-155223444D01*
X173169818Y-155052354D01*
X173169818Y-154879132D01*
X176048818Y-154879132D01*
X176048818Y-155052354D01*
X176075916Y-155223444D01*
X176129445Y-155388188D01*
X176208086Y-155542531D01*
X176309904Y-155682671D01*
X176432390Y-155805157D01*
X176572530Y-155906975D01*
X176726873Y-155985616D01*
X176891617Y-156039145D01*
X177062707Y-156066243D01*
X177062708Y-156066243D01*
X177235928Y-156066243D01*
X177235929Y-156066243D01*
X177407019Y-156039145D01*
X177571763Y-155985616D01*
X177726106Y-155906975D01*
X177866246Y-155805157D01*
X177988732Y-155682671D01*
X178090550Y-155542531D01*
X178169191Y-155388188D01*
X178222720Y-155223444D01*
X178249818Y-155052354D01*
X178249818Y-154879132D01*
X178588818Y-154879132D01*
X178588818Y-155052354D01*
X178615916Y-155223444D01*
X178669445Y-155388188D01*
X178748086Y-155542531D01*
X178849904Y-155682671D01*
X178972390Y-155805157D01*
X179112530Y-155906975D01*
X179266873Y-155985616D01*
X179431617Y-156039145D01*
X179602707Y-156066243D01*
X179602708Y-156066243D01*
X179775928Y-156066243D01*
X179775929Y-156066243D01*
X179947019Y-156039145D01*
X180111763Y-155985616D01*
X180266106Y-155906975D01*
X180406246Y-155805157D01*
X180528732Y-155682671D01*
X180630550Y-155542531D01*
X180709191Y-155388188D01*
X180762720Y-155223444D01*
X180789818Y-155052354D01*
X180789818Y-154879132D01*
X181128818Y-154879132D01*
X181128818Y-155052354D01*
X181155916Y-155223444D01*
X181209445Y-155388188D01*
X181288086Y-155542531D01*
X181389904Y-155682671D01*
X181512390Y-155805157D01*
X181652530Y-155906975D01*
X181806873Y-155985616D01*
X181971617Y-156039145D01*
X182142707Y-156066243D01*
X182142708Y-156066243D01*
X182315928Y-156066243D01*
X182315929Y-156066243D01*
X182487019Y-156039145D01*
X182651763Y-155985616D01*
X182806106Y-155906975D01*
X182946246Y-155805157D01*
X183068732Y-155682671D01*
X183170550Y-155542531D01*
X183249191Y-155388188D01*
X183302720Y-155223444D01*
X183329818Y-155052354D01*
X183329818Y-154879132D01*
X183302720Y-154708042D01*
X183249191Y-154543298D01*
X183170550Y-154388955D01*
X183068732Y-154248815D01*
X182946246Y-154126329D01*
X182806106Y-154024511D01*
X182651763Y-153945870D01*
X182487019Y-153892341D01*
X182487017Y-153892340D01*
X182487016Y-153892340D01*
X182355589Y-153871524D01*
X182315929Y-153865243D01*
X182142707Y-153865243D01*
X182103046Y-153871524D01*
X181971620Y-153892340D01*
X181806870Y-153945871D01*
X181652529Y-154024511D01*
X181619458Y-154048539D01*
X181512390Y-154126329D01*
X181512388Y-154126331D01*
X181512387Y-154126331D01*
X181389906Y-154248812D01*
X181389906Y-154248813D01*
X181389904Y-154248815D01*
X181346177Y-154308999D01*
X181288086Y-154388954D01*
X181209446Y-154543295D01*
X181209445Y-154543297D01*
X181209445Y-154543298D01*
X181189234Y-154605500D01*
X181155915Y-154708045D01*
X181132763Y-154854223D01*
X181128818Y-154879132D01*
X180789818Y-154879132D01*
X180762720Y-154708042D01*
X180709191Y-154543298D01*
X180630550Y-154388955D01*
X180528732Y-154248815D01*
X180406246Y-154126329D01*
X180266106Y-154024511D01*
X180111763Y-153945870D01*
X179947019Y-153892341D01*
X179947017Y-153892340D01*
X179947016Y-153892340D01*
X179815589Y-153871524D01*
X179775929Y-153865243D01*
X179602707Y-153865243D01*
X179563046Y-153871524D01*
X179431620Y-153892340D01*
X179266870Y-153945871D01*
X179112529Y-154024511D01*
X179079458Y-154048539D01*
X178972390Y-154126329D01*
X178972388Y-154126331D01*
X178972387Y-154126331D01*
X178849906Y-154248812D01*
X178849906Y-154248813D01*
X178849904Y-154248815D01*
X178806177Y-154308999D01*
X178748086Y-154388954D01*
X178669446Y-154543295D01*
X178669445Y-154543297D01*
X178669445Y-154543298D01*
X178649234Y-154605500D01*
X178615915Y-154708045D01*
X178592763Y-154854223D01*
X178588818Y-154879132D01*
X178249818Y-154879132D01*
X178222720Y-154708042D01*
X178169191Y-154543298D01*
X178090550Y-154388955D01*
X177988732Y-154248815D01*
X177866246Y-154126329D01*
X177726106Y-154024511D01*
X177571763Y-153945870D01*
X177407019Y-153892341D01*
X177407017Y-153892340D01*
X177407016Y-153892340D01*
X177275589Y-153871524D01*
X177235929Y-153865243D01*
X177062707Y-153865243D01*
X177023046Y-153871524D01*
X176891620Y-153892340D01*
X176726870Y-153945871D01*
X176572529Y-154024511D01*
X176539458Y-154048539D01*
X176432390Y-154126329D01*
X176432388Y-154126331D01*
X176432387Y-154126331D01*
X176309906Y-154248812D01*
X176309906Y-154248813D01*
X176309904Y-154248815D01*
X176266177Y-154308999D01*
X176208086Y-154388954D01*
X176129446Y-154543295D01*
X176129445Y-154543297D01*
X176129445Y-154543298D01*
X176109234Y-154605500D01*
X176075915Y-154708045D01*
X176052763Y-154854223D01*
X176048818Y-154879132D01*
X173169818Y-154879132D01*
X173142720Y-154708042D01*
X173105059Y-154592136D01*
X173103065Y-154522301D01*
X173135308Y-154466144D01*
X173590798Y-154010656D01*
X173596979Y-153999950D01*
X173643525Y-153919330D01*
X173670818Y-153817470D01*
X173670818Y-153342947D01*
X173690503Y-153275908D01*
X173743307Y-153230153D01*
X173812465Y-153220209D01*
X173876021Y-153249234D01*
X173882499Y-153255266D01*
X173892390Y-153265157D01*
X174032530Y-153366975D01*
X174186873Y-153445616D01*
X174351617Y-153499145D01*
X174522707Y-153526243D01*
X174522708Y-153526243D01*
X174695928Y-153526243D01*
X174695929Y-153526243D01*
X174867019Y-153499145D01*
X175031763Y-153445616D01*
X175186106Y-153366975D01*
X175326246Y-153265157D01*
X175448732Y-153142671D01*
X175550550Y-153002531D01*
X175629191Y-152848188D01*
X175682720Y-152683444D01*
X175709818Y-152512354D01*
X175709818Y-152339132D01*
X175682720Y-152168042D01*
X175629191Y-152003298D01*
X175550550Y-151848955D01*
X175448732Y-151708815D01*
X175326246Y-151586329D01*
X175229195Y-151515817D01*
X175186531Y-151460488D01*
X175180552Y-151390874D01*
X175213158Y-151329079D01*
X175273997Y-151294722D01*
X175302082Y-151291500D01*
X176456554Y-151291500D01*
X176523593Y-151311185D01*
X176569348Y-151363989D01*
X176579292Y-151433147D01*
X176550267Y-151496703D01*
X176529440Y-151515817D01*
X176432390Y-151586329D01*
X176432388Y-151586331D01*
X176432387Y-151586331D01*
X176309906Y-151708812D01*
X176309906Y-151708813D01*
X176309904Y-151708815D01*
X176301253Y-151720722D01*
X176208086Y-151848954D01*
X176129446Y-152003295D01*
X176075915Y-152168045D01*
X176048818Y-152339132D01*
X176048818Y-152512353D01*
X176075915Y-152683440D01*
X176075915Y-152683442D01*
X176075916Y-152683444D01*
X176129445Y-152848188D01*
X176208086Y-153002531D01*
X176309904Y-153142671D01*
X176432390Y-153265157D01*
X176572530Y-153366975D01*
X176726873Y-153445616D01*
X176891617Y-153499145D01*
X177062707Y-153526243D01*
X177062708Y-153526243D01*
X177235928Y-153526243D01*
X177235929Y-153526243D01*
X177407019Y-153499145D01*
X177571763Y-153445616D01*
X177726106Y-153366975D01*
X177866246Y-153265157D01*
X177988732Y-153142671D01*
X178090550Y-153002531D01*
X178169191Y-152848188D01*
X178222720Y-152683444D01*
X178249818Y-152512354D01*
X178249818Y-152339132D01*
X178222720Y-152168042D01*
X178169191Y-152003298D01*
X178090550Y-151848955D01*
X177988732Y-151708815D01*
X177866246Y-151586329D01*
X177769195Y-151515817D01*
X177726531Y-151460488D01*
X177720552Y-151390874D01*
X177753158Y-151329079D01*
X177813997Y-151294722D01*
X177842082Y-151291500D01*
X181536554Y-151291500D01*
X181603593Y-151311185D01*
X181649348Y-151363989D01*
X181659292Y-151433147D01*
X181630267Y-151496703D01*
X181609440Y-151515817D01*
X181512390Y-151586329D01*
X181512388Y-151586331D01*
X181512387Y-151586331D01*
X181389906Y-151708812D01*
X181389906Y-151708813D01*
X181389904Y-151708815D01*
X181381253Y-151720722D01*
X181288086Y-151848954D01*
X181209446Y-152003295D01*
X181155915Y-152168045D01*
X181128818Y-152339132D01*
X181128818Y-152512353D01*
X181155915Y-152683440D01*
X181155915Y-152683442D01*
X181155916Y-152683444D01*
X181209445Y-152848188D01*
X181288086Y-153002531D01*
X181389904Y-153142671D01*
X181512390Y-153265157D01*
X181652530Y-153366975D01*
X181806873Y-153445616D01*
X181971617Y-153499145D01*
X182142707Y-153526243D01*
X182142708Y-153526243D01*
X182315928Y-153526243D01*
X182315929Y-153526243D01*
X182487019Y-153499145D01*
X182651763Y-153445616D01*
X182806106Y-153366975D01*
X182946246Y-153265157D01*
X183068732Y-153142671D01*
X183170550Y-153002531D01*
X183249191Y-152848188D01*
X183302720Y-152683444D01*
X183329818Y-152512354D01*
X183329818Y-152339132D01*
X183302720Y-152168042D01*
X183249191Y-152003298D01*
X183170550Y-151848955D01*
X183068732Y-151708815D01*
X182946246Y-151586329D01*
X182849195Y-151515817D01*
X182806531Y-151460488D01*
X182800552Y-151390874D01*
X182833158Y-151329079D01*
X182893997Y-151294722D01*
X182922082Y-151291500D01*
X190680402Y-151291500D01*
X190747441Y-151311185D01*
X190793196Y-151363989D01*
X190803140Y-151433147D01*
X190774115Y-151496703D01*
X190718722Y-151533429D01*
X190709201Y-151536523D01*
X190697694Y-151540262D01*
X190543355Y-151618902D01*
X190499744Y-151650588D01*
X190403216Y-151720720D01*
X190403214Y-151720722D01*
X190403213Y-151720722D01*
X190280732Y-151843203D01*
X190280732Y-151843204D01*
X190280730Y-151843206D01*
X190247916Y-151888370D01*
X190178912Y-151983345D01*
X190100272Y-152137686D01*
X190046741Y-152302436D01*
X190019644Y-152473523D01*
X190019644Y-152646745D01*
X190046742Y-152817835D01*
X190100271Y-152982579D01*
X190178912Y-153136922D01*
X190280730Y-153277062D01*
X190403216Y-153399548D01*
X190543356Y-153501366D01*
X190697699Y-153580007D01*
X190862443Y-153633536D01*
X191033533Y-153660634D01*
X191033534Y-153660634D01*
X191206754Y-153660634D01*
X191206755Y-153660634D01*
X191377845Y-153633536D01*
X191493746Y-153595876D01*
X191563586Y-153593882D01*
X191619744Y-153626127D01*
X191884325Y-153890708D01*
X191899028Y-153917635D01*
X191915621Y-153943454D01*
X191916512Y-153949654D01*
X191917810Y-153952031D01*
X191920644Y-153978389D01*
X191920644Y-154078074D01*
X191900959Y-154145113D01*
X191848155Y-154190868D01*
X191778997Y-154200812D01*
X191723759Y-154178393D01*
X191696931Y-154158901D01*
X191542591Y-154080262D01*
X191542590Y-154080261D01*
X191542589Y-154080261D01*
X191377845Y-154026732D01*
X191377843Y-154026731D01*
X191377842Y-154026731D01*
X191208857Y-153999967D01*
X191206755Y-153999634D01*
X191033533Y-153999634D01*
X191031431Y-153999967D01*
X190862446Y-154026731D01*
X190697696Y-154080262D01*
X190543355Y-154158902D01*
X190486133Y-154200477D01*
X190403216Y-154260720D01*
X190403214Y-154260722D01*
X190403213Y-154260722D01*
X190280732Y-154383203D01*
X190280732Y-154383204D01*
X190280730Y-154383206D01*
X190263855Y-154406433D01*
X190178912Y-154523345D01*
X190100272Y-154677686D01*
X190046741Y-154842436D01*
X190019644Y-155013523D01*
X190019644Y-155186744D01*
X190046741Y-155357832D01*
X190084400Y-155473734D01*
X190086395Y-155543575D01*
X190054150Y-155599733D01*
X189595522Y-156058362D01*
X189595518Y-156058368D01*
X189542792Y-156149690D01*
X189542793Y-156149691D01*
X189515500Y-156251551D01*
X189515500Y-162774745D01*
X189495815Y-162841784D01*
X189479181Y-162862426D01*
X186738426Y-165603181D01*
X186677103Y-165636666D01*
X186650745Y-165639500D01*
X178687273Y-165639500D01*
X178585412Y-165666793D01*
X178585409Y-165666794D01*
X178539750Y-165693155D01*
X178539750Y-165693156D01*
X178505733Y-165712796D01*
X178494087Y-165719520D01*
X178494084Y-165719522D01*
X178419518Y-165794089D01*
X176373085Y-167840520D01*
X176311762Y-167874005D01*
X176261214Y-167874457D01*
X176234312Y-167869106D01*
X176086476Y-167869106D01*
X176086474Y-167869106D01*
X175941486Y-167897946D01*
X175941476Y-167897949D01*
X175804905Y-167954518D01*
X175804892Y-167954525D01*
X175681978Y-168036654D01*
X175681974Y-168036657D01*
X175577445Y-168141186D01*
X175577442Y-168141190D01*
X175495313Y-168264104D01*
X175495306Y-168264117D01*
X175438737Y-168400688D01*
X175438734Y-168400698D01*
X175409894Y-168545685D01*
X175409894Y-168545688D01*
X175409894Y-168693524D01*
X175409894Y-168693526D01*
X175409893Y-168693526D01*
X175438734Y-168838513D01*
X175438737Y-168838523D01*
X175495306Y-168975094D01*
X175495313Y-168975107D01*
X175577442Y-169098021D01*
X175577445Y-169098025D01*
X175681977Y-169202557D01*
X175785805Y-169271932D01*
X175830610Y-169325544D01*
X175839317Y-169394869D01*
X175809163Y-169457896D01*
X175785806Y-169478135D01*
X175721586Y-169521046D01*
X175721580Y-169521051D01*
X175617051Y-169625580D01*
X175617048Y-169625584D01*
X175534919Y-169748498D01*
X175534912Y-169748511D01*
X175478343Y-169885082D01*
X175478340Y-169885092D01*
X175449500Y-170030079D01*
X175449500Y-170030082D01*
X175449500Y-170177918D01*
X175449500Y-170177920D01*
X175449499Y-170177920D01*
X175478340Y-170322907D01*
X175478343Y-170322917D01*
X175534912Y-170459488D01*
X175534919Y-170459501D01*
X175617048Y-170582415D01*
X175617051Y-170582419D01*
X175721580Y-170686948D01*
X175721584Y-170686951D01*
X175835246Y-170762898D01*
X175880051Y-170816510D01*
X175888758Y-170885835D01*
X175858604Y-170948863D01*
X175835246Y-170969102D01*
X175721584Y-171045048D01*
X175721580Y-171045051D01*
X175617051Y-171149580D01*
X175617048Y-171149584D01*
X175534919Y-171272498D01*
X175534912Y-171272511D01*
X175478343Y-171409082D01*
X175478340Y-171409092D01*
X175449500Y-171554079D01*
X175449500Y-171554082D01*
X175449500Y-171701918D01*
X175449500Y-171701920D01*
X175449499Y-171701920D01*
X175478340Y-171846907D01*
X175478343Y-171846917D01*
X175534912Y-171983488D01*
X175534919Y-171983501D01*
X175617048Y-172106415D01*
X175617051Y-172106419D01*
X175721580Y-172210948D01*
X175721584Y-172210951D01*
X175844498Y-172293080D01*
X175844511Y-172293087D01*
X175966109Y-172343454D01*
X175981087Y-172349658D01*
X175981091Y-172349658D01*
X175981092Y-172349659D01*
X176132057Y-172379689D01*
X176131544Y-172382264D01*
X176185761Y-172404142D01*
X176226133Y-172461167D01*
X176229266Y-172530967D01*
X176196523Y-172589083D01*
X175879522Y-172906084D01*
X175879520Y-172906087D01*
X175826793Y-172997410D01*
X175799500Y-173099273D01*
X175799500Y-173632707D01*
X175779815Y-173699746D01*
X175744392Y-173735808D01*
X175721586Y-173751046D01*
X175721580Y-173751051D01*
X175617051Y-173855580D01*
X175617048Y-173855584D01*
X175534919Y-173978498D01*
X175534912Y-173978511D01*
X175478343Y-174115082D01*
X175478340Y-174115092D01*
X175449500Y-174260079D01*
X175449500Y-174260082D01*
X175449500Y-174407918D01*
X175449500Y-174407920D01*
X175449499Y-174407920D01*
X175478340Y-174552907D01*
X175478343Y-174552917D01*
X175502836Y-174612048D01*
X175510305Y-174681517D01*
X175479030Y-174743996D01*
X175418941Y-174779648D01*
X175388275Y-174783500D01*
X171370255Y-174783500D01*
X171303216Y-174763815D01*
X171257461Y-174711011D01*
X171247517Y-174641853D01*
X171276542Y-174578297D01*
X171282574Y-174571819D01*
X171420893Y-174433500D01*
X171923308Y-173931083D01*
X171984629Y-173897600D01*
X172035179Y-173897149D01*
X172062079Y-173902500D01*
X172062082Y-173902500D01*
X172209920Y-173902500D01*
X172307462Y-173883096D01*
X172354913Y-173873658D01*
X172491495Y-173817084D01*
X172614416Y-173734951D01*
X172718951Y-173630416D01*
X172801084Y-173507495D01*
X172857658Y-173370913D01*
X172884526Y-173235844D01*
X172886500Y-173225920D01*
X172886500Y-173078079D01*
X172857659Y-172933092D01*
X172857658Y-172933091D01*
X172857658Y-172933087D01*
X172826968Y-172858995D01*
X172801087Y-172796511D01*
X172801080Y-172796498D01*
X172718951Y-172673584D01*
X172718948Y-172673580D01*
X172614419Y-172569051D01*
X172614415Y-172569048D01*
X172491501Y-172486919D01*
X172491488Y-172486912D01*
X172354917Y-172430343D01*
X172354907Y-172430340D01*
X172209920Y-172401500D01*
X172209918Y-172401500D01*
X172062082Y-172401500D01*
X172062080Y-172401500D01*
X171917092Y-172430340D01*
X171917082Y-172430343D01*
X171780511Y-172486912D01*
X171780498Y-172486919D01*
X171657584Y-172569048D01*
X171657580Y-172569051D01*
X171553051Y-172673580D01*
X171553048Y-172673584D01*
X171470919Y-172796498D01*
X171470912Y-172796511D01*
X171414343Y-172933082D01*
X171414340Y-172933092D01*
X171385500Y-173078079D01*
X171385500Y-173078080D01*
X171385500Y-173078082D01*
X171385500Y-173225918D01*
X171387613Y-173236541D01*
X171390851Y-173252820D01*
X171384622Y-173322412D01*
X171356914Y-173364691D01*
X170482426Y-174239181D01*
X170421103Y-174272666D01*
X170394745Y-174275500D01*
X165749255Y-174275500D01*
X165682216Y-174255815D01*
X165661574Y-174239181D01*
X163428819Y-172006426D01*
X163395334Y-171945103D01*
X163392500Y-171918745D01*
X163392500Y-168236868D01*
X163865465Y-168236868D01*
X163894306Y-168381855D01*
X163894309Y-168381865D01*
X163950878Y-168518436D01*
X163950883Y-168518445D01*
X164033014Y-168641363D01*
X164033017Y-168641367D01*
X164137546Y-168745896D01*
X164137550Y-168745899D01*
X164260464Y-168828028D01*
X164260477Y-168828035D01*
X164397048Y-168884604D01*
X164397053Y-168884606D01*
X164397057Y-168884606D01*
X164397058Y-168884607D01*
X164542045Y-168913448D01*
X164542048Y-168913448D01*
X164689886Y-168913448D01*
X164787428Y-168894044D01*
X164834879Y-168884606D01*
X164971461Y-168828032D01*
X165094382Y-168745899D01*
X165198917Y-168641364D01*
X165214155Y-168618559D01*
X165267767Y-168573753D01*
X165317258Y-168563448D01*
X165677740Y-168563448D01*
X165744779Y-168583133D01*
X165790534Y-168635937D01*
X165799357Y-168663256D01*
X165826340Y-168798907D01*
X165826343Y-168798917D01*
X165882912Y-168935488D01*
X165882919Y-168935501D01*
X165965048Y-169058415D01*
X165965051Y-169058419D01*
X166069580Y-169162948D01*
X166069584Y-169162951D01*
X166192498Y-169245080D01*
X166192511Y-169245087D01*
X166326752Y-169300691D01*
X166329087Y-169301658D01*
X166329091Y-169301658D01*
X166329092Y-169301659D01*
X166474079Y-169330500D01*
X166474082Y-169330500D01*
X166621920Y-169330500D01*
X166719462Y-169311096D01*
X166766913Y-169301658D01*
X166903495Y-169245084D01*
X167026416Y-169162951D01*
X167130951Y-169058416D01*
X167213084Y-168935495D01*
X167269658Y-168798913D01*
X167282869Y-168732499D01*
X167298500Y-168653920D01*
X167298500Y-168506079D01*
X167293149Y-168479179D01*
X167299376Y-168409587D01*
X167327083Y-168367308D01*
X167649443Y-168044949D01*
X167710766Y-168011464D01*
X167737124Y-168008630D01*
X175192595Y-168008630D01*
X175192597Y-168008630D01*
X175294458Y-167981337D01*
X175385783Y-167928610D01*
X181008389Y-162306003D01*
X184115182Y-162306003D01*
X184115182Y-162522511D01*
X184120954Y-162558951D01*
X184149052Y-162736355D01*
X184215954Y-162942263D01*
X184215955Y-162942266D01*
X184276450Y-163060992D01*
X184314249Y-163135176D01*
X184441510Y-163310335D01*
X184594604Y-163463429D01*
X184769763Y-163590690D01*
X184864379Y-163638899D01*
X184962672Y-163688983D01*
X184962675Y-163688984D01*
X185065629Y-163722435D01*
X185168585Y-163755887D01*
X185382428Y-163789757D01*
X185382429Y-163789757D01*
X185598935Y-163789757D01*
X185598936Y-163789757D01*
X185812779Y-163755887D01*
X186018691Y-163688983D01*
X186211601Y-163590690D01*
X186386760Y-163463429D01*
X186539854Y-163310335D01*
X186667115Y-163135176D01*
X186765408Y-162942266D01*
X186832312Y-162736354D01*
X186866182Y-162522511D01*
X186866182Y-162306003D01*
X186832312Y-162092160D01*
X186798860Y-161989204D01*
X186765409Y-161886250D01*
X186765408Y-161886247D01*
X186699594Y-161757082D01*
X186667115Y-161693338D01*
X186539854Y-161518179D01*
X186386760Y-161365085D01*
X186211601Y-161237824D01*
X186187414Y-161225500D01*
X186018691Y-161139530D01*
X186018688Y-161139529D01*
X185812780Y-161072627D01*
X185705857Y-161055692D01*
X185598936Y-161038757D01*
X185382428Y-161038757D01*
X185325239Y-161047815D01*
X185168583Y-161072627D01*
X184962675Y-161139529D01*
X184962672Y-161139530D01*
X184769762Y-161237824D01*
X184669827Y-161310431D01*
X184594604Y-161365085D01*
X184594602Y-161365087D01*
X184594601Y-161365087D01*
X184441512Y-161518176D01*
X184441512Y-161518177D01*
X184441510Y-161518179D01*
X184423512Y-161542951D01*
X184314249Y-161693337D01*
X184215955Y-161886247D01*
X184215954Y-161886250D01*
X184149052Y-162092158D01*
X184131331Y-162204042D01*
X184115182Y-162306003D01*
X181008389Y-162306003D01*
X187535645Y-155778745D01*
X187596966Y-155745262D01*
X187666658Y-155750246D01*
X187722591Y-155792118D01*
X187723641Y-155793542D01*
X187724894Y-155795266D01*
X187740730Y-155817062D01*
X187863216Y-155939548D01*
X188003356Y-156041366D01*
X188157699Y-156120007D01*
X188322443Y-156173536D01*
X188493533Y-156200634D01*
X188493534Y-156200634D01*
X188666754Y-156200634D01*
X188666755Y-156200634D01*
X188837845Y-156173536D01*
X189002589Y-156120007D01*
X189156932Y-156041366D01*
X189297072Y-155939548D01*
X189419558Y-155817062D01*
X189521376Y-155676922D01*
X189600017Y-155522579D01*
X189653546Y-155357835D01*
X189680644Y-155186745D01*
X189680644Y-155013523D01*
X189653546Y-154842433D01*
X189600017Y-154677689D01*
X189521376Y-154523346D01*
X189419558Y-154383206D01*
X189297072Y-154260720D01*
X189156932Y-154158902D01*
X189092511Y-154126078D01*
X189002591Y-154080262D01*
X189002590Y-154080261D01*
X189002589Y-154080261D01*
X188837845Y-154026732D01*
X188837843Y-154026731D01*
X188837842Y-154026731D01*
X188668857Y-153999967D01*
X188666755Y-153999634D01*
X188493533Y-153999634D01*
X188491431Y-153999967D01*
X188322446Y-154026731D01*
X188157696Y-154080262D01*
X188003355Y-154158902D01*
X187946133Y-154200477D01*
X187863216Y-154260720D01*
X187863214Y-154260722D01*
X187863213Y-154260722D01*
X187740732Y-154383203D01*
X187740732Y-154383204D01*
X187740730Y-154383206D01*
X187723855Y-154406433D01*
X187638910Y-154523347D01*
X187566873Y-154664731D01*
X187518899Y-154715528D01*
X187500527Y-154723190D01*
X187500787Y-154723817D01*
X187493279Y-154726926D01*
X187401950Y-154779656D01*
X175010296Y-167171311D01*
X174948973Y-167204796D01*
X174922615Y-167207630D01*
X173358125Y-167207630D01*
X173291086Y-167187945D01*
X173245331Y-167135141D01*
X173235387Y-167065983D01*
X173264412Y-167002427D01*
X173270444Y-166995949D01*
X173989479Y-166276914D01*
X174996480Y-165269913D01*
X175049207Y-165178588D01*
X175076500Y-165076727D01*
X175076500Y-164971273D01*
X175076500Y-162677291D01*
X175096185Y-162610252D01*
X175131606Y-162574191D01*
X175154416Y-162558951D01*
X175258951Y-162454416D01*
X175341084Y-162331495D01*
X175397658Y-162194913D01*
X175409958Y-162133080D01*
X175426500Y-162049920D01*
X175426500Y-161902079D01*
X175397659Y-161757092D01*
X175397658Y-161757091D01*
X175397658Y-161757087D01*
X175397656Y-161757082D01*
X175341087Y-161620511D01*
X175341080Y-161620498D01*
X175258951Y-161497584D01*
X175258948Y-161497580D01*
X175154419Y-161393051D01*
X175154415Y-161393048D01*
X175031501Y-161310919D01*
X175031488Y-161310912D01*
X174894917Y-161254343D01*
X174894907Y-161254340D01*
X174749920Y-161225500D01*
X174749918Y-161225500D01*
X174602082Y-161225500D01*
X174602080Y-161225500D01*
X174457092Y-161254340D01*
X174457082Y-161254343D01*
X174320511Y-161310912D01*
X174320498Y-161310919D01*
X174197584Y-161393048D01*
X174197580Y-161393051D01*
X174093051Y-161497580D01*
X174093048Y-161497584D01*
X174010919Y-161620498D01*
X174010912Y-161620511D01*
X173954343Y-161757082D01*
X173954340Y-161757092D01*
X173925500Y-161902079D01*
X173925500Y-161902082D01*
X173925500Y-162049918D01*
X173925500Y-162049920D01*
X173925499Y-162049920D01*
X173954340Y-162194907D01*
X173954343Y-162194917D01*
X174010912Y-162331488D01*
X174010919Y-162331501D01*
X174093048Y-162454415D01*
X174093051Y-162454419D01*
X174197577Y-162558945D01*
X174197580Y-162558947D01*
X174197584Y-162558951D01*
X174220391Y-162574190D01*
X174265195Y-162627799D01*
X174275500Y-162677291D01*
X174275500Y-164806745D01*
X174255815Y-164873784D01*
X174239181Y-164894426D01*
X172514426Y-166619181D01*
X172453103Y-166652666D01*
X172426745Y-166655500D01*
X166815777Y-166655500D01*
X166713914Y-166682793D01*
X166622591Y-166735520D01*
X166622588Y-166735522D01*
X165631982Y-167726129D01*
X165605054Y-167740832D01*
X165579236Y-167757425D01*
X165573035Y-167758316D01*
X165570659Y-167759614D01*
X165544301Y-167762448D01*
X165317258Y-167762448D01*
X165250219Y-167742763D01*
X165214155Y-167707337D01*
X165198918Y-167684533D01*
X165198914Y-167684528D01*
X165094385Y-167579999D01*
X165094381Y-167579996D01*
X164971467Y-167497867D01*
X164971454Y-167497860D01*
X164834883Y-167441291D01*
X164834873Y-167441288D01*
X164689886Y-167412448D01*
X164689884Y-167412448D01*
X164542048Y-167412448D01*
X164542046Y-167412448D01*
X164397058Y-167441288D01*
X164397048Y-167441291D01*
X164260477Y-167497860D01*
X164260464Y-167497867D01*
X164137550Y-167579996D01*
X164137546Y-167579999D01*
X164033017Y-167684528D01*
X164033014Y-167684532D01*
X163950885Y-167807446D01*
X163950878Y-167807459D01*
X163894309Y-167944030D01*
X163894306Y-167944040D01*
X163865466Y-168089027D01*
X163865466Y-168089030D01*
X163865466Y-168236866D01*
X163865466Y-168236868D01*
X163865465Y-168236868D01*
X163392500Y-168236868D01*
X163392500Y-164971275D01*
X163392500Y-164971273D01*
X163365207Y-164869413D01*
X163312480Y-164778087D01*
X163237913Y-164703520D01*
X157266137Y-158731744D01*
X157232652Y-158670421D01*
X157229818Y-158644063D01*
X157229818Y-156072785D01*
X157249503Y-156005746D01*
X157297524Y-155962300D01*
X157406104Y-155906976D01*
X157406103Y-155906976D01*
X157406106Y-155906975D01*
X157546246Y-155805157D01*
X157556137Y-155795266D01*
X157617460Y-155761781D01*
X157687152Y-155766765D01*
X157743085Y-155808637D01*
X157767502Y-155874101D01*
X157767818Y-155882947D01*
X157767818Y-158729044D01*
X157795111Y-158830907D01*
X157821474Y-158876568D01*
X157847838Y-158922231D01*
X163254087Y-164328480D01*
X163345412Y-164381207D01*
X163447273Y-164408500D01*
X163447275Y-164408500D01*
X163552725Y-164408500D01*
X163552727Y-164408500D01*
X163654588Y-164381207D01*
X163745913Y-164328480D01*
X163820480Y-164253913D01*
X165344480Y-162729913D01*
X165391531Y-162648416D01*
X165391617Y-162648334D01*
X165430024Y-162607320D01*
X165502416Y-162558951D01*
X165606951Y-162454416D01*
X165689084Y-162331495D01*
X165745658Y-162194913D01*
X165757958Y-162133080D01*
X165774500Y-162049920D01*
X165774500Y-161902079D01*
X165745659Y-161757092D01*
X165745658Y-161757091D01*
X165745658Y-161757087D01*
X165745656Y-161757082D01*
X165689087Y-161620511D01*
X165689080Y-161620498D01*
X165606951Y-161497584D01*
X165606948Y-161497580D01*
X165502419Y-161393051D01*
X165502415Y-161393048D01*
X165379501Y-161310919D01*
X165379488Y-161310912D01*
X165242917Y-161254343D01*
X165242907Y-161254340D01*
X165097920Y-161225500D01*
X165097918Y-161225500D01*
X164950082Y-161225500D01*
X164950080Y-161225500D01*
X164805092Y-161254340D01*
X164805082Y-161254343D01*
X164668511Y-161310912D01*
X164668498Y-161310919D01*
X164545584Y-161393048D01*
X164545580Y-161393051D01*
X164441051Y-161497580D01*
X164441048Y-161497584D01*
X164358919Y-161620498D01*
X164358912Y-161620511D01*
X164302343Y-161757082D01*
X164302340Y-161757092D01*
X164273500Y-161902079D01*
X164273500Y-161902082D01*
X164273500Y-162049918D01*
X164273500Y-162049920D01*
X164273499Y-162049920D01*
X164302340Y-162194907D01*
X164302343Y-162194917D01*
X164358912Y-162331488D01*
X164358919Y-162331501D01*
X164402993Y-162397462D01*
X164423871Y-162464140D01*
X164405386Y-162531520D01*
X164387572Y-162554034D01*
X163587681Y-163353926D01*
X163526358Y-163387411D01*
X163456667Y-163382427D01*
X163412319Y-163353926D01*
X158605137Y-158546744D01*
X158571652Y-158485421D01*
X158568818Y-158459063D01*
X158568818Y-154879132D01*
X160808818Y-154879132D01*
X160808818Y-155052354D01*
X160835916Y-155223444D01*
X160889445Y-155388188D01*
X160968086Y-155542531D01*
X161069904Y-155682671D01*
X161192390Y-155805157D01*
X161332530Y-155906975D01*
X161486873Y-155985616D01*
X161651617Y-156039145D01*
X161822707Y-156066243D01*
X161822708Y-156066243D01*
X161995928Y-156066243D01*
X161995929Y-156066243D01*
X162167019Y-156039145D01*
X162331763Y-155985616D01*
X162486106Y-155906975D01*
X162626246Y-155805157D01*
X162748732Y-155682671D01*
X162850550Y-155542531D01*
X162929191Y-155388188D01*
X162982720Y-155223444D01*
X163009818Y-155052354D01*
X163009818Y-154879132D01*
X163348818Y-154879132D01*
X163348818Y-155052354D01*
X163375916Y-155223444D01*
X163429445Y-155388188D01*
X163508086Y-155542531D01*
X163609904Y-155682671D01*
X163732390Y-155805157D01*
X163872530Y-155906975D01*
X164026873Y-155985616D01*
X164191617Y-156039145D01*
X164362707Y-156066243D01*
X164362708Y-156066243D01*
X164535928Y-156066243D01*
X164535929Y-156066243D01*
X164707019Y-156039145D01*
X164871763Y-155985616D01*
X165026106Y-155906975D01*
X165166246Y-155805157D01*
X165288732Y-155682671D01*
X165390550Y-155542531D01*
X165469191Y-155388188D01*
X165522720Y-155223444D01*
X165549818Y-155052354D01*
X165549818Y-154879132D01*
X168428818Y-154879132D01*
X168428818Y-155052354D01*
X168455916Y-155223444D01*
X168509445Y-155388188D01*
X168588086Y-155542531D01*
X168689904Y-155682671D01*
X168812390Y-155805157D01*
X168952530Y-155906975D01*
X169106873Y-155985616D01*
X169271617Y-156039145D01*
X169442707Y-156066243D01*
X169442708Y-156066243D01*
X169615928Y-156066243D01*
X169615929Y-156066243D01*
X169787019Y-156039145D01*
X169951763Y-155985616D01*
X170106106Y-155906975D01*
X170246246Y-155805157D01*
X170368732Y-155682671D01*
X170470550Y-155542531D01*
X170549191Y-155388188D01*
X170602720Y-155223444D01*
X170629818Y-155052354D01*
X170629818Y-154879132D01*
X170602720Y-154708042D01*
X170549191Y-154543298D01*
X170470550Y-154388955D01*
X170368732Y-154248815D01*
X170246246Y-154126329D01*
X170106106Y-154024511D01*
X169951763Y-153945870D01*
X169787019Y-153892341D01*
X169787017Y-153892340D01*
X169787016Y-153892340D01*
X169655589Y-153871524D01*
X169615929Y-153865243D01*
X169442707Y-153865243D01*
X169403046Y-153871524D01*
X169271620Y-153892340D01*
X169106870Y-153945871D01*
X168952529Y-154024511D01*
X168919458Y-154048539D01*
X168812390Y-154126329D01*
X168812388Y-154126331D01*
X168812387Y-154126331D01*
X168689906Y-154248812D01*
X168689906Y-154248813D01*
X168689904Y-154248815D01*
X168646177Y-154308999D01*
X168588086Y-154388954D01*
X168509446Y-154543295D01*
X168509445Y-154543297D01*
X168509445Y-154543298D01*
X168489234Y-154605500D01*
X168455915Y-154708045D01*
X168432763Y-154854223D01*
X168428818Y-154879132D01*
X165549818Y-154879132D01*
X165522720Y-154708042D01*
X165469191Y-154543298D01*
X165390550Y-154388955D01*
X165288732Y-154248815D01*
X165166246Y-154126329D01*
X165026106Y-154024511D01*
X164871763Y-153945870D01*
X164707019Y-153892341D01*
X164707017Y-153892340D01*
X164707016Y-153892340D01*
X164575589Y-153871524D01*
X164535929Y-153865243D01*
X164362707Y-153865243D01*
X164323046Y-153871524D01*
X164191620Y-153892340D01*
X164026870Y-153945871D01*
X163872529Y-154024511D01*
X163839458Y-154048539D01*
X163732390Y-154126329D01*
X163732388Y-154126331D01*
X163732387Y-154126331D01*
X163609906Y-154248812D01*
X163609906Y-154248813D01*
X163609904Y-154248815D01*
X163566177Y-154308999D01*
X163508086Y-154388954D01*
X163429446Y-154543295D01*
X163429445Y-154543297D01*
X163429445Y-154543298D01*
X163409234Y-154605500D01*
X163375915Y-154708045D01*
X163352763Y-154854223D01*
X163348818Y-154879132D01*
X163009818Y-154879132D01*
X162982720Y-154708042D01*
X162929191Y-154543298D01*
X162850550Y-154388955D01*
X162748732Y-154248815D01*
X162626246Y-154126329D01*
X162486106Y-154024511D01*
X162331763Y-153945870D01*
X162167019Y-153892341D01*
X162167017Y-153892340D01*
X162167016Y-153892340D01*
X162035589Y-153871524D01*
X161995929Y-153865243D01*
X161822707Y-153865243D01*
X161783046Y-153871524D01*
X161651620Y-153892340D01*
X161486870Y-153945871D01*
X161332529Y-154024511D01*
X161299458Y-154048539D01*
X161192390Y-154126329D01*
X161192388Y-154126331D01*
X161192387Y-154126331D01*
X161069906Y-154248812D01*
X161069906Y-154248813D01*
X161069904Y-154248815D01*
X161026177Y-154308999D01*
X160968086Y-154388954D01*
X160889446Y-154543295D01*
X160889445Y-154543297D01*
X160889445Y-154543298D01*
X160869234Y-154605500D01*
X160835915Y-154708045D01*
X160812763Y-154854223D01*
X160808818Y-154879132D01*
X158568818Y-154879132D01*
X158568818Y-153843997D01*
X158588503Y-153776958D01*
X158605133Y-153756320D01*
X158869719Y-153491733D01*
X158931040Y-153458250D01*
X158995711Y-153461484D01*
X159111617Y-153499145D01*
X159282707Y-153526243D01*
X159282708Y-153526243D01*
X159455928Y-153526243D01*
X159455929Y-153526243D01*
X159627019Y-153499145D01*
X159791763Y-153445616D01*
X159946106Y-153366975D01*
X160086246Y-153265157D01*
X160208732Y-153142671D01*
X160310550Y-153002531D01*
X160389191Y-152848188D01*
X160442720Y-152683444D01*
X160469818Y-152512354D01*
X160469818Y-152339132D01*
X160808818Y-152339132D01*
X160808818Y-152512353D01*
X160835915Y-152683440D01*
X160835915Y-152683442D01*
X160835916Y-152683444D01*
X160889445Y-152848188D01*
X160968086Y-153002531D01*
X161069904Y-153142671D01*
X161192390Y-153265157D01*
X161332530Y-153366975D01*
X161486873Y-153445616D01*
X161651617Y-153499145D01*
X161822707Y-153526243D01*
X161822708Y-153526243D01*
X161995928Y-153526243D01*
X161995929Y-153526243D01*
X162167019Y-153499145D01*
X162331763Y-153445616D01*
X162486106Y-153366975D01*
X162626246Y-153265157D01*
X162748732Y-153142671D01*
X162850550Y-153002531D01*
X162929191Y-152848188D01*
X162982720Y-152683444D01*
X163009818Y-152512354D01*
X163009818Y-152339132D01*
X163348818Y-152339132D01*
X163348818Y-152512353D01*
X163375915Y-152683440D01*
X163375915Y-152683442D01*
X163375916Y-152683444D01*
X163429445Y-152848188D01*
X163508086Y-153002531D01*
X163609904Y-153142671D01*
X163732390Y-153265157D01*
X163872530Y-153366975D01*
X164026873Y-153445616D01*
X164191617Y-153499145D01*
X164362707Y-153526243D01*
X164362708Y-153526243D01*
X164535928Y-153526243D01*
X164535929Y-153526243D01*
X164707019Y-153499145D01*
X164871763Y-153445616D01*
X165026106Y-153366975D01*
X165166246Y-153265157D01*
X165288732Y-153142671D01*
X165390550Y-153002531D01*
X165469191Y-152848188D01*
X165522720Y-152683444D01*
X165549818Y-152512354D01*
X165549818Y-152339132D01*
X168428818Y-152339132D01*
X168428818Y-152512353D01*
X168455915Y-152683440D01*
X168455915Y-152683442D01*
X168455916Y-152683444D01*
X168509445Y-152848188D01*
X168588086Y-153002531D01*
X168689904Y-153142671D01*
X168812390Y-153265157D01*
X168952530Y-153366975D01*
X169106873Y-153445616D01*
X169271617Y-153499145D01*
X169442707Y-153526243D01*
X169442708Y-153526243D01*
X169615928Y-153526243D01*
X169615929Y-153526243D01*
X169787019Y-153499145D01*
X169951763Y-153445616D01*
X170106106Y-153366975D01*
X170246246Y-153265157D01*
X170368732Y-153142671D01*
X170470550Y-153002531D01*
X170549191Y-152848188D01*
X170602720Y-152683444D01*
X170629818Y-152512354D01*
X170629818Y-152339132D01*
X170602720Y-152168042D01*
X170549191Y-152003298D01*
X170470550Y-151848955D01*
X170368732Y-151708815D01*
X170246246Y-151586329D01*
X170106106Y-151484511D01*
X169951763Y-151405870D01*
X169787019Y-151352341D01*
X169787017Y-151352340D01*
X169787016Y-151352340D01*
X169655589Y-151331524D01*
X169615929Y-151325243D01*
X169442707Y-151325243D01*
X169403046Y-151331524D01*
X169271620Y-151352340D01*
X169106870Y-151405871D01*
X168952529Y-151484511D01*
X168875797Y-151540261D01*
X168812390Y-151586329D01*
X168812388Y-151586331D01*
X168812387Y-151586331D01*
X168689906Y-151708812D01*
X168689906Y-151708813D01*
X168689904Y-151708815D01*
X168681253Y-151720722D01*
X168588086Y-151848954D01*
X168509446Y-152003295D01*
X168455915Y-152168045D01*
X168428818Y-152339132D01*
X165549818Y-152339132D01*
X165522720Y-152168042D01*
X165469191Y-152003298D01*
X165390550Y-151848955D01*
X165288732Y-151708815D01*
X165166246Y-151586329D01*
X165026106Y-151484511D01*
X164871763Y-151405870D01*
X164707019Y-151352341D01*
X164707017Y-151352340D01*
X164707016Y-151352340D01*
X164575589Y-151331524D01*
X164535929Y-151325243D01*
X164362707Y-151325243D01*
X164323046Y-151331524D01*
X164191620Y-151352340D01*
X164026870Y-151405871D01*
X163872529Y-151484511D01*
X163795797Y-151540261D01*
X163732390Y-151586329D01*
X163732388Y-151586331D01*
X163732387Y-151586331D01*
X163609906Y-151708812D01*
X163609906Y-151708813D01*
X163609904Y-151708815D01*
X163601253Y-151720722D01*
X163508086Y-151848954D01*
X163429446Y-152003295D01*
X163375915Y-152168045D01*
X163348818Y-152339132D01*
X163009818Y-152339132D01*
X162982720Y-152168042D01*
X162929191Y-152003298D01*
X162850550Y-151848955D01*
X162748732Y-151708815D01*
X162626246Y-151586329D01*
X162486106Y-151484511D01*
X162331763Y-151405870D01*
X162167019Y-151352341D01*
X162167017Y-151352340D01*
X162167016Y-151352340D01*
X162035589Y-151331524D01*
X161995929Y-151325243D01*
X161822707Y-151325243D01*
X161783046Y-151331524D01*
X161651620Y-151352340D01*
X161486870Y-151405871D01*
X161332529Y-151484511D01*
X161255797Y-151540261D01*
X161192390Y-151586329D01*
X161192388Y-151586331D01*
X161192387Y-151586331D01*
X161069906Y-151708812D01*
X161069906Y-151708813D01*
X161069904Y-151708815D01*
X161061253Y-151720722D01*
X160968086Y-151848954D01*
X160889446Y-152003295D01*
X160835915Y-152168045D01*
X160808818Y-152339132D01*
X160469818Y-152339132D01*
X160442720Y-152168042D01*
X160389191Y-152003298D01*
X160310550Y-151848955D01*
X160208732Y-151708815D01*
X160086246Y-151586329D01*
X159946106Y-151484511D01*
X159791763Y-151405870D01*
X159627019Y-151352341D01*
X159627017Y-151352340D01*
X159627016Y-151352340D01*
X159495589Y-151331524D01*
X159455929Y-151325243D01*
X159282707Y-151325243D01*
X159243046Y-151331524D01*
X159111620Y-151352340D01*
X158946870Y-151405871D01*
X158792529Y-151484511D01*
X158715797Y-151540261D01*
X158652390Y-151586329D01*
X158652388Y-151586331D01*
X158652387Y-151586331D01*
X158529906Y-151708812D01*
X158529906Y-151708813D01*
X158529904Y-151708815D01*
X158521253Y-151720722D01*
X158428086Y-151848954D01*
X158349446Y-152003295D01*
X158295915Y-152168045D01*
X158268818Y-152339132D01*
X158268818Y-152512353D01*
X158295915Y-152683441D01*
X158333574Y-152799343D01*
X158335569Y-152869184D01*
X158303324Y-152925342D01*
X158154870Y-153073798D01*
X158141500Y-153087168D01*
X158080176Y-153120653D01*
X158010485Y-153115669D01*
X157954551Y-153073798D01*
X157930134Y-153008333D01*
X157929818Y-152999487D01*
X157929818Y-151551066D01*
X157929817Y-151551064D01*
X157915285Y-151478007D01*
X157915284Y-151478003D01*
X157910022Y-151470128D01*
X157859919Y-151395142D01*
X157777058Y-151339777D01*
X157777057Y-151339776D01*
X157777053Y-151339775D01*
X157703995Y-151325243D01*
X157703992Y-151325243D01*
X155954644Y-151325243D01*
X155954641Y-151325243D01*
X155881582Y-151339775D01*
X155881578Y-151339776D01*
X155798717Y-151395142D01*
X155743351Y-151478003D01*
X155743350Y-151478007D01*
X155728818Y-151551064D01*
X155728818Y-153300421D01*
X155743350Y-153373478D01*
X155743351Y-153373482D01*
X155743352Y-153373483D01*
X155798717Y-153456344D01*
X155878827Y-153509871D01*
X155881578Y-153511709D01*
X155881582Y-153511710D01*
X155954639Y-153526242D01*
X155954642Y-153526243D01*
X157643818Y-153526243D01*
X157710857Y-153545928D01*
X157756612Y-153598732D01*
X157767818Y-153650243D01*
X157767818Y-154048539D01*
X157748133Y-154115578D01*
X157695329Y-154161333D01*
X157626171Y-154171277D01*
X157562615Y-154142252D01*
X157556137Y-154136220D01*
X157546248Y-154126331D01*
X157546246Y-154126329D01*
X157406106Y-154024511D01*
X157251763Y-153945870D01*
X157087019Y-153892341D01*
X157087017Y-153892340D01*
X157087016Y-153892340D01*
X156955589Y-153871524D01*
X156915929Y-153865243D01*
X156742707Y-153865243D01*
X156703046Y-153871524D01*
X156571620Y-153892340D01*
X156406870Y-153945871D01*
X156252529Y-154024511D01*
X156219458Y-154048539D01*
X156112390Y-154126329D01*
X156112388Y-154126331D01*
X156112387Y-154126331D01*
X155989906Y-154248812D01*
X155989906Y-154248813D01*
X155989904Y-154248815D01*
X155946177Y-154308999D01*
X155888086Y-154388954D01*
X155809446Y-154543295D01*
X155809445Y-154543297D01*
X155809445Y-154543298D01*
X155789234Y-154605500D01*
X155755915Y-154708045D01*
X155732763Y-154854223D01*
X155728818Y-154879132D01*
X155728818Y-155052354D01*
X155755916Y-155223444D01*
X155809445Y-155388188D01*
X155888086Y-155542531D01*
X155989904Y-155682671D01*
X156112390Y-155805157D01*
X156187218Y-155859523D01*
X156252531Y-155906976D01*
X156361112Y-155962300D01*
X156411909Y-156010274D01*
X156428818Y-156072785D01*
X156428818Y-158808591D01*
X156428818Y-158914045D01*
X156431012Y-158922233D01*
X156456111Y-159015907D01*
X156482474Y-159061568D01*
X156508838Y-159107231D01*
X156508840Y-159107233D01*
X161611022Y-164209415D01*
X161644507Y-164270738D01*
X161639523Y-164340430D01*
X161597651Y-164396363D01*
X161532187Y-164420780D01*
X161499150Y-164418713D01*
X161362468Y-164391525D01*
X161362465Y-164391525D01*
X161224479Y-164391525D01*
X161224476Y-164391525D01*
X161100512Y-164416183D01*
X161030921Y-164409956D01*
X160988640Y-164382247D01*
X152135993Y-155529600D01*
X152102508Y-155468277D01*
X152105742Y-155403603D01*
X152143402Y-155287701D01*
X152170500Y-155116611D01*
X152170500Y-154943389D01*
X152143402Y-154772299D01*
X152089873Y-154607555D01*
X152011232Y-154453212D01*
X151909414Y-154313072D01*
X151786928Y-154190586D01*
X151646788Y-154088768D01*
X151492445Y-154010127D01*
X151327701Y-153956598D01*
X151327699Y-153956597D01*
X151327698Y-153956597D01*
X151196271Y-153935781D01*
X151156611Y-153929500D01*
X150983389Y-153929500D01*
X150943728Y-153935781D01*
X150812302Y-153956597D01*
X150647552Y-154010128D01*
X150493211Y-154088768D01*
X150441514Y-154126329D01*
X150353072Y-154190586D01*
X150353070Y-154190588D01*
X150353069Y-154190588D01*
X150343181Y-154200477D01*
X150281858Y-154233962D01*
X150212166Y-154228978D01*
X150156233Y-154187106D01*
X150131816Y-154121642D01*
X150131500Y-154112796D01*
X150131500Y-153638275D01*
X150131500Y-153638273D01*
X150104207Y-153536413D01*
X150051480Y-153445087D01*
X149976913Y-153370520D01*
X149595993Y-152989600D01*
X149562508Y-152928277D01*
X149565742Y-152863603D01*
X149603402Y-152747701D01*
X149630500Y-152576611D01*
X149630500Y-152403389D01*
X149603402Y-152232299D01*
X149549873Y-152067555D01*
X149471232Y-151913212D01*
X149369414Y-151773072D01*
X149246928Y-151650586D01*
X149106788Y-151548768D01*
X148952445Y-151470127D01*
X148787701Y-151416598D01*
X148787699Y-151416597D01*
X148787698Y-151416597D01*
X148652233Y-151395142D01*
X148616611Y-151389500D01*
X148443389Y-151389500D01*
X148407767Y-151395142D01*
X148272302Y-151416597D01*
X148107552Y-151470128D01*
X147953211Y-151548768D01*
X147901514Y-151586329D01*
X147813072Y-151650586D01*
X147813070Y-151650588D01*
X147813069Y-151650588D01*
X147690588Y-151773069D01*
X147690588Y-151773070D01*
X147690586Y-151773072D01*
X147684724Y-151781141D01*
X147588768Y-151913211D01*
X147510128Y-152067552D01*
X147456597Y-152232302D01*
X147429500Y-152403389D01*
X147429500Y-152576610D01*
X147449358Y-152701993D01*
X147456598Y-152747701D01*
X147510127Y-152912445D01*
X147588768Y-153066788D01*
X147690586Y-153206928D01*
X147813072Y-153329414D01*
X147953212Y-153431232D01*
X148107555Y-153509873D01*
X148272299Y-153563402D01*
X148443389Y-153590500D01*
X148443390Y-153590500D01*
X148616610Y-153590500D01*
X148616611Y-153590500D01*
X148787701Y-153563402D01*
X148903602Y-153525742D01*
X148973442Y-153523748D01*
X149029600Y-153555993D01*
X149294181Y-153820574D01*
X149327666Y-153881897D01*
X149330500Y-153908255D01*
X149330500Y-158419726D01*
X149357793Y-158521589D01*
X149372317Y-158546744D01*
X149410520Y-158612913D01*
X153533962Y-162736355D01*
X157640914Y-166843306D01*
X157674399Y-166904629D01*
X157674851Y-166955175D01*
X157669500Y-166982079D01*
X157669500Y-166982082D01*
X157669500Y-167129918D01*
X157669500Y-167129920D01*
X157669499Y-167129920D01*
X157698340Y-167274907D01*
X157698343Y-167274917D01*
X157754912Y-167411488D01*
X157754919Y-167411501D01*
X157837048Y-167534415D01*
X157837051Y-167534419D01*
X157941580Y-167638948D01*
X157941584Y-167638951D01*
X158064498Y-167721080D01*
X158064511Y-167721087D01*
X158201082Y-167777656D01*
X158201087Y-167777658D01*
X158201091Y-167777658D01*
X158201092Y-167777659D01*
X158346079Y-167806500D01*
X158346082Y-167806500D01*
X158493920Y-167806500D01*
X158591462Y-167787096D01*
X158638913Y-167777658D01*
X158763315Y-167726129D01*
X158775488Y-167721087D01*
X158775488Y-167721086D01*
X158775495Y-167721084D01*
X158898416Y-167638951D01*
X159002951Y-167534416D01*
X159085084Y-167411495D01*
X159141658Y-167274913D01*
X159155042Y-167207630D01*
X159170500Y-167129920D01*
X159170500Y-166982079D01*
X159141659Y-166837092D01*
X159141658Y-166837091D01*
X159141658Y-166837087D01*
X159141656Y-166837082D01*
X159085087Y-166700511D01*
X159085080Y-166700498D01*
X159002951Y-166577584D01*
X159002948Y-166577580D01*
X158898419Y-166473051D01*
X158898415Y-166473048D01*
X158775501Y-166390919D01*
X158775488Y-166390912D01*
X158638917Y-166334343D01*
X158638907Y-166334340D01*
X158493920Y-166305500D01*
X158493918Y-166305500D01*
X158346082Y-166305500D01*
X158346080Y-166305500D01*
X158319175Y-166310851D01*
X158249584Y-166304622D01*
X158207306Y-166276914D01*
X150167819Y-158237426D01*
X150134334Y-158176103D01*
X150131500Y-158149745D01*
X150131500Y-155947204D01*
X150151185Y-155880165D01*
X150203989Y-155834410D01*
X150273147Y-155824466D01*
X150336703Y-155853491D01*
X150343181Y-155859523D01*
X150353072Y-155869414D01*
X150493212Y-155971232D01*
X150647555Y-156049873D01*
X150812299Y-156103402D01*
X150983389Y-156130500D01*
X150983390Y-156130500D01*
X151156610Y-156130500D01*
X151156611Y-156130500D01*
X151327701Y-156103402D01*
X151443602Y-156065742D01*
X151513442Y-156063748D01*
X151569600Y-156095993D01*
X160557048Y-165083441D01*
X160590533Y-165144764D01*
X160592770Y-165158969D01*
X160592972Y-165161020D01*
X160619890Y-165296347D01*
X160619893Y-165296357D01*
X160672693Y-165423829D01*
X160672700Y-165423842D01*
X160749357Y-165538566D01*
X160749360Y-165538570D01*
X160846926Y-165636136D01*
X160846930Y-165636139D01*
X160961654Y-165712796D01*
X160961667Y-165712803D01*
X161089139Y-165765603D01*
X161089144Y-165765605D01*
X161089148Y-165765605D01*
X161089149Y-165765606D01*
X161224476Y-165792525D01*
X161224479Y-165792525D01*
X161362467Y-165792525D01*
X161453513Y-165774414D01*
X161497800Y-165765605D01*
X161609055Y-165719522D01*
X161625276Y-165712803D01*
X161625276Y-165712802D01*
X161625283Y-165712800D01*
X161740014Y-165636139D01*
X161837586Y-165538567D01*
X161914247Y-165423836D01*
X161967052Y-165296353D01*
X161983255Y-165214897D01*
X161993972Y-165161020D01*
X161993972Y-165023029D01*
X161966783Y-164886347D01*
X161973010Y-164816756D01*
X162015872Y-164761578D01*
X162081762Y-164738333D01*
X162149759Y-164754400D01*
X162176081Y-164774474D01*
X162555181Y-165153574D01*
X162588666Y-165214897D01*
X162591500Y-165241255D01*
X162591500Y-172188726D01*
X162618793Y-172290589D01*
X162642930Y-172332394D01*
X162671520Y-172381913D01*
X162671522Y-172381915D01*
X164861426Y-174571819D01*
X164894911Y-174633142D01*
X164889927Y-174702834D01*
X164848055Y-174758767D01*
X164782591Y-174783184D01*
X164773745Y-174783500D01*
X158637255Y-174783500D01*
X158570216Y-174763815D01*
X158549574Y-174747181D01*
X157675085Y-173872692D01*
X157641600Y-173811369D01*
X157641149Y-173760818D01*
X157646500Y-173733918D01*
X157646500Y-173586079D01*
X157617659Y-173441092D01*
X157617658Y-173441091D01*
X157617658Y-173441087D01*
X157605104Y-173410778D01*
X157584880Y-173361952D01*
X157577411Y-173292483D01*
X157608687Y-173230004D01*
X157668776Y-173194352D01*
X157699441Y-173190500D01*
X159342725Y-173190500D01*
X159342727Y-173190500D01*
X159444588Y-173163207D01*
X159535913Y-173110480D01*
X160280514Y-172365877D01*
X160341835Y-172332394D01*
X160392385Y-172331943D01*
X160419285Y-172337294D01*
X160419288Y-172337294D01*
X160567126Y-172337294D01*
X160664668Y-172317890D01*
X160712119Y-172308452D01*
X160848701Y-172251878D01*
X160971622Y-172169745D01*
X161076157Y-172065210D01*
X161158290Y-171942289D01*
X161214864Y-171805707D01*
X161235509Y-171701920D01*
X161243706Y-171660714D01*
X161243706Y-171512873D01*
X161214865Y-171367886D01*
X161214864Y-171367885D01*
X161214864Y-171367881D01*
X161175358Y-171272505D01*
X161158293Y-171231305D01*
X161158286Y-171231292D01*
X161076157Y-171108378D01*
X161076154Y-171108374D01*
X160971625Y-171003845D01*
X160971621Y-171003842D01*
X160848707Y-170921713D01*
X160848694Y-170921706D01*
X160712123Y-170865137D01*
X160712113Y-170865134D01*
X160567126Y-170836294D01*
X160567124Y-170836294D01*
X160419288Y-170836294D01*
X160419286Y-170836294D01*
X160274298Y-170865134D01*
X160274288Y-170865137D01*
X160137717Y-170921706D01*
X160137704Y-170921713D01*
X160014790Y-171003842D01*
X160014786Y-171003845D01*
X159910257Y-171108374D01*
X159910254Y-171108378D01*
X159828125Y-171231292D01*
X159828118Y-171231305D01*
X159771549Y-171367876D01*
X159771546Y-171367886D01*
X159742706Y-171512873D01*
X159742706Y-171512876D01*
X159742706Y-171660712D01*
X159747900Y-171686824D01*
X159748057Y-171687614D01*
X159741828Y-171757206D01*
X159714120Y-171799485D01*
X159160426Y-172353181D01*
X159099103Y-172386666D01*
X159072745Y-172389500D01*
X133190547Y-172389500D01*
X133123508Y-172369815D01*
X133098572Y-172347614D01*
X133098422Y-172347765D01*
X133095835Y-172345178D01*
X133094687Y-172344156D01*
X133094110Y-172343453D01*
X132996545Y-172245888D01*
X132996541Y-172245885D01*
X132881817Y-172169228D01*
X132881804Y-172169221D01*
X132754332Y-172116421D01*
X132754322Y-172116418D01*
X132618995Y-172089500D01*
X132618993Y-172089500D01*
X132481007Y-172089500D01*
X132481005Y-172089500D01*
X132345677Y-172116418D01*
X132345667Y-172116421D01*
X132218195Y-172169221D01*
X132218182Y-172169228D01*
X132103458Y-172245885D01*
X132103454Y-172245888D01*
X132005888Y-172343454D01*
X132005885Y-172343458D01*
X131929228Y-172458182D01*
X131929221Y-172458195D01*
X131876421Y-172585667D01*
X131876418Y-172585677D01*
X131849500Y-172721004D01*
X131849500Y-172721007D01*
X131849500Y-172858993D01*
X131849500Y-172858995D01*
X131849499Y-172858995D01*
X131876418Y-172994322D01*
X131876421Y-172994332D01*
X131929221Y-173121804D01*
X131929228Y-173121817D01*
X132005885Y-173236541D01*
X132005888Y-173236545D01*
X132103454Y-173334111D01*
X132103458Y-173334114D01*
X132218182Y-173410771D01*
X132218195Y-173410778D01*
X132345667Y-173463578D01*
X132345672Y-173463580D01*
X132345676Y-173463580D01*
X132345677Y-173463581D01*
X132481004Y-173490500D01*
X132481007Y-173490500D01*
X132618995Y-173490500D01*
X132710041Y-173472389D01*
X132754328Y-173463580D01*
X132881811Y-173410775D01*
X132996542Y-173334114D01*
X133094114Y-173236542D01*
X133094117Y-173236537D01*
X133094687Y-173235844D01*
X133095082Y-173235574D01*
X133098422Y-173232235D01*
X133099055Y-173232868D01*
X133152429Y-173196504D01*
X133190547Y-173190500D01*
X156092559Y-173190500D01*
X156159598Y-173210185D01*
X156205353Y-173262989D01*
X156215297Y-173332147D01*
X156207120Y-173361952D01*
X156174343Y-173441082D01*
X156174340Y-173441092D01*
X156145500Y-173586079D01*
X156145500Y-173586082D01*
X156145500Y-173733918D01*
X156145500Y-173733920D01*
X156145499Y-173733920D01*
X156174340Y-173878907D01*
X156174343Y-173878917D01*
X156230912Y-174015488D01*
X156230919Y-174015501D01*
X156313048Y-174138415D01*
X156313051Y-174138419D01*
X156417580Y-174242948D01*
X156417584Y-174242951D01*
X156540498Y-174325080D01*
X156540511Y-174325087D01*
X156677082Y-174381656D01*
X156677087Y-174381658D01*
X156677091Y-174381658D01*
X156677092Y-174381659D01*
X156822079Y-174410500D01*
X156822082Y-174410500D01*
X156969919Y-174410500D01*
X156996818Y-174405149D01*
X157066410Y-174411375D01*
X157108692Y-174439085D01*
X158099519Y-175429912D01*
X158099520Y-175429913D01*
X158174087Y-175504480D01*
X158265413Y-175557207D01*
X158367273Y-175584500D01*
X158472726Y-175584500D01*
X211566708Y-175584500D01*
X211633747Y-175604185D01*
X211669811Y-175639611D01*
X211685047Y-175662414D01*
X211685051Y-175662419D01*
X211789580Y-175766948D01*
X211789584Y-175766951D01*
X211912498Y-175849080D01*
X211912511Y-175849087D01*
X212049082Y-175905656D01*
X212049087Y-175905658D01*
X212049091Y-175905658D01*
X212049092Y-175905659D01*
X212194079Y-175934500D01*
X212194082Y-175934500D01*
X212341920Y-175934500D01*
X212439462Y-175915096D01*
X212486913Y-175905658D01*
X212623495Y-175849084D01*
X212746416Y-175766951D01*
X212850951Y-175662416D01*
X212933084Y-175539495D01*
X212989658Y-175402913D01*
X213018500Y-175257918D01*
X213018500Y-175110082D01*
X213018500Y-175110079D01*
X212989659Y-174965092D01*
X212989658Y-174965091D01*
X212989658Y-174965087D01*
X212989656Y-174965082D01*
X212933087Y-174828511D01*
X212933080Y-174828498D01*
X212850951Y-174705584D01*
X212850948Y-174705580D01*
X212746419Y-174601051D01*
X212746415Y-174601048D01*
X212623501Y-174518919D01*
X212623488Y-174518912D01*
X212486917Y-174462343D01*
X212486907Y-174462340D01*
X212341920Y-174433500D01*
X212341918Y-174433500D01*
X212194082Y-174433500D01*
X212194080Y-174433500D01*
X212049092Y-174462340D01*
X212049082Y-174462343D01*
X211912511Y-174518912D01*
X211912498Y-174518919D01*
X211789584Y-174601048D01*
X211789580Y-174601051D01*
X211685051Y-174705580D01*
X211685047Y-174705585D01*
X211669811Y-174728389D01*
X211616199Y-174773195D01*
X211566708Y-174783500D01*
X177011725Y-174783500D01*
X176944686Y-174763815D01*
X176898931Y-174711011D01*
X176888987Y-174641853D01*
X176897164Y-174612048D01*
X176921656Y-174552917D01*
X176921658Y-174552913D01*
X176939675Y-174462340D01*
X176950500Y-174407920D01*
X176950500Y-174260079D01*
X176921659Y-174115092D01*
X176921658Y-174115091D01*
X176921658Y-174115087D01*
X176921656Y-174115082D01*
X176865087Y-173978511D01*
X176865080Y-173978498D01*
X176782951Y-173855584D01*
X176782948Y-173855580D01*
X176678419Y-173751051D01*
X176678413Y-173751046D01*
X176655608Y-173735808D01*
X176610804Y-173682196D01*
X176600500Y-173632707D01*
X176600500Y-173369254D01*
X176620185Y-173302215D01*
X176636814Y-173281578D01*
X180051308Y-169867083D01*
X180112629Y-169833600D01*
X180163179Y-169833149D01*
X180190079Y-169838500D01*
X180190082Y-169838500D01*
X180337920Y-169838500D01*
X180435462Y-169819096D01*
X180482913Y-169809658D01*
X180619495Y-169753084D01*
X180742416Y-169670951D01*
X180846951Y-169566416D01*
X180929084Y-169443495D01*
X180985658Y-169306913D01*
X181014295Y-169162951D01*
X181014500Y-169161920D01*
X181014500Y-169014079D01*
X180985659Y-168869092D01*
X180985658Y-168869091D01*
X180985658Y-168869087D01*
X180985656Y-168869082D01*
X180929087Y-168732511D01*
X180929085Y-168732507D01*
X180929084Y-168732505D01*
X180884240Y-168665391D01*
X180863362Y-168598714D01*
X180881846Y-168531334D01*
X180933825Y-168484643D01*
X180987342Y-168472500D01*
X187428724Y-168472500D01*
X187428727Y-168472500D01*
X187477535Y-168459422D01*
X187547382Y-168461085D01*
X187605245Y-168500247D01*
X187632749Y-168564476D01*
X187621163Y-168633378D01*
X187597307Y-168666878D01*
X185423005Y-170841181D01*
X185361682Y-170874666D01*
X185335324Y-170877500D01*
X185270080Y-170877500D01*
X185125092Y-170906340D01*
X185125082Y-170906343D01*
X184988511Y-170962912D01*
X184988493Y-170962922D01*
X184904890Y-171018784D01*
X184838213Y-171039662D01*
X184770833Y-171021177D01*
X184767110Y-171018784D01*
X184683506Y-170962922D01*
X184683488Y-170962912D01*
X184546917Y-170906343D01*
X184546907Y-170906340D01*
X184401920Y-170877500D01*
X184401918Y-170877500D01*
X184254082Y-170877500D01*
X184254080Y-170877500D01*
X184109092Y-170906340D01*
X184109082Y-170906343D01*
X183972511Y-170962912D01*
X183972493Y-170962922D01*
X183888890Y-171018784D01*
X183822213Y-171039662D01*
X183754833Y-171021177D01*
X183751110Y-171018784D01*
X183667506Y-170962922D01*
X183667488Y-170962912D01*
X183530917Y-170906343D01*
X183530907Y-170906340D01*
X183385920Y-170877500D01*
X183385918Y-170877500D01*
X183238082Y-170877500D01*
X183238080Y-170877500D01*
X183093092Y-170906340D01*
X183093082Y-170906343D01*
X182956511Y-170962912D01*
X182956498Y-170962919D01*
X182833584Y-171045048D01*
X182833580Y-171045051D01*
X182729051Y-171149580D01*
X182729048Y-171149584D01*
X182646919Y-171272498D01*
X182646912Y-171272511D01*
X182590343Y-171409082D01*
X182590340Y-171409092D01*
X182561500Y-171554079D01*
X182561500Y-171554082D01*
X182561500Y-171701918D01*
X182561500Y-171701920D01*
X182561499Y-171701920D01*
X182590340Y-171846907D01*
X182590343Y-171846917D01*
X182646912Y-171983488D01*
X182646919Y-171983501D01*
X182729048Y-172106415D01*
X182729051Y-172106419D01*
X182833580Y-172210948D01*
X182833584Y-172210951D01*
X182956498Y-172293080D01*
X182956511Y-172293087D01*
X183078109Y-172343454D01*
X183093087Y-172349658D01*
X183093091Y-172349658D01*
X183093092Y-172349659D01*
X183238079Y-172378500D01*
X183238082Y-172378500D01*
X183385920Y-172378500D01*
X183513202Y-172353181D01*
X183530913Y-172349658D01*
X183667495Y-172293084D01*
X183751109Y-172237214D01*
X183817786Y-172216337D01*
X183885166Y-172234821D01*
X183888891Y-172237215D01*
X183972498Y-172293080D01*
X183972511Y-172293087D01*
X184094109Y-172343454D01*
X184109087Y-172349658D01*
X184109091Y-172349658D01*
X184109092Y-172349659D01*
X184254079Y-172378500D01*
X184254082Y-172378500D01*
X184401920Y-172378500D01*
X184529202Y-172353181D01*
X184546913Y-172349658D01*
X184683495Y-172293084D01*
X184767109Y-172237214D01*
X184833786Y-172216337D01*
X184901166Y-172234821D01*
X184904891Y-172237215D01*
X184988498Y-172293080D01*
X184988511Y-172293087D01*
X185110109Y-172343454D01*
X185125087Y-172349658D01*
X185125091Y-172349658D01*
X185125092Y-172349659D01*
X185270079Y-172378500D01*
X185270082Y-172378500D01*
X185417920Y-172378500D01*
X185545202Y-172353181D01*
X185562913Y-172349658D01*
X185699495Y-172293084D01*
X185822416Y-172210951D01*
X185926951Y-172106416D01*
X186009084Y-171983495D01*
X186014630Y-171970107D01*
X186065656Y-171846917D01*
X186065658Y-171846913D01*
X186094500Y-171701918D01*
X186094500Y-171636676D01*
X186114185Y-171569637D01*
X186130819Y-171548995D01*
X194348963Y-163330851D01*
X194410286Y-163297366D01*
X194479978Y-163302350D01*
X194535911Y-163344222D01*
X194560328Y-163409686D01*
X194560644Y-163418532D01*
X194560644Y-164533870D01*
X194587937Y-164635733D01*
X194614300Y-164681394D01*
X194640664Y-164727057D01*
X194640666Y-164727059D01*
X202852914Y-172939307D01*
X202886399Y-173000630D01*
X202886851Y-173051176D01*
X202881500Y-173078080D01*
X202881500Y-173078082D01*
X202881500Y-173225918D01*
X202881500Y-173225920D01*
X202881499Y-173225920D01*
X202910340Y-173370907D01*
X202910343Y-173370917D01*
X202966912Y-173507488D01*
X202966919Y-173507501D01*
X203049048Y-173630415D01*
X203049051Y-173630419D01*
X203153580Y-173734948D01*
X203153584Y-173734951D01*
X203276498Y-173817080D01*
X203276511Y-173817087D01*
X203369452Y-173855584D01*
X203413087Y-173873658D01*
X203413091Y-173873658D01*
X203413092Y-173873659D01*
X203558079Y-173902500D01*
X203558082Y-173902500D01*
X203705920Y-173902500D01*
X203803462Y-173883096D01*
X203850913Y-173873658D01*
X203987495Y-173817084D01*
X204110416Y-173734951D01*
X204214951Y-173630416D01*
X204297084Y-173507495D01*
X204353658Y-173370913D01*
X204380526Y-173235844D01*
X204382500Y-173225920D01*
X204382500Y-173078079D01*
X204353659Y-172933092D01*
X204353658Y-172933091D01*
X204353658Y-172933087D01*
X204322968Y-172858995D01*
X204297087Y-172796511D01*
X204297080Y-172796498D01*
X204214951Y-172673584D01*
X204214948Y-172673580D01*
X204110419Y-172569051D01*
X204110415Y-172569048D01*
X203987501Y-172486919D01*
X203987488Y-172486912D01*
X203850917Y-172430343D01*
X203850907Y-172430340D01*
X203705920Y-172401500D01*
X203705918Y-172401500D01*
X203558082Y-172401500D01*
X203558081Y-172401500D01*
X203531176Y-172406851D01*
X203461585Y-172400622D01*
X203419307Y-172372914D01*
X195397963Y-164351570D01*
X195364478Y-164290247D01*
X195361644Y-164263889D01*
X195361644Y-162351395D01*
X195378256Y-162289396D01*
X195427536Y-162204042D01*
X195446549Y-162133084D01*
X195461644Y-162076749D01*
X195461644Y-161944964D01*
X195461644Y-153795242D01*
X195427536Y-153667948D01*
X195361644Y-153553820D01*
X195268458Y-153460634D01*
X194760819Y-152952995D01*
X194727334Y-152891672D01*
X194730570Y-152826993D01*
X194733546Y-152817835D01*
X194760644Y-152646745D01*
X194760644Y-152473523D01*
X194733546Y-152302433D01*
X194680017Y-152137689D01*
X194601376Y-151983346D01*
X194499558Y-151843206D01*
X194377072Y-151720720D01*
X194236932Y-151618902D01*
X194236928Y-151618900D01*
X194082593Y-151540262D01*
X194074874Y-151537754D01*
X194061565Y-151533430D01*
X194003892Y-151493993D01*
X193976694Y-151429634D01*
X193988609Y-151360788D01*
X194035853Y-151309312D01*
X194099886Y-151291500D01*
X202489745Y-151291500D01*
X202556784Y-151311185D01*
X202577426Y-151327819D01*
X211323181Y-160073574D01*
X211337884Y-160100501D01*
X211354477Y-160126320D01*
X211355368Y-160132520D01*
X211356666Y-160134897D01*
X211359500Y-160161255D01*
X211359500Y-160258707D01*
X211339815Y-160325746D01*
X211304392Y-160361808D01*
X211281586Y-160377046D01*
X211281580Y-160377051D01*
X211177051Y-160481580D01*
X211177048Y-160481584D01*
X211094919Y-160604498D01*
X211094912Y-160604511D01*
X211038343Y-160741082D01*
X211038340Y-160741092D01*
X211009500Y-160886079D01*
X211009500Y-160886082D01*
X211009500Y-161033918D01*
X211009500Y-161033920D01*
X211009499Y-161033920D01*
X211038340Y-161178907D01*
X211038343Y-161178917D01*
X211094912Y-161315488D01*
X211094919Y-161315501D01*
X211177048Y-161438415D01*
X211177051Y-161438419D01*
X211281580Y-161542948D01*
X211281584Y-161542951D01*
X211404498Y-161625080D01*
X211404511Y-161625087D01*
X211541082Y-161681656D01*
X211541087Y-161681658D01*
X211541091Y-161681658D01*
X211541092Y-161681659D01*
X211686079Y-161710500D01*
X211686082Y-161710500D01*
X211833920Y-161710500D01*
X211931462Y-161691096D01*
X211978913Y-161681658D01*
X212115495Y-161625084D01*
X212238416Y-161542951D01*
X212342951Y-161438416D01*
X212425084Y-161315495D01*
X212426980Y-161310919D01*
X212481656Y-161178917D01*
X212481658Y-161178913D01*
X212507736Y-161047815D01*
X212510500Y-161033920D01*
X212510500Y-160886079D01*
X212481659Y-160741092D01*
X212481658Y-160741091D01*
X212481658Y-160741087D01*
X212471888Y-160717500D01*
X212425087Y-160604511D01*
X212425080Y-160604498D01*
X212342951Y-160481584D01*
X212342948Y-160481580D01*
X212238419Y-160377051D01*
X212238413Y-160377046D01*
X212215608Y-160361808D01*
X212170804Y-160308196D01*
X212160500Y-160258707D01*
X212160500Y-159891275D01*
X212160500Y-159891273D01*
X212133207Y-159789413D01*
X212080480Y-159698087D01*
X212005913Y-159623520D01*
X205504139Y-153121746D01*
X214994500Y-153121746D01*
X214994500Y-153338253D01*
X215028370Y-153552098D01*
X215095272Y-153758006D01*
X215095273Y-153758009D01*
X215181393Y-153927027D01*
X215193567Y-153950919D01*
X215320828Y-154126078D01*
X215473922Y-154279172D01*
X215649081Y-154406433D01*
X215733508Y-154449451D01*
X215841990Y-154504726D01*
X215841993Y-154504727D01*
X215899295Y-154523345D01*
X216047903Y-154571630D01*
X216261746Y-154605500D01*
X216261747Y-154605500D01*
X216478253Y-154605500D01*
X216478254Y-154605500D01*
X216692097Y-154571630D01*
X216898009Y-154504726D01*
X217090919Y-154406433D01*
X217266078Y-154279172D01*
X217419172Y-154126078D01*
X217546433Y-153950919D01*
X217644726Y-153758009D01*
X217711630Y-153552097D01*
X217745500Y-153338254D01*
X217745500Y-153121746D01*
X217711630Y-152907903D01*
X217644726Y-152701991D01*
X217644726Y-152701990D01*
X217570137Y-152555603D01*
X217546433Y-152509081D01*
X217419172Y-152333922D01*
X217266078Y-152180828D01*
X217090919Y-152053567D01*
X216898009Y-151955273D01*
X216898006Y-151955272D01*
X216692098Y-151888370D01*
X216585175Y-151871435D01*
X216478254Y-151854500D01*
X216261746Y-151854500D01*
X216190465Y-151865790D01*
X216047901Y-151888370D01*
X215841993Y-151955272D01*
X215841990Y-151955273D01*
X215649080Y-152053567D01*
X215549145Y-152126174D01*
X215473922Y-152180828D01*
X215473920Y-152180830D01*
X215473919Y-152180830D01*
X215320830Y-152333919D01*
X215320830Y-152333920D01*
X215320828Y-152333922D01*
X215317043Y-152339132D01*
X215193567Y-152509080D01*
X215095273Y-152701990D01*
X215095272Y-152701993D01*
X215028370Y-152907901D01*
X214994500Y-153121746D01*
X205504139Y-153121746D01*
X203334574Y-150952181D01*
X203301089Y-150890858D01*
X203306073Y-150821166D01*
X203347945Y-150765233D01*
X203413409Y-150740816D01*
X203422255Y-150740500D01*
X216893592Y-150740500D01*
X216905933Y-150740500D01*
X216914042Y-150740765D01*
X216935951Y-150742200D01*
X217156367Y-150756647D01*
X217172424Y-150758762D01*
X217406607Y-150805344D01*
X217422257Y-150809538D01*
X217648352Y-150886287D01*
X217663318Y-150892485D01*
X217877463Y-150998089D01*
X217891504Y-151006196D01*
X218090026Y-151138845D01*
X218102890Y-151148716D01*
X218282394Y-151306136D01*
X218293863Y-151317605D01*
X218356913Y-151389500D01*
X218434527Y-151478003D01*
X218451283Y-151497109D01*
X218461156Y-151509976D01*
X218481392Y-151540261D01*
X218593803Y-151708495D01*
X218601912Y-151722541D01*
X218695940Y-151913212D01*
X218707508Y-151936668D01*
X218713715Y-151951654D01*
X218790459Y-152177735D01*
X218794657Y-152193401D01*
X218841235Y-152427560D01*
X218843353Y-152443642D01*
X218859235Y-152685956D01*
X218859500Y-152694066D01*
X218859500Y-188605933D01*
X218859235Y-188614043D01*
X218843353Y-188856357D01*
X218841235Y-188872439D01*
X218794657Y-189106598D01*
X218790459Y-189122264D01*
X218713715Y-189348345D01*
X218707508Y-189363331D01*
X218601913Y-189577457D01*
X218593803Y-189591504D01*
X218461157Y-189790022D01*
X218451283Y-189802890D01*
X218293863Y-189982394D01*
X218282394Y-189993863D01*
X218102890Y-190151283D01*
X218090022Y-190161157D01*
X217891504Y-190293803D01*
X217877457Y-190301913D01*
X217663331Y-190407508D01*
X217648345Y-190413715D01*
X217422264Y-190490459D01*
X217406598Y-190494657D01*
X217172439Y-190541235D01*
X217156357Y-190543353D01*
X216914043Y-190559235D01*
X216905933Y-190559500D01*
X182809500Y-190559500D01*
X182742461Y-190539815D01*
X182696706Y-190487011D01*
X182685500Y-190435500D01*
X182685500Y-187961746D01*
X214994500Y-187961746D01*
X214994500Y-188178253D01*
X215028370Y-188392098D01*
X215095272Y-188598006D01*
X215095273Y-188598009D01*
X215169863Y-188744397D01*
X215193567Y-188790919D01*
X215320828Y-188966078D01*
X215473922Y-189119172D01*
X215649081Y-189246433D01*
X215696366Y-189270526D01*
X215841990Y-189344726D01*
X215841993Y-189344727D01*
X215876815Y-189356041D01*
X216047903Y-189411630D01*
X216261746Y-189445500D01*
X216261747Y-189445500D01*
X216478253Y-189445500D01*
X216478254Y-189445500D01*
X216692097Y-189411630D01*
X216898009Y-189344726D01*
X217090919Y-189246433D01*
X217266078Y-189119172D01*
X217419172Y-188966078D01*
X217546433Y-188790919D01*
X217644726Y-188598009D01*
X217711630Y-188392097D01*
X217745500Y-188178254D01*
X217745500Y-187961746D01*
X217711630Y-187747903D01*
X217644726Y-187541991D01*
X217644726Y-187541990D01*
X217546432Y-187349080D01*
X217419172Y-187173922D01*
X217266078Y-187020828D01*
X217090919Y-186893567D01*
X216898009Y-186795273D01*
X216898006Y-186795272D01*
X216692098Y-186728370D01*
X216585175Y-186711435D01*
X216478254Y-186694500D01*
X216261746Y-186694500D01*
X216190465Y-186705790D01*
X216047901Y-186728370D01*
X215841993Y-186795272D01*
X215841990Y-186795273D01*
X215649080Y-186893567D01*
X215549145Y-186966174D01*
X215473922Y-187020828D01*
X215473920Y-187020830D01*
X215473919Y-187020830D01*
X215320830Y-187173919D01*
X215320830Y-187173920D01*
X215320828Y-187173922D01*
X215266174Y-187249145D01*
X215193567Y-187349080D01*
X215095273Y-187541990D01*
X215095272Y-187541993D01*
X215028370Y-187747901D01*
X214994500Y-187961746D01*
X182685500Y-187961746D01*
X182685500Y-185306003D01*
X184115182Y-185306003D01*
X184115182Y-185522510D01*
X184149052Y-185736355D01*
X184215954Y-185942263D01*
X184215955Y-185942266D01*
X184314249Y-186135176D01*
X184441510Y-186310335D01*
X184594604Y-186463429D01*
X184769763Y-186590690D01*
X184864379Y-186638899D01*
X184962672Y-186688983D01*
X184962675Y-186688984D01*
X185065629Y-186722435D01*
X185168585Y-186755887D01*
X185382428Y-186789757D01*
X185382429Y-186789757D01*
X185598935Y-186789757D01*
X185598936Y-186789757D01*
X185812779Y-186755887D01*
X186018691Y-186688983D01*
X186211601Y-186590690D01*
X186386760Y-186463429D01*
X186539854Y-186310335D01*
X186667115Y-186135176D01*
X186765408Y-185942266D01*
X186832312Y-185736354D01*
X186866182Y-185522511D01*
X186866182Y-185306003D01*
X186832312Y-185092160D01*
X186765408Y-184886248D01*
X186765408Y-184886247D01*
X186667114Y-184693337D01*
X186539854Y-184518179D01*
X186386760Y-184365085D01*
X186211601Y-184237824D01*
X186018691Y-184139530D01*
X186018688Y-184139529D01*
X185812780Y-184072627D01*
X185705857Y-184055692D01*
X185598936Y-184038757D01*
X185382428Y-184038757D01*
X185311147Y-184050047D01*
X185168583Y-184072627D01*
X184962675Y-184139529D01*
X184962672Y-184139530D01*
X184769762Y-184237824D01*
X184669827Y-184310431D01*
X184594604Y-184365085D01*
X184594602Y-184365087D01*
X184594601Y-184365087D01*
X184441512Y-184518176D01*
X184441512Y-184518177D01*
X184441510Y-184518179D01*
X184386856Y-184593402D01*
X184314249Y-184693337D01*
X184215955Y-184886247D01*
X184215954Y-184886250D01*
X184149052Y-185092158D01*
X184115182Y-185306003D01*
X182685500Y-185306003D01*
X182685500Y-182489007D01*
X182685499Y-182488992D01*
X182682355Y-182449035D01*
X182677510Y-182418442D01*
X182673595Y-182398761D01*
X182631859Y-182308227D01*
X182609858Y-182277945D01*
X182595905Y-182258740D01*
X182595899Y-182258732D01*
X182595897Y-182258730D01*
X182595895Y-182258727D01*
X182555124Y-182214622D01*
X182555121Y-182214620D01*
X182468148Y-182165914D01*
X182468139Y-182165910D01*
X182409953Y-182147005D01*
X182370476Y-182140752D01*
X182331000Y-182134500D01*
X182330999Y-182134500D01*
X172147255Y-182134500D01*
X172080216Y-182114815D01*
X172034461Y-182062011D01*
X172024517Y-181992853D01*
X172053542Y-181929297D01*
X172059574Y-181922819D01*
X172944893Y-181037500D01*
X175987308Y-177995083D01*
X176048629Y-177961600D01*
X176099179Y-177961149D01*
X176126079Y-177966500D01*
X176126082Y-177966500D01*
X176273920Y-177966500D01*
X176371462Y-177947096D01*
X176418913Y-177937658D01*
X176555495Y-177881084D01*
X176678416Y-177798951D01*
X176782951Y-177694416D01*
X176865084Y-177571495D01*
X176921658Y-177434913D01*
X176950500Y-177289918D01*
X176950500Y-177142082D01*
X176950500Y-177142079D01*
X176921659Y-176997092D01*
X176921658Y-176997091D01*
X176921658Y-176997087D01*
X176921656Y-176997082D01*
X176865087Y-176860511D01*
X176865080Y-176860498D01*
X176782951Y-176737584D01*
X176782948Y-176737580D01*
X176678419Y-176633051D01*
X176678415Y-176633048D01*
X176555501Y-176550919D01*
X176555488Y-176550912D01*
X176418917Y-176494343D01*
X176418907Y-176494340D01*
X176273920Y-176465500D01*
X176273918Y-176465500D01*
X176126082Y-176465500D01*
X176126080Y-176465500D01*
X175981092Y-176494340D01*
X175981082Y-176494343D01*
X175844511Y-176550912D01*
X175844498Y-176550919D01*
X175721584Y-176633048D01*
X175721580Y-176633051D01*
X175617051Y-176737580D01*
X175617048Y-176737584D01*
X175534919Y-176860498D01*
X175534912Y-176860511D01*
X175478343Y-176997082D01*
X175478340Y-176997092D01*
X175449500Y-177142079D01*
X175449500Y-177142082D01*
X175449500Y-177289918D01*
X175454694Y-177316030D01*
X175454851Y-177316820D01*
X175448622Y-177386412D01*
X175420914Y-177428691D01*
X171498426Y-181351181D01*
X171437103Y-181384666D01*
X171410745Y-181387500D01*
X162431273Y-181387500D01*
X162329410Y-181414793D01*
X162238087Y-181467520D01*
X162238084Y-181467522D01*
X161514439Y-182191166D01*
X161490684Y-182204136D01*
X161468840Y-182220126D01*
X161460472Y-182220634D01*
X161453116Y-182224651D01*
X161426117Y-182222720D01*
X161399098Y-182224361D01*
X161387710Y-182219973D01*
X161383424Y-182219667D01*
X161366164Y-182211672D01*
X161365078Y-182211064D01*
X161360986Y-182208772D01*
X161344815Y-182197966D01*
X161325756Y-182182941D01*
X161308448Y-182176555D01*
X161302992Y-182174542D01*
X161289187Y-182168472D01*
X161287242Y-182167471D01*
X161284463Y-182165915D01*
X161283796Y-182165698D01*
X161283788Y-182165694D01*
X161250906Y-182155011D01*
X161250889Y-182155005D01*
X161246016Y-182153421D01*
X161241430Y-182151831D01*
X161232228Y-182148436D01*
X161229094Y-182147618D01*
X161227526Y-182147306D01*
X161226268Y-182147004D01*
X161147311Y-182134500D01*
X146224693Y-182134500D01*
X146165049Y-182141559D01*
X146165041Y-182141560D01*
X146120125Y-182152343D01*
X146120105Y-182152348D01*
X146081970Y-182164739D01*
X146081969Y-182164740D01*
X146016217Y-182208673D01*
X145949539Y-182229550D01*
X145882159Y-182211064D01*
X145859647Y-182193251D01*
X145667088Y-182000692D01*
X145633603Y-181939369D01*
X145633152Y-181888818D01*
X145638503Y-181861918D01*
X145638503Y-181714079D01*
X145609662Y-181569092D01*
X145609661Y-181569091D01*
X145609661Y-181569087D01*
X145609659Y-181569082D01*
X145553090Y-181432511D01*
X145553083Y-181432498D01*
X145470954Y-181309584D01*
X145470951Y-181309580D01*
X145366422Y-181205051D01*
X145366418Y-181205048D01*
X145243504Y-181122919D01*
X145243491Y-181122912D01*
X145106920Y-181066343D01*
X145106910Y-181066340D01*
X144961923Y-181037500D01*
X144961921Y-181037500D01*
X144814085Y-181037500D01*
X144814083Y-181037500D01*
X144669095Y-181066340D01*
X144669085Y-181066343D01*
X144532514Y-181122912D01*
X144532501Y-181122919D01*
X144409587Y-181205048D01*
X144409582Y-181205052D01*
X144375681Y-181238953D01*
X144314358Y-181272438D01*
X144244666Y-181267452D01*
X144200320Y-181238952D01*
X144166419Y-181205051D01*
X144166415Y-181205048D01*
X144043501Y-181122919D01*
X144043488Y-181122912D01*
X143906917Y-181066343D01*
X143906907Y-181066340D01*
X143761920Y-181037500D01*
X143761918Y-181037500D01*
X143614082Y-181037500D01*
X143614080Y-181037500D01*
X143469092Y-181066340D01*
X143469082Y-181066343D01*
X143332511Y-181122912D01*
X143332498Y-181122919D01*
X143209584Y-181205048D01*
X143209580Y-181205051D01*
X143105050Y-181309581D01*
X143102600Y-181313249D01*
X143048986Y-181358052D01*
X142979660Y-181366757D01*
X142916634Y-181336600D01*
X142879917Y-181277155D01*
X142875500Y-181244354D01*
X142875500Y-176270996D01*
X142874713Y-176250976D01*
X142873493Y-176235474D01*
X142873493Y-176235472D01*
X142846435Y-176139529D01*
X142818658Y-176085012D01*
X142795164Y-176052675D01*
X142771673Y-176020341D01*
X142429662Y-175678330D01*
X142414932Y-175664713D01*
X142403117Y-175654623D01*
X142403115Y-175654621D01*
X142339327Y-175618899D01*
X142316132Y-175605910D01*
X142257945Y-175587005D01*
X142218468Y-175580752D01*
X142178992Y-175574500D01*
X134859000Y-175574500D01*
X134858992Y-175574500D01*
X134819047Y-175577644D01*
X134819043Y-175577644D01*
X134819035Y-175577645D01*
X134819032Y-175577645D01*
X134819026Y-175577646D01*
X134788446Y-175582488D01*
X134768762Y-175586404D01*
X134678228Y-175628140D01*
X134678223Y-175628143D01*
X134628740Y-175664094D01*
X134628732Y-175664100D01*
X134584622Y-175704876D01*
X134584620Y-175704878D01*
X134535914Y-175791851D01*
X134535910Y-175791860D01*
X134517005Y-175850046D01*
X134504500Y-175929000D01*
X134504500Y-181970500D01*
X134484815Y-182037539D01*
X134432011Y-182083294D01*
X134380500Y-182094500D01*
X130728992Y-182094500D01*
X130689047Y-182097644D01*
X130689043Y-182097644D01*
X130689035Y-182097645D01*
X130689032Y-182097645D01*
X130689026Y-182097646D01*
X130658446Y-182102488D01*
X130638762Y-182106404D01*
X130548228Y-182148140D01*
X130548223Y-182148143D01*
X130498740Y-182184094D01*
X130498732Y-182184100D01*
X130454622Y-182224876D01*
X130454620Y-182224878D01*
X130405914Y-182311851D01*
X130405910Y-182311860D01*
X130387005Y-182370046D01*
X130374500Y-182449000D01*
X130374500Y-190435500D01*
X130354815Y-190502539D01*
X130302011Y-190548294D01*
X130250500Y-190559500D01*
X117634067Y-190559500D01*
X117625957Y-190559235D01*
X117383642Y-190543353D01*
X117367562Y-190541235D01*
X117254798Y-190518804D01*
X117133401Y-190494657D01*
X117117735Y-190490459D01*
X116891654Y-190413715D01*
X116876674Y-190407510D01*
X116662541Y-190301912D01*
X116648495Y-190293803D01*
X116449977Y-190161157D01*
X116437109Y-190151283D01*
X116257605Y-189993863D01*
X116246136Y-189982394D01*
X116088716Y-189802890D01*
X116078842Y-189790022D01*
X115946196Y-189591504D01*
X115938089Y-189577463D01*
X115832485Y-189363318D01*
X115826287Y-189348352D01*
X115749538Y-189122257D01*
X115745344Y-189106607D01*
X115698762Y-188872424D01*
X115696647Y-188856367D01*
X115680765Y-188614042D01*
X115680500Y-188605933D01*
X115680500Y-187961746D01*
X116794500Y-187961746D01*
X116794500Y-188178253D01*
X116828370Y-188392098D01*
X116895272Y-188598006D01*
X116895273Y-188598009D01*
X116969863Y-188744397D01*
X116993567Y-188790919D01*
X117120828Y-188966078D01*
X117273922Y-189119172D01*
X117449081Y-189246433D01*
X117496366Y-189270526D01*
X117641990Y-189344726D01*
X117641993Y-189344727D01*
X117676815Y-189356041D01*
X117847903Y-189411630D01*
X118061746Y-189445500D01*
X118061747Y-189445500D01*
X118278253Y-189445500D01*
X118278254Y-189445500D01*
X118492097Y-189411630D01*
X118698009Y-189344726D01*
X118890919Y-189246433D01*
X119066078Y-189119172D01*
X119219172Y-188966078D01*
X119346433Y-188790919D01*
X119444726Y-188598009D01*
X119511630Y-188392097D01*
X119545500Y-188178254D01*
X119545500Y-187961746D01*
X119511630Y-187747903D01*
X119444726Y-187541991D01*
X119444726Y-187541990D01*
X119346432Y-187349080D01*
X119219172Y-187173922D01*
X119066078Y-187020828D01*
X118890919Y-186893567D01*
X118698009Y-186795273D01*
X118698006Y-186795272D01*
X118492098Y-186728370D01*
X118385175Y-186711435D01*
X118278254Y-186694500D01*
X118061746Y-186694500D01*
X117990465Y-186705790D01*
X117847901Y-186728370D01*
X117641993Y-186795272D01*
X117641990Y-186795273D01*
X117449080Y-186893567D01*
X117349145Y-186966174D01*
X117273922Y-187020828D01*
X117273920Y-187020830D01*
X117273919Y-187020830D01*
X117120830Y-187173919D01*
X117120830Y-187173920D01*
X117120828Y-187173922D01*
X117066174Y-187249145D01*
X116993567Y-187349080D01*
X116895273Y-187541990D01*
X116895272Y-187541993D01*
X116828370Y-187747901D01*
X116794500Y-187961746D01*
X115680500Y-187961746D01*
X115680500Y-185306003D01*
X126115182Y-185306003D01*
X126115182Y-185522510D01*
X126149052Y-185736355D01*
X126215954Y-185942263D01*
X126215955Y-185942266D01*
X126314249Y-186135176D01*
X126441510Y-186310335D01*
X126594604Y-186463429D01*
X126769763Y-186590690D01*
X126864379Y-186638899D01*
X126962672Y-186688983D01*
X126962675Y-186688984D01*
X127065629Y-186722435D01*
X127168585Y-186755887D01*
X127382428Y-186789757D01*
X127382429Y-186789757D01*
X127598935Y-186789757D01*
X127598936Y-186789757D01*
X127812779Y-186755887D01*
X128018691Y-186688983D01*
X128211601Y-186590690D01*
X128386760Y-186463429D01*
X128539854Y-186310335D01*
X128667115Y-186135176D01*
X128765408Y-185942266D01*
X128832312Y-185736354D01*
X128866182Y-185522511D01*
X128866182Y-185306003D01*
X128832312Y-185092160D01*
X128765408Y-184886248D01*
X128765408Y-184886247D01*
X128667114Y-184693337D01*
X128539854Y-184518179D01*
X128386760Y-184365085D01*
X128211601Y-184237824D01*
X128018691Y-184139530D01*
X128018688Y-184139529D01*
X127812780Y-184072627D01*
X127705857Y-184055692D01*
X127598936Y-184038757D01*
X127382428Y-184038757D01*
X127311147Y-184050047D01*
X127168583Y-184072627D01*
X126962675Y-184139529D01*
X126962672Y-184139530D01*
X126769762Y-184237824D01*
X126669827Y-184310431D01*
X126594604Y-184365085D01*
X126594602Y-184365087D01*
X126594601Y-184365087D01*
X126441512Y-184518176D01*
X126441512Y-184518177D01*
X126441510Y-184518179D01*
X126386856Y-184593402D01*
X126314249Y-184693337D01*
X126215955Y-184886247D01*
X126215954Y-184886250D01*
X126149052Y-185092158D01*
X126115182Y-185306003D01*
X115680500Y-185306003D01*
X115680500Y-162306003D01*
X126115182Y-162306003D01*
X126115182Y-162522511D01*
X126120954Y-162558951D01*
X126149052Y-162736355D01*
X126215954Y-162942263D01*
X126215955Y-162942266D01*
X126276450Y-163060992D01*
X126314249Y-163135176D01*
X126441510Y-163310335D01*
X126594604Y-163463429D01*
X126769763Y-163590690D01*
X126864379Y-163638899D01*
X126962672Y-163688983D01*
X126962675Y-163688984D01*
X127065629Y-163722435D01*
X127168585Y-163755887D01*
X127382428Y-163789757D01*
X127382429Y-163789757D01*
X127598935Y-163789757D01*
X127598936Y-163789757D01*
X127812779Y-163755887D01*
X128018691Y-163688983D01*
X128211601Y-163590690D01*
X128386760Y-163463429D01*
X128539854Y-163310335D01*
X128667115Y-163135176D01*
X128765408Y-162942266D01*
X128832312Y-162736354D01*
X128866182Y-162522511D01*
X128866182Y-162306003D01*
X128832312Y-162092160D01*
X128798860Y-161989204D01*
X128765409Y-161886250D01*
X128765408Y-161886247D01*
X128699594Y-161757082D01*
X128667115Y-161693338D01*
X128557103Y-161541920D01*
X139381499Y-161541920D01*
X139410340Y-161686907D01*
X139410343Y-161686917D01*
X139466912Y-161823488D01*
X139466919Y-161823501D01*
X139549048Y-161946415D01*
X139549051Y-161946419D01*
X139653580Y-162050948D01*
X139653584Y-162050951D01*
X139776498Y-162133080D01*
X139776511Y-162133087D01*
X139913082Y-162189656D01*
X139913087Y-162189658D01*
X139913091Y-162189658D01*
X139913092Y-162189659D01*
X140058079Y-162218500D01*
X140058082Y-162218500D01*
X140205920Y-162218500D01*
X140303462Y-162199096D01*
X140350913Y-162189658D01*
X140487495Y-162133084D01*
X140610416Y-162050951D01*
X140714951Y-161946416D01*
X140730189Y-161923611D01*
X140783801Y-161878805D01*
X140833292Y-161868500D01*
X145526708Y-161868500D01*
X145593747Y-161888185D01*
X145629811Y-161923611D01*
X145645047Y-161946414D01*
X145645051Y-161946419D01*
X145749580Y-162050948D01*
X145749584Y-162050951D01*
X145872498Y-162133080D01*
X145872511Y-162133087D01*
X146009082Y-162189656D01*
X146009087Y-162189658D01*
X146009091Y-162189658D01*
X146009092Y-162189659D01*
X146154079Y-162218500D01*
X146154082Y-162218500D01*
X146301920Y-162218500D01*
X146399462Y-162199096D01*
X146446913Y-162189658D01*
X146583495Y-162133084D01*
X146706416Y-162050951D01*
X146810951Y-161946416D01*
X146893084Y-161823495D01*
X146949658Y-161686913D01*
X146978295Y-161542951D01*
X146978500Y-161541920D01*
X146978500Y-161394079D01*
X146949659Y-161249092D01*
X146949658Y-161249091D01*
X146949658Y-161249087D01*
X146904279Y-161139531D01*
X146893087Y-161112511D01*
X146893080Y-161112498D01*
X146810951Y-160989584D01*
X146810948Y-160989580D01*
X146706419Y-160885051D01*
X146706415Y-160885048D01*
X146583501Y-160802919D01*
X146583488Y-160802912D01*
X146446917Y-160746343D01*
X146446907Y-160746340D01*
X146301920Y-160717500D01*
X146301918Y-160717500D01*
X146154082Y-160717500D01*
X146154080Y-160717500D01*
X146009092Y-160746340D01*
X146009082Y-160746343D01*
X145872511Y-160802912D01*
X145872498Y-160802919D01*
X145749584Y-160885048D01*
X145749580Y-160885051D01*
X145645051Y-160989580D01*
X145645047Y-160989585D01*
X145629811Y-161012389D01*
X145576199Y-161057195D01*
X145526708Y-161067500D01*
X140833292Y-161067500D01*
X140766253Y-161047815D01*
X140730189Y-161012389D01*
X140714952Y-160989585D01*
X140714948Y-160989580D01*
X140610419Y-160885051D01*
X140610415Y-160885048D01*
X140487501Y-160802919D01*
X140487488Y-160802912D01*
X140350917Y-160746343D01*
X140350907Y-160746340D01*
X140205920Y-160717500D01*
X140205918Y-160717500D01*
X140058082Y-160717500D01*
X140058080Y-160717500D01*
X139913092Y-160746340D01*
X139913082Y-160746343D01*
X139776511Y-160802912D01*
X139776498Y-160802919D01*
X139653584Y-160885048D01*
X139653580Y-160885051D01*
X139549051Y-160989580D01*
X139549048Y-160989584D01*
X139466919Y-161112498D01*
X139466912Y-161112511D01*
X139410343Y-161249082D01*
X139410340Y-161249092D01*
X139381500Y-161394079D01*
X139381500Y-161394082D01*
X139381500Y-161541918D01*
X139381500Y-161541920D01*
X139381499Y-161541920D01*
X128557103Y-161541920D01*
X128539854Y-161518179D01*
X128386760Y-161365085D01*
X128211601Y-161237824D01*
X128187414Y-161225500D01*
X128018691Y-161139530D01*
X128018688Y-161139529D01*
X127812780Y-161072627D01*
X127705857Y-161055692D01*
X127598936Y-161038757D01*
X127382428Y-161038757D01*
X127325239Y-161047815D01*
X127168583Y-161072627D01*
X126962675Y-161139529D01*
X126962672Y-161139530D01*
X126769762Y-161237824D01*
X126669827Y-161310431D01*
X126594604Y-161365085D01*
X126594602Y-161365087D01*
X126594601Y-161365087D01*
X126441512Y-161518176D01*
X126441512Y-161518177D01*
X126441510Y-161518179D01*
X126423512Y-161542951D01*
X126314249Y-161693337D01*
X126215955Y-161886247D01*
X126215954Y-161886250D01*
X126149052Y-162092158D01*
X126131331Y-162204042D01*
X126115182Y-162306003D01*
X115680500Y-162306003D01*
X115680500Y-153121746D01*
X116794500Y-153121746D01*
X116794500Y-153338253D01*
X116828370Y-153552098D01*
X116895272Y-153758006D01*
X116895273Y-153758009D01*
X116981393Y-153927027D01*
X116993567Y-153950919D01*
X117120828Y-154126078D01*
X117273922Y-154279172D01*
X117449081Y-154406433D01*
X117533508Y-154449451D01*
X117641990Y-154504726D01*
X117641993Y-154504727D01*
X117699295Y-154523345D01*
X117847903Y-154571630D01*
X118061746Y-154605500D01*
X118061747Y-154605500D01*
X118278253Y-154605500D01*
X118278254Y-154605500D01*
X118492097Y-154571630D01*
X118698009Y-154504726D01*
X118890919Y-154406433D01*
X119066078Y-154279172D01*
X119219172Y-154126078D01*
X119346433Y-153950919D01*
X119444726Y-153758009D01*
X119511630Y-153552097D01*
X119545500Y-153338254D01*
X119545500Y-153121746D01*
X119511630Y-152907903D01*
X119444726Y-152701991D01*
X119444726Y-152701990D01*
X119370137Y-152555603D01*
X119346433Y-152509081D01*
X119219172Y-152333922D01*
X119066078Y-152180828D01*
X118890919Y-152053567D01*
X118698009Y-151955273D01*
X118698006Y-151955272D01*
X118492098Y-151888370D01*
X118385175Y-151871435D01*
X118278254Y-151854500D01*
X118061746Y-151854500D01*
X117990465Y-151865790D01*
X117847901Y-151888370D01*
X117641993Y-151955272D01*
X117641990Y-151955273D01*
X117449080Y-152053567D01*
X117349145Y-152126174D01*
X117273922Y-152180828D01*
X117273920Y-152180830D01*
X117273919Y-152180830D01*
X117120830Y-152333919D01*
X117120830Y-152333920D01*
X117120828Y-152333922D01*
X117117043Y-152339132D01*
X116993567Y-152509080D01*
X116895273Y-152701990D01*
X116895272Y-152701993D01*
X116828370Y-152907901D01*
X116794500Y-153121746D01*
X115680500Y-153121746D01*
X115680500Y-152694066D01*
X115680765Y-152685957D01*
X115683335Y-152646744D01*
X115696647Y-152443628D01*
X115698761Y-152427576D01*
X115745345Y-152193388D01*
X115749537Y-152177745D01*
X115826288Y-151951641D01*
X115832483Y-151936686D01*
X115938092Y-151722530D01*
X115946192Y-151708501D01*
X116078850Y-151509966D01*
X116088707Y-151497119D01*
X116246141Y-151317599D01*
X116257599Y-151306141D01*
X116437119Y-151148707D01*
X116449966Y-151138850D01*
X116648501Y-151006192D01*
X116662530Y-150998092D01*
X116876686Y-150892483D01*
X116891641Y-150886288D01*
X117117745Y-150809537D01*
X117133388Y-150805345D01*
X117367576Y-150758761D01*
X117383630Y-150756647D01*
X117605606Y-150742098D01*
X117625958Y-150740765D01*
X117634067Y-150740500D01*
X117646408Y-150740500D01*
X173361746Y-150740500D01*
X173428785Y-150760185D01*
G37*
G04 #@! TD.AperFunction*
G04 #@! TA.AperFunction,Conductor*
G36*
X142237183Y-175848907D02*
G01*
X142248996Y-175858996D01*
X142591004Y-176201004D01*
X142618781Y-176255521D01*
X142620000Y-176271008D01*
X142620000Y-182390000D01*
X142620001Y-182390000D01*
X143272182Y-182390000D01*
X143330373Y-182408907D01*
X143366337Y-182458407D01*
X143371182Y-182489000D01*
X143371182Y-183270117D01*
X143352275Y-183328308D01*
X143302775Y-183364272D01*
X143241589Y-183364272D01*
X143202181Y-183340123D01*
X143190337Y-183328280D01*
X143018279Y-183213315D01*
X142827100Y-183134126D01*
X142624149Y-183093757D01*
X142624147Y-183093757D01*
X142417217Y-183093757D01*
X142417214Y-183093757D01*
X142214263Y-183134126D01*
X142023084Y-183213315D01*
X141851030Y-183328277D01*
X141704702Y-183474605D01*
X141589740Y-183646659D01*
X141510551Y-183837838D01*
X141470182Y-184040789D01*
X141470182Y-184247724D01*
X141510551Y-184450675D01*
X141589740Y-184641854D01*
X141686204Y-184786223D01*
X141704705Y-184813912D01*
X141851027Y-184960234D01*
X142023084Y-185075198D01*
X142214262Y-185154387D01*
X142417217Y-185194757D01*
X142417218Y-185194757D01*
X142624146Y-185194757D01*
X142624147Y-185194757D01*
X142827102Y-185154387D01*
X143018280Y-185075198D01*
X143190337Y-184960234D01*
X143202180Y-184948390D01*
X143256695Y-184920615D01*
X143317127Y-184930186D01*
X143360392Y-184973451D01*
X143371182Y-185018396D01*
X143371182Y-185810117D01*
X143352275Y-185868308D01*
X143302775Y-185904272D01*
X143241589Y-185904272D01*
X143202181Y-185880123D01*
X143190337Y-185868280D01*
X143018279Y-185753315D01*
X142827100Y-185674126D01*
X142624149Y-185633757D01*
X142624147Y-185633757D01*
X142417217Y-185633757D01*
X142417214Y-185633757D01*
X142214263Y-185674126D01*
X142023084Y-185753315D01*
X141851030Y-185868277D01*
X141704702Y-186014605D01*
X141589740Y-186186659D01*
X141510551Y-186377838D01*
X141470182Y-186580789D01*
X141470182Y-186787724D01*
X141510551Y-186990675D01*
X141589740Y-187181854D01*
X141680052Y-187317016D01*
X141704705Y-187353912D01*
X141851027Y-187500234D01*
X142023084Y-187615198D01*
X142214262Y-187694387D01*
X142417217Y-187734757D01*
X142417218Y-187734757D01*
X142624146Y-187734757D01*
X142624147Y-187734757D01*
X142827102Y-187694387D01*
X143018280Y-187615198D01*
X143190337Y-187500234D01*
X143297419Y-187393151D01*
X143351934Y-187365375D01*
X143412366Y-187374946D01*
X143437425Y-187393152D01*
X143441210Y-187396937D01*
X143441212Y-187396940D01*
X145224742Y-189180470D01*
X145304666Y-189226614D01*
X145393810Y-189250500D01*
X145393811Y-189250500D01*
X145393812Y-189250500D01*
X170831081Y-189250500D01*
X170831083Y-189250500D01*
X170920227Y-189226614D01*
X171000151Y-189180470D01*
X172500390Y-187680229D01*
X172554905Y-187652454D01*
X172608278Y-187658771D01*
X172650515Y-187676266D01*
X172694262Y-187694387D01*
X172897217Y-187734757D01*
X172897218Y-187734757D01*
X173104146Y-187734757D01*
X173104147Y-187734757D01*
X173307102Y-187694387D01*
X173498280Y-187615198D01*
X173670337Y-187500234D01*
X173816659Y-187353912D01*
X173931623Y-187181855D01*
X174010812Y-186990677D01*
X174051182Y-186787722D01*
X174051182Y-186580792D01*
X174051181Y-186580789D01*
X177030182Y-186580789D01*
X177030182Y-186787724D01*
X177070551Y-186990675D01*
X177149740Y-187181854D01*
X177240052Y-187317016D01*
X177264705Y-187353912D01*
X177411027Y-187500234D01*
X177583084Y-187615198D01*
X177774262Y-187694387D01*
X177977217Y-187734757D01*
X177977218Y-187734757D01*
X178184146Y-187734757D01*
X178184147Y-187734757D01*
X178387102Y-187694387D01*
X178578280Y-187615198D01*
X178750337Y-187500234D01*
X178896659Y-187353912D01*
X179011623Y-187181855D01*
X179090812Y-186990677D01*
X179131182Y-186787722D01*
X179131182Y-186580792D01*
X179131181Y-186580789D01*
X179570182Y-186580789D01*
X179570182Y-186787724D01*
X179610551Y-186990675D01*
X179689740Y-187181854D01*
X179780052Y-187317016D01*
X179804705Y-187353912D01*
X179951027Y-187500234D01*
X180123084Y-187615198D01*
X180314262Y-187694387D01*
X180517217Y-187734757D01*
X180517218Y-187734757D01*
X180724146Y-187734757D01*
X180724147Y-187734757D01*
X180927102Y-187694387D01*
X181118280Y-187615198D01*
X181290337Y-187500234D01*
X181436659Y-187353912D01*
X181551623Y-187181855D01*
X181630812Y-186990677D01*
X181671182Y-186787722D01*
X181671182Y-186580792D01*
X181630812Y-186377837D01*
X181551623Y-186186659D01*
X181436659Y-186014602D01*
X181290337Y-185868280D01*
X181290333Y-185868277D01*
X181118279Y-185753315D01*
X180927100Y-185674126D01*
X180724149Y-185633757D01*
X180724147Y-185633757D01*
X180517217Y-185633757D01*
X180517214Y-185633757D01*
X180314263Y-185674126D01*
X180123084Y-185753315D01*
X179951030Y-185868277D01*
X179804702Y-186014605D01*
X179689740Y-186186659D01*
X179610551Y-186377838D01*
X179570182Y-186580789D01*
X179131181Y-186580789D01*
X179090812Y-186377837D01*
X179011623Y-186186659D01*
X178896659Y-186014602D01*
X178750337Y-185868280D01*
X178750333Y-185868277D01*
X178578279Y-185753315D01*
X178387100Y-185674126D01*
X178184149Y-185633757D01*
X178184147Y-185633757D01*
X177977217Y-185633757D01*
X177977214Y-185633757D01*
X177774263Y-185674126D01*
X177583084Y-185753315D01*
X177411030Y-185868277D01*
X177264702Y-186014605D01*
X177149740Y-186186659D01*
X177070551Y-186377838D01*
X177030182Y-186580789D01*
X174051181Y-186580789D01*
X174010812Y-186377837D01*
X173931623Y-186186659D01*
X173816659Y-186014602D01*
X173670337Y-185868280D01*
X173670333Y-185868277D01*
X173498279Y-185753315D01*
X173307100Y-185674126D01*
X173104149Y-185633757D01*
X173104147Y-185633757D01*
X172897217Y-185633757D01*
X172897214Y-185633757D01*
X172694263Y-185674126D01*
X172503084Y-185753315D01*
X172331030Y-185868277D01*
X172184702Y-186014605D01*
X172069740Y-186186659D01*
X171990551Y-186377838D01*
X171950182Y-186580789D01*
X171950182Y-186787724D01*
X171990551Y-186990675D01*
X171998980Y-187011025D01*
X172021562Y-187065542D01*
X172026167Y-187076658D01*
X172030968Y-187137655D01*
X172004707Y-187184548D01*
X170668753Y-188520504D01*
X170614236Y-188548281D01*
X170598749Y-188549500D01*
X145626144Y-188549500D01*
X145567953Y-188530593D01*
X145556140Y-188520504D01*
X144101178Y-187065542D01*
X144073401Y-187011025D01*
X144072182Y-186995538D01*
X144072182Y-184880378D01*
X144091089Y-184822187D01*
X144140589Y-184786223D01*
X144201775Y-184786223D01*
X144239616Y-184812121D01*
X144241266Y-184810472D01*
X144244702Y-184813908D01*
X144244705Y-184813912D01*
X144391027Y-184960234D01*
X144563084Y-185075198D01*
X144754262Y-185154387D01*
X144957217Y-185194757D01*
X144957218Y-185194757D01*
X145164146Y-185194757D01*
X145164147Y-185194757D01*
X145367102Y-185154387D01*
X145558280Y-185075198D01*
X145730337Y-184960234D01*
X145742180Y-184948390D01*
X145796695Y-184920615D01*
X145857127Y-184930186D01*
X145900392Y-184973451D01*
X145911182Y-185018396D01*
X145911182Y-187455828D01*
X145925253Y-187508339D01*
X145925254Y-187508343D01*
X145935065Y-187544964D01*
X145935066Y-187544966D01*
X145935067Y-187544969D01*
X145935068Y-187544970D01*
X145981212Y-187624894D01*
X146520788Y-188164470D01*
X146600712Y-188210614D01*
X146689856Y-188234500D01*
X146689858Y-188234500D01*
X169307081Y-188234500D01*
X169307083Y-188234500D01*
X169396227Y-188210614D01*
X169476151Y-188164470D01*
X169960388Y-187680231D01*
X170014905Y-187652454D01*
X170068278Y-187658771D01*
X170110515Y-187676266D01*
X170154262Y-187694387D01*
X170357217Y-187734757D01*
X170357218Y-187734757D01*
X170564146Y-187734757D01*
X170564147Y-187734757D01*
X170767102Y-187694387D01*
X170958280Y-187615198D01*
X171130337Y-187500234D01*
X171276659Y-187353912D01*
X171391623Y-187181855D01*
X171470812Y-186990677D01*
X171511182Y-186787722D01*
X171511182Y-186580792D01*
X171470812Y-186377837D01*
X171391623Y-186186659D01*
X171276659Y-186014602D01*
X171130337Y-185868280D01*
X171130333Y-185868277D01*
X170958279Y-185753315D01*
X170767100Y-185674126D01*
X170564149Y-185633757D01*
X170564147Y-185633757D01*
X170357217Y-185633757D01*
X170357214Y-185633757D01*
X170154263Y-185674126D01*
X169963084Y-185753315D01*
X169791030Y-185868277D01*
X169644702Y-186014605D01*
X169529740Y-186186659D01*
X169450551Y-186377838D01*
X169410182Y-186580789D01*
X169410182Y-186787724D01*
X169450552Y-186990676D01*
X169450552Y-186990678D01*
X169486167Y-187076660D01*
X169490968Y-187137656D01*
X169464707Y-187184548D01*
X169144754Y-187504503D01*
X169090237Y-187532281D01*
X169074750Y-187533500D01*
X168796078Y-187533500D01*
X168737887Y-187514593D01*
X168701923Y-187465093D01*
X168701923Y-187403907D01*
X168726072Y-187364498D01*
X168736659Y-187353912D01*
X168851623Y-187181855D01*
X168930812Y-186990677D01*
X168971182Y-186787722D01*
X168971182Y-186580792D01*
X168930812Y-186377837D01*
X168851623Y-186186659D01*
X168736659Y-186014602D01*
X168590337Y-185868280D01*
X168590333Y-185868277D01*
X168418279Y-185753315D01*
X168227100Y-185674126D01*
X168024149Y-185633757D01*
X168024147Y-185633757D01*
X167817217Y-185633757D01*
X167817214Y-185633757D01*
X167614263Y-185674126D01*
X167423084Y-185753315D01*
X167251030Y-185868277D01*
X167104702Y-186014605D01*
X166989740Y-186186659D01*
X166910551Y-186377838D01*
X166870182Y-186580789D01*
X166870182Y-186787724D01*
X166910551Y-186990675D01*
X166989740Y-187181854D01*
X167080052Y-187317016D01*
X167104705Y-187353912D01*
X167115291Y-187364498D01*
X167143067Y-187419013D01*
X167133496Y-187479445D01*
X167090231Y-187522710D01*
X167045286Y-187533500D01*
X163716078Y-187533500D01*
X163657887Y-187514593D01*
X163621923Y-187465093D01*
X163621923Y-187403907D01*
X163646072Y-187364498D01*
X163656659Y-187353912D01*
X163771623Y-187181855D01*
X163850812Y-186990677D01*
X163891182Y-186787722D01*
X163891182Y-186580792D01*
X163850812Y-186377837D01*
X163771623Y-186186659D01*
X163656659Y-186014602D01*
X163510337Y-185868280D01*
X163510333Y-185868277D01*
X163338279Y-185753315D01*
X163147100Y-185674126D01*
X162944149Y-185633757D01*
X162944147Y-185633757D01*
X162737217Y-185633757D01*
X162737214Y-185633757D01*
X162534263Y-185674126D01*
X162343084Y-185753315D01*
X162171030Y-185868277D01*
X162024702Y-186014605D01*
X161909740Y-186186659D01*
X161830551Y-186377838D01*
X161790182Y-186580789D01*
X161790182Y-186787724D01*
X161830551Y-186990675D01*
X161909740Y-187181854D01*
X162000052Y-187317016D01*
X162024705Y-187353912D01*
X162035291Y-187364498D01*
X162063067Y-187419013D01*
X162053496Y-187479445D01*
X162010231Y-187522710D01*
X161965286Y-187533500D01*
X161176078Y-187533500D01*
X161117887Y-187514593D01*
X161081923Y-187465093D01*
X161081923Y-187403907D01*
X161106072Y-187364498D01*
X161116659Y-187353912D01*
X161231623Y-187181855D01*
X161310812Y-186990677D01*
X161351182Y-186787722D01*
X161351182Y-186580792D01*
X161310812Y-186377837D01*
X161275196Y-186291853D01*
X161270395Y-186230856D01*
X161296657Y-186183963D01*
X161479313Y-186001307D01*
X161782151Y-185698470D01*
X161796206Y-185674126D01*
X161828294Y-185618549D01*
X161828294Y-185618547D01*
X161828296Y-185618545D01*
X161852182Y-185529401D01*
X161852182Y-184880378D01*
X161871089Y-184822187D01*
X161920589Y-184786223D01*
X161981775Y-184786223D01*
X162019616Y-184812121D01*
X162021266Y-184810472D01*
X162024702Y-184813908D01*
X162024705Y-184813912D01*
X162171027Y-184960234D01*
X162343084Y-185075198D01*
X162534262Y-185154387D01*
X162737217Y-185194757D01*
X162737218Y-185194757D01*
X162944146Y-185194757D01*
X162944147Y-185194757D01*
X163147102Y-185154387D01*
X163338280Y-185075198D01*
X163510337Y-184960234D01*
X163656659Y-184813912D01*
X163771623Y-184641855D01*
X163850812Y-184450677D01*
X163891182Y-184247722D01*
X163891182Y-184040792D01*
X163891181Y-184040789D01*
X164330182Y-184040789D01*
X164330182Y-184247724D01*
X164370551Y-184450675D01*
X164449740Y-184641854D01*
X164546204Y-184786223D01*
X164564705Y-184813912D01*
X164711027Y-184960234D01*
X164883084Y-185075198D01*
X165074262Y-185154387D01*
X165277217Y-185194757D01*
X165277218Y-185194757D01*
X165484146Y-185194757D01*
X165484147Y-185194757D01*
X165687102Y-185154387D01*
X165878280Y-185075198D01*
X166050337Y-184960234D01*
X166196659Y-184813912D01*
X166311623Y-184641855D01*
X166390812Y-184450677D01*
X166431182Y-184247722D01*
X166431182Y-184040792D01*
X166431181Y-184040789D01*
X166870182Y-184040789D01*
X166870182Y-184247724D01*
X166910551Y-184450675D01*
X166989740Y-184641854D01*
X167086204Y-184786223D01*
X167104705Y-184813912D01*
X167251027Y-184960234D01*
X167423084Y-185075198D01*
X167614262Y-185154387D01*
X167817217Y-185194757D01*
X167817218Y-185194757D01*
X168024146Y-185194757D01*
X168024147Y-185194757D01*
X168227102Y-185154387D01*
X168418280Y-185075198D01*
X168590337Y-184960234D01*
X168736659Y-184813912D01*
X168851623Y-184641855D01*
X168930812Y-184450677D01*
X168971182Y-184247722D01*
X168971182Y-184040792D01*
X168971181Y-184040789D01*
X171950182Y-184040789D01*
X171950182Y-184247724D01*
X171990551Y-184450675D01*
X172069740Y-184641854D01*
X172166204Y-184786223D01*
X172184705Y-184813912D01*
X172331027Y-184960234D01*
X172503084Y-185075198D01*
X172694262Y-185154387D01*
X172897217Y-185194757D01*
X172897218Y-185194757D01*
X173104146Y-185194757D01*
X173104147Y-185194757D01*
X173307102Y-185154387D01*
X173498280Y-185075198D01*
X173670337Y-184960234D01*
X173816659Y-184813912D01*
X173931623Y-184641855D01*
X174010812Y-184450677D01*
X174051182Y-184247722D01*
X174051182Y-184040792D01*
X174051181Y-184040789D01*
X174490182Y-184040789D01*
X174490182Y-184247724D01*
X174530551Y-184450675D01*
X174609740Y-184641854D01*
X174706204Y-184786223D01*
X174724705Y-184813912D01*
X174871027Y-184960234D01*
X175043084Y-185075198D01*
X175234262Y-185154387D01*
X175437217Y-185194757D01*
X175437218Y-185194757D01*
X175644146Y-185194757D01*
X175644147Y-185194757D01*
X175847102Y-185154387D01*
X176038280Y-185075198D01*
X176210337Y-184960234D01*
X176356659Y-184813912D01*
X176471623Y-184641855D01*
X176550812Y-184450677D01*
X176591182Y-184247722D01*
X176591182Y-184040792D01*
X176591181Y-184040789D01*
X177030182Y-184040789D01*
X177030182Y-184247724D01*
X177070551Y-184450675D01*
X177149740Y-184641854D01*
X177246204Y-184786223D01*
X177264705Y-184813912D01*
X177411027Y-184960234D01*
X177583084Y-185075198D01*
X177774262Y-185154387D01*
X177977217Y-185194757D01*
X177977218Y-185194757D01*
X178184146Y-185194757D01*
X178184147Y-185194757D01*
X178387102Y-185154387D01*
X178578280Y-185075198D01*
X178750337Y-184960234D01*
X178896659Y-184813912D01*
X179011623Y-184641855D01*
X179090812Y-184450677D01*
X179131182Y-184247722D01*
X179131182Y-184040792D01*
X179090812Y-183837837D01*
X179011623Y-183646659D01*
X178896659Y-183474602D01*
X178750337Y-183328280D01*
X178669864Y-183274510D01*
X179570182Y-183274510D01*
X179570182Y-185014003D01*
X179570183Y-185014015D01*
X179581814Y-185072484D01*
X179581816Y-185072490D01*
X179626127Y-185138805D01*
X179626130Y-185138809D01*
X179692451Y-185183124D01*
X179736913Y-185191968D01*
X179750923Y-185194755D01*
X179750928Y-185194755D01*
X179750934Y-185194757D01*
X179750935Y-185194757D01*
X181490429Y-185194757D01*
X181490430Y-185194757D01*
X181548913Y-185183124D01*
X181615234Y-185138809D01*
X181659549Y-185072488D01*
X181671182Y-185014005D01*
X181671182Y-183274509D01*
X181670308Y-183270117D01*
X181668393Y-183260488D01*
X181659549Y-183216026D01*
X181615234Y-183149705D01*
X181615230Y-183149702D01*
X181548915Y-183105391D01*
X181548913Y-183105390D01*
X181548910Y-183105389D01*
X181548909Y-183105389D01*
X181490440Y-183093758D01*
X181490430Y-183093757D01*
X179750934Y-183093757D01*
X179750933Y-183093757D01*
X179750923Y-183093758D01*
X179692454Y-183105389D01*
X179692448Y-183105391D01*
X179626133Y-183149702D01*
X179626127Y-183149708D01*
X179581816Y-183216023D01*
X179581814Y-183216029D01*
X179570183Y-183274498D01*
X179570182Y-183274510D01*
X178669864Y-183274510D01*
X178578279Y-183213315D01*
X178387100Y-183134126D01*
X178184149Y-183093757D01*
X178184147Y-183093757D01*
X177977217Y-183093757D01*
X177977214Y-183093757D01*
X177774263Y-183134126D01*
X177583084Y-183213315D01*
X177411030Y-183328277D01*
X177264702Y-183474605D01*
X177149740Y-183646659D01*
X177070551Y-183837838D01*
X177030182Y-184040789D01*
X176591181Y-184040789D01*
X176550812Y-183837837D01*
X176471623Y-183646659D01*
X176356659Y-183474602D01*
X176210337Y-183328280D01*
X176129864Y-183274510D01*
X176038279Y-183213315D01*
X175847100Y-183134126D01*
X175644149Y-183093757D01*
X175644147Y-183093757D01*
X175437217Y-183093757D01*
X175437214Y-183093757D01*
X175234263Y-183134126D01*
X175043084Y-183213315D01*
X174871030Y-183328277D01*
X174724702Y-183474605D01*
X174609740Y-183646659D01*
X174530551Y-183837838D01*
X174490182Y-184040789D01*
X174051181Y-184040789D01*
X174010812Y-183837837D01*
X173931623Y-183646659D01*
X173816659Y-183474602D01*
X173670337Y-183328280D01*
X173589864Y-183274510D01*
X173498279Y-183213315D01*
X173307100Y-183134126D01*
X173104149Y-183093757D01*
X173104147Y-183093757D01*
X172897217Y-183093757D01*
X172897214Y-183093757D01*
X172694263Y-183134126D01*
X172503084Y-183213315D01*
X172331030Y-183328277D01*
X172184702Y-183474605D01*
X172069740Y-183646659D01*
X171990551Y-183837838D01*
X171950182Y-184040789D01*
X168971181Y-184040789D01*
X168930812Y-183837837D01*
X168851623Y-183646659D01*
X168736659Y-183474602D01*
X168590337Y-183328280D01*
X168509864Y-183274510D01*
X168418279Y-183213315D01*
X168227100Y-183134126D01*
X168024149Y-183093757D01*
X168024147Y-183093757D01*
X167817217Y-183093757D01*
X167817214Y-183093757D01*
X167614263Y-183134126D01*
X167423084Y-183213315D01*
X167251030Y-183328277D01*
X167104702Y-183474605D01*
X166989740Y-183646659D01*
X166910551Y-183837838D01*
X166870182Y-184040789D01*
X166431181Y-184040789D01*
X166390812Y-183837837D01*
X166311623Y-183646659D01*
X166196659Y-183474602D01*
X166050337Y-183328280D01*
X165969864Y-183274510D01*
X165878279Y-183213315D01*
X165687100Y-183134126D01*
X165484149Y-183093757D01*
X165484147Y-183093757D01*
X165277217Y-183093757D01*
X165277214Y-183093757D01*
X165074263Y-183134126D01*
X164883084Y-183213315D01*
X164711030Y-183328277D01*
X164564702Y-183474605D01*
X164449740Y-183646659D01*
X164370551Y-183837838D01*
X164330182Y-184040789D01*
X163891181Y-184040789D01*
X163850812Y-183837837D01*
X163771623Y-183646659D01*
X163656659Y-183474602D01*
X163510337Y-183328280D01*
X163429864Y-183274510D01*
X163338279Y-183213315D01*
X163147100Y-183134126D01*
X162944149Y-183093757D01*
X162944147Y-183093757D01*
X162737217Y-183093757D01*
X162737214Y-183093757D01*
X162534263Y-183134126D01*
X162343084Y-183213315D01*
X162171030Y-183328277D01*
X162171027Y-183328279D01*
X162171027Y-183328280D01*
X162024705Y-183474602D01*
X162024703Y-183474604D01*
X162021266Y-183478042D01*
X162019487Y-183476263D01*
X161975946Y-183503988D01*
X161914876Y-183500238D01*
X161867673Y-183461307D01*
X161852182Y-183408135D01*
X161852182Y-182956508D01*
X161871089Y-182898317D01*
X161881178Y-182886504D01*
X162348686Y-182418996D01*
X162403203Y-182391219D01*
X162418690Y-182390000D01*
X182331000Y-182390000D01*
X182389191Y-182408907D01*
X182425155Y-182458407D01*
X182430000Y-182489000D01*
X182430000Y-190460500D01*
X182411093Y-190518691D01*
X182361593Y-190554655D01*
X182331000Y-190559500D01*
X130729000Y-190559500D01*
X130670809Y-190540593D01*
X130634845Y-190491093D01*
X130630000Y-190460500D01*
X130630000Y-186580789D01*
X131310182Y-186580789D01*
X131310182Y-186787724D01*
X131350551Y-186990675D01*
X131429740Y-187181854D01*
X131520052Y-187317016D01*
X131544705Y-187353912D01*
X131691027Y-187500234D01*
X131863084Y-187615198D01*
X132054262Y-187694387D01*
X132257217Y-187734757D01*
X132257218Y-187734757D01*
X132464146Y-187734757D01*
X132464147Y-187734757D01*
X132667102Y-187694387D01*
X132858280Y-187615198D01*
X133030337Y-187500234D01*
X133176659Y-187353912D01*
X133291623Y-187181855D01*
X133370812Y-186990677D01*
X133411182Y-186787722D01*
X133411182Y-186580792D01*
X133411181Y-186580789D01*
X133850182Y-186580789D01*
X133850182Y-186787724D01*
X133890551Y-186990675D01*
X133969740Y-187181854D01*
X134060052Y-187317016D01*
X134084705Y-187353912D01*
X134231027Y-187500234D01*
X134403084Y-187615198D01*
X134594262Y-187694387D01*
X134797217Y-187734757D01*
X134797218Y-187734757D01*
X135004146Y-187734757D01*
X135004147Y-187734757D01*
X135207102Y-187694387D01*
X135398280Y-187615198D01*
X135570337Y-187500234D01*
X135716659Y-187353912D01*
X135831623Y-187181855D01*
X135910812Y-186990677D01*
X135951182Y-186787722D01*
X135951182Y-186580792D01*
X135951181Y-186580789D01*
X136390182Y-186580789D01*
X136390182Y-186787724D01*
X136430551Y-186990675D01*
X136509740Y-187181854D01*
X136600052Y-187317016D01*
X136624705Y-187353912D01*
X136771027Y-187500234D01*
X136943084Y-187615198D01*
X137134262Y-187694387D01*
X137337217Y-187734757D01*
X137337218Y-187734757D01*
X137544146Y-187734757D01*
X137544147Y-187734757D01*
X137747102Y-187694387D01*
X137938280Y-187615198D01*
X138110337Y-187500234D01*
X138256659Y-187353912D01*
X138371623Y-187181855D01*
X138450812Y-186990677D01*
X138491182Y-186787722D01*
X138491182Y-186580792D01*
X138450812Y-186377837D01*
X138371623Y-186186659D01*
X138256659Y-186014602D01*
X138110337Y-185868280D01*
X138110333Y-185868277D01*
X137938279Y-185753315D01*
X137747100Y-185674126D01*
X137544149Y-185633757D01*
X137544147Y-185633757D01*
X137337217Y-185633757D01*
X137337214Y-185633757D01*
X137134263Y-185674126D01*
X136943084Y-185753315D01*
X136771030Y-185868277D01*
X136624702Y-186014605D01*
X136509740Y-186186659D01*
X136430551Y-186377838D01*
X136390182Y-186580789D01*
X135951181Y-186580789D01*
X135910812Y-186377837D01*
X135831623Y-186186659D01*
X135716659Y-186014602D01*
X135570337Y-185868280D01*
X135570333Y-185868277D01*
X135398279Y-185753315D01*
X135207100Y-185674126D01*
X135004149Y-185633757D01*
X135004147Y-185633757D01*
X134797217Y-185633757D01*
X134797214Y-185633757D01*
X134594263Y-185674126D01*
X134403084Y-185753315D01*
X134231030Y-185868277D01*
X134084702Y-186014605D01*
X133969740Y-186186659D01*
X133890551Y-186377838D01*
X133850182Y-186580789D01*
X133411181Y-186580789D01*
X133370812Y-186377837D01*
X133291623Y-186186659D01*
X133176659Y-186014602D01*
X133030337Y-185868280D01*
X133030333Y-185868277D01*
X132858279Y-185753315D01*
X132667100Y-185674126D01*
X132464149Y-185633757D01*
X132464147Y-185633757D01*
X132257217Y-185633757D01*
X132257214Y-185633757D01*
X132054263Y-185674126D01*
X131863084Y-185753315D01*
X131691030Y-185868277D01*
X131544702Y-186014605D01*
X131429740Y-186186659D01*
X131350551Y-186377838D01*
X131310182Y-186580789D01*
X130630000Y-186580789D01*
X130630000Y-184040789D01*
X133850182Y-184040789D01*
X133850182Y-184247724D01*
X133890551Y-184450675D01*
X133969740Y-184641854D01*
X134066204Y-184786223D01*
X134084705Y-184813912D01*
X134231027Y-184960234D01*
X134403084Y-185075198D01*
X134594262Y-185154387D01*
X134797217Y-185194757D01*
X134797218Y-185194757D01*
X135004146Y-185194757D01*
X135004147Y-185194757D01*
X135207102Y-185154387D01*
X135398280Y-185075198D01*
X135570337Y-184960234D01*
X135716659Y-184813912D01*
X135831623Y-184641855D01*
X135910812Y-184450677D01*
X135951182Y-184247722D01*
X135951182Y-184040792D01*
X135951181Y-184040789D01*
X136390182Y-184040789D01*
X136390182Y-184247724D01*
X136430551Y-184450675D01*
X136509740Y-184641854D01*
X136606204Y-184786223D01*
X136624705Y-184813912D01*
X136771027Y-184960234D01*
X136943084Y-185075198D01*
X137134262Y-185154387D01*
X137337217Y-185194757D01*
X137337218Y-185194757D01*
X137544146Y-185194757D01*
X137544147Y-185194757D01*
X137747102Y-185154387D01*
X137938280Y-185075198D01*
X138110337Y-184960234D01*
X138256659Y-184813912D01*
X138371623Y-184641855D01*
X138450812Y-184450677D01*
X138491182Y-184247722D01*
X138491182Y-184040792D01*
X138491181Y-184040789D01*
X138930182Y-184040789D01*
X138930182Y-184247724D01*
X138970551Y-184450675D01*
X139049740Y-184641854D01*
X139146204Y-184786223D01*
X139164705Y-184813912D01*
X139311027Y-184960234D01*
X139483084Y-185075198D01*
X139674262Y-185154387D01*
X139877217Y-185194757D01*
X139877218Y-185194757D01*
X140084146Y-185194757D01*
X140084147Y-185194757D01*
X140287102Y-185154387D01*
X140478280Y-185075198D01*
X140650337Y-184960234D01*
X140796659Y-184813912D01*
X140911623Y-184641855D01*
X140990812Y-184450677D01*
X141031182Y-184247722D01*
X141031182Y-184040792D01*
X140990812Y-183837837D01*
X140911623Y-183646659D01*
X140796659Y-183474602D01*
X140650337Y-183328280D01*
X140569864Y-183274510D01*
X140478279Y-183213315D01*
X140287100Y-183134126D01*
X140084149Y-183093757D01*
X140084147Y-183093757D01*
X139877217Y-183093757D01*
X139877214Y-183093757D01*
X139674263Y-183134126D01*
X139483084Y-183213315D01*
X139311030Y-183328277D01*
X139164702Y-183474605D01*
X139049740Y-183646659D01*
X138970551Y-183837838D01*
X138930182Y-184040789D01*
X138491181Y-184040789D01*
X138450812Y-183837837D01*
X138371623Y-183646659D01*
X138256659Y-183474602D01*
X138110337Y-183328280D01*
X138029864Y-183274510D01*
X137938279Y-183213315D01*
X137747100Y-183134126D01*
X137544149Y-183093757D01*
X137544147Y-183093757D01*
X137337217Y-183093757D01*
X137337214Y-183093757D01*
X137134263Y-183134126D01*
X136943084Y-183213315D01*
X136771030Y-183328277D01*
X136624702Y-183474605D01*
X136509740Y-183646659D01*
X136430551Y-183837838D01*
X136390182Y-184040789D01*
X135951181Y-184040789D01*
X135910812Y-183837837D01*
X135831623Y-183646659D01*
X135716659Y-183474602D01*
X135570337Y-183328280D01*
X135489864Y-183274510D01*
X135398279Y-183213315D01*
X135207100Y-183134126D01*
X135004149Y-183093757D01*
X135004147Y-183093757D01*
X134797217Y-183093757D01*
X134797214Y-183093757D01*
X134594263Y-183134126D01*
X134403084Y-183213315D01*
X134231030Y-183328277D01*
X134084702Y-183474605D01*
X133969740Y-183646659D01*
X133890551Y-183837838D01*
X133850182Y-184040789D01*
X130630000Y-184040789D01*
X130630000Y-182449000D01*
X130648907Y-182390809D01*
X130698407Y-182354845D01*
X130729000Y-182350000D01*
X134678993Y-182350000D01*
X134737184Y-182368907D01*
X134738464Y-182370000D01*
X134739999Y-182370000D01*
X134739999Y-182369999D01*
X134740000Y-182370000D01*
X134760000Y-182350000D01*
X134760000Y-175929000D01*
X134778907Y-175870809D01*
X134828407Y-175834845D01*
X134859000Y-175830000D01*
X142178992Y-175830000D01*
X142237183Y-175848907D01*
G37*
G04 #@! TD.AperFunction*
G04 #@! TA.AperFunction,Conductor*
G36*
X161169358Y-182397163D02*
G01*
X161192256Y-182400790D01*
X161197904Y-182406438D01*
X161205502Y-182408907D01*
X161219129Y-182427663D01*
X161235521Y-182444055D01*
X161236770Y-182451944D01*
X161241466Y-182458407D01*
X161241466Y-182481592D01*
X161245092Y-182504487D01*
X161241466Y-182511603D01*
X161241466Y-182519593D01*
X161217316Y-182559001D01*
X161187530Y-182588788D01*
X161141384Y-182668715D01*
X161117501Y-182757855D01*
X161117501Y-182757856D01*
X161117501Y-182850144D01*
X161135013Y-182915500D01*
X161141386Y-182939287D01*
X161143648Y-182944748D01*
X161151182Y-182982630D01*
X161151182Y-183270117D01*
X161132275Y-183328308D01*
X161082775Y-183364272D01*
X161021589Y-183364272D01*
X160982181Y-183340123D01*
X160970337Y-183328280D01*
X160798279Y-183213315D01*
X160607100Y-183134126D01*
X160404149Y-183093757D01*
X160404147Y-183093757D01*
X160197217Y-183093757D01*
X160197214Y-183093757D01*
X159994263Y-183134126D01*
X159803084Y-183213315D01*
X159631030Y-183328277D01*
X159484702Y-183474605D01*
X159369740Y-183646659D01*
X159290551Y-183837838D01*
X159250182Y-184040789D01*
X159250182Y-184247724D01*
X159290551Y-184450675D01*
X159369740Y-184641854D01*
X159466204Y-184786223D01*
X159484705Y-184813912D01*
X159631027Y-184960234D01*
X159803084Y-185075198D01*
X159994262Y-185154387D01*
X160197217Y-185194757D01*
X160197218Y-185194757D01*
X160404146Y-185194757D01*
X160404147Y-185194757D01*
X160607102Y-185154387D01*
X160798280Y-185075198D01*
X160970337Y-184960234D01*
X160982180Y-184948390D01*
X161036695Y-184920615D01*
X161097127Y-184930186D01*
X161140392Y-184973451D01*
X161151182Y-185018396D01*
X161151182Y-185297067D01*
X161132275Y-185355258D01*
X161122185Y-185367071D01*
X160800973Y-185688282D01*
X160746457Y-185716059D01*
X160693085Y-185709742D01*
X160607102Y-185674127D01*
X160404149Y-185633757D01*
X160404147Y-185633757D01*
X160197217Y-185633757D01*
X160197214Y-185633757D01*
X159994263Y-185674126D01*
X159803084Y-185753315D01*
X159631030Y-185868277D01*
X159484702Y-186014605D01*
X159369740Y-186186659D01*
X159290551Y-186377838D01*
X159250182Y-186580789D01*
X159250182Y-186787724D01*
X159290551Y-186990675D01*
X159369740Y-187181854D01*
X159460052Y-187317016D01*
X159484705Y-187353912D01*
X159495291Y-187364498D01*
X159523067Y-187419013D01*
X159513496Y-187479445D01*
X159470231Y-187522710D01*
X159425286Y-187533500D01*
X156096078Y-187533500D01*
X156037887Y-187514593D01*
X156001923Y-187465093D01*
X156001923Y-187403907D01*
X156026072Y-187364498D01*
X156036659Y-187353912D01*
X156151623Y-187181855D01*
X156230812Y-186990677D01*
X156271182Y-186787722D01*
X156271182Y-186580792D01*
X156230812Y-186377837D01*
X156151623Y-186186659D01*
X156036659Y-186014602D01*
X155890337Y-185868280D01*
X155890333Y-185868277D01*
X155718279Y-185753315D01*
X155527100Y-185674126D01*
X155324149Y-185633757D01*
X155324147Y-185633757D01*
X155117217Y-185633757D01*
X155117214Y-185633757D01*
X154914263Y-185674126D01*
X154723084Y-185753315D01*
X154551030Y-185868277D01*
X154404702Y-186014605D01*
X154289740Y-186186659D01*
X154210551Y-186377838D01*
X154170182Y-186580789D01*
X154170182Y-186787724D01*
X154210551Y-186990675D01*
X154289740Y-187181854D01*
X154380052Y-187317016D01*
X154404705Y-187353912D01*
X154415291Y-187364498D01*
X154443067Y-187419013D01*
X154433496Y-187479445D01*
X154390231Y-187522710D01*
X154345286Y-187533500D01*
X153556078Y-187533500D01*
X153497887Y-187514593D01*
X153461923Y-187465093D01*
X153461923Y-187403907D01*
X153486072Y-187364498D01*
X153496659Y-187353912D01*
X153611623Y-187181855D01*
X153690812Y-186990677D01*
X153731182Y-186787722D01*
X153731182Y-186580792D01*
X153690812Y-186377837D01*
X153611623Y-186186659D01*
X153496659Y-186014602D01*
X153350337Y-185868280D01*
X153350333Y-185868277D01*
X153178279Y-185753315D01*
X152987100Y-185674126D01*
X152784149Y-185633757D01*
X152784147Y-185633757D01*
X152577217Y-185633757D01*
X152577214Y-185633757D01*
X152374263Y-185674126D01*
X152183084Y-185753315D01*
X152011030Y-185868277D01*
X151864702Y-186014605D01*
X151749740Y-186186659D01*
X151670551Y-186377838D01*
X151630182Y-186580789D01*
X151630182Y-186787724D01*
X151670551Y-186990675D01*
X151749740Y-187181854D01*
X151840052Y-187317016D01*
X151864705Y-187353912D01*
X151875291Y-187364498D01*
X151903067Y-187419013D01*
X151893496Y-187479445D01*
X151850231Y-187522710D01*
X151805286Y-187533500D01*
X151016078Y-187533500D01*
X150957887Y-187514593D01*
X150921923Y-187465093D01*
X150921923Y-187403907D01*
X150946072Y-187364498D01*
X150956659Y-187353912D01*
X151071623Y-187181855D01*
X151150812Y-186990677D01*
X151191182Y-186787722D01*
X151191182Y-186580792D01*
X151150812Y-186377837D01*
X151071623Y-186186659D01*
X150956659Y-186014602D01*
X150810337Y-185868280D01*
X150810333Y-185868277D01*
X150638279Y-185753315D01*
X150447100Y-185674126D01*
X150244149Y-185633757D01*
X150244147Y-185633757D01*
X150037217Y-185633757D01*
X150037214Y-185633757D01*
X149834263Y-185674126D01*
X149643084Y-185753315D01*
X149471030Y-185868277D01*
X149324702Y-186014605D01*
X149209740Y-186186659D01*
X149130551Y-186377838D01*
X149090182Y-186580789D01*
X149090182Y-186787724D01*
X149130551Y-186990675D01*
X149209740Y-187181854D01*
X149300052Y-187317016D01*
X149324705Y-187353912D01*
X149335291Y-187364498D01*
X149363067Y-187419013D01*
X149353496Y-187479445D01*
X149310231Y-187522710D01*
X149265286Y-187533500D01*
X148476078Y-187533500D01*
X148417887Y-187514593D01*
X148381923Y-187465093D01*
X148381923Y-187403907D01*
X148406072Y-187364498D01*
X148416659Y-187353912D01*
X148531623Y-187181855D01*
X148610812Y-186990677D01*
X148651182Y-186787722D01*
X148651182Y-186580792D01*
X148610812Y-186377837D01*
X148531623Y-186186659D01*
X148416659Y-186014602D01*
X148270337Y-185868280D01*
X148270333Y-185868277D01*
X148098279Y-185753315D01*
X147907100Y-185674126D01*
X147704149Y-185633757D01*
X147704147Y-185633757D01*
X147497217Y-185633757D01*
X147497214Y-185633757D01*
X147294263Y-185674126D01*
X147103084Y-185753315D01*
X146931030Y-185868277D01*
X146931027Y-185868279D01*
X146931027Y-185868280D01*
X146784705Y-186014602D01*
X146784703Y-186014604D01*
X146781266Y-186018042D01*
X146779487Y-186016263D01*
X146735946Y-186043988D01*
X146674876Y-186040238D01*
X146627673Y-186001307D01*
X146612182Y-185948135D01*
X146612182Y-184880378D01*
X146631089Y-184822187D01*
X146680589Y-184786223D01*
X146741775Y-184786223D01*
X146779616Y-184812121D01*
X146781266Y-184810472D01*
X146784702Y-184813908D01*
X146784705Y-184813912D01*
X146931027Y-184960234D01*
X147103084Y-185075198D01*
X147294262Y-185154387D01*
X147497217Y-185194757D01*
X147497218Y-185194757D01*
X147704146Y-185194757D01*
X147704147Y-185194757D01*
X147907102Y-185154387D01*
X148098280Y-185075198D01*
X148270337Y-184960234D01*
X148416659Y-184813912D01*
X148531623Y-184641855D01*
X148610812Y-184450677D01*
X148651182Y-184247722D01*
X148651182Y-184040792D01*
X148651181Y-184040789D01*
X151630182Y-184040789D01*
X151630182Y-184247724D01*
X151670551Y-184450675D01*
X151749740Y-184641854D01*
X151846204Y-184786223D01*
X151864705Y-184813912D01*
X152011027Y-184960234D01*
X152183084Y-185075198D01*
X152374262Y-185154387D01*
X152577217Y-185194757D01*
X152577218Y-185194757D01*
X152784146Y-185194757D01*
X152784147Y-185194757D01*
X152987102Y-185154387D01*
X153178280Y-185075198D01*
X153350337Y-184960234D01*
X153496659Y-184813912D01*
X153611623Y-184641855D01*
X153690812Y-184450677D01*
X153731182Y-184247722D01*
X153731182Y-184040792D01*
X153731181Y-184040789D01*
X154170182Y-184040789D01*
X154170182Y-184247724D01*
X154210551Y-184450675D01*
X154289740Y-184641854D01*
X154386204Y-184786223D01*
X154404705Y-184813912D01*
X154551027Y-184960234D01*
X154723084Y-185075198D01*
X154914262Y-185154387D01*
X155117217Y-185194757D01*
X155117218Y-185194757D01*
X155324146Y-185194757D01*
X155324147Y-185194757D01*
X155527102Y-185154387D01*
X155718280Y-185075198D01*
X155890337Y-184960234D01*
X156036659Y-184813912D01*
X156151623Y-184641855D01*
X156230812Y-184450677D01*
X156271182Y-184247722D01*
X156271182Y-184040792D01*
X156271181Y-184040789D01*
X156710182Y-184040789D01*
X156710182Y-184247724D01*
X156750551Y-184450675D01*
X156829740Y-184641854D01*
X156926204Y-184786223D01*
X156944705Y-184813912D01*
X157091027Y-184960234D01*
X157263084Y-185075198D01*
X157454262Y-185154387D01*
X157657217Y-185194757D01*
X157657218Y-185194757D01*
X157864146Y-185194757D01*
X157864147Y-185194757D01*
X158067102Y-185154387D01*
X158258280Y-185075198D01*
X158430337Y-184960234D01*
X158576659Y-184813912D01*
X158691623Y-184641855D01*
X158770812Y-184450677D01*
X158811182Y-184247722D01*
X158811182Y-184040792D01*
X158770812Y-183837837D01*
X158691623Y-183646659D01*
X158576659Y-183474602D01*
X158430337Y-183328280D01*
X158349864Y-183274510D01*
X158258279Y-183213315D01*
X158067100Y-183134126D01*
X157864149Y-183093757D01*
X157864147Y-183093757D01*
X157657217Y-183093757D01*
X157657214Y-183093757D01*
X157454263Y-183134126D01*
X157263084Y-183213315D01*
X157091030Y-183328277D01*
X156944702Y-183474605D01*
X156829740Y-183646659D01*
X156750551Y-183837838D01*
X156710182Y-184040789D01*
X156271181Y-184040789D01*
X156230812Y-183837837D01*
X156151623Y-183646659D01*
X156036659Y-183474602D01*
X155890337Y-183328280D01*
X155809864Y-183274510D01*
X155718279Y-183213315D01*
X155527100Y-183134126D01*
X155324149Y-183093757D01*
X155324147Y-183093757D01*
X155117217Y-183093757D01*
X155117214Y-183093757D01*
X154914263Y-183134126D01*
X154723084Y-183213315D01*
X154551030Y-183328277D01*
X154404702Y-183474605D01*
X154289740Y-183646659D01*
X154210551Y-183837838D01*
X154170182Y-184040789D01*
X153731181Y-184040789D01*
X153690812Y-183837837D01*
X153611623Y-183646659D01*
X153496659Y-183474602D01*
X153350337Y-183328280D01*
X153269864Y-183274510D01*
X153178279Y-183213315D01*
X152987100Y-183134126D01*
X152784149Y-183093757D01*
X152784147Y-183093757D01*
X152577217Y-183093757D01*
X152577214Y-183093757D01*
X152374263Y-183134126D01*
X152183084Y-183213315D01*
X152011030Y-183328277D01*
X151864702Y-183474605D01*
X151749740Y-183646659D01*
X151670551Y-183837838D01*
X151630182Y-184040789D01*
X148651181Y-184040789D01*
X148610812Y-183837837D01*
X148531623Y-183646659D01*
X148416659Y-183474602D01*
X148270337Y-183328280D01*
X148189864Y-183274510D01*
X148098279Y-183213315D01*
X147907100Y-183134126D01*
X147704149Y-183093757D01*
X147704147Y-183093757D01*
X147497217Y-183093757D01*
X147497214Y-183093757D01*
X147294263Y-183134126D01*
X147103084Y-183213315D01*
X146931030Y-183328277D01*
X146931027Y-183328279D01*
X146931027Y-183328280D01*
X146784705Y-183474602D01*
X146784703Y-183474604D01*
X146781266Y-183478042D01*
X146779487Y-183476263D01*
X146735946Y-183503988D01*
X146674876Y-183500238D01*
X146627673Y-183461307D01*
X146612182Y-183408135D01*
X146612182Y-183115536D01*
X146609464Y-183105391D01*
X146588296Y-183026391D01*
X146557453Y-182972970D01*
X146542151Y-182946466D01*
X146353540Y-182757855D01*
X146154689Y-182559003D01*
X146126912Y-182504487D01*
X146136483Y-182444055D01*
X146179748Y-182400790D01*
X146224693Y-182390000D01*
X161147311Y-182390000D01*
X161169358Y-182397163D01*
G37*
G04 #@! TD.AperFunction*
M02*
