G04 #@! TF.GenerationSoftware,KiCad,Pcbnew,9.0.1-9.0.1-0~ubuntu24.04.1*
G04 #@! TF.CreationDate,2025-04-20T11:34:57-06:00*
G04 #@! TF.ProjectId,Controller,436f6e74-726f-46c6-9c65-722e6b696361,rev?*
G04 #@! TF.SameCoordinates,Original*
G04 #@! TF.FileFunction,Copper,L1,Top*
G04 #@! TF.FilePolarity,Positive*
%FSLAX46Y46*%
G04 Gerber Fmt 4.6, Leading zero omitted, Abs format (unit mm)*
G04 Created by KiCad (PCBNEW 9.0.1-9.0.1-0~ubuntu24.04.1) date 2025-04-20 11:34:57*
%MOMM*%
%LPD*%
G01*
G04 APERTURE LIST*
G04 Aperture macros list*
%AMRoundRect*
0 Rectangle with rounded corners*
0 $1 Rounding radius*
0 $2 $3 $4 $5 $6 $7 $8 $9 X,Y pos of 4 corners*
0 Add a 4 corners polygon primitive as box body*
4,1,4,$2,$3,$4,$5,$6,$7,$8,$9,$2,$3,0*
0 Add four circle primitives for the rounded corners*
1,1,$1+$1,$2,$3*
1,1,$1+$1,$4,$5*
1,1,$1+$1,$6,$7*
1,1,$1+$1,$8,$9*
0 Add four rect primitives between the rounded corners*
20,1,$1+$1,$2,$3,$4,$5,0*
20,1,$1+$1,$4,$5,$6,$7,0*
20,1,$1+$1,$6,$7,$8,$9,0*
20,1,$1+$1,$8,$9,$2,$3,0*%
%AMRotRect*
0 Rectangle, with rotation*
0 The origin of the aperture is its center*
0 $1 length*
0 $2 width*
0 $3 Rotation angle, in degrees counterclockwise*
0 Add horizontal line*
21,1,$1,$2,0,0,$3*%
G04 Aperture macros list end*
G04 #@! TA.AperFunction,SMDPad,CuDef*
%ADD10RoundRect,0.237500X-0.044194X-0.380070X0.380070X0.044194X0.044194X0.380070X-0.380070X-0.044194X0*%
G04 #@! TD*
G04 #@! TA.AperFunction,ComponentPad*
%ADD11R,1.700000X1.700000*%
G04 #@! TD*
G04 #@! TA.AperFunction,ComponentPad*
%ADD12O,1.700000X1.700000*%
G04 #@! TD*
G04 #@! TA.AperFunction,SMDPad,CuDef*
%ADD13RoundRect,0.073750X-0.716250X-0.221250X0.716250X-0.221250X0.716250X0.221250X-0.716250X0.221250X0*%
G04 #@! TD*
G04 #@! TA.AperFunction,SMDPad,CuDef*
%ADD14R,0.558800X1.981200*%
G04 #@! TD*
G04 #@! TA.AperFunction,SMDPad,CuDef*
%ADD15R,0.711200X0.990600*%
G04 #@! TD*
G04 #@! TA.AperFunction,SMDPad,CuDef*
%ADD16RotRect,1.300000X1.100000X225.000000*%
G04 #@! TD*
G04 #@! TA.AperFunction,SMDPad,CuDef*
%ADD17RoundRect,0.237500X-0.344715X0.008839X0.008839X-0.344715X0.344715X-0.008839X-0.008839X0.344715X0*%
G04 #@! TD*
G04 #@! TA.AperFunction,SMDPad,CuDef*
%ADD18RoundRect,0.200000X0.335876X0.053033X0.053033X0.335876X-0.335876X-0.053033X-0.053033X-0.335876X0*%
G04 #@! TD*
G04 #@! TA.AperFunction,SMDPad,CuDef*
%ADD19RoundRect,0.237500X0.344715X-0.008839X-0.008839X0.344715X-0.344715X0.008839X0.008839X-0.344715X0*%
G04 #@! TD*
G04 #@! TA.AperFunction,SMDPad,CuDef*
%ADD20RoundRect,0.237500X0.044194X0.380070X-0.380070X-0.044194X-0.044194X-0.380070X0.380070X0.044194X0*%
G04 #@! TD*
G04 #@! TA.AperFunction,SMDPad,CuDef*
%ADD21RoundRect,0.250000X0.353553X0.000000X0.000000X0.353553X-0.353553X0.000000X0.000000X-0.353553X0*%
G04 #@! TD*
G04 #@! TA.AperFunction,SMDPad,CuDef*
%ADD22RotRect,1.600000X0.550000X45.000000*%
G04 #@! TD*
G04 #@! TA.AperFunction,SMDPad,CuDef*
%ADD23RotRect,1.600000X0.550000X135.000000*%
G04 #@! TD*
G04 #@! TA.AperFunction,SMDPad,CuDef*
%ADD24RoundRect,0.237500X0.008839X0.344715X-0.344715X-0.008839X-0.008839X-0.344715X0.344715X0.008839X0*%
G04 #@! TD*
G04 #@! TA.AperFunction,SMDPad,CuDef*
%ADD25RoundRect,0.237500X-0.380070X0.044194X0.044194X-0.380070X0.380070X-0.044194X-0.044194X0.380070X0*%
G04 #@! TD*
G04 #@! TA.AperFunction,SMDPad,CuDef*
%ADD26RoundRect,0.250000X0.412500X1.100000X-0.412500X1.100000X-0.412500X-1.100000X0.412500X-1.100000X0*%
G04 #@! TD*
G04 #@! TA.AperFunction,SMDPad,CuDef*
%ADD27RoundRect,0.237500X0.237500X-0.250000X0.237500X0.250000X-0.237500X0.250000X-0.237500X-0.250000X0*%
G04 #@! TD*
G04 #@! TA.AperFunction,SMDPad,CuDef*
%ADD28R,1.000000X1.500000*%
G04 #@! TD*
G04 #@! TA.AperFunction,SMDPad,CuDef*
%ADD29R,0.900000X1.500000*%
G04 #@! TD*
G04 #@! TA.AperFunction,SMDPad,CuDef*
%ADD30RoundRect,0.200000X-0.275000X0.200000X-0.275000X-0.200000X0.275000X-0.200000X0.275000X0.200000X0*%
G04 #@! TD*
G04 #@! TA.AperFunction,SMDPad,CuDef*
%ADD31RoundRect,0.237500X0.300000X0.237500X-0.300000X0.237500X-0.300000X-0.237500X0.300000X-0.237500X0*%
G04 #@! TD*
G04 #@! TA.AperFunction,SMDPad,CuDef*
%ADD32RoundRect,0.237500X0.237500X-0.300000X0.237500X0.300000X-0.237500X0.300000X-0.237500X-0.300000X0*%
G04 #@! TD*
G04 #@! TA.AperFunction,SMDPad,CuDef*
%ADD33RoundRect,0.237500X-0.237500X0.250000X-0.237500X-0.250000X0.237500X-0.250000X0.237500X0.250000X0*%
G04 #@! TD*
G04 #@! TA.AperFunction,ViaPad*
%ADD34C,1.000000*%
G04 #@! TD*
G04 #@! TA.AperFunction,ViaPad*
%ADD35C,0.900000*%
G04 #@! TD*
G04 #@! TA.AperFunction,Conductor*
%ADD36C,0.300000*%
G04 #@! TD*
G04 #@! TA.AperFunction,Conductor*
%ADD37C,0.500000*%
G04 #@! TD*
G04 #@! TA.AperFunction,Conductor*
%ADD38C,1.000000*%
G04 #@! TD*
G04 #@! TA.AperFunction,Conductor*
%ADD39C,0.200000*%
G04 #@! TD*
G04 #@! TA.AperFunction,Conductor*
%ADD40C,0.400000*%
G04 #@! TD*
G04 APERTURE END LIST*
D10*
X160350120Y-173761880D03*
X161569880Y-172542120D03*
D11*
X180620682Y-184144257D03*
D12*
X180620682Y-186684257D03*
X178080682Y-184144257D03*
X178080682Y-186684257D03*
X175540682Y-184144257D03*
X175540682Y-186684257D03*
X173000682Y-184144257D03*
X173000682Y-186684257D03*
X170460682Y-184144257D03*
X170460682Y-186684257D03*
X167920682Y-184144257D03*
X167920682Y-186684257D03*
X165380682Y-184144257D03*
X165380682Y-186684257D03*
X162840682Y-184144257D03*
X162840682Y-186684257D03*
X160300682Y-184144257D03*
X160300682Y-186684257D03*
X157760682Y-184144257D03*
X157760682Y-186684257D03*
X155220682Y-184144257D03*
X155220682Y-186684257D03*
X152680682Y-184144257D03*
X152680682Y-186684257D03*
X150140682Y-184144257D03*
X150140682Y-186684257D03*
X147600682Y-184144257D03*
X147600682Y-186684257D03*
X145060682Y-184144257D03*
X145060682Y-186684257D03*
X142520682Y-184144257D03*
X142520682Y-186684257D03*
X139980682Y-184144257D03*
X139980682Y-186684257D03*
X137440682Y-184144257D03*
X137440682Y-186684257D03*
X134900682Y-184144257D03*
X134900682Y-186684257D03*
X132360682Y-184144257D03*
X132360682Y-186684257D03*
D13*
X136540850Y-176550000D03*
X136540850Y-177820000D03*
X136540850Y-179090000D03*
X136540850Y-180360000D03*
X131290850Y-180360000D03*
X131290850Y-176550000D03*
X131290850Y-177820000D03*
X131290850Y-179090000D03*
D14*
X151585000Y-168876200D03*
X150315000Y-168876200D03*
X149045000Y-168876200D03*
X147775000Y-168876200D03*
X147775000Y-173803800D03*
X149045000Y-173803800D03*
X150315000Y-173803800D03*
X151585000Y-173803800D03*
D15*
X124320002Y-171690002D03*
X124320002Y-167190000D03*
X126470000Y-171690002D03*
X126470000Y-167190000D03*
X213820002Y-163180002D03*
X213820002Y-158680000D03*
X215970000Y-163180002D03*
X215970000Y-158680000D03*
D16*
X164569664Y-175592764D03*
X162943318Y-177219110D03*
X164216110Y-178491902D03*
X165842456Y-176865556D03*
D17*
X173776765Y-177123529D03*
X172486295Y-175833059D03*
D18*
X171552637Y-177140637D03*
X172719363Y-178307363D03*
D19*
X173660000Y-174676000D03*
X174950470Y-175966470D03*
D10*
X165669293Y-180079551D03*
X166889053Y-178859791D03*
D20*
X163400475Y-174362428D03*
X162180715Y-175582188D03*
D21*
X161187353Y-163046396D03*
X159419587Y-161278630D03*
D22*
X162594897Y-170113305D03*
X163160583Y-170678990D03*
X163726268Y-171244676D03*
X164291953Y-171810361D03*
X164857639Y-172376047D03*
X165423324Y-172941732D03*
X165989010Y-173507417D03*
X166554695Y-174073103D03*
D23*
X168605305Y-174073103D03*
X169170990Y-173507417D03*
X169736676Y-172941732D03*
X170302361Y-172376047D03*
X170868047Y-171810361D03*
X171433732Y-171244676D03*
X171999417Y-170678990D03*
X172565103Y-170113305D03*
D22*
X172565103Y-168062695D03*
X171999417Y-167497010D03*
X171433732Y-166931324D03*
X170868047Y-166365639D03*
X170302361Y-165799953D03*
X169736676Y-165234268D03*
X169170990Y-164668583D03*
X168605305Y-164102897D03*
D23*
X166554695Y-164102897D03*
X165989010Y-164668583D03*
X165423324Y-165234268D03*
X164857639Y-165799953D03*
X164291953Y-166365639D03*
X163726268Y-166931324D03*
X163160583Y-167497010D03*
X162594897Y-168062695D03*
D17*
X154801221Y-165928749D03*
X156091691Y-167219219D03*
D19*
X162472705Y-161791748D03*
X161182235Y-160501278D03*
D17*
X162346765Y-159298765D03*
X163637235Y-160589235D03*
X158134235Y-162533278D03*
X159424705Y-163823748D03*
X157003861Y-163675841D03*
X158294331Y-164966311D03*
D19*
X157176033Y-166087026D03*
X155885563Y-164796556D03*
D24*
X159658303Y-170717876D03*
X158367833Y-172008346D03*
D11*
X193660144Y-155100134D03*
D12*
X193660144Y-152560134D03*
X191120144Y-155100134D03*
X191120144Y-152560134D03*
X188580144Y-155100134D03*
X188580144Y-152560134D03*
D25*
X163484480Y-158189668D03*
X164704240Y-159409428D03*
X172198210Y-164234300D03*
X173417970Y-165454060D03*
D26*
X173525495Y-158528772D03*
X170400495Y-158528772D03*
D27*
X149285001Y-177826300D03*
X149285001Y-176001300D03*
D28*
X151155001Y-176503799D03*
X152455001Y-176503799D03*
D29*
X212320000Y-182400000D03*
X215620000Y-182400000D03*
X215620000Y-177500000D03*
X212320000Y-177500000D03*
D30*
X130790000Y-172805000D03*
X130790000Y-174455000D03*
D31*
X213760000Y-184610000D03*
X212035000Y-184610000D03*
D32*
X153315000Y-174123800D03*
X153315000Y-172398800D03*
D11*
X151070000Y-152490000D03*
D12*
X148530000Y-152490000D03*
X151070000Y-155030000D03*
X148530000Y-155030000D03*
D33*
X128680000Y-176547500D03*
X128680000Y-178372500D03*
D11*
X156829318Y-152425743D03*
D12*
X159369318Y-152425743D03*
X161909318Y-152425743D03*
X164449318Y-152425743D03*
X166989318Y-152425743D03*
X169529318Y-152425743D03*
X172069318Y-152425743D03*
X174609318Y-152425743D03*
X177149318Y-152425743D03*
X179689318Y-152425743D03*
X182229318Y-152425743D03*
X156829318Y-154965743D03*
X159369318Y-154965743D03*
X161909318Y-154965743D03*
X164449318Y-154965743D03*
X166989318Y-154965743D03*
X169529318Y-154965743D03*
X172069318Y-154965743D03*
X174609318Y-154965743D03*
X177149318Y-154965743D03*
X179689318Y-154965743D03*
X182229318Y-154965743D03*
D27*
X147635000Y-177826300D03*
X147635000Y-176001300D03*
D34*
X138608000Y-174168000D03*
X140132000Y-174168000D03*
X140132000Y-170104000D03*
X187884000Y-173660000D03*
X185852000Y-173660000D03*
X187884000Y-176708000D03*
X185852000Y-176708000D03*
X187884000Y-180264000D03*
X185852000Y-180264000D03*
X183820000Y-180264000D03*
X183820000Y-176708000D03*
X183820000Y-173660000D03*
X203632000Y-173152000D03*
X185344000Y-171628000D03*
X184328000Y-171628000D03*
X183312000Y-171628000D03*
X160452000Y-166040000D03*
X164516000Y-169596000D03*
X140132000Y-168072000D03*
X140132000Y-166040000D03*
X140132000Y-164008000D03*
X146228000Y-162992000D03*
X149276000Y-159944000D03*
X147752000Y-162992000D03*
X147752000Y-159944000D03*
X159436000Y-158420000D03*
X159436000Y-156896000D03*
X167056000Y-161468000D03*
X167056000Y-159944000D03*
X167056000Y-158420000D03*
X167056000Y-156896000D03*
X178232000Y-173660000D03*
X180264000Y-173660000D03*
X178232000Y-176708000D03*
X180264000Y-176708000D03*
X180264000Y-180264000D03*
X178232000Y-180264000D03*
X169088000Y-177724000D03*
X170612000Y-179248000D03*
X169088000Y-180264000D03*
X160452000Y-180264000D03*
X158420000Y-178232000D03*
X156896000Y-176708000D03*
X155372000Y-175184000D03*
X137084000Y-174168000D03*
X135560000Y-174168000D03*
X134036000Y-174168000D03*
X132512000Y-174168000D03*
X132512000Y-175692000D03*
X132512000Y-177216000D03*
X132512000Y-178740000D03*
X176200000Y-180264000D03*
X153340000Y-169596000D03*
X197536000Y-169088000D03*
X176200000Y-177216000D03*
X211760000Y-160960000D03*
X140132000Y-161468000D03*
X146228000Y-161468000D03*
X160493206Y-171586794D03*
X165024000Y-161976000D03*
X172136000Y-173152000D03*
X144888003Y-181788000D03*
X158420000Y-167056000D03*
X143688000Y-181788000D03*
X156896000Y-173660000D03*
X212268000Y-175184000D03*
X174676000Y-161976000D03*
X164615966Y-168162948D03*
X166548000Y-168580000D03*
X180264000Y-169088000D03*
X176200000Y-174334000D03*
X176160394Y-168619606D03*
X190932000Y-159436000D03*
X176200000Y-170104000D03*
X176200000Y-171628000D03*
D35*
X161293472Y-165092025D03*
X132550000Y-172790000D03*
D34*
X180264000Y-164516000D03*
D36*
X212035000Y-181555000D02*
X203632000Y-173152000D01*
X212035000Y-184610000D02*
X212035000Y-181555000D01*
D37*
X182171682Y-172933836D02*
X182171682Y-172768318D01*
X182171682Y-172768318D02*
X183312000Y-171628000D01*
D36*
X159378311Y-164966311D02*
X160452000Y-166040000D01*
X158294331Y-164966311D02*
X159378311Y-164966311D01*
D37*
X163160583Y-167497010D02*
X162719573Y-167056000D01*
X162719573Y-167056000D02*
X162614922Y-167056000D01*
X162614922Y-167056000D02*
X162410477Y-166851555D01*
X162410477Y-166851555D02*
X162036855Y-166851555D01*
X161832410Y-167056000D02*
X159896974Y-167056000D01*
X159896974Y-167056000D02*
X158928000Y-166087026D01*
X162036855Y-166851555D02*
X161832410Y-167056000D01*
D36*
X146228000Y-161468000D02*
X158237099Y-161468000D01*
X159424705Y-162655606D02*
X159424705Y-163823748D01*
X158237099Y-161468000D02*
X159424705Y-162655606D01*
X164271723Y-169840277D02*
X164516000Y-169596000D01*
X164271723Y-170699221D02*
X164271723Y-169840277D01*
X163726268Y-171244676D02*
X164271723Y-170699221D01*
X162695150Y-168162948D02*
X162594897Y-168062695D01*
X164122405Y-168162948D02*
X163677203Y-168608150D01*
X164615966Y-168162948D02*
X164122405Y-168162948D01*
X163677203Y-168608150D02*
X163386425Y-168608150D01*
X162941223Y-168162948D02*
X162695150Y-168162948D01*
X163386425Y-168608150D02*
X162941223Y-168162948D01*
D37*
X161909318Y-154965743D02*
X161182235Y-155692826D01*
X161182235Y-155692826D02*
X161182235Y-160501278D01*
D38*
X182171682Y-172933836D02*
X182171682Y-177216000D01*
D36*
X172719363Y-178307363D02*
X181080319Y-178307363D01*
X181080319Y-178307363D02*
X182171682Y-177216000D01*
X176200000Y-177216000D02*
X174950470Y-175966470D01*
D39*
X171552637Y-177140637D02*
X172310471Y-177140637D01*
X172310471Y-177140637D02*
X175117108Y-174334000D01*
X175117108Y-174334000D02*
X176200000Y-174334000D01*
D38*
X182171682Y-181788000D02*
X182171682Y-186335338D01*
D36*
X211760000Y-160960000D02*
X211760000Y-161120000D01*
X211760000Y-161120000D02*
X213820002Y-163180002D01*
X124320002Y-171690002D02*
X124320002Y-170089998D01*
X124320002Y-170089998D02*
X124450000Y-169960000D01*
X140132000Y-161468000D02*
X131640000Y-169960000D01*
X131640000Y-169960000D02*
X124450000Y-169960000D01*
X160855555Y-171224445D02*
X160493206Y-171586794D01*
X162615128Y-171224445D02*
X160855555Y-171224445D01*
X163160583Y-170678990D02*
X162615128Y-171224445D01*
X165024000Y-161976000D02*
X165024000Y-162572202D01*
X165024000Y-162572202D02*
X166554695Y-164102897D01*
X170868047Y-171810361D02*
X170868047Y-171884047D01*
X170868047Y-171884047D02*
X172136000Y-173152000D01*
X157003861Y-163675841D02*
X148592159Y-163675841D01*
X148592159Y-163675841D02*
X144888003Y-167379997D01*
X144888003Y-167379997D02*
X144888003Y-181788000D01*
X158420000Y-166595026D02*
X158928000Y-166087026D01*
D37*
X158928000Y-166087026D02*
X157176033Y-166087026D01*
D36*
X158420000Y-167056000D02*
X158420000Y-166595026D01*
X143688000Y-181788000D02*
X143688000Y-162412000D01*
X143688000Y-162412000D02*
X151070000Y-155030000D01*
X156896000Y-173660000D02*
X156896000Y-173480179D01*
X156896000Y-173480179D02*
X158367833Y-172008346D01*
X212320000Y-177500000D02*
X212320000Y-175236000D01*
X212320000Y-175236000D02*
X212268000Y-175184000D01*
X164449318Y-154965743D02*
X165650318Y-153764743D01*
X205664000Y-173194000D02*
X214870000Y-182400000D01*
X165650318Y-153764743D02*
X165650318Y-151788682D01*
X165650318Y-151788682D02*
X166548000Y-150891000D01*
X166548000Y-150891000D02*
X201183000Y-150891000D01*
X201183000Y-150891000D02*
X205664000Y-155372000D01*
X205664000Y-155372000D02*
X205664000Y-173194000D01*
X214870000Y-182400000D02*
X215620000Y-182400000D01*
X174603353Y-161976000D02*
X174676000Y-161976000D01*
X172069318Y-159441965D02*
X174603353Y-161976000D01*
X172069318Y-154965743D02*
X172069318Y-159441965D01*
X166548000Y-168580000D02*
X164333639Y-166365639D01*
X164333639Y-166365639D02*
X164291953Y-166365639D01*
X175810318Y-164634318D02*
X175810318Y-153626743D01*
X175810318Y-153626743D02*
X174609318Y-152425743D01*
X180264000Y-169088000D02*
X175810318Y-164634318D01*
D38*
X173753846Y-164516000D02*
X175992923Y-166755077D01*
D36*
X175603483Y-168062695D02*
X176160394Y-168619606D01*
X172565103Y-168062695D02*
X175603483Y-168062695D01*
X172565103Y-170113305D02*
X176190695Y-170113305D01*
X176190695Y-170113305D02*
X176200000Y-170104000D01*
X190932000Y-159436000D02*
X193660144Y-156707856D01*
X193660144Y-156707856D02*
X193660144Y-155100134D01*
X171999417Y-170678990D02*
X172948427Y-171628000D01*
X172948427Y-171628000D02*
X176200000Y-171628000D01*
X154801221Y-165928749D02*
X154801221Y-167096891D01*
X154801221Y-167096891D02*
X160246450Y-172542120D01*
X160246450Y-172542120D02*
X161569880Y-172542120D01*
X155885563Y-164796556D02*
X155885563Y-164794139D01*
X155885563Y-164794139D02*
X157003861Y-163675841D01*
X161886969Y-165092025D02*
X161293472Y-165092025D01*
X163726268Y-166931324D02*
X161886969Y-165092025D01*
D38*
X182171682Y-177216000D02*
X182171682Y-178232000D01*
D36*
X164569664Y-175592764D02*
X164569664Y-174926763D01*
X164569664Y-174926763D02*
X165989010Y-173507417D01*
X164216110Y-178491902D02*
X164216110Y-177219110D01*
X164216110Y-177219110D02*
X166554695Y-174880525D01*
X166554695Y-174880525D02*
X166554695Y-174073103D01*
D37*
X165669293Y-180079551D02*
X165669293Y-179945085D01*
X165669293Y-179945085D02*
X164216110Y-178491902D01*
X161569880Y-172542120D02*
X163560194Y-172542120D01*
X163560194Y-172542120D02*
X164291953Y-171810361D01*
X163654912Y-174066120D02*
X164847223Y-175258431D01*
D36*
X174950470Y-175966470D02*
X174933824Y-175966470D01*
X174933824Y-175966470D02*
X173776765Y-177123529D01*
X172486295Y-175833059D02*
X169736676Y-173083440D01*
X169736676Y-173083440D02*
X169736676Y-172941732D01*
X171256601Y-176930155D02*
X168605305Y-174278859D01*
X168605305Y-174278859D02*
X168605305Y-174073103D01*
X159658303Y-170717876D02*
X161990326Y-170717876D01*
X161990326Y-170717876D02*
X162594897Y-170113305D01*
X162594897Y-168062695D02*
X156935167Y-168062695D01*
X156935167Y-168062695D02*
X156091691Y-167219219D01*
X158134235Y-162533278D02*
X158134235Y-163733702D01*
X158134235Y-163733702D02*
X155939188Y-165928749D01*
X155939188Y-165928749D02*
X154801221Y-165928749D01*
D37*
X159424705Y-163823748D02*
X159769420Y-164168463D01*
X159769420Y-164168463D02*
X162094777Y-164168463D01*
X162094777Y-164168463D02*
X164291953Y-166365639D01*
X163637235Y-160627218D02*
X162894226Y-161370226D01*
X165989010Y-164668583D02*
X162894226Y-161573799D01*
X162894226Y-161573799D02*
X162894226Y-161370226D01*
X162472705Y-161791748D02*
X162442001Y-161791748D01*
X162442001Y-161791748D02*
X161187353Y-163046396D01*
X163637235Y-160589235D02*
X163637235Y-160627218D01*
X162894226Y-161370226D02*
X162472705Y-161791748D01*
X164704240Y-159409428D02*
X164704240Y-159522230D01*
X164704240Y-159522230D02*
X163637235Y-160589235D01*
X156829318Y-152425743D02*
X158130318Y-151124743D01*
X158130318Y-151124743D02*
X163148318Y-151124743D01*
X163148318Y-151124743D02*
X164449318Y-152425743D01*
X164449318Y-152425743D02*
X161909318Y-154965743D01*
D38*
X178080682Y-186684257D02*
X181822763Y-186684257D01*
X173753846Y-164516000D02*
X173753846Y-165118184D01*
X175992923Y-166755077D02*
X182171682Y-172933836D01*
X182171682Y-178232000D02*
X182171682Y-181788000D01*
X182171682Y-186335338D02*
X181822763Y-186684257D01*
X181822763Y-186684257D02*
X180620682Y-186684257D01*
D37*
X169850000Y-167310000D02*
X170198528Y-167658528D01*
X170228676Y-166931324D02*
X171433732Y-166931324D01*
X169850000Y-167310000D02*
X170228676Y-166931324D01*
D38*
X171433732Y-166931324D02*
X170198528Y-168166528D01*
D37*
X170198528Y-167658528D02*
X170198528Y-168166528D01*
X169736676Y-165234268D02*
X169091221Y-165879723D01*
X169091221Y-165879723D02*
X169091221Y-166551221D01*
X169091221Y-166551221D02*
X169850000Y-167310000D01*
D38*
X170612000Y-160452000D02*
X173753846Y-163593846D01*
D37*
X171999417Y-167497010D02*
X171999417Y-166872613D01*
X171999417Y-166872613D02*
X173417970Y-165454060D01*
X170868047Y-166365639D02*
X171999417Y-166365639D01*
X171999417Y-166365639D02*
X172910996Y-165454060D01*
D38*
X167660164Y-170704892D02*
X167056000Y-170704892D01*
D37*
X165423324Y-172941732D02*
X167056000Y-171309056D01*
X167056000Y-171309056D02*
X167056000Y-170704892D01*
X164291953Y-171810361D02*
X165187408Y-170914907D01*
D38*
X170198528Y-168166528D02*
X167660164Y-170704892D01*
X167056000Y-170704892D02*
X165397422Y-170704892D01*
X165397422Y-170704892D02*
X165187408Y-170914907D01*
X173417970Y-165454060D02*
X172910996Y-165454060D01*
X172910996Y-165454060D02*
X171433732Y-166931324D01*
X170400495Y-158528772D02*
X170612000Y-158740277D01*
X170612000Y-158740277D02*
X170612000Y-160452000D01*
X173753846Y-163593846D02*
X173753846Y-164516000D01*
X173753846Y-165118184D02*
X173417970Y-165454060D01*
X169529318Y-154965743D02*
X169529318Y-157657595D01*
X169529318Y-157657595D02*
X170400495Y-158528772D01*
X169529318Y-152425743D02*
X169529318Y-154965743D01*
D40*
X130738350Y-178372500D02*
X131290850Y-177820000D01*
X131290850Y-179090000D02*
X131290850Y-177820000D01*
X131290850Y-177820000D02*
X131290850Y-176550000D01*
X128680000Y-178372500D02*
X130738350Y-178372500D01*
D37*
X147635000Y-176001300D02*
X146710000Y-176926300D01*
X147775000Y-175861300D02*
X147635000Y-176001300D01*
X147775000Y-173803800D02*
X147775000Y-175861300D01*
X146710000Y-176926300D02*
X146710000Y-178670000D01*
X147600682Y-179560682D02*
X147600682Y-184144257D01*
X146710000Y-178670000D02*
X147600682Y-179560682D01*
X149045000Y-173803800D02*
X149045000Y-175761299D01*
D40*
X147223600Y-172413200D02*
X148365600Y-172413200D01*
X149045000Y-173092600D02*
X149045000Y-173803800D01*
X146350682Y-185434257D02*
X146350682Y-179229921D01*
X146350682Y-179229921D02*
X146010000Y-178889239D01*
X147600682Y-186684257D02*
X146350682Y-185434257D01*
X148365600Y-172413200D02*
X149045000Y-173092600D01*
X146010000Y-178889239D02*
X146010000Y-173626800D01*
X146010000Y-173626800D02*
X147223600Y-172413200D01*
D37*
X149045000Y-175761299D02*
X149285001Y-176001300D01*
X212035000Y-184610000D02*
X212035000Y-182685000D01*
X212035000Y-182685000D02*
X212320000Y-182400000D01*
X153860224Y-177703799D02*
X153655001Y-177703799D01*
X153315000Y-174123800D02*
X153005002Y-174123800D01*
X160300682Y-184144257D02*
X153860224Y-177703799D01*
X151585000Y-173803800D02*
X152455001Y-174673801D01*
X152455001Y-177753799D02*
X152455001Y-176503799D01*
X147635000Y-177826300D02*
X149285001Y-177826300D01*
X152455001Y-174673801D02*
X152455001Y-176503799D01*
X152382500Y-177826300D02*
X152455001Y-177753799D01*
X153655001Y-177703799D02*
X152455001Y-176503799D01*
X153005002Y-174123800D02*
X152455001Y-174673801D01*
X149285001Y-177826300D02*
X152382500Y-177826300D01*
X150315000Y-173803800D02*
X150315000Y-175663798D01*
X150315000Y-175663798D02*
X151155001Y-176503799D01*
X132535000Y-172805000D02*
X132550000Y-172790000D01*
X130790000Y-172805000D02*
X132535000Y-172805000D01*
X215620000Y-182390000D02*
X215650000Y-182360000D01*
X215620000Y-182400000D02*
X215620000Y-182390000D01*
X128697500Y-176547500D02*
X130790000Y-174455000D01*
X128680000Y-176547500D02*
X127470000Y-177757500D01*
X127470000Y-177757500D02*
X127470000Y-179150000D01*
X128680000Y-180360000D02*
X131290850Y-180360000D01*
X127470000Y-179150000D02*
X128680000Y-180360000D01*
X128680000Y-176547500D02*
X128697500Y-176547500D01*
G04 #@! TA.AperFunction,Conductor*
G36*
X157574424Y-150760185D02*
G01*
X157620179Y-150812989D01*
X157630123Y-150882147D01*
X157601098Y-150945703D01*
X157595066Y-150952181D01*
X157258323Y-151288924D01*
X157197000Y-151322409D01*
X157170642Y-151325243D01*
X155954641Y-151325243D01*
X155881582Y-151339775D01*
X155881578Y-151339776D01*
X155798717Y-151395142D01*
X155743351Y-151478003D01*
X155743350Y-151478007D01*
X155728818Y-151551064D01*
X155728818Y-153300421D01*
X155743350Y-153373478D01*
X155743351Y-153373482D01*
X155760766Y-153399545D01*
X155798717Y-153456344D01*
X155878827Y-153509871D01*
X155881578Y-153511709D01*
X155881582Y-153511710D01*
X155954639Y-153526242D01*
X155954642Y-153526243D01*
X155954644Y-153526243D01*
X157703994Y-153526243D01*
X157703995Y-153526242D01*
X157777058Y-153511709D01*
X157859919Y-153456344D01*
X157915284Y-153373483D01*
X157929818Y-153300417D01*
X157929818Y-152084419D01*
X157949503Y-152017380D01*
X157966137Y-151996738D01*
X158074505Y-151888370D01*
X158200859Y-151762015D01*
X158262180Y-151728532D01*
X158331871Y-151733516D01*
X158387805Y-151775387D01*
X158412222Y-151840852D01*
X158399023Y-151905992D01*
X158349447Y-152003292D01*
X158349445Y-152003297D01*
X158349445Y-152003298D01*
X158328567Y-152067552D01*
X158295915Y-152168045D01*
X158274630Y-152302436D01*
X158268818Y-152339132D01*
X158268818Y-152512354D01*
X158295916Y-152683444D01*
X158349445Y-152848188D01*
X158428086Y-153002531D01*
X158529904Y-153142671D01*
X158652390Y-153265157D01*
X158792530Y-153366975D01*
X158946873Y-153445616D01*
X159111617Y-153499145D01*
X159282707Y-153526243D01*
X159282708Y-153526243D01*
X159455928Y-153526243D01*
X159455929Y-153526243D01*
X159627019Y-153499145D01*
X159791763Y-153445616D01*
X159946106Y-153366975D01*
X160086246Y-153265157D01*
X160208732Y-153142671D01*
X160310550Y-153002531D01*
X160389191Y-152848188D01*
X160442720Y-152683444D01*
X160469818Y-152512354D01*
X160469818Y-152339132D01*
X160442720Y-152168042D01*
X160389191Y-152003298D01*
X160310550Y-151848955D01*
X160291059Y-151822128D01*
X160267580Y-151756321D01*
X160283406Y-151688268D01*
X160333512Y-151639573D01*
X160391378Y-151625243D01*
X160887258Y-151625243D01*
X160954297Y-151644928D01*
X161000052Y-151697732D01*
X161009996Y-151766890D01*
X160987577Y-151822128D01*
X160968085Y-151848955D01*
X160889446Y-152003295D01*
X160835915Y-152168045D01*
X160814630Y-152302436D01*
X160808818Y-152339132D01*
X160808818Y-152512354D01*
X160835916Y-152683444D01*
X160889445Y-152848188D01*
X160968086Y-153002531D01*
X161069904Y-153142671D01*
X161192390Y-153265157D01*
X161332530Y-153366975D01*
X161486873Y-153445616D01*
X161651617Y-153499145D01*
X161822707Y-153526243D01*
X161822708Y-153526243D01*
X161995928Y-153526243D01*
X161995929Y-153526243D01*
X162167019Y-153499145D01*
X162331763Y-153445616D01*
X162429066Y-153396037D01*
X162497734Y-153383142D01*
X162562475Y-153409418D01*
X162602732Y-153466525D01*
X162605724Y-153536330D01*
X162573041Y-153594204D01*
X162302178Y-153865067D01*
X162240855Y-153898552D01*
X162176184Y-153895319D01*
X162167019Y-153892341D01*
X162167017Y-153892340D01*
X162167015Y-153892340D01*
X162047557Y-153873420D01*
X161995929Y-153865243D01*
X161822707Y-153865243D01*
X161783046Y-153871524D01*
X161651620Y-153892340D01*
X161486870Y-153945871D01*
X161332529Y-154024511D01*
X161299458Y-154048539D01*
X161192390Y-154126329D01*
X161192388Y-154126331D01*
X161192387Y-154126331D01*
X161069906Y-154248812D01*
X161069906Y-154248813D01*
X161069904Y-154248815D01*
X161031253Y-154302014D01*
X160968086Y-154388954D01*
X160889446Y-154543295D01*
X160889445Y-154543297D01*
X160889445Y-154543298D01*
X160869234Y-154605500D01*
X160835915Y-154708045D01*
X160808818Y-154879132D01*
X160808818Y-155052353D01*
X160835915Y-155223440D01*
X160838894Y-155232609D01*
X160840886Y-155302450D01*
X160808644Y-155358602D01*
X160781737Y-155385508D01*
X160715843Y-155499639D01*
X160681735Y-155626934D01*
X160681735Y-159906727D01*
X160662050Y-159973766D01*
X160645416Y-159994408D01*
X160459456Y-160180367D01*
X160459450Y-160180374D01*
X160422766Y-160225895D01*
X160422765Y-160225897D01*
X160364473Y-160353535D01*
X160364472Y-160353540D01*
X160344503Y-160492439D01*
X160364472Y-160631337D01*
X160364473Y-160631342D01*
X160422765Y-160758982D01*
X160422767Y-160758984D01*
X160459449Y-160804504D01*
X160459452Y-160804507D01*
X160459455Y-160804511D01*
X160879001Y-161224057D01*
X160879005Y-161224060D01*
X160879009Y-161224064D01*
X160903835Y-161244070D01*
X160924530Y-161260747D01*
X161052170Y-161319039D01*
X161052173Y-161319039D01*
X161052174Y-161319040D01*
X161191074Y-161339010D01*
X161329974Y-161319040D01*
X161329975Y-161319039D01*
X161329977Y-161319039D01*
X161369443Y-161301014D01*
X161457619Y-161260746D01*
X161503138Y-161224064D01*
X161905021Y-160822181D01*
X161941703Y-160776662D01*
X161989996Y-160670917D01*
X161999996Y-160649020D01*
X161999997Y-160649015D01*
X162002538Y-160631342D01*
X162019967Y-160510117D01*
X161999997Y-160371217D01*
X161999996Y-160371216D01*
X161999996Y-160371213D01*
X161941704Y-160243573D01*
X161910016Y-160204251D01*
X161905021Y-160198052D01*
X161905017Y-160198048D01*
X161905014Y-160198044D01*
X161719054Y-160012084D01*
X161685569Y-159950761D01*
X161682735Y-159924403D01*
X161682735Y-156189258D01*
X161702420Y-156122219D01*
X161755224Y-156076464D01*
X161817728Y-156067476D01*
X161817856Y-156065861D01*
X161822707Y-156066243D01*
X161995928Y-156066243D01*
X161995929Y-156066243D01*
X162167019Y-156039145D01*
X162331763Y-155985616D01*
X162486106Y-155906975D01*
X162626246Y-155805157D01*
X162748732Y-155682671D01*
X162850550Y-155542531D01*
X162929191Y-155388188D01*
X162982720Y-155223444D01*
X163009818Y-155052354D01*
X163009818Y-154879132D01*
X162982720Y-154708042D01*
X162979744Y-154698886D01*
X162977745Y-154629047D01*
X163009990Y-154572883D01*
X163280861Y-154302012D01*
X163342182Y-154268529D01*
X163411874Y-154273513D01*
X163467807Y-154315385D01*
X163492224Y-154380849D01*
X163479025Y-154445989D01*
X163429447Y-154543292D01*
X163429445Y-154543297D01*
X163429445Y-154543298D01*
X163409234Y-154605500D01*
X163375915Y-154708045D01*
X163348818Y-154879132D01*
X163348818Y-155052353D01*
X163374960Y-155217413D01*
X163375916Y-155223444D01*
X163429445Y-155388188D01*
X163508086Y-155542531D01*
X163609904Y-155682671D01*
X163732390Y-155805157D01*
X163872530Y-155906975D01*
X164026873Y-155985616D01*
X164191617Y-156039145D01*
X164362707Y-156066243D01*
X164362708Y-156066243D01*
X164535928Y-156066243D01*
X164535929Y-156066243D01*
X164707019Y-156039145D01*
X164871763Y-155985616D01*
X165026106Y-155906975D01*
X165166246Y-155805157D01*
X165288732Y-155682671D01*
X165390550Y-155542531D01*
X165469191Y-155388188D01*
X165522720Y-155223444D01*
X165549818Y-155052354D01*
X165549818Y-154879132D01*
X165522720Y-154708042D01*
X165485059Y-154592136D01*
X165483065Y-154522301D01*
X165515307Y-154466145D01*
X165970798Y-154010656D01*
X165976980Y-153999949D01*
X165979578Y-153995450D01*
X166002009Y-153956597D01*
X166023525Y-153919330D01*
X166050818Y-153817470D01*
X166050818Y-152005937D01*
X166070503Y-151938898D01*
X166087137Y-151918256D01*
X166677574Y-151327819D01*
X166738897Y-151294334D01*
X166765255Y-151291500D01*
X168836554Y-151291500D01*
X168903593Y-151311185D01*
X168949348Y-151363989D01*
X168959292Y-151433147D01*
X168930267Y-151496703D01*
X168909440Y-151515817D01*
X168812390Y-151586329D01*
X168812388Y-151586331D01*
X168812387Y-151586331D01*
X168689906Y-151708812D01*
X168689906Y-151708813D01*
X168689904Y-151708815D01*
X168671958Y-151733516D01*
X168588086Y-151848954D01*
X168509446Y-152003295D01*
X168455915Y-152168045D01*
X168434630Y-152302436D01*
X168428818Y-152339132D01*
X168428818Y-152512354D01*
X168455916Y-152683444D01*
X168509445Y-152848188D01*
X168588086Y-153002531D01*
X168689904Y-153142671D01*
X168689906Y-153142673D01*
X168742499Y-153195266D01*
X168775984Y-153256589D01*
X168778818Y-153282947D01*
X168778818Y-154108539D01*
X168759133Y-154175578D01*
X168742499Y-154196220D01*
X168689906Y-154248812D01*
X168689906Y-154248813D01*
X168689904Y-154248815D01*
X168651253Y-154302014D01*
X168588086Y-154388954D01*
X168509446Y-154543295D01*
X168509445Y-154543297D01*
X168509445Y-154543298D01*
X168489234Y-154605500D01*
X168455915Y-154708045D01*
X168428818Y-154879132D01*
X168428818Y-155052353D01*
X168454960Y-155217413D01*
X168455916Y-155223444D01*
X168509445Y-155388188D01*
X168588086Y-155542531D01*
X168689904Y-155682671D01*
X168689906Y-155682673D01*
X168742499Y-155735266D01*
X168775984Y-155796589D01*
X168778818Y-155822947D01*
X168778818Y-157731513D01*
X168778818Y-157731515D01*
X168778817Y-157731515D01*
X168807658Y-157876502D01*
X168807661Y-157876512D01*
X168864232Y-158013086D01*
X168864234Y-158013090D01*
X168880907Y-158038043D01*
X168889133Y-158050355D01*
X168946367Y-158136013D01*
X168946370Y-158136016D01*
X169451176Y-158640821D01*
X169484661Y-158702144D01*
X169487495Y-158728502D01*
X169487495Y-159676642D01*
X169487496Y-159676648D01*
X169493903Y-159736255D01*
X169544197Y-159871100D01*
X169544201Y-159871107D01*
X169630447Y-159986316D01*
X169630450Y-159986319D01*
X169745661Y-160072566D01*
X169745661Y-160072567D01*
X169745664Y-160072568D01*
X169780832Y-160085684D01*
X169836765Y-160127553D01*
X169861184Y-160193016D01*
X169861500Y-160201866D01*
X169861500Y-160525918D01*
X169861500Y-160525920D01*
X169861499Y-160525920D01*
X169890340Y-160670907D01*
X169890343Y-160670917D01*
X169946913Y-160807490D01*
X169946914Y-160807491D01*
X169946916Y-160807495D01*
X169956728Y-160822179D01*
X169956729Y-160822181D01*
X170029051Y-160930420D01*
X170029052Y-160930421D01*
X172865600Y-163766968D01*
X172899085Y-163828291D01*
X172894101Y-163897983D01*
X172879778Y-163925365D01*
X172856346Y-163959115D01*
X172846486Y-163974457D01*
X172846483Y-163974463D01*
X172813318Y-164068469D01*
X172813317Y-164068474D01*
X172803373Y-164137632D01*
X172803373Y-164210361D01*
X172810629Y-164260839D01*
X172810631Y-164260842D01*
X172810631Y-164296136D01*
X172806191Y-164327021D01*
X172796247Y-164360888D01*
X172781633Y-164392888D01*
X172756520Y-164429057D01*
X172392967Y-164792610D01*
X172356798Y-164817723D01*
X172324798Y-164832337D01*
X172324795Y-164832337D01*
X172324795Y-164832338D01*
X172299602Y-164839735D01*
X172290931Y-164842281D01*
X172260046Y-164846721D01*
X172224757Y-164846721D01*
X172174276Y-164839464D01*
X172174261Y-164839462D01*
X172128786Y-164837026D01*
X172128776Y-164837026D01*
X172084780Y-164838597D01*
X172066587Y-164839899D01*
X171971457Y-164869685D01*
X171910132Y-164903170D01*
X171851926Y-164946742D01*
X171851918Y-164946748D01*
X171676269Y-165122397D01*
X171614945Y-165155881D01*
X171557924Y-165154864D01*
X171483503Y-165135870D01*
X171413736Y-165132132D01*
X171413729Y-165132132D01*
X171368215Y-165133758D01*
X171273628Y-165165241D01*
X171273622Y-165165244D01*
X171212913Y-165199815D01*
X171175505Y-165225790D01*
X171112950Y-165303414D01*
X171080568Y-165365319D01*
X171080565Y-165365325D01*
X171069070Y-165397909D01*
X171039815Y-165444334D01*
X170018809Y-166465339D01*
X169957486Y-166498824D01*
X169887794Y-166493840D01*
X169843447Y-166465339D01*
X169636972Y-166258864D01*
X169603487Y-166197541D01*
X169608471Y-166127849D01*
X169636972Y-166083502D01*
X170133948Y-165586526D01*
X170656051Y-165064422D01*
X170706155Y-165033935D01*
X170722627Y-165028698D01*
X170772744Y-165006348D01*
X170799052Y-164992735D01*
X170873217Y-164926118D01*
X170915089Y-164870185D01*
X170939028Y-164831432D01*
X170965402Y-164735292D01*
X170970386Y-164665600D01*
X170970312Y-164661480D01*
X170969573Y-164620066D01*
X170969572Y-164620057D01*
X170954482Y-164571869D01*
X170939784Y-164524927D01*
X170911405Y-164472955D01*
X170906302Y-164463609D01*
X170906297Y-164463601D01*
X170862721Y-164405390D01*
X170862720Y-164405389D01*
X170862718Y-164405386D01*
X170862713Y-164405381D01*
X170862705Y-164405372D01*
X170565554Y-164108222D01*
X170565553Y-164108221D01*
X170521110Y-164072733D01*
X170521088Y-164072717D01*
X170474687Y-164043479D01*
X170474660Y-164043463D01*
X170448731Y-164029154D01*
X170448729Y-164029153D01*
X170352131Y-164004499D01*
X170282365Y-164000761D01*
X170282358Y-164000761D01*
X170236844Y-164002387D01*
X170142244Y-164033875D01*
X170136897Y-164036259D01*
X170067652Y-164045579D01*
X170004360Y-164015982D01*
X169998724Y-164010686D01*
X169701910Y-163713871D01*
X169701906Y-163713868D01*
X169701904Y-163713866D01*
X169639962Y-163672477D01*
X169637360Y-163670738D01*
X169603151Y-163636529D01*
X169560021Y-163571982D01*
X169560016Y-163571976D01*
X169136226Y-163148186D01*
X169136221Y-163148182D01*
X169136219Y-163148180D01*
X169111407Y-163131601D01*
X169074277Y-163106790D01*
X169074275Y-163106789D01*
X168976538Y-163087349D01*
X168976534Y-163087349D01*
X168878800Y-163106789D01*
X168878797Y-163106790D01*
X168816850Y-163148181D01*
X168816849Y-163148182D01*
X167667681Y-164297351D01*
X167606358Y-164330836D01*
X167536666Y-164325852D01*
X167492319Y-164297351D01*
X166343149Y-163148181D01*
X166312175Y-163127485D01*
X166281204Y-163106791D01*
X166281203Y-163106790D01*
X166281202Y-163106790D01*
X166281199Y-163106789D01*
X166183466Y-163087349D01*
X166171252Y-163087349D01*
X166171252Y-163086254D01*
X166113873Y-163081115D01*
X166071601Y-163053410D01*
X165854432Y-162836241D01*
X165625097Y-162606907D01*
X165591613Y-162545585D01*
X165596597Y-162475894D01*
X165609677Y-162450336D01*
X165610748Y-162448734D01*
X165689084Y-162331495D01*
X165745658Y-162194913D01*
X165757958Y-162133080D01*
X165774500Y-162049920D01*
X165774500Y-161902079D01*
X165745659Y-161757092D01*
X165745658Y-161757091D01*
X165745658Y-161757087D01*
X165726361Y-161710500D01*
X165689087Y-161620511D01*
X165689080Y-161620498D01*
X165606951Y-161497584D01*
X165606948Y-161497580D01*
X165502419Y-161393051D01*
X165502415Y-161393048D01*
X165379501Y-161310919D01*
X165379488Y-161310912D01*
X165242917Y-161254343D01*
X165242907Y-161254340D01*
X165097920Y-161225500D01*
X165097918Y-161225500D01*
X164950082Y-161225500D01*
X164950080Y-161225500D01*
X164805092Y-161254340D01*
X164805082Y-161254343D01*
X164668511Y-161310912D01*
X164668498Y-161310919D01*
X164545584Y-161393048D01*
X164545580Y-161393051D01*
X164441051Y-161497580D01*
X164441048Y-161497584D01*
X164358919Y-161620498D01*
X164358912Y-161620511D01*
X164302343Y-161757082D01*
X164302340Y-161757092D01*
X164273500Y-161902079D01*
X164273500Y-161945897D01*
X164253815Y-162012936D01*
X164201011Y-162058691D01*
X164131853Y-162068635D01*
X164068297Y-162039610D01*
X164061819Y-162033578D01*
X163654365Y-161626124D01*
X163620880Y-161564801D01*
X163625864Y-161495109D01*
X163667736Y-161439176D01*
X163724398Y-161415706D01*
X163784974Y-161406997D01*
X163784975Y-161406996D01*
X163784977Y-161406996D01*
X163861448Y-161372072D01*
X163912619Y-161348703D01*
X163958138Y-161312021D01*
X164360021Y-160910138D01*
X164396703Y-160864619D01*
X164448795Y-160750554D01*
X164454996Y-160736977D01*
X164454997Y-160736972D01*
X164455775Y-160731563D01*
X164474967Y-160598074D01*
X164466357Y-160538192D01*
X164467007Y-160533674D01*
X164465411Y-160529395D01*
X164471932Y-160499415D01*
X164476300Y-160469039D01*
X164479563Y-160464339D01*
X164480263Y-160461122D01*
X164501411Y-160432871D01*
X164620031Y-160314251D01*
X164681352Y-160280768D01*
X164725356Y-160279197D01*
X164743817Y-160281851D01*
X164748433Y-160282515D01*
X164748434Y-160282515D01*
X164887334Y-160262545D01*
X165014979Y-160204251D01*
X165060499Y-160167570D01*
X165462382Y-159765687D01*
X165499063Y-159720167D01*
X165557357Y-159592522D01*
X165577327Y-159453622D01*
X165557357Y-159314722D01*
X165557356Y-159314721D01*
X165557356Y-159314718D01*
X165499064Y-159187079D01*
X165499063Y-159187078D01*
X165499063Y-159187077D01*
X165462382Y-159141558D01*
X165462377Y-159141553D01*
X165462373Y-159141548D01*
X164972119Y-158651294D01*
X164972113Y-158651289D01*
X164972110Y-158651286D01*
X164926591Y-158614605D01*
X164926589Y-158614604D01*
X164926588Y-158614603D01*
X164798949Y-158556311D01*
X164798944Y-158556310D01*
X164660046Y-158536341D01*
X164521147Y-158556310D01*
X164521143Y-158556311D01*
X164393501Y-158614604D01*
X164393496Y-158614607D01*
X164347983Y-158651283D01*
X164347975Y-158651290D01*
X163946102Y-159053163D01*
X163946095Y-159053171D01*
X163909419Y-159098684D01*
X163909416Y-159098689D01*
X163851123Y-159226331D01*
X163851122Y-159226335D01*
X163831153Y-159365234D01*
X163851122Y-159504132D01*
X163851124Y-159504140D01*
X163866584Y-159537991D01*
X163869735Y-159559908D01*
X163877474Y-159580656D01*
X163874611Y-159593816D01*
X163876528Y-159607149D01*
X163867328Y-159627292D01*
X163862622Y-159648929D01*
X163849353Y-159666654D01*
X163847503Y-159670705D01*
X163841471Y-159677183D01*
X163793600Y-159725054D01*
X163732277Y-159758539D01*
X163688274Y-159760111D01*
X163628397Y-159751503D01*
X163628396Y-159751503D01*
X163489497Y-159771472D01*
X163489492Y-159771473D01*
X163361854Y-159829765D01*
X163361852Y-159829766D01*
X163316331Y-159866450D01*
X163316324Y-159866456D01*
X162914456Y-160268324D01*
X162914450Y-160268331D01*
X162914449Y-160268332D01*
X162896108Y-160291091D01*
X162877766Y-160313852D01*
X162877765Y-160313854D01*
X162819473Y-160441492D01*
X162819472Y-160441497D01*
X162799503Y-160580395D01*
X162812886Y-160673481D01*
X162812235Y-160678001D01*
X162813832Y-160682281D01*
X162807309Y-160712264D01*
X162802942Y-160742639D01*
X162799679Y-160747337D01*
X162798980Y-160750554D01*
X162777829Y-160778809D01*
X162629069Y-160927568D01*
X162567746Y-160961052D01*
X162523743Y-160962624D01*
X162463867Y-160954016D01*
X162463866Y-160954016D01*
X162324967Y-160973985D01*
X162324962Y-160973986D01*
X162197324Y-161032278D01*
X162197322Y-161032279D01*
X162151801Y-161068963D01*
X162151794Y-161068969D01*
X161749926Y-161470837D01*
X161749920Y-161470844D01*
X161749919Y-161470845D01*
X161735890Y-161488254D01*
X161713236Y-161516365D01*
X161713235Y-161516367D01*
X161654943Y-161644005D01*
X161654942Y-161644010D01*
X161634973Y-161782909D01*
X161639722Y-161815942D01*
X161629778Y-161885101D01*
X161604665Y-161921269D01*
X161363599Y-162162335D01*
X161302276Y-162195820D01*
X161258272Y-162197392D01*
X161187353Y-162187196D01*
X161044896Y-162207677D01*
X160913980Y-162267465D01*
X160913975Y-162267468D01*
X160867300Y-162305080D01*
X160446043Y-162726340D01*
X160408422Y-162773024D01*
X160408421Y-162773026D01*
X160348634Y-162903939D01*
X160328153Y-163046396D01*
X160348634Y-163188852D01*
X160408422Y-163319768D01*
X160408425Y-163319773D01*
X160446037Y-163366448D01*
X160446040Y-163366451D01*
X160446041Y-163366452D01*
X160535871Y-163456282D01*
X160546485Y-163475719D01*
X160560984Y-163492452D01*
X160562900Y-163505781D01*
X160569356Y-163517604D01*
X160567776Y-163539691D01*
X160570928Y-163561610D01*
X160565332Y-163573861D01*
X160564372Y-163587296D01*
X160551102Y-163605022D01*
X160541903Y-163625166D01*
X160530572Y-163632447D01*
X160522501Y-163643230D01*
X160501752Y-163650968D01*
X160483125Y-163662940D01*
X160461208Y-163666091D01*
X160457037Y-163667647D01*
X160448190Y-163667963D01*
X160310409Y-163667963D01*
X160243370Y-163648278D01*
X160197615Y-163595476D01*
X160193879Y-163587296D01*
X160184173Y-163566042D01*
X160147491Y-163520522D01*
X160147487Y-163520518D01*
X160147484Y-163520514D01*
X159861524Y-163234554D01*
X159828039Y-163173231D01*
X159825205Y-163146873D01*
X159825205Y-162718335D01*
X159825206Y-162718322D01*
X159825206Y-162602882D01*
X159825206Y-162602880D01*
X159797912Y-162501019D01*
X159776959Y-162464727D01*
X159745185Y-162409693D01*
X159670618Y-162335126D01*
X159670617Y-162335125D01*
X159666287Y-162330795D01*
X159666276Y-162330785D01*
X158483014Y-161147522D01*
X158483013Y-161147521D01*
X158483012Y-161147520D01*
X158437349Y-161121156D01*
X158391688Y-161094793D01*
X158340756Y-161081146D01*
X158289826Y-161067500D01*
X158289825Y-161067500D01*
X146929292Y-161067500D01*
X146862253Y-161047815D01*
X146826189Y-161012389D01*
X146810952Y-160989585D01*
X146810948Y-160989580D01*
X146706419Y-160885051D01*
X146706415Y-160885048D01*
X146583501Y-160802919D01*
X146583488Y-160802912D01*
X146446917Y-160746343D01*
X146446907Y-160746340D01*
X146301920Y-160717500D01*
X146301918Y-160717500D01*
X146248253Y-160717500D01*
X146181214Y-160697815D01*
X146135459Y-160645011D01*
X146125515Y-160575853D01*
X146154540Y-160512297D01*
X146160572Y-160505819D01*
X148218373Y-158448018D01*
X150570400Y-156095990D01*
X150631721Y-156062507D01*
X150696393Y-156065741D01*
X150812299Y-156103402D01*
X150983389Y-156130500D01*
X150983390Y-156130500D01*
X151156610Y-156130500D01*
X151156611Y-156130500D01*
X151327701Y-156103402D01*
X151492445Y-156049873D01*
X151646788Y-155971232D01*
X151786928Y-155869414D01*
X151909414Y-155746928D01*
X152011232Y-155606788D01*
X152089873Y-155452445D01*
X152143402Y-155287701D01*
X152170500Y-155116611D01*
X152170500Y-154943389D01*
X152160323Y-154879132D01*
X155728818Y-154879132D01*
X155728818Y-155052353D01*
X155754960Y-155217413D01*
X155755916Y-155223444D01*
X155809445Y-155388188D01*
X155888086Y-155542531D01*
X155989904Y-155682671D01*
X156112390Y-155805157D01*
X156252530Y-155906975D01*
X156406873Y-155985616D01*
X156571617Y-156039145D01*
X156742707Y-156066243D01*
X156742708Y-156066243D01*
X156915928Y-156066243D01*
X156915929Y-156066243D01*
X157087019Y-156039145D01*
X157251763Y-155985616D01*
X157406106Y-155906975D01*
X157546246Y-155805157D01*
X157668732Y-155682671D01*
X157770550Y-155542531D01*
X157849191Y-155388188D01*
X157902720Y-155223444D01*
X157929818Y-155052354D01*
X157929818Y-154879132D01*
X157902720Y-154708042D01*
X157849191Y-154543298D01*
X157770550Y-154388955D01*
X157668732Y-154248815D01*
X157546246Y-154126329D01*
X157406106Y-154024511D01*
X157251763Y-153945870D01*
X157087019Y-153892341D01*
X157087017Y-153892340D01*
X157087016Y-153892340D01*
X156955589Y-153871524D01*
X156915929Y-153865243D01*
X156742707Y-153865243D01*
X156703046Y-153871524D01*
X156571620Y-153892340D01*
X156406870Y-153945871D01*
X156252529Y-154024511D01*
X156219458Y-154048539D01*
X156112390Y-154126329D01*
X156112388Y-154126331D01*
X156112387Y-154126331D01*
X155989906Y-154248812D01*
X155989906Y-154248813D01*
X155989904Y-154248815D01*
X155951253Y-154302014D01*
X155888086Y-154388954D01*
X155809446Y-154543295D01*
X155809445Y-154543297D01*
X155809445Y-154543298D01*
X155789234Y-154605500D01*
X155755915Y-154708045D01*
X155728818Y-154879132D01*
X152160323Y-154879132D01*
X152143402Y-154772299D01*
X152089873Y-154607555D01*
X152011232Y-154453212D01*
X151909414Y-154313072D01*
X151786928Y-154190586D01*
X151646788Y-154088768D01*
X151492445Y-154010127D01*
X151327701Y-153956598D01*
X151327699Y-153956597D01*
X151327698Y-153956597D01*
X151196271Y-153935781D01*
X151156611Y-153929500D01*
X150983389Y-153929500D01*
X150943728Y-153935781D01*
X150812302Y-153956597D01*
X150647552Y-154010128D01*
X150493211Y-154088768D01*
X150441514Y-154126329D01*
X150353072Y-154190586D01*
X150353070Y-154190588D01*
X150353069Y-154190588D01*
X150230588Y-154313069D01*
X150230588Y-154313070D01*
X150230586Y-154313072D01*
X150228906Y-154315385D01*
X150128768Y-154453211D01*
X150050128Y-154607552D01*
X149996597Y-154772302D01*
X149969500Y-154943389D01*
X149969500Y-155116610D01*
X149996597Y-155287698D01*
X150034256Y-155403601D01*
X150036251Y-155473443D01*
X150004006Y-155529600D01*
X143367522Y-162166084D01*
X143367518Y-162166090D01*
X143314793Y-162257411D01*
X143314663Y-162257897D01*
X143293971Y-162335124D01*
X143287500Y-162359273D01*
X143287500Y-181086707D01*
X143267815Y-181153746D01*
X143249433Y-181176103D01*
X143241518Y-181183711D01*
X143209584Y-181205049D01*
X143105049Y-181309584D01*
X143095130Y-181324428D01*
X143085433Y-181333750D01*
X143065892Y-181343924D01*
X143048986Y-181358052D01*
X143035507Y-181359744D01*
X143023460Y-181366017D01*
X143001522Y-181364011D01*
X142979660Y-181366757D01*
X142967405Y-181360893D01*
X142953881Y-181359657D01*
X142936510Y-181346110D01*
X142916634Y-181336600D01*
X142909495Y-181325042D01*
X142898785Y-181316690D01*
X142891494Y-181295899D01*
X142879917Y-181277155D01*
X142876796Y-181253983D01*
X142875665Y-181250756D01*
X142876110Y-181248887D01*
X142875500Y-181244354D01*
X142875500Y-176270996D01*
X142874713Y-176250976D01*
X142874701Y-176250826D01*
X142873493Y-176235472D01*
X142846435Y-176139529D01*
X142818658Y-176085012D01*
X142782078Y-176034663D01*
X142771673Y-176020341D01*
X142429662Y-175678330D01*
X142414932Y-175664713D01*
X142403117Y-175654623D01*
X142403115Y-175654621D01*
X142331690Y-175614623D01*
X142316132Y-175605910D01*
X142257945Y-175587005D01*
X142217594Y-175580614D01*
X142178992Y-175574500D01*
X134859000Y-175574500D01*
X134858992Y-175574500D01*
X134819047Y-175577644D01*
X134819043Y-175577644D01*
X134819035Y-175577645D01*
X134819032Y-175577645D01*
X134819026Y-175577646D01*
X134788446Y-175582488D01*
X134768762Y-175586404D01*
X134678228Y-175628140D01*
X134678223Y-175628143D01*
X134628740Y-175664094D01*
X134628732Y-175664100D01*
X134584622Y-175704876D01*
X134584620Y-175704878D01*
X134535914Y-175791851D01*
X134535910Y-175791860D01*
X134517005Y-175850046D01*
X134504500Y-175929000D01*
X134504500Y-181970500D01*
X134484815Y-182037539D01*
X134432011Y-182083294D01*
X134380500Y-182094500D01*
X130728992Y-182094500D01*
X130689047Y-182097644D01*
X130689043Y-182097644D01*
X130689035Y-182097645D01*
X130689032Y-182097645D01*
X130689026Y-182097646D01*
X130658446Y-182102488D01*
X130638762Y-182106404D01*
X130548228Y-182148140D01*
X130548223Y-182148143D01*
X130498740Y-182184094D01*
X130498732Y-182184100D01*
X130454622Y-182224876D01*
X130454620Y-182224878D01*
X130405914Y-182311851D01*
X130405910Y-182311860D01*
X130387005Y-182370046D01*
X130374500Y-182449000D01*
X130374500Y-190435500D01*
X130354815Y-190502539D01*
X130302011Y-190548294D01*
X130250500Y-190559500D01*
X117634067Y-190559500D01*
X117625957Y-190559235D01*
X117383642Y-190543353D01*
X117367562Y-190541235D01*
X117254798Y-190518804D01*
X117133401Y-190494657D01*
X117117735Y-190490459D01*
X116891654Y-190413715D01*
X116876674Y-190407510D01*
X116662541Y-190301912D01*
X116648495Y-190293803D01*
X116449977Y-190161157D01*
X116437109Y-190151283D01*
X116257605Y-189993863D01*
X116246136Y-189982394D01*
X116088716Y-189802890D01*
X116078842Y-189790022D01*
X115946196Y-189591504D01*
X115938089Y-189577463D01*
X115832485Y-189363318D01*
X115826287Y-189348352D01*
X115749538Y-189122257D01*
X115745344Y-189106607D01*
X115698762Y-188872424D01*
X115696647Y-188856367D01*
X115680765Y-188614042D01*
X115680500Y-188605933D01*
X115680500Y-187961746D01*
X116794500Y-187961746D01*
X116794500Y-188178253D01*
X116828370Y-188392098D01*
X116895272Y-188598006D01*
X116895273Y-188598009D01*
X116969863Y-188744397D01*
X116993567Y-188790919D01*
X117120828Y-188966078D01*
X117273922Y-189119172D01*
X117449081Y-189246433D01*
X117496366Y-189270526D01*
X117641990Y-189344726D01*
X117641993Y-189344727D01*
X117676815Y-189356041D01*
X117847903Y-189411630D01*
X118061746Y-189445500D01*
X118061747Y-189445500D01*
X118278253Y-189445500D01*
X118278254Y-189445500D01*
X118492097Y-189411630D01*
X118698009Y-189344726D01*
X118890919Y-189246433D01*
X119066078Y-189119172D01*
X119219172Y-188966078D01*
X119346433Y-188790919D01*
X119444726Y-188598009D01*
X119511630Y-188392097D01*
X119545500Y-188178254D01*
X119545500Y-187961746D01*
X119511630Y-187747903D01*
X119444726Y-187541991D01*
X119444726Y-187541990D01*
X119346432Y-187349080D01*
X119219172Y-187173922D01*
X119066078Y-187020828D01*
X118890919Y-186893567D01*
X118698009Y-186795273D01*
X118698006Y-186795272D01*
X118492098Y-186728370D01*
X118385175Y-186711435D01*
X118278254Y-186694500D01*
X118061746Y-186694500D01*
X117990465Y-186705790D01*
X117847901Y-186728370D01*
X117641993Y-186795272D01*
X117641990Y-186795273D01*
X117449080Y-186893567D01*
X117349145Y-186966174D01*
X117273922Y-187020828D01*
X117273920Y-187020830D01*
X117273919Y-187020830D01*
X117120830Y-187173919D01*
X117120830Y-187173920D01*
X117120828Y-187173922D01*
X117085683Y-187222295D01*
X116993567Y-187349080D01*
X116895273Y-187541990D01*
X116895272Y-187541993D01*
X116828370Y-187747901D01*
X116794500Y-187961746D01*
X115680500Y-187961746D01*
X115680500Y-185306003D01*
X126115182Y-185306003D01*
X126115182Y-185522510D01*
X126149052Y-185736355D01*
X126215954Y-185942263D01*
X126215955Y-185942266D01*
X126314249Y-186135176D01*
X126441510Y-186310335D01*
X126594604Y-186463429D01*
X126769763Y-186590690D01*
X126864379Y-186638899D01*
X126962672Y-186688983D01*
X126962675Y-186688984D01*
X127065629Y-186722435D01*
X127168585Y-186755887D01*
X127382428Y-186789757D01*
X127382429Y-186789757D01*
X127598935Y-186789757D01*
X127598936Y-186789757D01*
X127812779Y-186755887D01*
X128018691Y-186688983D01*
X128211601Y-186590690D01*
X128386760Y-186463429D01*
X128539854Y-186310335D01*
X128667115Y-186135176D01*
X128765408Y-185942266D01*
X128832312Y-185736354D01*
X128866182Y-185522511D01*
X128866182Y-185306003D01*
X128832312Y-185092160D01*
X128786869Y-184952299D01*
X128765409Y-184886250D01*
X128765408Y-184886247D01*
X128667114Y-184693337D01*
X128539854Y-184518179D01*
X128386760Y-184365085D01*
X128211601Y-184237824D01*
X128018691Y-184139530D01*
X128018688Y-184139529D01*
X127812780Y-184072627D01*
X127705857Y-184055692D01*
X127598936Y-184038757D01*
X127382428Y-184038757D01*
X127311147Y-184050047D01*
X127168583Y-184072627D01*
X126962675Y-184139529D01*
X126962672Y-184139530D01*
X126769762Y-184237824D01*
X126669827Y-184310431D01*
X126594604Y-184365085D01*
X126594602Y-184365087D01*
X126594601Y-184365087D01*
X126441512Y-184518176D01*
X126441512Y-184518177D01*
X126441510Y-184518179D01*
X126386856Y-184593402D01*
X126314249Y-184693337D01*
X126215955Y-184886247D01*
X126215954Y-184886250D01*
X126149052Y-185092158D01*
X126115182Y-185306003D01*
X115680500Y-185306003D01*
X115680500Y-177691608D01*
X126969500Y-177691608D01*
X126969500Y-179084108D01*
X126969500Y-179215892D01*
X126972325Y-179226434D01*
X127003608Y-179343187D01*
X127017642Y-179367494D01*
X127069500Y-179457314D01*
X128279500Y-180667314D01*
X128372686Y-180760500D01*
X128486814Y-180826392D01*
X128614107Y-180860500D01*
X128614108Y-180860500D01*
X130378724Y-180860500D01*
X130431127Y-180872117D01*
X130489383Y-180899283D01*
X130536606Y-180905500D01*
X130536613Y-180905500D01*
X132045087Y-180905500D01*
X132045094Y-180905500D01*
X132092317Y-180899283D01*
X132195951Y-180850957D01*
X132276807Y-180770101D01*
X132325133Y-180666467D01*
X132331350Y-180619244D01*
X132331350Y-180100756D01*
X132325133Y-180053533D01*
X132276807Y-179949899D01*
X132195951Y-179869043D01*
X132092317Y-179820717D01*
X132092315Y-179820716D01*
X132045104Y-179814501D01*
X132045099Y-179814500D01*
X132045094Y-179814500D01*
X130536606Y-179814500D01*
X130536600Y-179814500D01*
X130536595Y-179814501D01*
X130489385Y-179820716D01*
X130489383Y-179820717D01*
X130431127Y-179847882D01*
X130378724Y-179859500D01*
X128938676Y-179859500D01*
X128871637Y-179839815D01*
X128850995Y-179823181D01*
X128006819Y-178979005D01*
X127973334Y-178917682D01*
X127970500Y-178891324D01*
X127970500Y-178016176D01*
X127990185Y-177949137D01*
X128006819Y-177928495D01*
X128613495Y-177321819D01*
X128674818Y-177288334D01*
X128701176Y-177285500D01*
X128964174Y-177285500D01*
X128964190Y-177285499D01*
X129022299Y-177279251D01*
X129024385Y-177278473D01*
X129153778Y-177230212D01*
X129266116Y-177146116D01*
X129350212Y-177033778D01*
X129399251Y-176902299D01*
X129400880Y-176887147D01*
X129405499Y-176844190D01*
X129405500Y-176844173D01*
X129405500Y-176598676D01*
X129425185Y-176531637D01*
X129441819Y-176510995D01*
X130810995Y-175141819D01*
X130872318Y-175108334D01*
X130898676Y-175105500D01*
X131119270Y-175105500D01*
X131149699Y-175102646D01*
X131149701Y-175102646D01*
X131213790Y-175080219D01*
X131277882Y-175057793D01*
X131387150Y-174977150D01*
X131467793Y-174867882D01*
X131501198Y-174772416D01*
X131512646Y-174739701D01*
X131512646Y-174739699D01*
X131515500Y-174709269D01*
X131515500Y-174200730D01*
X131512646Y-174170300D01*
X131512646Y-174170298D01*
X131479006Y-174074163D01*
X131467793Y-174042118D01*
X131387150Y-173932850D01*
X131277882Y-173852207D01*
X131277880Y-173852206D01*
X131149700Y-173807353D01*
X131119270Y-173804500D01*
X131119266Y-173804500D01*
X130460734Y-173804500D01*
X130460730Y-173804500D01*
X130430300Y-173807353D01*
X130430298Y-173807353D01*
X130302119Y-173852206D01*
X130302117Y-173852207D01*
X130192850Y-173932850D01*
X130112207Y-174042117D01*
X130112206Y-174042119D01*
X130067353Y-174170298D01*
X130067353Y-174170300D01*
X130064500Y-174200730D01*
X130064500Y-174421324D01*
X130044815Y-174488363D01*
X130028181Y-174509005D01*
X128764005Y-175773181D01*
X128702682Y-175806666D01*
X128676324Y-175809500D01*
X128395809Y-175809500D01*
X128337700Y-175815748D01*
X128206219Y-175864789D01*
X128093884Y-175948884D01*
X128009789Y-176061219D01*
X127960748Y-176192700D01*
X127954500Y-176250809D01*
X127954500Y-176513824D01*
X127934815Y-176580863D01*
X127918181Y-176601505D01*
X127069502Y-177450183D01*
X127069500Y-177450186D01*
X127003608Y-177564312D01*
X126979250Y-177655221D01*
X126969500Y-177691608D01*
X115680500Y-177691608D01*
X115680500Y-172550730D01*
X130064500Y-172550730D01*
X130064500Y-173059269D01*
X130067353Y-173089699D01*
X130067353Y-173089701D01*
X130111277Y-173215224D01*
X130112207Y-173217882D01*
X130192850Y-173327150D01*
X130302118Y-173407793D01*
X130336704Y-173419895D01*
X130430299Y-173452646D01*
X130460730Y-173455500D01*
X130460734Y-173455500D01*
X131119270Y-173455500D01*
X131149699Y-173452646D01*
X131149701Y-173452646D01*
X131213790Y-173430219D01*
X131277882Y-173407793D01*
X131303706Y-173388734D01*
X131383655Y-173329730D01*
X131449284Y-173305759D01*
X131457288Y-173305500D01*
X132024223Y-173305500D01*
X132091262Y-173325185D01*
X132102884Y-173333643D01*
X132103454Y-173334110D01*
X132103458Y-173334114D01*
X132140613Y-173358940D01*
X132218182Y-173410771D01*
X132218195Y-173410778D01*
X132319919Y-173452913D01*
X132345672Y-173463580D01*
X132345676Y-173463580D01*
X132345677Y-173463581D01*
X132481004Y-173490500D01*
X132481007Y-173490500D01*
X132618995Y-173490500D01*
X132711410Y-173472117D01*
X132754328Y-173463580D01*
X132881811Y-173410775D01*
X132996542Y-173334114D01*
X133094114Y-173236542D01*
X133170775Y-173121811D01*
X133223580Y-172994328D01*
X133235763Y-172933082D01*
X133250500Y-172858995D01*
X133250500Y-172721004D01*
X133223581Y-172585677D01*
X133223580Y-172585676D01*
X133223580Y-172585672D01*
X133220085Y-172577234D01*
X133170778Y-172458195D01*
X133170771Y-172458182D01*
X133094114Y-172343458D01*
X133094111Y-172343454D01*
X132996545Y-172245888D01*
X132996541Y-172245885D01*
X132881817Y-172169228D01*
X132881804Y-172169221D01*
X132754332Y-172116421D01*
X132754322Y-172116418D01*
X132618995Y-172089500D01*
X132618993Y-172089500D01*
X132481007Y-172089500D01*
X132481005Y-172089500D01*
X132345677Y-172116418D01*
X132345667Y-172116421D01*
X132218195Y-172169221D01*
X132218182Y-172169228D01*
X132103458Y-172245885D01*
X132103454Y-172245888D01*
X132081162Y-172268181D01*
X132019839Y-172301666D01*
X131993481Y-172304500D01*
X131457288Y-172304500D01*
X131390249Y-172284815D01*
X131383655Y-172280270D01*
X131277886Y-172202209D01*
X131277880Y-172202206D01*
X131149700Y-172157353D01*
X131119270Y-172154500D01*
X131119266Y-172154500D01*
X130460734Y-172154500D01*
X130460730Y-172154500D01*
X130430300Y-172157353D01*
X130430298Y-172157353D01*
X130302119Y-172202206D01*
X130302117Y-172202207D01*
X130192850Y-172282850D01*
X130112207Y-172392117D01*
X130112206Y-172392119D01*
X130067353Y-172520298D01*
X130067353Y-172520300D01*
X130064500Y-172550730D01*
X115680500Y-172550730D01*
X115680500Y-171170023D01*
X123713902Y-171170023D01*
X123713902Y-172209980D01*
X123728434Y-172283037D01*
X123728435Y-172283041D01*
X123746807Y-172310537D01*
X123783801Y-172365903D01*
X123823037Y-172392119D01*
X123866662Y-172421268D01*
X123866666Y-172421269D01*
X123939723Y-172435801D01*
X123939726Y-172435802D01*
X123939728Y-172435802D01*
X124700278Y-172435802D01*
X124700279Y-172435801D01*
X124773342Y-172421268D01*
X124856203Y-172365903D01*
X124911568Y-172283042D01*
X124926102Y-172209976D01*
X124926102Y-171170028D01*
X124926102Y-171170025D01*
X124926101Y-171170023D01*
X125863900Y-171170023D01*
X125863900Y-172209980D01*
X125878432Y-172283037D01*
X125878433Y-172283041D01*
X125896805Y-172310537D01*
X125933799Y-172365903D01*
X125973035Y-172392119D01*
X126016660Y-172421268D01*
X126016664Y-172421269D01*
X126089721Y-172435801D01*
X126089724Y-172435802D01*
X126089726Y-172435802D01*
X126850276Y-172435802D01*
X126850277Y-172435801D01*
X126860384Y-172433790D01*
X126898459Y-172426218D01*
X126923335Y-172421269D01*
X126923335Y-172421268D01*
X126923340Y-172421268D01*
X127006201Y-172365903D01*
X127061566Y-172283042D01*
X127076100Y-172209976D01*
X127076100Y-171170028D01*
X127076100Y-171170025D01*
X127076099Y-171170023D01*
X127061567Y-171096966D01*
X127061566Y-171096962D01*
X127042229Y-171068022D01*
X127006201Y-171014101D01*
X126929605Y-170962922D01*
X126923339Y-170958735D01*
X126923335Y-170958734D01*
X126850277Y-170944202D01*
X126850274Y-170944202D01*
X126089726Y-170944202D01*
X126089723Y-170944202D01*
X126016664Y-170958734D01*
X126016660Y-170958735D01*
X125933799Y-171014101D01*
X125878433Y-171096962D01*
X125878432Y-171096966D01*
X125863900Y-171170023D01*
X124926101Y-171170023D01*
X124911569Y-171096966D01*
X124911568Y-171096962D01*
X124873282Y-171039662D01*
X124856203Y-171014101D01*
X124856202Y-171014100D01*
X124775611Y-170960251D01*
X124730806Y-170906639D01*
X124720502Y-170857149D01*
X124720502Y-170484500D01*
X124740187Y-170417461D01*
X124792991Y-170371706D01*
X124844502Y-170360500D01*
X131692725Y-170360500D01*
X131692727Y-170360500D01*
X131794588Y-170333207D01*
X131885913Y-170280480D01*
X139919308Y-162247082D01*
X139980629Y-162213599D01*
X140031183Y-162213149D01*
X140058079Y-162218500D01*
X140058082Y-162218500D01*
X140205920Y-162218500D01*
X140303462Y-162199096D01*
X140350913Y-162189658D01*
X140487495Y-162133084D01*
X140610416Y-162050951D01*
X140714951Y-161946416D01*
X140797084Y-161823495D01*
X140853658Y-161686913D01*
X140882295Y-161542951D01*
X140882500Y-161541920D01*
X140882500Y-161394079D01*
X140853659Y-161249092D01*
X140853658Y-161249091D01*
X140853658Y-161249087D01*
X140843292Y-161224062D01*
X140797087Y-161112511D01*
X140797080Y-161112498D01*
X140714951Y-160989584D01*
X140714948Y-160989580D01*
X140610419Y-160885051D01*
X140610415Y-160885048D01*
X140487501Y-160802919D01*
X140487488Y-160802912D01*
X140350917Y-160746343D01*
X140350907Y-160746340D01*
X140205920Y-160717500D01*
X140205918Y-160717500D01*
X140058082Y-160717500D01*
X140058080Y-160717500D01*
X139913092Y-160746340D01*
X139913082Y-160746343D01*
X139776511Y-160802912D01*
X139776498Y-160802919D01*
X139653584Y-160885048D01*
X139653580Y-160885051D01*
X139549051Y-160989580D01*
X139549048Y-160989584D01*
X139466919Y-161112498D01*
X139466912Y-161112511D01*
X139410343Y-161249082D01*
X139410340Y-161249092D01*
X139381500Y-161394079D01*
X139381500Y-161394082D01*
X139381500Y-161541918D01*
X139383015Y-161549534D01*
X139386851Y-161568821D01*
X139380622Y-161638413D01*
X139352914Y-161680692D01*
X131510426Y-169523181D01*
X131449103Y-169556666D01*
X131422745Y-169559500D01*
X124397273Y-169559500D01*
X124295410Y-169586793D01*
X124204087Y-169639520D01*
X124204084Y-169639522D01*
X123999524Y-169844082D01*
X123999520Y-169844088D01*
X123946794Y-169935410D01*
X123946795Y-169935411D01*
X123919502Y-170037271D01*
X123919502Y-170857149D01*
X123899817Y-170924188D01*
X123864393Y-170960251D01*
X123783801Y-171014100D01*
X123728435Y-171096962D01*
X123728434Y-171096966D01*
X123713902Y-171170023D01*
X115680500Y-171170023D01*
X115680500Y-166670021D01*
X125863900Y-166670021D01*
X125863900Y-167709978D01*
X125878432Y-167783035D01*
X125878433Y-167783039D01*
X125889194Y-167799144D01*
X125933799Y-167865901D01*
X126016660Y-167921266D01*
X126016664Y-167921267D01*
X126089721Y-167935799D01*
X126089724Y-167935800D01*
X126089726Y-167935800D01*
X126850276Y-167935800D01*
X126850277Y-167935799D01*
X126923340Y-167921266D01*
X127006201Y-167865901D01*
X127061566Y-167783040D01*
X127076100Y-167709974D01*
X127076100Y-166670026D01*
X127076100Y-166670023D01*
X127076099Y-166670021D01*
X127061567Y-166596964D01*
X127061566Y-166596960D01*
X127006201Y-166514099D01*
X126941542Y-166470896D01*
X126923339Y-166458733D01*
X126923335Y-166458732D01*
X126850277Y-166444200D01*
X126850274Y-166444200D01*
X126089726Y-166444200D01*
X126089723Y-166444200D01*
X126016664Y-166458732D01*
X126016660Y-166458733D01*
X125933799Y-166514099D01*
X125878433Y-166596960D01*
X125878432Y-166596964D01*
X125863900Y-166670021D01*
X115680500Y-166670021D01*
X115680500Y-162306003D01*
X126115182Y-162306003D01*
X126115182Y-162522511D01*
X126127981Y-162603317D01*
X126149052Y-162736355D01*
X126215954Y-162942263D01*
X126215955Y-162942266D01*
X126299786Y-163106791D01*
X126314249Y-163135176D01*
X126441510Y-163310335D01*
X126594604Y-163463429D01*
X126769763Y-163590690D01*
X126837426Y-163625166D01*
X126962672Y-163688983D01*
X126962675Y-163688984D01*
X127002954Y-163702071D01*
X127168585Y-163755887D01*
X127382428Y-163789757D01*
X127382429Y-163789757D01*
X127598935Y-163789757D01*
X127598936Y-163789757D01*
X127812779Y-163755887D01*
X128018691Y-163688983D01*
X128211601Y-163590690D01*
X128386760Y-163463429D01*
X128539854Y-163310335D01*
X128667115Y-163135176D01*
X128765408Y-162942266D01*
X128832312Y-162736354D01*
X128866182Y-162522511D01*
X128866182Y-162306003D01*
X128832312Y-162092160D01*
X128798860Y-161989204D01*
X128765409Y-161886250D01*
X128765408Y-161886247D01*
X128694365Y-161746819D01*
X128667115Y-161693338D01*
X128539854Y-161518179D01*
X128386760Y-161365085D01*
X128211601Y-161237824D01*
X128184580Y-161224056D01*
X128018691Y-161139530D01*
X128018688Y-161139529D01*
X127812780Y-161072627D01*
X127705857Y-161055692D01*
X127598936Y-161038757D01*
X127382428Y-161038757D01*
X127325239Y-161047815D01*
X127168583Y-161072627D01*
X126962675Y-161139529D01*
X126962672Y-161139530D01*
X126769762Y-161237824D01*
X126738212Y-161260747D01*
X126594604Y-161365085D01*
X126594602Y-161365087D01*
X126594601Y-161365087D01*
X126441512Y-161518176D01*
X126441512Y-161518177D01*
X126441510Y-161518179D01*
X126423512Y-161542951D01*
X126314249Y-161693337D01*
X126215955Y-161886247D01*
X126215954Y-161886250D01*
X126149052Y-162092158D01*
X126129041Y-162218500D01*
X126115182Y-162306003D01*
X115680500Y-162306003D01*
X115680500Y-153121746D01*
X116794500Y-153121746D01*
X116794500Y-153338254D01*
X116809226Y-153431231D01*
X116828370Y-153552098D01*
X116895272Y-153758006D01*
X116895273Y-153758009D01*
X116980342Y-153924963D01*
X116993567Y-153950919D01*
X117120828Y-154126078D01*
X117273922Y-154279172D01*
X117449081Y-154406433D01*
X117526714Y-154445989D01*
X117641990Y-154504726D01*
X117641993Y-154504727D01*
X117699295Y-154523345D01*
X117847903Y-154571630D01*
X118061746Y-154605500D01*
X118061747Y-154605500D01*
X118278253Y-154605500D01*
X118278254Y-154605500D01*
X118492097Y-154571630D01*
X118698009Y-154504726D01*
X118890919Y-154406433D01*
X119066078Y-154279172D01*
X119219172Y-154126078D01*
X119346433Y-153950919D01*
X119444726Y-153758009D01*
X119511630Y-153552097D01*
X119545500Y-153338254D01*
X119545500Y-153121746D01*
X119511630Y-152907903D01*
X119444726Y-152701991D01*
X119444726Y-152701990D01*
X119370137Y-152555603D01*
X119346433Y-152509081D01*
X119269643Y-152403389D01*
X147429500Y-152403389D01*
X147429500Y-152576610D01*
X147449358Y-152701993D01*
X147456598Y-152747701D01*
X147510127Y-152912445D01*
X147588768Y-153066788D01*
X147690586Y-153206928D01*
X147813072Y-153329414D01*
X147953212Y-153431232D01*
X148107555Y-153509873D01*
X148272299Y-153563402D01*
X148443389Y-153590500D01*
X148443390Y-153590500D01*
X148616610Y-153590500D01*
X148616611Y-153590500D01*
X148787701Y-153563402D01*
X148952445Y-153509873D01*
X149106788Y-153431232D01*
X149246928Y-153329414D01*
X149369414Y-153206928D01*
X149471232Y-153066788D01*
X149549873Y-152912445D01*
X149603402Y-152747701D01*
X149630500Y-152576611D01*
X149630500Y-152403389D01*
X149603402Y-152232299D01*
X149549873Y-152067555D01*
X149471232Y-151913212D01*
X149369414Y-151773072D01*
X149246928Y-151650586D01*
X149106788Y-151548768D01*
X148952445Y-151470127D01*
X148787701Y-151416598D01*
X148787699Y-151416597D01*
X148787698Y-151416597D01*
X148652233Y-151395142D01*
X148616611Y-151389500D01*
X148443389Y-151389500D01*
X148407767Y-151395142D01*
X148272302Y-151416597D01*
X148107552Y-151470128D01*
X147953211Y-151548768D01*
X147893905Y-151591857D01*
X147813072Y-151650586D01*
X147813070Y-151650588D01*
X147813069Y-151650588D01*
X147690588Y-151773069D01*
X147690588Y-151773070D01*
X147690586Y-151773072D01*
X147684724Y-151781141D01*
X147588768Y-151913211D01*
X147510128Y-152067552D01*
X147456597Y-152232302D01*
X147429500Y-152403389D01*
X119269643Y-152403389D01*
X119219172Y-152333922D01*
X119066078Y-152180828D01*
X118890919Y-152053567D01*
X118850321Y-152032881D01*
X118698009Y-151955273D01*
X118698006Y-151955272D01*
X118492098Y-151888370D01*
X118385175Y-151871435D01*
X118278254Y-151854500D01*
X118061746Y-151854500D01*
X117990465Y-151865790D01*
X117847901Y-151888370D01*
X117641993Y-151955272D01*
X117641990Y-151955273D01*
X117449080Y-152053567D01*
X117403597Y-152086613D01*
X117273922Y-152180828D01*
X117273920Y-152180830D01*
X117273919Y-152180830D01*
X117120830Y-152333919D01*
X117120830Y-152333920D01*
X117120828Y-152333922D01*
X117117043Y-152339132D01*
X116993567Y-152509080D01*
X116895273Y-152701990D01*
X116895272Y-152701993D01*
X116828370Y-152907901D01*
X116799613Y-153089466D01*
X116794500Y-153121746D01*
X115680500Y-153121746D01*
X115680500Y-152694066D01*
X115680765Y-152685957D01*
X115683335Y-152646744D01*
X115696647Y-152443628D01*
X115698761Y-152427576D01*
X115745345Y-152193388D01*
X115749537Y-152177745D01*
X115826288Y-151951641D01*
X115832483Y-151936686D01*
X115938092Y-151722530D01*
X115946192Y-151708501D01*
X116078850Y-151509966D01*
X116088707Y-151497119D01*
X116246141Y-151317599D01*
X116257599Y-151306141D01*
X116437119Y-151148707D01*
X116449966Y-151138850D01*
X116648501Y-151006192D01*
X116662530Y-150998092D01*
X116876686Y-150892483D01*
X116891641Y-150886288D01*
X117117745Y-150809537D01*
X117133388Y-150805345D01*
X117367576Y-150758761D01*
X117383630Y-150756647D01*
X117605606Y-150742098D01*
X117625958Y-150740765D01*
X117634067Y-150740500D01*
X117646408Y-150740500D01*
X157507385Y-150740500D01*
X157574424Y-150760185D01*
G37*
G04 #@! TD.AperFunction*
G04 #@! TA.AperFunction,Conductor*
G36*
X216914042Y-150740765D02*
G01*
X216935951Y-150742200D01*
X217156367Y-150756647D01*
X217172424Y-150758762D01*
X217406607Y-150805344D01*
X217422257Y-150809538D01*
X217648352Y-150886287D01*
X217663318Y-150892485D01*
X217877463Y-150998089D01*
X217891504Y-151006196D01*
X218090026Y-151138845D01*
X218102890Y-151148716D01*
X218282394Y-151306136D01*
X218293863Y-151317605D01*
X218356913Y-151389500D01*
X218434527Y-151478003D01*
X218451283Y-151497109D01*
X218461156Y-151509976D01*
X218481392Y-151540261D01*
X218593803Y-151708495D01*
X218601912Y-151722541D01*
X218695940Y-151913212D01*
X218707508Y-151936668D01*
X218713715Y-151951654D01*
X218790459Y-152177735D01*
X218794657Y-152193401D01*
X218841235Y-152427560D01*
X218843353Y-152443642D01*
X218859235Y-152685956D01*
X218859500Y-152694066D01*
X218859500Y-188605933D01*
X218859235Y-188614043D01*
X218843353Y-188856357D01*
X218841235Y-188872439D01*
X218794657Y-189106598D01*
X218790459Y-189122264D01*
X218713715Y-189348345D01*
X218707508Y-189363331D01*
X218601913Y-189577457D01*
X218593803Y-189591504D01*
X218461157Y-189790022D01*
X218451283Y-189802890D01*
X218293863Y-189982394D01*
X218282394Y-189993863D01*
X218102890Y-190151283D01*
X218090022Y-190161157D01*
X217891504Y-190293803D01*
X217877457Y-190301913D01*
X217663331Y-190407508D01*
X217648345Y-190413715D01*
X217422264Y-190490459D01*
X217406598Y-190494657D01*
X217172439Y-190541235D01*
X217156357Y-190543353D01*
X216914043Y-190559235D01*
X216905933Y-190559500D01*
X182809500Y-190559500D01*
X182742461Y-190539815D01*
X182696706Y-190487011D01*
X182685500Y-190435500D01*
X182685500Y-187961746D01*
X214994500Y-187961746D01*
X214994500Y-188178253D01*
X215028370Y-188392098D01*
X215095272Y-188598006D01*
X215095273Y-188598009D01*
X215169863Y-188744397D01*
X215193567Y-188790919D01*
X215320828Y-188966078D01*
X215473922Y-189119172D01*
X215649081Y-189246433D01*
X215696366Y-189270526D01*
X215841990Y-189344726D01*
X215841993Y-189344727D01*
X215876815Y-189356041D01*
X216047903Y-189411630D01*
X216261746Y-189445500D01*
X216261747Y-189445500D01*
X216478253Y-189445500D01*
X216478254Y-189445500D01*
X216692097Y-189411630D01*
X216898009Y-189344726D01*
X217090919Y-189246433D01*
X217266078Y-189119172D01*
X217419172Y-188966078D01*
X217546433Y-188790919D01*
X217644726Y-188598009D01*
X217711630Y-188392097D01*
X217745500Y-188178254D01*
X217745500Y-187961746D01*
X217711630Y-187747903D01*
X217644726Y-187541991D01*
X217644726Y-187541990D01*
X217546432Y-187349080D01*
X217419172Y-187173922D01*
X217266078Y-187020828D01*
X217090919Y-186893567D01*
X216898009Y-186795273D01*
X216898006Y-186795272D01*
X216692098Y-186728370D01*
X216585175Y-186711435D01*
X216478254Y-186694500D01*
X216261746Y-186694500D01*
X216190465Y-186705790D01*
X216047901Y-186728370D01*
X215841993Y-186795272D01*
X215841990Y-186795273D01*
X215649080Y-186893567D01*
X215549145Y-186966174D01*
X215473922Y-187020828D01*
X215473920Y-187020830D01*
X215473919Y-187020830D01*
X215320830Y-187173919D01*
X215320830Y-187173920D01*
X215320828Y-187173922D01*
X215285683Y-187222295D01*
X215193567Y-187349080D01*
X215095273Y-187541990D01*
X215095272Y-187541993D01*
X215028370Y-187747901D01*
X214994500Y-187961746D01*
X182685500Y-187961746D01*
X182685500Y-187305816D01*
X182685500Y-187305810D01*
X182681063Y-187258399D01*
X182674245Y-187222295D01*
X182667663Y-187195480D01*
X182620648Y-187107572D01*
X182619919Y-187106685D01*
X182619685Y-187106132D01*
X182617263Y-187102510D01*
X182617949Y-187102050D01*
X182592590Y-187042386D01*
X182604362Y-186973515D01*
X182628065Y-186940322D01*
X182754634Y-186813754D01*
X182803868Y-186740067D01*
X182836766Y-186690833D01*
X182893340Y-186554251D01*
X182922182Y-186409256D01*
X182922182Y-185306003D01*
X184115182Y-185306003D01*
X184115182Y-185522510D01*
X184149052Y-185736355D01*
X184215954Y-185942263D01*
X184215955Y-185942266D01*
X184314249Y-186135176D01*
X184441510Y-186310335D01*
X184594604Y-186463429D01*
X184769763Y-186590690D01*
X184864379Y-186638899D01*
X184962672Y-186688983D01*
X184962675Y-186688984D01*
X185065629Y-186722435D01*
X185168585Y-186755887D01*
X185382428Y-186789757D01*
X185382429Y-186789757D01*
X185598935Y-186789757D01*
X185598936Y-186789757D01*
X185812779Y-186755887D01*
X186018691Y-186688983D01*
X186211601Y-186590690D01*
X186386760Y-186463429D01*
X186539854Y-186310335D01*
X186667115Y-186135176D01*
X186765408Y-185942266D01*
X186832312Y-185736354D01*
X186866182Y-185522511D01*
X186866182Y-185306003D01*
X186832312Y-185092160D01*
X186786869Y-184952299D01*
X186765409Y-184886250D01*
X186765408Y-184886247D01*
X186667114Y-184693337D01*
X186539854Y-184518179D01*
X186386760Y-184365085D01*
X186211601Y-184237824D01*
X186018691Y-184139530D01*
X186018688Y-184139529D01*
X185812780Y-184072627D01*
X185705857Y-184055692D01*
X185598936Y-184038757D01*
X185382428Y-184038757D01*
X185311147Y-184050047D01*
X185168583Y-184072627D01*
X184962675Y-184139529D01*
X184962672Y-184139530D01*
X184769762Y-184237824D01*
X184669827Y-184310431D01*
X184594604Y-184365085D01*
X184594602Y-184365087D01*
X184594601Y-184365087D01*
X184441512Y-184518176D01*
X184441512Y-184518177D01*
X184441510Y-184518179D01*
X184386856Y-184593402D01*
X184314249Y-184693337D01*
X184215955Y-184886247D01*
X184215954Y-184886250D01*
X184149052Y-185092158D01*
X184115182Y-185306003D01*
X182922182Y-185306003D01*
X182922182Y-181714082D01*
X182922182Y-178158082D01*
X182922182Y-177142082D01*
X182922182Y-173225920D01*
X202881499Y-173225920D01*
X202910340Y-173370907D01*
X202910343Y-173370917D01*
X202966912Y-173507488D01*
X202966919Y-173507501D01*
X203049048Y-173630415D01*
X203049051Y-173630419D01*
X203153580Y-173734948D01*
X203153584Y-173734951D01*
X203276498Y-173817080D01*
X203276511Y-173817087D01*
X203391617Y-173864765D01*
X203413087Y-173873658D01*
X203413091Y-173873658D01*
X203413092Y-173873659D01*
X203558079Y-173902500D01*
X203558082Y-173902500D01*
X203705919Y-173902500D01*
X203732818Y-173897149D01*
X203802410Y-173903375D01*
X203844692Y-173931085D01*
X211583181Y-181669573D01*
X211616666Y-181730896D01*
X211619500Y-181757254D01*
X211619500Y-182370440D01*
X211602888Y-182432439D01*
X211568608Y-182491813D01*
X211568608Y-182491814D01*
X211534500Y-182619108D01*
X211534500Y-183850935D01*
X211514815Y-183917974D01*
X211484811Y-183950202D01*
X211386384Y-184023884D01*
X211302289Y-184136219D01*
X211253248Y-184267700D01*
X211247000Y-184325809D01*
X211247000Y-184894190D01*
X211253248Y-184952299D01*
X211302289Y-185083780D01*
X211335851Y-185128612D01*
X211386384Y-185196116D01*
X211498722Y-185280212D01*
X211567871Y-185306003D01*
X211630200Y-185329251D01*
X211688309Y-185335499D01*
X211688326Y-185335500D01*
X212381674Y-185335500D01*
X212381690Y-185335499D01*
X212439799Y-185329251D01*
X212571278Y-185280212D01*
X212683616Y-185196116D01*
X212767712Y-185083778D01*
X212816751Y-184952299D01*
X212822999Y-184894190D01*
X212823000Y-184894173D01*
X212823000Y-184325826D01*
X212822999Y-184325809D01*
X212816751Y-184267700D01*
X212802165Y-184228594D01*
X212767712Y-184136222D01*
X212683616Y-184023884D01*
X212585188Y-183950201D01*
X212543318Y-183894268D01*
X212535500Y-183850935D01*
X212535500Y-183524500D01*
X212555185Y-183457461D01*
X212607989Y-183411706D01*
X212659500Y-183400500D01*
X212794676Y-183400500D01*
X212794677Y-183400499D01*
X212867740Y-183385966D01*
X212950601Y-183330601D01*
X213005966Y-183247740D01*
X213020500Y-183174674D01*
X213020500Y-181625326D01*
X213020500Y-181625323D01*
X213020499Y-181625321D01*
X213005967Y-181552264D01*
X213005966Y-181552260D01*
X212950601Y-181469399D01*
X212867740Y-181414034D01*
X212867739Y-181414033D01*
X212867735Y-181414032D01*
X212794677Y-181399500D01*
X212794674Y-181399500D01*
X212479271Y-181399500D01*
X212412232Y-181379815D01*
X212385479Y-181356611D01*
X212377774Y-181347701D01*
X212355480Y-181309087D01*
X212280913Y-181234520D01*
X212280910Y-181234518D01*
X208345987Y-177299595D01*
X204411085Y-173364692D01*
X204377600Y-173303369D01*
X204377149Y-173252818D01*
X204382500Y-173225918D01*
X204382500Y-173078079D01*
X204353659Y-172933092D01*
X204353658Y-172933091D01*
X204353658Y-172933087D01*
X204326078Y-172866503D01*
X204297087Y-172796511D01*
X204297080Y-172796498D01*
X204214951Y-172673584D01*
X204214948Y-172673580D01*
X204110419Y-172569051D01*
X204110415Y-172569048D01*
X203987501Y-172486919D01*
X203987488Y-172486912D01*
X203850917Y-172430343D01*
X203850907Y-172430340D01*
X203705920Y-172401500D01*
X203705918Y-172401500D01*
X203558082Y-172401500D01*
X203558080Y-172401500D01*
X203413092Y-172430340D01*
X203413082Y-172430343D01*
X203276511Y-172486912D01*
X203276498Y-172486919D01*
X203153584Y-172569048D01*
X203153580Y-172569051D01*
X203049051Y-172673580D01*
X203049048Y-172673584D01*
X202966919Y-172796498D01*
X202966912Y-172796511D01*
X202910343Y-172933082D01*
X202910340Y-172933092D01*
X202881500Y-173078079D01*
X202881500Y-173078082D01*
X202881500Y-173225918D01*
X202881500Y-173225920D01*
X202881499Y-173225920D01*
X182922182Y-173225920D01*
X182922182Y-172859918D01*
X182922182Y-172859915D01*
X182912833Y-172812916D01*
X182919060Y-172743324D01*
X182946767Y-172701045D01*
X183232994Y-172414819D01*
X183294317Y-172381334D01*
X183320675Y-172378500D01*
X183385920Y-172378500D01*
X183483462Y-172359096D01*
X183530913Y-172349658D01*
X183667495Y-172293084D01*
X183751109Y-172237214D01*
X183817786Y-172216337D01*
X183885166Y-172234821D01*
X183888891Y-172237215D01*
X183972498Y-172293080D01*
X183972511Y-172293087D01*
X184094109Y-172343454D01*
X184109087Y-172349658D01*
X184109091Y-172349658D01*
X184109092Y-172349659D01*
X184254079Y-172378500D01*
X184254082Y-172378500D01*
X184401920Y-172378500D01*
X184499462Y-172359096D01*
X184546913Y-172349658D01*
X184683495Y-172293084D01*
X184767109Y-172237214D01*
X184833786Y-172216337D01*
X184901166Y-172234821D01*
X184904891Y-172237215D01*
X184988498Y-172293080D01*
X184988511Y-172293087D01*
X185110109Y-172343454D01*
X185125087Y-172349658D01*
X185125091Y-172349658D01*
X185125092Y-172349659D01*
X185270079Y-172378500D01*
X185270082Y-172378500D01*
X185417920Y-172378500D01*
X185515462Y-172359096D01*
X185562913Y-172349658D01*
X185699495Y-172293084D01*
X185822416Y-172210951D01*
X185926951Y-172106416D01*
X186009084Y-171983495D01*
X186065658Y-171846913D01*
X186079845Y-171775590D01*
X186094500Y-171701920D01*
X186094500Y-171554079D01*
X186065659Y-171409092D01*
X186065658Y-171409091D01*
X186065658Y-171409087D01*
X186065656Y-171409082D01*
X186009087Y-171272511D01*
X186009080Y-171272498D01*
X185926951Y-171149584D01*
X185926948Y-171149580D01*
X185822419Y-171045051D01*
X185822415Y-171045048D01*
X185699501Y-170962919D01*
X185699488Y-170962912D01*
X185562917Y-170906343D01*
X185562907Y-170906340D01*
X185417920Y-170877500D01*
X185417918Y-170877500D01*
X185270082Y-170877500D01*
X185270080Y-170877500D01*
X185125092Y-170906340D01*
X185125082Y-170906343D01*
X184988511Y-170962912D01*
X184988493Y-170962922D01*
X184904890Y-171018784D01*
X184838213Y-171039662D01*
X184770833Y-171021177D01*
X184767110Y-171018784D01*
X184683506Y-170962922D01*
X184683488Y-170962912D01*
X184546917Y-170906343D01*
X184546907Y-170906340D01*
X184401920Y-170877500D01*
X184401918Y-170877500D01*
X184254082Y-170877500D01*
X184254080Y-170877500D01*
X184109092Y-170906340D01*
X184109082Y-170906343D01*
X183972511Y-170962912D01*
X183972493Y-170962922D01*
X183888890Y-171018784D01*
X183822213Y-171039662D01*
X183754833Y-171021177D01*
X183751110Y-171018784D01*
X183667506Y-170962922D01*
X183667488Y-170962912D01*
X183530917Y-170906343D01*
X183530907Y-170906340D01*
X183385920Y-170877500D01*
X183385918Y-170877500D01*
X183238082Y-170877500D01*
X183238080Y-170877500D01*
X183093092Y-170906340D01*
X183093082Y-170906343D01*
X182956511Y-170962912D01*
X182956498Y-170962919D01*
X182833584Y-171045048D01*
X182833580Y-171045051D01*
X182729051Y-171149580D01*
X182729048Y-171149584D01*
X182646919Y-171272498D01*
X182646912Y-171272511D01*
X182590343Y-171409082D01*
X182590340Y-171409092D01*
X182561500Y-171554079D01*
X182561500Y-171619324D01*
X182552855Y-171648764D01*
X182546332Y-171678751D01*
X182542577Y-171683766D01*
X182541815Y-171686363D01*
X182525181Y-171707005D01*
X182353381Y-171878805D01*
X182292058Y-171912290D01*
X182222366Y-171907306D01*
X182178019Y-171878805D01*
X180334969Y-170035755D01*
X180301484Y-169974432D01*
X180306468Y-169904740D01*
X180348340Y-169848807D01*
X180398457Y-169826457D01*
X180482913Y-169809658D01*
X180619495Y-169753084D01*
X180742416Y-169670951D01*
X180846951Y-169566416D01*
X180929084Y-169443495D01*
X180985658Y-169306913D01*
X181003765Y-169215886D01*
X181014500Y-169161920D01*
X181014500Y-169014079D01*
X180985659Y-168869092D01*
X180985658Y-168869091D01*
X180985658Y-168869087D01*
X180979831Y-168855020D01*
X180929087Y-168732511D01*
X180929080Y-168732498D01*
X180846951Y-168609584D01*
X180846948Y-168609580D01*
X180742419Y-168505051D01*
X180742415Y-168505048D01*
X180619501Y-168422919D01*
X180619488Y-168422912D01*
X180482917Y-168366343D01*
X180482907Y-168366340D01*
X180337920Y-168337500D01*
X180337918Y-168337500D01*
X180190082Y-168337500D01*
X180190081Y-168337500D01*
X180163176Y-168342851D01*
X180093585Y-168336622D01*
X180051307Y-168308914D01*
X176247137Y-164504744D01*
X176213652Y-164443421D01*
X176210818Y-164417063D01*
X176210818Y-162306003D01*
X184115182Y-162306003D01*
X184115182Y-162522511D01*
X184127981Y-162603317D01*
X184149052Y-162736355D01*
X184215954Y-162942263D01*
X184215955Y-162942266D01*
X184299786Y-163106791D01*
X184314249Y-163135176D01*
X184441510Y-163310335D01*
X184594604Y-163463429D01*
X184769763Y-163590690D01*
X184837426Y-163625166D01*
X184962672Y-163688983D01*
X184962675Y-163688984D01*
X185002954Y-163702071D01*
X185168585Y-163755887D01*
X185382428Y-163789757D01*
X185382429Y-163789757D01*
X185598935Y-163789757D01*
X185598936Y-163789757D01*
X185812779Y-163755887D01*
X186018691Y-163688983D01*
X186211601Y-163590690D01*
X186386760Y-163463429D01*
X186539854Y-163310335D01*
X186667115Y-163135176D01*
X186765408Y-162942266D01*
X186832312Y-162736354D01*
X186866182Y-162522511D01*
X186866182Y-162306003D01*
X186832312Y-162092160D01*
X186798860Y-161989204D01*
X186765409Y-161886250D01*
X186765408Y-161886247D01*
X186694365Y-161746819D01*
X186667115Y-161693338D01*
X186539854Y-161518179D01*
X186386760Y-161365085D01*
X186211601Y-161237824D01*
X186184580Y-161224056D01*
X186018691Y-161139530D01*
X186018688Y-161139529D01*
X185812780Y-161072627D01*
X185705857Y-161055692D01*
X185598936Y-161038757D01*
X185382428Y-161038757D01*
X185325239Y-161047815D01*
X185168583Y-161072627D01*
X184962675Y-161139529D01*
X184962672Y-161139530D01*
X184769762Y-161237824D01*
X184738212Y-161260747D01*
X184594604Y-161365085D01*
X184594602Y-161365087D01*
X184594601Y-161365087D01*
X184441512Y-161518176D01*
X184441512Y-161518177D01*
X184441510Y-161518179D01*
X184423512Y-161542951D01*
X184314249Y-161693337D01*
X184215955Y-161886247D01*
X184215954Y-161886250D01*
X184149052Y-162092158D01*
X184129041Y-162218500D01*
X184115182Y-162306003D01*
X176210818Y-162306003D01*
X176210818Y-159509920D01*
X190181499Y-159509920D01*
X190210340Y-159654907D01*
X190210343Y-159654917D01*
X190266912Y-159791488D01*
X190266919Y-159791501D01*
X190349048Y-159914415D01*
X190349051Y-159914419D01*
X190453580Y-160018948D01*
X190453584Y-160018951D01*
X190576498Y-160101080D01*
X190576511Y-160101087D01*
X190713082Y-160157656D01*
X190713087Y-160157658D01*
X190713091Y-160157658D01*
X190713092Y-160157659D01*
X190858079Y-160186500D01*
X190858082Y-160186500D01*
X191005920Y-160186500D01*
X191103462Y-160167096D01*
X191150913Y-160157658D01*
X191287495Y-160101084D01*
X191410416Y-160018951D01*
X191514951Y-159914416D01*
X191597084Y-159791495D01*
X191653658Y-159654913D01*
X191682500Y-159509918D01*
X191682500Y-159362082D01*
X191682500Y-159362079D01*
X191677149Y-159335179D01*
X191683376Y-159265587D01*
X191711083Y-159223308D01*
X193980624Y-156953769D01*
X194033351Y-156862444D01*
X194060644Y-156760583D01*
X194060644Y-156655129D01*
X194060644Y-156324634D01*
X194080329Y-156257595D01*
X194133133Y-156211840D01*
X194184644Y-156200634D01*
X194534820Y-156200634D01*
X194534821Y-156200633D01*
X194607884Y-156186100D01*
X194690745Y-156130735D01*
X194746110Y-156047874D01*
X194760644Y-155974808D01*
X194760644Y-154225460D01*
X194760644Y-154225457D01*
X194760643Y-154225455D01*
X194746111Y-154152398D01*
X194746110Y-154152394D01*
X194734419Y-154134897D01*
X194690745Y-154069533D01*
X194607884Y-154014168D01*
X194607883Y-154014167D01*
X194607879Y-154014166D01*
X194534821Y-153999634D01*
X194534818Y-153999634D01*
X192785470Y-153999634D01*
X192785467Y-153999634D01*
X192712408Y-154014166D01*
X192712404Y-154014167D01*
X192629543Y-154069533D01*
X192574177Y-154152394D01*
X192574176Y-154152398D01*
X192559644Y-154225455D01*
X192559644Y-155974812D01*
X192574176Y-156047869D01*
X192574177Y-156047873D01*
X192587275Y-156067476D01*
X192629543Y-156130735D01*
X192712404Y-156186100D01*
X192712408Y-156186101D01*
X192785465Y-156200633D01*
X192785468Y-156200634D01*
X192785470Y-156200634D01*
X193135644Y-156200634D01*
X193144329Y-156203184D01*
X193153291Y-156201896D01*
X193177331Y-156212874D01*
X193202683Y-156220319D01*
X193208610Y-156227159D01*
X193216847Y-156230921D01*
X193231136Y-156253155D01*
X193248438Y-156273123D01*
X193250725Y-156283637D01*
X193254621Y-156289699D01*
X193259644Y-156324634D01*
X193259644Y-156490600D01*
X193239959Y-156557639D01*
X193223325Y-156578281D01*
X191144691Y-158656914D01*
X191083368Y-158690399D01*
X191032820Y-158690851D01*
X191005918Y-158685500D01*
X190858082Y-158685500D01*
X190858080Y-158685500D01*
X190713092Y-158714340D01*
X190713082Y-158714343D01*
X190576511Y-158770912D01*
X190576498Y-158770919D01*
X190453584Y-158853048D01*
X190453580Y-158853051D01*
X190349051Y-158957580D01*
X190349048Y-158957584D01*
X190266919Y-159080498D01*
X190266912Y-159080511D01*
X190210343Y-159217082D01*
X190210340Y-159217092D01*
X190181500Y-159362079D01*
X190181500Y-159362082D01*
X190181500Y-159509918D01*
X190181500Y-159509920D01*
X190181499Y-159509920D01*
X176210818Y-159509920D01*
X176210818Y-155882947D01*
X176230503Y-155815908D01*
X176283307Y-155770153D01*
X176352465Y-155760209D01*
X176416021Y-155789234D01*
X176422499Y-155795266D01*
X176432390Y-155805157D01*
X176572530Y-155906975D01*
X176726873Y-155985616D01*
X176891617Y-156039145D01*
X177062707Y-156066243D01*
X177062708Y-156066243D01*
X177235928Y-156066243D01*
X177235929Y-156066243D01*
X177407019Y-156039145D01*
X177571763Y-155985616D01*
X177726106Y-155906975D01*
X177866246Y-155805157D01*
X177988732Y-155682671D01*
X178090550Y-155542531D01*
X178169191Y-155388188D01*
X178222720Y-155223444D01*
X178249818Y-155052354D01*
X178249818Y-154879132D01*
X178588818Y-154879132D01*
X178588818Y-155052353D01*
X178614960Y-155217413D01*
X178615916Y-155223444D01*
X178669445Y-155388188D01*
X178748086Y-155542531D01*
X178849904Y-155682671D01*
X178972390Y-155805157D01*
X179112530Y-155906975D01*
X179266873Y-155985616D01*
X179431617Y-156039145D01*
X179602707Y-156066243D01*
X179602708Y-156066243D01*
X179775928Y-156066243D01*
X179775929Y-156066243D01*
X179947019Y-156039145D01*
X180111763Y-155985616D01*
X180266106Y-155906975D01*
X180406246Y-155805157D01*
X180528732Y-155682671D01*
X180630550Y-155542531D01*
X180709191Y-155388188D01*
X180762720Y-155223444D01*
X180789818Y-155052354D01*
X180789818Y-154879132D01*
X181128818Y-154879132D01*
X181128818Y-155052353D01*
X181154960Y-155217413D01*
X181155916Y-155223444D01*
X181209445Y-155388188D01*
X181288086Y-155542531D01*
X181389904Y-155682671D01*
X181512390Y-155805157D01*
X181652530Y-155906975D01*
X181806873Y-155985616D01*
X181971617Y-156039145D01*
X182142707Y-156066243D01*
X182142708Y-156066243D01*
X182315928Y-156066243D01*
X182315929Y-156066243D01*
X182487019Y-156039145D01*
X182651763Y-155985616D01*
X182806106Y-155906975D01*
X182946246Y-155805157D01*
X183068732Y-155682671D01*
X183170550Y-155542531D01*
X183249191Y-155388188D01*
X183302720Y-155223444D01*
X183329818Y-155052354D01*
X183329818Y-155013523D01*
X187479644Y-155013523D01*
X187479644Y-155186744D01*
X187500634Y-155319275D01*
X187506742Y-155357835D01*
X187560271Y-155522579D01*
X187638912Y-155676922D01*
X187740730Y-155817062D01*
X187863216Y-155939548D01*
X188003356Y-156041366D01*
X188157699Y-156120007D01*
X188322443Y-156173536D01*
X188493533Y-156200634D01*
X188493534Y-156200634D01*
X188666754Y-156200634D01*
X188666755Y-156200634D01*
X188837845Y-156173536D01*
X189002589Y-156120007D01*
X189156932Y-156041366D01*
X189297072Y-155939548D01*
X189419558Y-155817062D01*
X189521376Y-155676922D01*
X189600017Y-155522579D01*
X189653546Y-155357835D01*
X189680644Y-155186745D01*
X189680644Y-155013523D01*
X190019644Y-155013523D01*
X190019644Y-155186744D01*
X190040634Y-155319275D01*
X190046742Y-155357835D01*
X190100271Y-155522579D01*
X190178912Y-155676922D01*
X190280730Y-155817062D01*
X190403216Y-155939548D01*
X190543356Y-156041366D01*
X190697699Y-156120007D01*
X190862443Y-156173536D01*
X191033533Y-156200634D01*
X191033534Y-156200634D01*
X191206754Y-156200634D01*
X191206755Y-156200634D01*
X191377845Y-156173536D01*
X191542589Y-156120007D01*
X191696932Y-156041366D01*
X191837072Y-155939548D01*
X191959558Y-155817062D01*
X192061376Y-155676922D01*
X192140017Y-155522579D01*
X192193546Y-155357835D01*
X192220644Y-155186745D01*
X192220644Y-155013523D01*
X192193546Y-154842433D01*
X192140017Y-154677689D01*
X192061376Y-154523346D01*
X191959558Y-154383206D01*
X191837072Y-154260720D01*
X191696932Y-154158902D01*
X191542589Y-154080261D01*
X191377845Y-154026732D01*
X191377843Y-154026731D01*
X191377842Y-154026731D01*
X191246415Y-154005915D01*
X191206755Y-153999634D01*
X191033533Y-153999634D01*
X190993872Y-154005915D01*
X190862446Y-154026731D01*
X190697696Y-154080262D01*
X190543355Y-154158902D01*
X190499744Y-154190588D01*
X190403216Y-154260720D01*
X190403214Y-154260722D01*
X190403213Y-154260722D01*
X190280732Y-154383203D01*
X190280732Y-154383204D01*
X190280730Y-154383206D01*
X190263855Y-154406433D01*
X190178912Y-154523345D01*
X190100272Y-154677686D01*
X190046741Y-154842436D01*
X190019644Y-155013523D01*
X189680644Y-155013523D01*
X189653546Y-154842433D01*
X189600017Y-154677689D01*
X189521376Y-154523346D01*
X189419558Y-154383206D01*
X189297072Y-154260720D01*
X189156932Y-154158902D01*
X189002589Y-154080261D01*
X188837845Y-154026732D01*
X188837843Y-154026731D01*
X188837842Y-154026731D01*
X188706415Y-154005915D01*
X188666755Y-153999634D01*
X188493533Y-153999634D01*
X188453872Y-154005915D01*
X188322446Y-154026731D01*
X188157696Y-154080262D01*
X188003355Y-154158902D01*
X187959744Y-154190588D01*
X187863216Y-154260720D01*
X187863214Y-154260722D01*
X187863213Y-154260722D01*
X187740732Y-154383203D01*
X187740732Y-154383204D01*
X187740730Y-154383206D01*
X187723855Y-154406433D01*
X187638912Y-154523345D01*
X187560272Y-154677686D01*
X187506741Y-154842436D01*
X187479644Y-155013523D01*
X183329818Y-155013523D01*
X183329818Y-154879132D01*
X183302720Y-154708042D01*
X183249191Y-154543298D01*
X183170550Y-154388955D01*
X183068732Y-154248815D01*
X182946246Y-154126329D01*
X182806106Y-154024511D01*
X182651763Y-153945870D01*
X182487019Y-153892341D01*
X182487017Y-153892340D01*
X182487016Y-153892340D01*
X182355589Y-153871524D01*
X182315929Y-153865243D01*
X182142707Y-153865243D01*
X182103046Y-153871524D01*
X181971620Y-153892340D01*
X181806870Y-153945871D01*
X181652529Y-154024511D01*
X181619458Y-154048539D01*
X181512390Y-154126329D01*
X181512388Y-154126331D01*
X181512387Y-154126331D01*
X181389906Y-154248812D01*
X181389906Y-154248813D01*
X181389904Y-154248815D01*
X181351253Y-154302014D01*
X181288086Y-154388954D01*
X181209446Y-154543295D01*
X181209445Y-154543297D01*
X181209445Y-154543298D01*
X181189234Y-154605500D01*
X181155915Y-154708045D01*
X181128818Y-154879132D01*
X180789818Y-154879132D01*
X180762720Y-154708042D01*
X180709191Y-154543298D01*
X180630550Y-154388955D01*
X180528732Y-154248815D01*
X180406246Y-154126329D01*
X180266106Y-154024511D01*
X180111763Y-153945870D01*
X179947019Y-153892341D01*
X179947017Y-153892340D01*
X179947016Y-153892340D01*
X179815589Y-153871524D01*
X179775929Y-153865243D01*
X179602707Y-153865243D01*
X179563046Y-153871524D01*
X179431620Y-153892340D01*
X179266870Y-153945871D01*
X179112529Y-154024511D01*
X179079458Y-154048539D01*
X178972390Y-154126329D01*
X178972388Y-154126331D01*
X178972387Y-154126331D01*
X178849906Y-154248812D01*
X178849906Y-154248813D01*
X178849904Y-154248815D01*
X178811253Y-154302014D01*
X178748086Y-154388954D01*
X178669446Y-154543295D01*
X178669445Y-154543297D01*
X178669445Y-154543298D01*
X178649234Y-154605500D01*
X178615915Y-154708045D01*
X178588818Y-154879132D01*
X178249818Y-154879132D01*
X178222720Y-154708042D01*
X178169191Y-154543298D01*
X178090550Y-154388955D01*
X177988732Y-154248815D01*
X177866246Y-154126329D01*
X177726106Y-154024511D01*
X177571763Y-153945870D01*
X177407019Y-153892341D01*
X177407017Y-153892340D01*
X177407016Y-153892340D01*
X177275589Y-153871524D01*
X177235929Y-153865243D01*
X177062707Y-153865243D01*
X177023046Y-153871524D01*
X176891620Y-153892340D01*
X176726870Y-153945871D01*
X176572529Y-154024511D01*
X176539458Y-154048539D01*
X176432390Y-154126329D01*
X176432388Y-154126331D01*
X176432387Y-154126331D01*
X176422499Y-154136220D01*
X176361176Y-154169705D01*
X176291484Y-154164721D01*
X176235551Y-154122849D01*
X176211134Y-154057385D01*
X176210818Y-154048539D01*
X176210818Y-153574018D01*
X176210818Y-153574016D01*
X176183525Y-153472156D01*
X176130798Y-153380830D01*
X176056231Y-153306263D01*
X175675311Y-152925343D01*
X175641826Y-152864020D01*
X175645060Y-152799346D01*
X175682720Y-152683444D01*
X175709818Y-152512354D01*
X175709818Y-152339132D01*
X175682720Y-152168042D01*
X175629191Y-152003298D01*
X175550550Y-151848955D01*
X175448732Y-151708815D01*
X175326246Y-151586329D01*
X175229195Y-151515817D01*
X175186531Y-151460488D01*
X175180552Y-151390874D01*
X175213158Y-151329079D01*
X175273997Y-151294722D01*
X175302082Y-151291500D01*
X176456554Y-151291500D01*
X176523593Y-151311185D01*
X176569348Y-151363989D01*
X176579292Y-151433147D01*
X176550267Y-151496703D01*
X176529440Y-151515817D01*
X176432390Y-151586329D01*
X176432388Y-151586331D01*
X176432387Y-151586331D01*
X176309906Y-151708812D01*
X176309906Y-151708813D01*
X176309904Y-151708815D01*
X176291958Y-151733516D01*
X176208086Y-151848954D01*
X176129446Y-152003295D01*
X176075915Y-152168045D01*
X176054630Y-152302436D01*
X176048818Y-152339132D01*
X176048818Y-152512354D01*
X176075916Y-152683444D01*
X176129445Y-152848188D01*
X176208086Y-153002531D01*
X176309904Y-153142671D01*
X176432390Y-153265157D01*
X176572530Y-153366975D01*
X176726873Y-153445616D01*
X176891617Y-153499145D01*
X177062707Y-153526243D01*
X177062708Y-153526243D01*
X177235928Y-153526243D01*
X177235929Y-153526243D01*
X177407019Y-153499145D01*
X177571763Y-153445616D01*
X177726106Y-153366975D01*
X177866246Y-153265157D01*
X177988732Y-153142671D01*
X178090550Y-153002531D01*
X178169191Y-152848188D01*
X178222720Y-152683444D01*
X178249818Y-152512354D01*
X178249818Y-152339132D01*
X178222720Y-152168042D01*
X178169191Y-152003298D01*
X178090550Y-151848955D01*
X177988732Y-151708815D01*
X177866246Y-151586329D01*
X177769195Y-151515817D01*
X177726531Y-151460488D01*
X177720552Y-151390874D01*
X177753158Y-151329079D01*
X177813997Y-151294722D01*
X177842082Y-151291500D01*
X181536554Y-151291500D01*
X181603593Y-151311185D01*
X181649348Y-151363989D01*
X181659292Y-151433147D01*
X181630267Y-151496703D01*
X181609440Y-151515817D01*
X181512390Y-151586329D01*
X181512388Y-151586331D01*
X181512387Y-151586331D01*
X181389906Y-151708812D01*
X181389906Y-151708813D01*
X181389904Y-151708815D01*
X181371958Y-151733516D01*
X181288086Y-151848954D01*
X181209446Y-152003295D01*
X181155915Y-152168045D01*
X181134630Y-152302436D01*
X181128818Y-152339132D01*
X181128818Y-152512354D01*
X181155916Y-152683444D01*
X181209445Y-152848188D01*
X181288086Y-153002531D01*
X181389904Y-153142671D01*
X181512390Y-153265157D01*
X181652530Y-153366975D01*
X181806873Y-153445616D01*
X181971617Y-153499145D01*
X182142707Y-153526243D01*
X182142708Y-153526243D01*
X182315928Y-153526243D01*
X182315929Y-153526243D01*
X182487019Y-153499145D01*
X182651763Y-153445616D01*
X182806106Y-153366975D01*
X182946246Y-153265157D01*
X183068732Y-153142671D01*
X183170550Y-153002531D01*
X183249191Y-152848188D01*
X183302720Y-152683444D01*
X183329818Y-152512354D01*
X183329818Y-152339132D01*
X183302720Y-152168042D01*
X183249191Y-152003298D01*
X183170550Y-151848955D01*
X183068732Y-151708815D01*
X182946246Y-151586329D01*
X182849195Y-151515817D01*
X182806531Y-151460488D01*
X182800552Y-151390874D01*
X182833158Y-151329079D01*
X182893997Y-151294722D01*
X182922082Y-151291500D01*
X190680402Y-151291500D01*
X190747441Y-151311185D01*
X190793196Y-151363989D01*
X190803140Y-151433147D01*
X190774115Y-151496703D01*
X190718722Y-151533429D01*
X190709201Y-151536523D01*
X190697694Y-151540262D01*
X190543355Y-151618902D01*
X190499744Y-151650588D01*
X190403216Y-151720720D01*
X190403214Y-151720722D01*
X190403213Y-151720722D01*
X190280732Y-151843203D01*
X190280732Y-151843204D01*
X190280730Y-151843206D01*
X190247916Y-151888370D01*
X190178912Y-151983345D01*
X190100272Y-152137686D01*
X190046741Y-152302436D01*
X190019980Y-152471403D01*
X190019644Y-152473523D01*
X190019644Y-152646745D01*
X190046742Y-152817835D01*
X190100271Y-152982579D01*
X190178912Y-153136922D01*
X190280730Y-153277062D01*
X190403216Y-153399548D01*
X190543356Y-153501366D01*
X190697699Y-153580007D01*
X190862443Y-153633536D01*
X191033533Y-153660634D01*
X191033534Y-153660634D01*
X191206754Y-153660634D01*
X191206755Y-153660634D01*
X191377845Y-153633536D01*
X191542589Y-153580007D01*
X191696932Y-153501366D01*
X191837072Y-153399548D01*
X191959558Y-153277062D01*
X192061376Y-153136922D01*
X192140017Y-152982579D01*
X192193546Y-152817835D01*
X192220644Y-152646745D01*
X192220644Y-152473523D01*
X192193546Y-152302433D01*
X192140017Y-152137689D01*
X192061376Y-151983346D01*
X191959558Y-151843206D01*
X191837072Y-151720720D01*
X191696932Y-151618902D01*
X191542593Y-151540262D01*
X191534874Y-151537754D01*
X191521565Y-151533430D01*
X191463892Y-151493993D01*
X191436694Y-151429634D01*
X191448609Y-151360788D01*
X191495853Y-151309312D01*
X191559886Y-151291500D01*
X193220402Y-151291500D01*
X193287441Y-151311185D01*
X193333196Y-151363989D01*
X193343140Y-151433147D01*
X193314115Y-151496703D01*
X193258722Y-151533429D01*
X193249201Y-151536523D01*
X193237694Y-151540262D01*
X193083355Y-151618902D01*
X193039744Y-151650588D01*
X192943216Y-151720720D01*
X192943214Y-151720722D01*
X192943213Y-151720722D01*
X192820732Y-151843203D01*
X192820732Y-151843204D01*
X192820730Y-151843206D01*
X192787916Y-151888370D01*
X192718912Y-151983345D01*
X192640272Y-152137686D01*
X192586741Y-152302436D01*
X192559980Y-152471403D01*
X192559644Y-152473523D01*
X192559644Y-152646745D01*
X192586742Y-152817835D01*
X192640271Y-152982579D01*
X192718912Y-153136922D01*
X192820730Y-153277062D01*
X192943216Y-153399548D01*
X193083356Y-153501366D01*
X193237699Y-153580007D01*
X193402443Y-153633536D01*
X193573533Y-153660634D01*
X193573534Y-153660634D01*
X193746754Y-153660634D01*
X193746755Y-153660634D01*
X193917845Y-153633536D01*
X194082589Y-153580007D01*
X194236932Y-153501366D01*
X194377072Y-153399548D01*
X194499558Y-153277062D01*
X194601376Y-153136922D01*
X194680017Y-152982579D01*
X194733546Y-152817835D01*
X194760644Y-152646745D01*
X194760644Y-152473523D01*
X194733546Y-152302433D01*
X194680017Y-152137689D01*
X194601376Y-151983346D01*
X194499558Y-151843206D01*
X194377072Y-151720720D01*
X194236932Y-151618902D01*
X194082593Y-151540262D01*
X194074874Y-151537754D01*
X194061565Y-151533430D01*
X194003892Y-151493993D01*
X193976694Y-151429634D01*
X193988609Y-151360788D01*
X194035853Y-151309312D01*
X194099886Y-151291500D01*
X200965745Y-151291500D01*
X201032784Y-151311185D01*
X201053426Y-151327819D01*
X205227181Y-155501574D01*
X205260666Y-155562897D01*
X205263500Y-155589255D01*
X205263500Y-173246726D01*
X205290793Y-173348589D01*
X205315331Y-173391088D01*
X205343520Y-173439913D01*
X214624087Y-182720480D01*
X214715412Y-182773207D01*
X214817273Y-182800500D01*
X214817274Y-182800500D01*
X214825123Y-182802603D01*
X214824378Y-182805381D01*
X214875575Y-182828025D01*
X214914050Y-182886346D01*
X214919500Y-182922703D01*
X214919500Y-183174678D01*
X214934032Y-183247735D01*
X214934033Y-183247739D01*
X214934034Y-183247740D01*
X214989399Y-183330601D01*
X215072260Y-183385966D01*
X215072264Y-183385967D01*
X215145321Y-183400499D01*
X215145324Y-183400500D01*
X215145326Y-183400500D01*
X216094676Y-183400500D01*
X216094677Y-183400499D01*
X216167740Y-183385966D01*
X216250601Y-183330601D01*
X216305966Y-183247740D01*
X216320500Y-183174674D01*
X216320500Y-181625326D01*
X216320500Y-181625323D01*
X216320499Y-181625321D01*
X216305967Y-181552264D01*
X216305966Y-181552260D01*
X216250601Y-181469399D01*
X216167740Y-181414034D01*
X216167739Y-181414033D01*
X216167735Y-181414032D01*
X216094677Y-181399500D01*
X216094674Y-181399500D01*
X215145326Y-181399500D01*
X215145323Y-181399500D01*
X215072264Y-181414032D01*
X215072260Y-181414033D01*
X214989399Y-181469399D01*
X214934033Y-181552260D01*
X214934032Y-181552263D01*
X214921989Y-181612809D01*
X214889604Y-181674720D01*
X214828888Y-181709294D01*
X214759118Y-181705553D01*
X214712691Y-181676298D01*
X211748248Y-178711855D01*
X211714763Y-178650532D01*
X211719747Y-178580840D01*
X211761619Y-178524907D01*
X211827083Y-178500490D01*
X211839234Y-178500653D01*
X211839234Y-178500500D01*
X212794676Y-178500500D01*
X212794677Y-178500499D01*
X212867740Y-178485966D01*
X212950601Y-178430601D01*
X213005966Y-178347740D01*
X213020500Y-178274674D01*
X213020500Y-176725326D01*
X213020500Y-176725323D01*
X213020499Y-176725321D01*
X213005967Y-176652264D01*
X213005966Y-176652260D01*
X212970991Y-176599916D01*
X212950601Y-176569399D01*
X212894085Y-176531637D01*
X212867739Y-176514033D01*
X212867736Y-176514032D01*
X212820308Y-176504598D01*
X212758397Y-176472212D01*
X212723823Y-176411496D01*
X212720500Y-176382981D01*
X212720500Y-175844229D01*
X212740185Y-175777190D01*
X212756814Y-175756552D01*
X212850951Y-175662416D01*
X212933084Y-175539495D01*
X212937090Y-175529825D01*
X212948077Y-175503299D01*
X212989658Y-175402913D01*
X213002643Y-175337633D01*
X213018500Y-175257920D01*
X213018500Y-175110079D01*
X212989659Y-174965092D01*
X212989658Y-174965091D01*
X212989658Y-174965087D01*
X212985052Y-174953968D01*
X212933087Y-174828511D01*
X212933080Y-174828498D01*
X212850951Y-174705584D01*
X212850948Y-174705580D01*
X212746419Y-174601051D01*
X212746415Y-174601048D01*
X212623501Y-174518919D01*
X212623488Y-174518912D01*
X212486917Y-174462343D01*
X212486907Y-174462340D01*
X212341920Y-174433500D01*
X212341918Y-174433500D01*
X212194082Y-174433500D01*
X212194080Y-174433500D01*
X212049092Y-174462340D01*
X212049082Y-174462343D01*
X211912511Y-174518912D01*
X211912498Y-174518919D01*
X211789584Y-174601048D01*
X211789580Y-174601051D01*
X211685051Y-174705580D01*
X211685048Y-174705584D01*
X211602919Y-174828498D01*
X211602912Y-174828511D01*
X211546343Y-174965082D01*
X211546340Y-174965092D01*
X211517500Y-175110079D01*
X211517500Y-175110082D01*
X211517500Y-175257918D01*
X211517500Y-175257920D01*
X211517499Y-175257920D01*
X211546340Y-175402907D01*
X211546343Y-175402917D01*
X211602912Y-175539488D01*
X211602919Y-175539501D01*
X211685048Y-175662415D01*
X211685051Y-175662419D01*
X211789581Y-175766949D01*
X211789584Y-175766951D01*
X211864391Y-175816935D01*
X211909195Y-175870546D01*
X211919500Y-175920037D01*
X211919500Y-176382981D01*
X211899815Y-176450020D01*
X211847011Y-176495775D01*
X211819692Y-176504598D01*
X211772263Y-176514032D01*
X211772260Y-176514033D01*
X211689399Y-176569399D01*
X211634033Y-176652260D01*
X211634032Y-176652264D01*
X211619500Y-176725321D01*
X211619500Y-178280766D01*
X211617552Y-178280766D01*
X211606202Y-178340576D01*
X211558131Y-178391280D01*
X211490278Y-178407946D01*
X211424186Y-178385282D01*
X211408144Y-178371751D01*
X206100819Y-173064426D01*
X206067334Y-173003103D01*
X206064500Y-172976745D01*
X206064500Y-161033920D01*
X211009499Y-161033920D01*
X211038340Y-161178907D01*
X211038343Y-161178917D01*
X211094912Y-161315488D01*
X211094919Y-161315501D01*
X211177048Y-161438415D01*
X211177051Y-161438419D01*
X211281580Y-161542948D01*
X211281584Y-161542951D01*
X211404498Y-161625080D01*
X211404511Y-161625087D01*
X211538755Y-161680692D01*
X211541087Y-161681658D01*
X211541091Y-161681658D01*
X211541092Y-161681659D01*
X211686079Y-161710500D01*
X211686082Y-161710500D01*
X211732745Y-161710500D01*
X211799784Y-161730185D01*
X211820426Y-161746819D01*
X213177583Y-163103975D01*
X213211068Y-163165298D01*
X213213902Y-163191656D01*
X213213902Y-163699980D01*
X213228434Y-163773037D01*
X213228435Y-163773041D01*
X213228436Y-163773042D01*
X213283801Y-163855903D01*
X213366662Y-163911268D01*
X213366666Y-163911269D01*
X213439723Y-163925801D01*
X213439726Y-163925802D01*
X213439728Y-163925802D01*
X214200278Y-163925802D01*
X214200279Y-163925801D01*
X214273342Y-163911268D01*
X214356203Y-163855903D01*
X214411568Y-163773042D01*
X214426102Y-163699976D01*
X214426102Y-162660028D01*
X214426102Y-162660025D01*
X214426101Y-162660023D01*
X215363900Y-162660023D01*
X215363900Y-163699980D01*
X215378432Y-163773037D01*
X215378433Y-163773041D01*
X215378434Y-163773042D01*
X215433799Y-163855903D01*
X215516660Y-163911268D01*
X215516664Y-163911269D01*
X215589721Y-163925801D01*
X215589724Y-163925802D01*
X215589726Y-163925802D01*
X216350276Y-163925802D01*
X216350277Y-163925801D01*
X216423340Y-163911268D01*
X216506201Y-163855903D01*
X216561566Y-163773042D01*
X216576100Y-163699976D01*
X216576100Y-162660028D01*
X216576100Y-162660025D01*
X216576099Y-162660023D01*
X216561567Y-162586966D01*
X216561566Y-162586962D01*
X216537682Y-162551217D01*
X216506201Y-162504101D01*
X216447273Y-162464727D01*
X216423339Y-162448735D01*
X216423335Y-162448734D01*
X216350277Y-162434202D01*
X216350274Y-162434202D01*
X215589726Y-162434202D01*
X215589723Y-162434202D01*
X215516664Y-162448734D01*
X215516660Y-162448735D01*
X215433799Y-162504101D01*
X215378433Y-162586962D01*
X215378432Y-162586966D01*
X215363900Y-162660023D01*
X214426101Y-162660023D01*
X214411569Y-162586966D01*
X214411568Y-162586962D01*
X214387684Y-162551217D01*
X214356203Y-162504101D01*
X214297275Y-162464727D01*
X214273341Y-162448735D01*
X214273337Y-162448734D01*
X214200279Y-162434202D01*
X214200276Y-162434202D01*
X213691956Y-162434202D01*
X213624917Y-162414517D01*
X213604275Y-162397883D01*
X212511786Y-161305393D01*
X212478301Y-161244070D01*
X212480681Y-161184928D01*
X212480470Y-161184887D01*
X212480736Y-161183545D01*
X212480811Y-161181701D01*
X212481651Y-161178927D01*
X212481658Y-161178913D01*
X212507736Y-161047815D01*
X212510500Y-161033920D01*
X212510500Y-160886079D01*
X212481659Y-160741092D01*
X212481658Y-160741091D01*
X212481658Y-160741087D01*
X212443523Y-160649020D01*
X212425087Y-160604511D01*
X212425080Y-160604498D01*
X212342951Y-160481584D01*
X212342948Y-160481580D01*
X212238419Y-160377051D01*
X212238415Y-160377048D01*
X212115501Y-160294919D01*
X212115488Y-160294912D01*
X211978917Y-160238343D01*
X211978907Y-160238340D01*
X211833920Y-160209500D01*
X211833918Y-160209500D01*
X211686082Y-160209500D01*
X211686080Y-160209500D01*
X211541092Y-160238340D01*
X211541082Y-160238343D01*
X211404511Y-160294912D01*
X211404498Y-160294919D01*
X211281584Y-160377048D01*
X211281580Y-160377051D01*
X211177051Y-160481580D01*
X211177048Y-160481584D01*
X211094919Y-160604498D01*
X211094912Y-160604511D01*
X211038343Y-160741082D01*
X211038340Y-160741092D01*
X211009500Y-160886079D01*
X211009500Y-160886082D01*
X211009500Y-161033918D01*
X211009500Y-161033920D01*
X211009499Y-161033920D01*
X206064500Y-161033920D01*
X206064500Y-158160021D01*
X215363900Y-158160021D01*
X215363900Y-159199978D01*
X215378432Y-159273035D01*
X215378433Y-159273039D01*
X215378434Y-159273040D01*
X215433799Y-159355901D01*
X215516660Y-159411266D01*
X215516664Y-159411267D01*
X215589721Y-159425799D01*
X215589724Y-159425800D01*
X215589726Y-159425800D01*
X216350276Y-159425800D01*
X216350277Y-159425799D01*
X216423340Y-159411266D01*
X216506201Y-159355901D01*
X216561566Y-159273040D01*
X216576100Y-159199974D01*
X216576100Y-158160026D01*
X216576100Y-158160023D01*
X216576099Y-158160021D01*
X216561567Y-158086964D01*
X216561566Y-158086960D01*
X216537108Y-158050356D01*
X216506201Y-158004099D01*
X216423340Y-157948734D01*
X216423339Y-157948733D01*
X216423335Y-157948732D01*
X216350277Y-157934200D01*
X216350274Y-157934200D01*
X215589726Y-157934200D01*
X215589723Y-157934200D01*
X215516664Y-157948732D01*
X215516660Y-157948733D01*
X215433799Y-158004099D01*
X215378433Y-158086960D01*
X215378432Y-158086964D01*
X215363900Y-158160021D01*
X206064500Y-158160021D01*
X206064500Y-155319275D01*
X206064500Y-155319273D01*
X206037207Y-155217413D01*
X206037207Y-155217412D01*
X205984480Y-155126087D01*
X203980139Y-153121746D01*
X214994500Y-153121746D01*
X214994500Y-153338254D01*
X215009226Y-153431231D01*
X215028370Y-153552098D01*
X215095272Y-153758006D01*
X215095273Y-153758009D01*
X215180342Y-153924963D01*
X215193567Y-153950919D01*
X215320828Y-154126078D01*
X215473922Y-154279172D01*
X215649081Y-154406433D01*
X215726714Y-154445989D01*
X215841990Y-154504726D01*
X215841993Y-154504727D01*
X215899295Y-154523345D01*
X216047903Y-154571630D01*
X216261746Y-154605500D01*
X216261747Y-154605500D01*
X216478253Y-154605500D01*
X216478254Y-154605500D01*
X216692097Y-154571630D01*
X216898009Y-154504726D01*
X217090919Y-154406433D01*
X217266078Y-154279172D01*
X217419172Y-154126078D01*
X217546433Y-153950919D01*
X217644726Y-153758009D01*
X217711630Y-153552097D01*
X217745500Y-153338254D01*
X217745500Y-153121746D01*
X217711630Y-152907903D01*
X217644726Y-152701991D01*
X217644726Y-152701990D01*
X217570137Y-152555603D01*
X217546433Y-152509081D01*
X217419172Y-152333922D01*
X217266078Y-152180828D01*
X217090919Y-152053567D01*
X217050321Y-152032881D01*
X216898009Y-151955273D01*
X216898006Y-151955272D01*
X216692098Y-151888370D01*
X216585175Y-151871435D01*
X216478254Y-151854500D01*
X216261746Y-151854500D01*
X216190465Y-151865790D01*
X216047901Y-151888370D01*
X215841993Y-151955272D01*
X215841990Y-151955273D01*
X215649080Y-152053567D01*
X215603597Y-152086613D01*
X215473922Y-152180828D01*
X215473920Y-152180830D01*
X215473919Y-152180830D01*
X215320830Y-152333919D01*
X215320830Y-152333920D01*
X215320828Y-152333922D01*
X215317043Y-152339132D01*
X215193567Y-152509080D01*
X215095273Y-152701990D01*
X215095272Y-152701993D01*
X215028370Y-152907901D01*
X214999613Y-153089466D01*
X214994500Y-153121746D01*
X203980139Y-153121746D01*
X201810574Y-150952181D01*
X201777089Y-150890858D01*
X201782073Y-150821166D01*
X201823945Y-150765233D01*
X201889409Y-150740816D01*
X201898255Y-150740500D01*
X216893592Y-150740500D01*
X216905933Y-150740500D01*
X216914042Y-150740765D01*
G37*
G04 #@! TD.AperFunction*
G04 #@! TA.AperFunction,Conductor*
G36*
X155329766Y-164096026D02*
G01*
X155375521Y-164148830D01*
X155385465Y-164217988D01*
X155356440Y-164281544D01*
X155350408Y-164288022D01*
X155162784Y-164475645D01*
X155162778Y-164475652D01*
X155126094Y-164521173D01*
X155126093Y-164521175D01*
X155067801Y-164648813D01*
X155067800Y-164648818D01*
X155047831Y-164787717D01*
X155067800Y-164926615D01*
X155067801Y-164926619D01*
X155073385Y-164938845D01*
X155083329Y-165008003D01*
X155054304Y-165071559D01*
X154995526Y-165109334D01*
X154940479Y-165109341D01*
X154940061Y-165112249D01*
X154792382Y-165091017D01*
X154653483Y-165110986D01*
X154653478Y-165110987D01*
X154525840Y-165169279D01*
X154525838Y-165169280D01*
X154480317Y-165205964D01*
X154480310Y-165205970D01*
X154078442Y-165607838D01*
X154078436Y-165607845D01*
X154078435Y-165607846D01*
X154065986Y-165623294D01*
X154041752Y-165653366D01*
X154041751Y-165653368D01*
X153983459Y-165781006D01*
X153983458Y-165781011D01*
X153963489Y-165919910D01*
X153983458Y-166058808D01*
X153983459Y-166058813D01*
X154041751Y-166186453D01*
X154053230Y-166200697D01*
X154078435Y-166231975D01*
X154078438Y-166231978D01*
X154078441Y-166231982D01*
X154364402Y-166517942D01*
X154397887Y-166579265D01*
X154400721Y-166605623D01*
X154400721Y-167149617D01*
X154428014Y-167251480D01*
X154441546Y-167274917D01*
X154480741Y-167342804D01*
X156383406Y-169245469D01*
X158173786Y-171035848D01*
X158207271Y-171097171D01*
X158202287Y-171166863D01*
X158160415Y-171222796D01*
X158137617Y-171236323D01*
X158110129Y-171248876D01*
X158064603Y-171285563D01*
X158064599Y-171285566D01*
X157645053Y-171705112D01*
X157645050Y-171705116D01*
X157608363Y-171750641D01*
X157550071Y-171878281D01*
X157550070Y-171878286D01*
X157530101Y-172017185D01*
X157550070Y-172156084D01*
X157552569Y-172164592D01*
X157549197Y-172165581D01*
X157556732Y-172218110D01*
X157527686Y-172281656D01*
X157521681Y-172288103D01*
X156936605Y-172873181D01*
X156875282Y-172906666D01*
X156848924Y-172909500D01*
X156822080Y-172909500D01*
X156677092Y-172938340D01*
X156677082Y-172938343D01*
X156540511Y-172994912D01*
X156540498Y-172994919D01*
X156417584Y-173077048D01*
X156417580Y-173077051D01*
X156313051Y-173181580D01*
X156313048Y-173181584D01*
X156230919Y-173304498D01*
X156230912Y-173304511D01*
X156174343Y-173441082D01*
X156174340Y-173441092D01*
X156145500Y-173586079D01*
X156145500Y-173586082D01*
X156145500Y-173733918D01*
X156145500Y-173733920D01*
X156145499Y-173733920D01*
X156174340Y-173878907D01*
X156174343Y-173878917D01*
X156230912Y-174015488D01*
X156230919Y-174015501D01*
X156313048Y-174138415D01*
X156313051Y-174138419D01*
X156417580Y-174242948D01*
X156417584Y-174242951D01*
X156540498Y-174325080D01*
X156540511Y-174325087D01*
X156677082Y-174381656D01*
X156677087Y-174381658D01*
X156677091Y-174381658D01*
X156677092Y-174381659D01*
X156822079Y-174410500D01*
X156822082Y-174410500D01*
X156969920Y-174410500D01*
X157067462Y-174391096D01*
X157114913Y-174381658D01*
X157251495Y-174325084D01*
X157374416Y-174242951D01*
X157478951Y-174138416D01*
X157561084Y-174015495D01*
X157564443Y-174007387D01*
X157592074Y-173940678D01*
X157617658Y-173878913D01*
X157633432Y-173799612D01*
X157646500Y-173733920D01*
X157646500Y-173586079D01*
X157617659Y-173441092D01*
X157617658Y-173441091D01*
X157617658Y-173441087D01*
X157615336Y-173435483D01*
X157607870Y-173366015D01*
X157639145Y-173303536D01*
X157642190Y-173300380D01*
X158088076Y-172854494D01*
X158149397Y-172821011D01*
X158211055Y-172825420D01*
X158211587Y-172823610D01*
X158220094Y-172826108D01*
X158358994Y-172846078D01*
X158497894Y-172826108D01*
X158497895Y-172826107D01*
X158497897Y-172826107D01*
X158625537Y-172767815D01*
X158625537Y-172767814D01*
X158625539Y-172767814D01*
X158671059Y-172731132D01*
X159090619Y-172311572D01*
X159127301Y-172266052D01*
X159139856Y-172238560D01*
X159185607Y-172185759D01*
X159252646Y-172166073D01*
X159319686Y-172185756D01*
X159340330Y-172202392D01*
X159925968Y-172788030D01*
X159925970Y-172788033D01*
X160000537Y-172862600D01*
X160046272Y-172889005D01*
X160091863Y-172915327D01*
X160193723Y-172942621D01*
X160193725Y-172942621D01*
X160306773Y-172942621D01*
X160306789Y-172942620D01*
X160804617Y-172942620D01*
X160871656Y-172962305D01*
X160892298Y-172978939D01*
X161213615Y-173300257D01*
X161213623Y-173300264D01*
X161259136Y-173336940D01*
X161259141Y-173336943D01*
X161386783Y-173395236D01*
X161386784Y-173395236D01*
X161386786Y-173395237D01*
X161525686Y-173415207D01*
X161664586Y-173395237D01*
X161664587Y-173395236D01*
X161664589Y-173395236D01*
X161733068Y-173363962D01*
X161792231Y-173336943D01*
X161837750Y-173300262D01*
X162059073Y-173078939D01*
X162120396Y-173045454D01*
X162146754Y-173042620D01*
X163626084Y-173042620D01*
X163626086Y-173042620D01*
X163753380Y-173008512D01*
X163867508Y-172942620D01*
X163975753Y-172834373D01*
X163985258Y-172825803D01*
X164006017Y-172808942D01*
X164018462Y-172806467D01*
X164080405Y-172765078D01*
X164168548Y-172676933D01*
X164173522Y-172672894D01*
X164174269Y-172672580D01*
X164177387Y-172669880D01*
X164195605Y-172656243D01*
X165141188Y-171710657D01*
X165202511Y-171677173D01*
X165272202Y-171682157D01*
X165316550Y-171710658D01*
X165523026Y-171917134D01*
X165556511Y-171978457D01*
X165551527Y-172048149D01*
X165523026Y-172092496D01*
X164577443Y-173038078D01*
X164577432Y-173038091D01*
X164555191Y-173065689D01*
X164546325Y-173075560D01*
X164468605Y-173153282D01*
X164427217Y-173215224D01*
X164427216Y-173215227D01*
X164407776Y-173312960D01*
X164407776Y-173312965D01*
X164427216Y-173410702D01*
X164427217Y-173410704D01*
X164447523Y-173441092D01*
X164468607Y-173472646D01*
X164468610Y-173472649D01*
X164468613Y-173472653D01*
X164875315Y-173879355D01*
X164879653Y-173887300D01*
X164886901Y-173892726D01*
X164896135Y-173917485D01*
X164908800Y-173940678D01*
X164908154Y-173949707D01*
X164911318Y-173958190D01*
X164905701Y-173984010D01*
X164903816Y-174010370D01*
X164897997Y-174019423D01*
X164896466Y-174026463D01*
X164875315Y-174054717D01*
X164701000Y-174229032D01*
X164639677Y-174262517D01*
X164569985Y-174257533D01*
X164525638Y-174229032D01*
X163962228Y-173665622D01*
X163962226Y-173665620D01*
X163869948Y-173612343D01*
X163848099Y-173599728D01*
X163754034Y-173574524D01*
X163720804Y-173565620D01*
X163720803Y-173565620D01*
X163720799Y-173565619D01*
X163719637Y-173565466D01*
X163684319Y-173555322D01*
X163583572Y-173509312D01*
X163583570Y-173509311D01*
X163583569Y-173509311D01*
X163583564Y-173509310D01*
X163583563Y-173509310D01*
X163444669Y-173489341D01*
X163305770Y-173509310D01*
X163305765Y-173509311D01*
X163178126Y-173567603D01*
X163132595Y-173604294D01*
X162642341Y-174094548D01*
X162605650Y-174140079D01*
X162547358Y-174267718D01*
X162547357Y-174267723D01*
X162527388Y-174406622D01*
X162547357Y-174545520D01*
X162547358Y-174545524D01*
X162605651Y-174673166D01*
X162605654Y-174673171D01*
X162642330Y-174718684D01*
X162642337Y-174718692D01*
X163044210Y-175120565D01*
X163044218Y-175120572D01*
X163089731Y-175157248D01*
X163089736Y-175157251D01*
X163217378Y-175215544D01*
X163217379Y-175215544D01*
X163217381Y-175215545D01*
X163356281Y-175235515D01*
X163495181Y-175215545D01*
X163495181Y-175215544D01*
X163499709Y-175214894D01*
X163568867Y-175224838D01*
X163621671Y-175270593D01*
X163641355Y-175337633D01*
X163621670Y-175404672D01*
X163605036Y-175425313D01*
X163526560Y-175503788D01*
X163526559Y-175503789D01*
X163485170Y-175565734D01*
X163465775Y-175663236D01*
X163465727Y-175663475D01*
X163485170Y-175761215D01*
X163522399Y-175816934D01*
X163526559Y-175823159D01*
X164198432Y-176495032D01*
X164231917Y-176556355D01*
X164226933Y-176626047D01*
X164198432Y-176670394D01*
X163895632Y-176973194D01*
X163895628Y-176973200D01*
X163842903Y-177064521D01*
X163842903Y-177064522D01*
X163834859Y-177094548D01*
X163834604Y-177095498D01*
X163834603Y-177095500D01*
X163815610Y-177166383D01*
X163815610Y-177708961D01*
X163795925Y-177776000D01*
X163779291Y-177796642D01*
X163173006Y-178402926D01*
X163173005Y-178402927D01*
X163131616Y-178464872D01*
X163119674Y-178524907D01*
X163112173Y-178562613D01*
X163131616Y-178660353D01*
X163173004Y-178722296D01*
X163985716Y-179535008D01*
X164047659Y-179576396D01*
X164145399Y-179595839D01*
X164243140Y-179576396D01*
X164305082Y-179535008D01*
X164340560Y-179499530D01*
X164401882Y-179466044D01*
X164471574Y-179471028D01*
X164515923Y-179499529D01*
X164813316Y-179796922D01*
X164846801Y-179858245D01*
X164841817Y-179927937D01*
X164838430Y-179936113D01*
X164816177Y-179984841D01*
X164816175Y-179984846D01*
X164796206Y-180123745D01*
X164816175Y-180262643D01*
X164816176Y-180262647D01*
X164874469Y-180390289D01*
X164874472Y-180390294D01*
X164911148Y-180435807D01*
X164911155Y-180435815D01*
X165313028Y-180837688D01*
X165313036Y-180837695D01*
X165358549Y-180874371D01*
X165358554Y-180874374D01*
X165486196Y-180932667D01*
X165486197Y-180932667D01*
X165486199Y-180932668D01*
X165625099Y-180952638D01*
X165763999Y-180932668D01*
X165764000Y-180932667D01*
X165764002Y-180932667D01*
X165837101Y-180899283D01*
X165891644Y-180874374D01*
X165937163Y-180837693D01*
X166427435Y-180347421D01*
X166464116Y-180301902D01*
X166522410Y-180174257D01*
X166542380Y-180035357D01*
X166522410Y-179896457D01*
X166509890Y-179869043D01*
X166464116Y-179768812D01*
X166464113Y-179768807D01*
X166427437Y-179723294D01*
X166427430Y-179723286D01*
X166025557Y-179321413D01*
X166025549Y-179321406D01*
X165980036Y-179284730D01*
X165980031Y-179284727D01*
X165852389Y-179226434D01*
X165852385Y-179226433D01*
X165713488Y-179206464D01*
X165713482Y-179206464D01*
X165709341Y-179207059D01*
X165705205Y-179206464D01*
X165704620Y-179206464D01*
X165704620Y-179206379D01*
X165640184Y-179197110D01*
X165604023Y-179172001D01*
X165223737Y-178791715D01*
X165190252Y-178730392D01*
X165195236Y-178660700D01*
X165223738Y-178616352D01*
X165259214Y-178580876D01*
X165259216Y-178580874D01*
X165300604Y-178518932D01*
X165320047Y-178421191D01*
X165300604Y-178323451D01*
X165259216Y-178261508D01*
X164652929Y-177655221D01*
X164638225Y-177628293D01*
X164621633Y-177602475D01*
X164620741Y-177596274D01*
X164619444Y-177593898D01*
X164616610Y-177567540D01*
X164616610Y-177436363D01*
X164636295Y-177369324D01*
X164652924Y-177348687D01*
X166790398Y-175211212D01*
X166790403Y-175211209D01*
X166800606Y-175201005D01*
X166800608Y-175201005D01*
X166875175Y-175126438D01*
X166927902Y-175035112D01*
X166929856Y-175027820D01*
X166955196Y-174933252D01*
X166955196Y-174827798D01*
X166955195Y-174827794D01*
X166955195Y-174467134D01*
X166974880Y-174400095D01*
X166991514Y-174379453D01*
X167232552Y-174138415D01*
X167492320Y-173878646D01*
X167553641Y-173845163D01*
X167623332Y-173850147D01*
X167667680Y-173878648D01*
X168233691Y-174444658D01*
X168253396Y-174470338D01*
X168284820Y-174524765D01*
X168284823Y-174524769D01*
X168284825Y-174524772D01*
X169537243Y-175777190D01*
X170742129Y-176982075D01*
X170775614Y-177043398D01*
X170777063Y-177088237D01*
X170761172Y-177193668D01*
X170761172Y-177193670D01*
X170762623Y-177203299D01*
X170781412Y-177327956D01*
X170807071Y-177381235D01*
X170840337Y-177450312D01*
X170859838Y-177473850D01*
X170859847Y-177473859D01*
X170859855Y-177473868D01*
X171219405Y-177833418D01*
X171219414Y-177833426D01*
X171219424Y-177833436D01*
X171242962Y-177852937D01*
X171365317Y-177911861D01*
X171499604Y-177932102D01*
X171633891Y-177911861D01*
X171756246Y-177852937D01*
X171779784Y-177833436D01*
X172085764Y-177527456D01*
X172112691Y-177512752D01*
X172138510Y-177496160D01*
X172144710Y-177495268D01*
X172147087Y-177493971D01*
X172173445Y-177491137D01*
X172316280Y-177491137D01*
X172383319Y-177510822D01*
X172429074Y-177563626D01*
X172439018Y-177632784D01*
X172409993Y-177696340D01*
X172403961Y-177702818D01*
X172026581Y-178080197D01*
X172026557Y-178080224D01*
X172007065Y-178103750D01*
X171948138Y-178226109D01*
X171927898Y-178360396D01*
X171948138Y-178494682D01*
X171959816Y-178518931D01*
X172007063Y-178617038D01*
X172026564Y-178640576D01*
X172026573Y-178640585D01*
X172026581Y-178640594D01*
X172386131Y-179000144D01*
X172386140Y-179000152D01*
X172386150Y-179000162D01*
X172409688Y-179019663D01*
X172532043Y-179078587D01*
X172666330Y-179098828D01*
X172800617Y-179078587D01*
X172922972Y-179019663D01*
X172946510Y-179000162D01*
X173202490Y-178744182D01*
X173263813Y-178710697D01*
X173290171Y-178707863D01*
X181133044Y-178707863D01*
X181133046Y-178707863D01*
X181234907Y-178680570D01*
X181235174Y-178680415D01*
X181235429Y-178680353D01*
X181242421Y-178677458D01*
X181242872Y-178678547D01*
X181303072Y-178663938D01*
X181369100Y-178686784D01*
X181412296Y-178741702D01*
X181421182Y-178787798D01*
X181421182Y-182010500D01*
X181401497Y-182077539D01*
X181348693Y-182123294D01*
X181297182Y-182134500D01*
X159422536Y-182134500D01*
X159362892Y-182141559D01*
X159362884Y-182141560D01*
X159317968Y-182152343D01*
X159317948Y-182152348D01*
X159279813Y-182164739D01*
X159279812Y-182164740D01*
X159214060Y-182208673D01*
X159147382Y-182229550D01*
X159080002Y-182211064D01*
X159057490Y-182193251D01*
X154167540Y-177303301D01*
X154167538Y-177303299D01*
X154081440Y-177253590D01*
X154053411Y-177237407D01*
X153989763Y-177220353D01*
X153926116Y-177203299D01*
X153926115Y-177203299D01*
X153913676Y-177203299D01*
X153846637Y-177183614D01*
X153825995Y-177166980D01*
X153241820Y-176582804D01*
X153208335Y-176521481D01*
X153205501Y-176495123D01*
X153205501Y-175729122D01*
X153205500Y-175729120D01*
X153190968Y-175656063D01*
X153190967Y-175656059D01*
X153135602Y-175573198D01*
X153060190Y-175522810D01*
X153052740Y-175517832D01*
X153041457Y-175513159D01*
X153042158Y-175511464D01*
X152993397Y-175485956D01*
X152958824Y-175425240D01*
X152955501Y-175396726D01*
X152955501Y-175035800D01*
X152975186Y-174968761D01*
X153027990Y-174923006D01*
X153079501Y-174911800D01*
X153599174Y-174911800D01*
X153599190Y-174911799D01*
X153657299Y-174905551D01*
X153668128Y-174901512D01*
X153788778Y-174856512D01*
X153901116Y-174772416D01*
X153985212Y-174660078D01*
X154034251Y-174528599D01*
X154035292Y-174518916D01*
X154040499Y-174470490D01*
X154040500Y-174470473D01*
X154040500Y-173777126D01*
X154040499Y-173777109D01*
X154034251Y-173719000D01*
X154013067Y-173662205D01*
X153985212Y-173587522D01*
X153901116Y-173475184D01*
X153815081Y-173410778D01*
X153788780Y-173391089D01*
X153788778Y-173391088D01*
X153755160Y-173378549D01*
X153657299Y-173342048D01*
X153599190Y-173335800D01*
X153599174Y-173335800D01*
X153030826Y-173335800D01*
X153030809Y-173335800D01*
X152972700Y-173342048D01*
X152841219Y-173391089D01*
X152728884Y-173475184D01*
X152644789Y-173587519D01*
X152595748Y-173719000D01*
X152589500Y-173777109D01*
X152589500Y-173780124D01*
X152580853Y-173809571D01*
X152574329Y-173839556D01*
X152570577Y-173844567D01*
X152569815Y-173847163D01*
X152553177Y-173867809D01*
X152542676Y-173878309D01*
X152481351Y-173911791D01*
X152411660Y-173906804D01*
X152367318Y-173878305D01*
X152269137Y-173780124D01*
X152151219Y-173662205D01*
X152117734Y-173600882D01*
X152114900Y-173574524D01*
X152114900Y-172788523D01*
X152114899Y-172788521D01*
X152100367Y-172715464D01*
X152100366Y-172715460D01*
X152090733Y-172701043D01*
X152045001Y-172632599D01*
X151962140Y-172577234D01*
X151962139Y-172577233D01*
X151962135Y-172577232D01*
X151889077Y-172562700D01*
X151889074Y-172562700D01*
X151280926Y-172562700D01*
X151280923Y-172562700D01*
X151207864Y-172577232D01*
X151207860Y-172577233D01*
X151124999Y-172632599D01*
X151069633Y-172715460D01*
X151064960Y-172726744D01*
X151061293Y-172725225D01*
X151039225Y-172767405D01*
X150978506Y-172801974D01*
X150908737Y-172798228D01*
X150852068Y-172757357D01*
X150837603Y-172725682D01*
X150835040Y-172726744D01*
X150830366Y-172715460D01*
X150820733Y-172701043D01*
X150775001Y-172632599D01*
X150692140Y-172577234D01*
X150692139Y-172577233D01*
X150692135Y-172577232D01*
X150619077Y-172562700D01*
X150619074Y-172562700D01*
X150010926Y-172562700D01*
X150010923Y-172562700D01*
X149937864Y-172577232D01*
X149937860Y-172577233D01*
X149854999Y-172632599D01*
X149799633Y-172715460D01*
X149794960Y-172726744D01*
X149791293Y-172725225D01*
X149769225Y-172767405D01*
X149708506Y-172801974D01*
X149638737Y-172798228D01*
X149582068Y-172757357D01*
X149567603Y-172725682D01*
X149565040Y-172726744D01*
X149560366Y-172715460D01*
X149550733Y-172701043D01*
X149505001Y-172632599D01*
X149422140Y-172577234D01*
X149422139Y-172577233D01*
X149422135Y-172577232D01*
X149349077Y-172562700D01*
X149349074Y-172562700D01*
X149203566Y-172562700D01*
X149136527Y-172543015D01*
X149115885Y-172526381D01*
X148642216Y-172052713D01*
X148642214Y-172052711D01*
X148580682Y-172017185D01*
X148539488Y-171993401D01*
X148527380Y-171990157D01*
X148515273Y-171986913D01*
X148515270Y-171986912D01*
X148477078Y-171976678D01*
X148424909Y-171962700D01*
X147164291Y-171962700D01*
X147086661Y-171983501D01*
X147049713Y-171993401D01*
X146946986Y-172052709D01*
X146946984Y-172052711D01*
X145649513Y-173350183D01*
X145649511Y-173350186D01*
X145590202Y-173452911D01*
X145590200Y-173452914D01*
X145589508Y-173455500D01*
X145559500Y-173567491D01*
X145559500Y-178948547D01*
X145583712Y-179038911D01*
X145590200Y-179063124D01*
X145590200Y-179063125D01*
X145590201Y-179063126D01*
X145649511Y-179165853D01*
X145649513Y-179165855D01*
X145863863Y-179380205D01*
X145897348Y-179441528D01*
X145900182Y-179467886D01*
X145900182Y-182010500D01*
X145880497Y-182077539D01*
X145827693Y-182123294D01*
X145776182Y-182134500D01*
X145735377Y-182134500D01*
X145668338Y-182114815D01*
X145622583Y-182062011D01*
X145612639Y-181992853D01*
X145613760Y-181986308D01*
X145638503Y-181861920D01*
X145638503Y-181714079D01*
X145609662Y-181569092D01*
X145609661Y-181569091D01*
X145609661Y-181569087D01*
X145568369Y-181469399D01*
X145553090Y-181432511D01*
X145553083Y-181432498D01*
X145470954Y-181309584D01*
X145470951Y-181309580D01*
X145366422Y-181205051D01*
X145366416Y-181205046D01*
X145343611Y-181189808D01*
X145298807Y-181136196D01*
X145288503Y-181086707D01*
X145288503Y-167860921D01*
X148515100Y-167860921D01*
X148515100Y-169891478D01*
X148529632Y-169964535D01*
X148529633Y-169964539D01*
X148540291Y-169980490D01*
X148584999Y-170047401D01*
X148667860Y-170102766D01*
X148667864Y-170102767D01*
X148740921Y-170117299D01*
X148740924Y-170117300D01*
X148740926Y-170117300D01*
X149349076Y-170117300D01*
X149349077Y-170117299D01*
X149422140Y-170102766D01*
X149505001Y-170047401D01*
X149560366Y-169964540D01*
X149560366Y-169964538D01*
X149565040Y-169953256D01*
X149568707Y-169954775D01*
X149590767Y-169912603D01*
X149651482Y-169878028D01*
X149721252Y-169881767D01*
X149777924Y-169922633D01*
X149792394Y-169954318D01*
X149794960Y-169953256D01*
X149799633Y-169964539D01*
X149810291Y-169980490D01*
X149854999Y-170047401D01*
X149937860Y-170102766D01*
X149937864Y-170102767D01*
X150010921Y-170117299D01*
X150010924Y-170117300D01*
X150010926Y-170117300D01*
X150619076Y-170117300D01*
X150619077Y-170117299D01*
X150692140Y-170102766D01*
X150775001Y-170047401D01*
X150830366Y-169964540D01*
X150830366Y-169964538D01*
X150835040Y-169953256D01*
X150838707Y-169954775D01*
X150860767Y-169912603D01*
X150921482Y-169878028D01*
X150991252Y-169881767D01*
X151047924Y-169922633D01*
X151062394Y-169954318D01*
X151064960Y-169953256D01*
X151069633Y-169964539D01*
X151080291Y-169980490D01*
X151124999Y-170047401D01*
X151207860Y-170102766D01*
X151207864Y-170102767D01*
X151280921Y-170117299D01*
X151280924Y-170117300D01*
X151280926Y-170117300D01*
X151889076Y-170117300D01*
X151889077Y-170117299D01*
X151962140Y-170102766D01*
X152045001Y-170047401D01*
X152100366Y-169964540D01*
X152114900Y-169891474D01*
X152114900Y-167860926D01*
X152114900Y-167860923D01*
X152114899Y-167860921D01*
X152100367Y-167787864D01*
X152100366Y-167787860D01*
X152097142Y-167783035D01*
X152045001Y-167704999D01*
X151962140Y-167649634D01*
X151962139Y-167649633D01*
X151962135Y-167649632D01*
X151889077Y-167635100D01*
X151889074Y-167635100D01*
X151280926Y-167635100D01*
X151280923Y-167635100D01*
X151207864Y-167649632D01*
X151207860Y-167649633D01*
X151124999Y-167704999D01*
X151069633Y-167787860D01*
X151064960Y-167799144D01*
X151061293Y-167797625D01*
X151039225Y-167839805D01*
X150978506Y-167874374D01*
X150908737Y-167870628D01*
X150852068Y-167829757D01*
X150837603Y-167798082D01*
X150835040Y-167799144D01*
X150830366Y-167787860D01*
X150827142Y-167783035D01*
X150775001Y-167704999D01*
X150692140Y-167649634D01*
X150692139Y-167649633D01*
X150692135Y-167649632D01*
X150619077Y-167635100D01*
X150619074Y-167635100D01*
X150010926Y-167635100D01*
X150010923Y-167635100D01*
X149937864Y-167649632D01*
X149937860Y-167649633D01*
X149854999Y-167704999D01*
X149799633Y-167787860D01*
X149794960Y-167799144D01*
X149791293Y-167797625D01*
X149769225Y-167839805D01*
X149708506Y-167874374D01*
X149638737Y-167870628D01*
X149582068Y-167829757D01*
X149567603Y-167798082D01*
X149565040Y-167799144D01*
X149560366Y-167787860D01*
X149557142Y-167783035D01*
X149505001Y-167704999D01*
X149422140Y-167649634D01*
X149422139Y-167649633D01*
X149422135Y-167649632D01*
X149349077Y-167635100D01*
X149349074Y-167635100D01*
X148740926Y-167635100D01*
X148740923Y-167635100D01*
X148667864Y-167649632D01*
X148667860Y-167649633D01*
X148584999Y-167704999D01*
X148529633Y-167787860D01*
X148529632Y-167787864D01*
X148515100Y-167860921D01*
X145288503Y-167860921D01*
X145288503Y-167597251D01*
X145308188Y-167530212D01*
X145324822Y-167509570D01*
X148721732Y-164112660D01*
X148783055Y-164079175D01*
X148809413Y-164076341D01*
X155262727Y-164076341D01*
X155329766Y-164096026D01*
G37*
G04 #@! TD.AperFunction*
G04 #@! TA.AperFunction,Conductor*
G36*
X145396834Y-161372072D02*
G01*
X145452767Y-161413944D01*
X145477184Y-161479408D01*
X145477500Y-161488254D01*
X145477500Y-161541918D01*
X145477500Y-161541920D01*
X145477499Y-161541920D01*
X145506340Y-161686907D01*
X145506343Y-161686917D01*
X145562912Y-161823488D01*
X145562919Y-161823501D01*
X145645048Y-161946415D01*
X145645051Y-161946419D01*
X145749580Y-162050948D01*
X145749584Y-162050951D01*
X145872498Y-162133080D01*
X145872511Y-162133087D01*
X146003143Y-162187196D01*
X146009087Y-162189658D01*
X146009091Y-162189658D01*
X146009092Y-162189659D01*
X146154079Y-162218500D01*
X146154082Y-162218500D01*
X146301920Y-162218500D01*
X146399462Y-162199096D01*
X146446913Y-162189658D01*
X146583495Y-162133084D01*
X146706416Y-162050951D01*
X146810951Y-161946416D01*
X146826189Y-161923611D01*
X146879801Y-161878805D01*
X146929292Y-161868500D01*
X157455962Y-161868500D01*
X157523001Y-161888185D01*
X157568756Y-161940989D01*
X157578700Y-162010147D01*
X157549675Y-162073703D01*
X157543643Y-162080181D01*
X157411456Y-162212367D01*
X157411450Y-162212374D01*
X157374766Y-162257895D01*
X157374765Y-162257897D01*
X157316473Y-162385535D01*
X157316472Y-162385540D01*
X157296503Y-162524439D01*
X157316472Y-162663337D01*
X157316473Y-162663339D01*
X157338842Y-162712321D01*
X157348785Y-162781480D01*
X157319759Y-162845035D01*
X157260981Y-162882809D01*
X157191111Y-162882809D01*
X157174535Y-162876626D01*
X157133925Y-162858079D01*
X157133920Y-162858078D01*
X156995022Y-162838109D01*
X156856123Y-162858078D01*
X156856118Y-162858079D01*
X156728480Y-162916371D01*
X156728478Y-162916372D01*
X156682957Y-162953056D01*
X156682950Y-162953062D01*
X156396991Y-163239022D01*
X156335668Y-163272507D01*
X156309310Y-163275341D01*
X148652498Y-163275341D01*
X148652482Y-163275340D01*
X148644886Y-163275340D01*
X148539432Y-163275340D01*
X148471525Y-163293536D01*
X148437571Y-163302634D01*
X148346243Y-163355363D01*
X144567525Y-167134081D01*
X144567523Y-167134084D01*
X144514796Y-167225409D01*
X144506056Y-167258028D01*
X144506056Y-167258029D01*
X144506055Y-167258028D01*
X144487503Y-167327268D01*
X144487503Y-181086707D01*
X144487384Y-181087112D01*
X144487500Y-181087517D01*
X144477548Y-181120606D01*
X144467818Y-181153746D01*
X144467459Y-181154157D01*
X144467378Y-181154427D01*
X144466072Y-181155747D01*
X144444092Y-181180949D01*
X144438505Y-181185726D01*
X144409587Y-181205049D01*
X144372269Y-181242366D01*
X144368590Y-181245513D01*
X144340944Y-181257920D01*
X144314358Y-181272438D01*
X144309390Y-181272082D01*
X144304846Y-181274122D01*
X144274886Y-181269614D01*
X144244666Y-181267452D01*
X144239820Y-181264337D01*
X144235754Y-181263726D01*
X144227249Y-181256258D01*
X144200320Y-181238952D01*
X144166419Y-181205051D01*
X144166413Y-181205046D01*
X144143608Y-181189808D01*
X144098804Y-181136196D01*
X144088500Y-181086707D01*
X144088500Y-162629254D01*
X144108185Y-162562215D01*
X144124819Y-162541573D01*
X145265819Y-161400573D01*
X145327142Y-161367088D01*
X145396834Y-161372072D01*
G37*
G04 #@! TD.AperFunction*
G04 #@! TA.AperFunction,Conductor*
G36*
X177027804Y-168856774D02*
G01*
X177052214Y-168875736D01*
X181384863Y-173208385D01*
X181418348Y-173269708D01*
X181421182Y-173296066D01*
X181421182Y-177348745D01*
X181401497Y-177415784D01*
X181384863Y-177436426D01*
X180950745Y-177870544D01*
X180889422Y-177904029D01*
X180863064Y-177906863D01*
X176869867Y-177906863D01*
X176802828Y-177887178D01*
X176757073Y-177834374D01*
X176747129Y-177765216D01*
X176776154Y-177701660D01*
X176782186Y-177695182D01*
X176782948Y-177694419D01*
X176782951Y-177694416D01*
X176865084Y-177571495D01*
X176868059Y-177564314D01*
X176879729Y-177536139D01*
X176921658Y-177434913D01*
X176931586Y-177385002D01*
X176950500Y-177289920D01*
X176950500Y-177142079D01*
X176921659Y-176997092D01*
X176921658Y-176997091D01*
X176921658Y-176997087D01*
X176911764Y-176973200D01*
X176865087Y-176860511D01*
X176865080Y-176860498D01*
X176782951Y-176737584D01*
X176782948Y-176737580D01*
X176678419Y-176633051D01*
X176678415Y-176633048D01*
X176555501Y-176550919D01*
X176555488Y-176550912D01*
X176418917Y-176494343D01*
X176418907Y-176494340D01*
X176273920Y-176465500D01*
X176273918Y-176465500D01*
X176126082Y-176465500D01*
X176126081Y-176465500D01*
X176099176Y-176470851D01*
X176029585Y-176464622D01*
X175987307Y-176436914D01*
X175796621Y-176246228D01*
X175763136Y-176184905D01*
X175767545Y-176123251D01*
X175765733Y-176122719D01*
X175768229Y-176114214D01*
X175768232Y-176114209D01*
X175788202Y-175975309D01*
X175768232Y-175836409D01*
X175768231Y-175836408D01*
X175768231Y-175836405D01*
X175709939Y-175708765D01*
X175699174Y-175695407D01*
X175673256Y-175663244D01*
X175673252Y-175663240D01*
X175673249Y-175663236D01*
X175253703Y-175243690D01*
X175253699Y-175243687D01*
X175253696Y-175243684D01*
X175226207Y-175221532D01*
X175208174Y-175207000D01*
X175080534Y-175148708D01*
X175080529Y-175148707D01*
X175078786Y-175148457D01*
X175077183Y-175147725D01*
X175072023Y-175146210D01*
X175072240Y-175145468D01*
X175015230Y-175119433D01*
X174977455Y-175060655D01*
X174977454Y-174990786D01*
X175008751Y-174938038D01*
X175029722Y-174917068D01*
X175225971Y-174720819D01*
X175252898Y-174706115D01*
X175278717Y-174689523D01*
X175284917Y-174688631D01*
X175287294Y-174687334D01*
X175313652Y-174684500D01*
X175465298Y-174684500D01*
X175532337Y-174704185D01*
X175568400Y-174739609D01*
X175617048Y-174812415D01*
X175617051Y-174812419D01*
X175721580Y-174916948D01*
X175721584Y-174916951D01*
X175844498Y-174999080D01*
X175844511Y-174999087D01*
X175961271Y-175047450D01*
X175981087Y-175055658D01*
X175981091Y-175055658D01*
X175981092Y-175055659D01*
X176126079Y-175084500D01*
X176126082Y-175084500D01*
X176273920Y-175084500D01*
X176393792Y-175060655D01*
X176418913Y-175055658D01*
X176555495Y-174999084D01*
X176678416Y-174916951D01*
X176782951Y-174812416D01*
X176865084Y-174689495D01*
X176921658Y-174552913D01*
X176943192Y-174444658D01*
X176950500Y-174407920D01*
X176950500Y-174260079D01*
X176921659Y-174115092D01*
X176921658Y-174115091D01*
X176921658Y-174115087D01*
X176913155Y-174094558D01*
X176865087Y-173978511D01*
X176865080Y-173978498D01*
X176782951Y-173855584D01*
X176782948Y-173855580D01*
X176678419Y-173751051D01*
X176678415Y-173751048D01*
X176555501Y-173668919D01*
X176555488Y-173668912D01*
X176418917Y-173612343D01*
X176418907Y-173612340D01*
X176273920Y-173583500D01*
X176273918Y-173583500D01*
X176126082Y-173583500D01*
X176126080Y-173583500D01*
X175981092Y-173612340D01*
X175981082Y-173612343D01*
X175844511Y-173668912D01*
X175844498Y-173668919D01*
X175721584Y-173751048D01*
X175721580Y-173751051D01*
X175617051Y-173855580D01*
X175617048Y-173855584D01*
X175568400Y-173928391D01*
X175514787Y-173973196D01*
X175465298Y-173983500D01*
X175070964Y-173983500D01*
X174986361Y-174006169D01*
X174986360Y-174006168D01*
X174981825Y-174007384D01*
X174981817Y-174007387D01*
X174901899Y-174053527D01*
X174901894Y-174053531D01*
X173403311Y-175552113D01*
X173341988Y-175585598D01*
X173272296Y-175580614D01*
X173219080Y-175542240D01*
X173209082Y-175529834D01*
X173209074Y-175529825D01*
X172789528Y-175110279D01*
X172789524Y-175110276D01*
X172789521Y-175110273D01*
X172744001Y-175073591D01*
X172744002Y-175073591D01*
X172743999Y-175073589D01*
X172616359Y-175015297D01*
X172616354Y-175015296D01*
X172477456Y-174995327D01*
X172338557Y-175015296D01*
X172330045Y-175017796D01*
X172329056Y-175014429D01*
X172276487Y-175021952D01*
X172212951Y-174992884D01*
X172206536Y-174986907D01*
X170770539Y-173550910D01*
X170737054Y-173489587D01*
X170742038Y-173419895D01*
X170783910Y-173363962D01*
X170789297Y-173360149D01*
X170833275Y-173330764D01*
X171173819Y-172990220D01*
X171235142Y-172956735D01*
X171304833Y-172961719D01*
X171360767Y-173003590D01*
X171385184Y-173069055D01*
X171385500Y-173077901D01*
X171385500Y-173078082D01*
X171385500Y-173225918D01*
X171385500Y-173225920D01*
X171385499Y-173225920D01*
X171414340Y-173370907D01*
X171414343Y-173370917D01*
X171470912Y-173507488D01*
X171470919Y-173507501D01*
X171553048Y-173630415D01*
X171553051Y-173630419D01*
X171657580Y-173734948D01*
X171657584Y-173734951D01*
X171780498Y-173817080D01*
X171780511Y-173817087D01*
X171895617Y-173864765D01*
X171917087Y-173873658D01*
X171917091Y-173873658D01*
X171917092Y-173873659D01*
X172062079Y-173902500D01*
X172062082Y-173902500D01*
X172209920Y-173902500D01*
X172326273Y-173879355D01*
X172354913Y-173873658D01*
X172491495Y-173817084D01*
X172614416Y-173734951D01*
X172718951Y-173630416D01*
X172801084Y-173507495D01*
X172857658Y-173370913D01*
X172870869Y-173304498D01*
X172886500Y-173225920D01*
X172886500Y-173078079D01*
X172857659Y-172933092D01*
X172857658Y-172933091D01*
X172857658Y-172933087D01*
X172830078Y-172866503D01*
X172801087Y-172796511D01*
X172801080Y-172796498D01*
X172718951Y-172673584D01*
X172718948Y-172673580D01*
X172614419Y-172569051D01*
X172614415Y-172569048D01*
X172491501Y-172486919D01*
X172491488Y-172486912D01*
X172354917Y-172430343D01*
X172354907Y-172430340D01*
X172209920Y-172401500D01*
X172209918Y-172401500D01*
X172062082Y-172401500D01*
X172061902Y-172401500D01*
X171994863Y-172381815D01*
X171949108Y-172329011D01*
X171939164Y-172259853D01*
X171968189Y-172196297D01*
X171974221Y-172189819D01*
X172371356Y-171792684D01*
X172432679Y-171759199D01*
X172502371Y-171764183D01*
X172546718Y-171792684D01*
X172702514Y-171948480D01*
X172793839Y-172001207D01*
X172895700Y-172028500D01*
X175498708Y-172028500D01*
X175565747Y-172048185D01*
X175601811Y-172083611D01*
X175617047Y-172106414D01*
X175617051Y-172106419D01*
X175721580Y-172210948D01*
X175721584Y-172210951D01*
X175844498Y-172293080D01*
X175844511Y-172293087D01*
X175966109Y-172343454D01*
X175981087Y-172349658D01*
X175981091Y-172349658D01*
X175981092Y-172349659D01*
X176126079Y-172378500D01*
X176126082Y-172378500D01*
X176273920Y-172378500D01*
X176371462Y-172359096D01*
X176418913Y-172349658D01*
X176555495Y-172293084D01*
X176678416Y-172210951D01*
X176782951Y-172106416D01*
X176865084Y-171983495D01*
X176921658Y-171846913D01*
X176935845Y-171775590D01*
X176950500Y-171701920D01*
X176950500Y-171554079D01*
X176921659Y-171409092D01*
X176921658Y-171409091D01*
X176921658Y-171409087D01*
X176921656Y-171409082D01*
X176865087Y-171272511D01*
X176865080Y-171272498D01*
X176782951Y-171149584D01*
X176782948Y-171149580D01*
X176678419Y-171045051D01*
X176678411Y-171045045D01*
X176564754Y-170969102D01*
X176519948Y-170915490D01*
X176511241Y-170846165D01*
X176541395Y-170783138D01*
X176564754Y-170762898D01*
X176653828Y-170703380D01*
X176678416Y-170686951D01*
X176782951Y-170582416D01*
X176865084Y-170459495D01*
X176921658Y-170322913D01*
X176937719Y-170242173D01*
X176950500Y-170177920D01*
X176950500Y-170030079D01*
X176921659Y-169885092D01*
X176921658Y-169885091D01*
X176921658Y-169885087D01*
X176918734Y-169878028D01*
X176865087Y-169748511D01*
X176865080Y-169748498D01*
X176782951Y-169625584D01*
X176782948Y-169625580D01*
X176678419Y-169521051D01*
X176678415Y-169521048D01*
X176574588Y-169451673D01*
X176529783Y-169398061D01*
X176521076Y-169328736D01*
X176551230Y-169265709D01*
X176574588Y-169245469D01*
X176638810Y-169202557D01*
X176743342Y-169098025D01*
X176743345Y-169098022D01*
X176825478Y-168975101D01*
X176849973Y-168915964D01*
X176893811Y-168861562D01*
X176960105Y-168839496D01*
X177027804Y-168856774D01*
G37*
G04 #@! TD.AperFunction*
G04 #@! TA.AperFunction,Conductor*
G36*
X164177599Y-168776657D02*
G01*
X164203158Y-168789737D01*
X164260464Y-168828028D01*
X164260477Y-168828035D01*
X164375639Y-168875736D01*
X164397053Y-168884606D01*
X164397057Y-168884606D01*
X164397058Y-168884607D01*
X164542045Y-168913448D01*
X164542048Y-168913448D01*
X164689881Y-168913448D01*
X164689884Y-168913448D01*
X164690798Y-168913266D01*
X164691287Y-168913309D01*
X164695949Y-168912851D01*
X164696036Y-168913734D01*
X164760388Y-168919489D01*
X164815569Y-168962348D01*
X164838818Y-169028236D01*
X164838009Y-169041203D01*
X164838573Y-169041224D01*
X164838255Y-169050088D01*
X164848912Y-169149194D01*
X164848915Y-169149209D01*
X164869790Y-169215877D01*
X164869794Y-169215886D01*
X164901174Y-169281476D01*
X164901179Y-169281483D01*
X164947872Y-169351365D01*
X164959331Y-169372803D01*
X164987303Y-169440335D01*
X164994359Y-169463592D01*
X165008617Y-169535266D01*
X165011000Y-169559456D01*
X165011000Y-169632543D01*
X165008617Y-169656737D01*
X164994359Y-169728408D01*
X164987303Y-169751666D01*
X164959337Y-169819183D01*
X164947878Y-169840622D01*
X164907274Y-169901390D01*
X164891853Y-169920180D01*
X164840179Y-169971854D01*
X164821389Y-169987275D01*
X164760627Y-170027875D01*
X164739190Y-170039333D01*
X164651026Y-170075852D01*
X164646881Y-170077613D01*
X164642723Y-170079423D01*
X164577400Y-170120587D01*
X164577397Y-170120589D01*
X164524594Y-170166342D01*
X164492966Y-170199119D01*
X164446757Y-170287456D01*
X164446756Y-170287456D01*
X164427074Y-170354488D01*
X164427071Y-170354500D01*
X164416723Y-170426477D01*
X164416723Y-170426479D01*
X164416723Y-170663034D01*
X164416733Y-170665341D01*
X164416753Y-170667556D01*
X164422334Y-170703029D01*
X164419896Y-170703380D01*
X164424348Y-170734338D01*
X164425804Y-170743326D01*
X164437323Y-170772607D01*
X164439487Y-170784912D01*
X164436934Y-170807705D01*
X164438980Y-170830569D01*
X164436908Y-170840987D01*
X164436908Y-170864510D01*
X164417223Y-170931549D01*
X164400589Y-170952191D01*
X163446072Y-171906707D01*
X163446061Y-171906720D01*
X163423820Y-171934318D01*
X163414954Y-171944188D01*
X163353846Y-172005299D01*
X163292524Y-172038786D01*
X163266163Y-172041620D01*
X162235143Y-172041620D01*
X162168104Y-172021935D01*
X162147466Y-172005305D01*
X161978787Y-171836626D01*
X161945303Y-171775303D01*
X161950287Y-171705611D01*
X161992159Y-171649678D01*
X162057623Y-171625261D01*
X162066469Y-171624945D01*
X162562401Y-171624945D01*
X162578941Y-171624945D01*
X162645980Y-171644630D01*
X162647833Y-171645844D01*
X162691610Y-171675096D01*
X162691612Y-171675097D01*
X162789350Y-171694538D01*
X162789352Y-171694538D01*
X162789354Y-171694538D01*
X162887087Y-171675097D01*
X162887087Y-171675096D01*
X162887092Y-171675096D01*
X162949035Y-171633707D01*
X164115300Y-170467442D01*
X164156689Y-170405499D01*
X164165640Y-170360499D01*
X164176131Y-170307761D01*
X164176131Y-170307756D01*
X164156690Y-170210019D01*
X164156689Y-170210017D01*
X164135240Y-170177918D01*
X164115300Y-170148076D01*
X164115296Y-170148072D01*
X164115294Y-170148069D01*
X163691504Y-169724279D01*
X163691500Y-169724276D01*
X163691497Y-169724273D01*
X163629555Y-169682884D01*
X163626950Y-169681143D01*
X163592741Y-169646934D01*
X163549613Y-169582390D01*
X163549608Y-169582384D01*
X163172132Y-169204908D01*
X163138647Y-169143585D01*
X163143631Y-169073893D01*
X163185503Y-169017960D01*
X163250967Y-168993543D01*
X163270008Y-168993647D01*
X163281127Y-168994564D01*
X163333698Y-169008651D01*
X163439152Y-169008651D01*
X163439156Y-169008650D01*
X163624476Y-169008650D01*
X163729930Y-169008650D01*
X163831791Y-168981357D01*
X163923116Y-168928630D01*
X164046588Y-168805157D01*
X164107907Y-168771673D01*
X164177599Y-168776657D01*
G37*
G04 #@! TD.AperFunction*
G04 #@! TA.AperFunction,Conductor*
G36*
X158532955Y-163962010D02*
G01*
X158563638Y-163962010D01*
X158567480Y-163964479D01*
X158572038Y-163964805D01*
X158596602Y-163983194D01*
X158622416Y-163999783D01*
X158625803Y-164005054D01*
X158627971Y-164006677D01*
X158641498Y-164029475D01*
X158665235Y-164081451D01*
X158665236Y-164081452D01*
X158665237Y-164081454D01*
X158701919Y-164126974D01*
X158701922Y-164126977D01*
X158701925Y-164126981D01*
X159121471Y-164546527D01*
X159121475Y-164546530D01*
X159121479Y-164546534D01*
X159152918Y-164571869D01*
X159167000Y-164583217D01*
X159294640Y-164641509D01*
X159294643Y-164641509D01*
X159294644Y-164641510D01*
X159433544Y-164661480D01*
X159565903Y-164642450D01*
X159615639Y-164645413D01*
X159703528Y-164668963D01*
X160524915Y-164668963D01*
X160591954Y-164688648D01*
X160637709Y-164741452D01*
X160647653Y-164810610D01*
X160639477Y-164840413D01*
X160619892Y-164887697D01*
X160619891Y-164887700D01*
X160619891Y-164887701D01*
X160619890Y-164887702D01*
X160592972Y-165023029D01*
X160592972Y-165023032D01*
X160592972Y-165161018D01*
X160592972Y-165161020D01*
X160592971Y-165161020D01*
X160619890Y-165296347D01*
X160619893Y-165296357D01*
X160672693Y-165423829D01*
X160672700Y-165423842D01*
X160749357Y-165538566D01*
X160749360Y-165538570D01*
X160846926Y-165636136D01*
X160846930Y-165636139D01*
X160961654Y-165712796D01*
X160961667Y-165712803D01*
X161088140Y-165765189D01*
X161089144Y-165765605D01*
X161089148Y-165765605D01*
X161089149Y-165765606D01*
X161224476Y-165792525D01*
X161224479Y-165792525D01*
X161362467Y-165792525D01*
X161453513Y-165774414D01*
X161497800Y-165765605D01*
X161625283Y-165712800D01*
X161625288Y-165712796D01*
X161625291Y-165712795D01*
X161664605Y-165686526D01*
X161730138Y-165642737D01*
X161796814Y-165621859D01*
X161864195Y-165640343D01*
X161886710Y-165658158D01*
X162367926Y-166139374D01*
X162401411Y-166200697D01*
X162396427Y-166270389D01*
X162354555Y-166326322D01*
X162289091Y-166350739D01*
X162280245Y-166351055D01*
X161970963Y-166351055D01*
X161843667Y-166385163D01*
X161729541Y-166451055D01*
X161729538Y-166451057D01*
X161661415Y-166519181D01*
X161600092Y-166552666D01*
X161573734Y-166555500D01*
X160155650Y-166555500D01*
X160088611Y-166535815D01*
X160067969Y-166519181D01*
X159235316Y-165686528D01*
X159235314Y-165686526D01*
X159155323Y-165640343D01*
X159121187Y-165620634D01*
X159057539Y-165603580D01*
X158993892Y-165586526D01*
X158993891Y-165586526D01*
X157752907Y-165586526D01*
X157685868Y-165566841D01*
X157665226Y-165550207D01*
X157479266Y-165364246D01*
X157479262Y-165364243D01*
X157479259Y-165364240D01*
X157433739Y-165327558D01*
X157433738Y-165327557D01*
X157433735Y-165327555D01*
X157371733Y-165299240D01*
X157318929Y-165253485D01*
X157299244Y-165186446D01*
X157318929Y-165119407D01*
X157335558Y-165098770D01*
X158441025Y-163993304D01*
X158467948Y-163978603D01*
X158493768Y-163962010D01*
X158498337Y-163962010D01*
X158502346Y-163959821D01*
X158532955Y-163962010D01*
G37*
G04 #@! TD.AperFunction*
G04 #@! TA.AperFunction,Conductor*
G36*
X173983593Y-151311185D02*
G01*
X174029348Y-151363989D01*
X174039292Y-151433147D01*
X174010267Y-151496703D01*
X173989440Y-151515817D01*
X173892390Y-151586329D01*
X173892388Y-151586331D01*
X173892387Y-151586331D01*
X173769906Y-151708812D01*
X173769906Y-151708813D01*
X173769904Y-151708815D01*
X173751958Y-151733516D01*
X173668086Y-151848954D01*
X173589446Y-152003295D01*
X173535915Y-152168045D01*
X173514630Y-152302436D01*
X173508818Y-152339132D01*
X173508818Y-152512354D01*
X173535916Y-152683444D01*
X173589445Y-152848188D01*
X173668086Y-153002531D01*
X173769904Y-153142671D01*
X173892390Y-153265157D01*
X174032530Y-153366975D01*
X174186873Y-153445616D01*
X174351617Y-153499145D01*
X174522707Y-153526243D01*
X174522708Y-153526243D01*
X174695928Y-153526243D01*
X174695929Y-153526243D01*
X174867019Y-153499145D01*
X174982920Y-153461485D01*
X175052760Y-153459491D01*
X175108918Y-153491736D01*
X175373499Y-153756317D01*
X175406984Y-153817640D01*
X175409818Y-153843998D01*
X175409818Y-161349088D01*
X175390133Y-161416127D01*
X175337329Y-161461882D01*
X175268171Y-161471826D01*
X175204615Y-161442801D01*
X175198137Y-161436769D01*
X175154419Y-161393051D01*
X175154415Y-161393048D01*
X175031501Y-161310919D01*
X175031488Y-161310912D01*
X174894917Y-161254343D01*
X174894907Y-161254340D01*
X174749920Y-161225500D01*
X174749918Y-161225500D01*
X174602082Y-161225500D01*
X174581786Y-161229537D01*
X174514585Y-161242904D01*
X174444993Y-161236676D01*
X174402713Y-161208967D01*
X172506137Y-159312391D01*
X172472652Y-159251068D01*
X172469818Y-159224710D01*
X172469818Y-156072785D01*
X172489503Y-156005746D01*
X172537524Y-155962300D01*
X172646104Y-155906976D01*
X172646103Y-155906976D01*
X172646106Y-155906975D01*
X172786246Y-155805157D01*
X172908732Y-155682671D01*
X173010550Y-155542531D01*
X173089191Y-155388188D01*
X173142720Y-155223444D01*
X173169818Y-155052354D01*
X173169818Y-154879132D01*
X173142720Y-154708042D01*
X173089191Y-154543298D01*
X173010550Y-154388955D01*
X172908732Y-154248815D01*
X172786246Y-154126329D01*
X172646106Y-154024511D01*
X172491763Y-153945870D01*
X172327019Y-153892341D01*
X172327017Y-153892340D01*
X172327016Y-153892340D01*
X172195589Y-153871524D01*
X172155929Y-153865243D01*
X171982707Y-153865243D01*
X171943046Y-153871524D01*
X171811620Y-153892340D01*
X171646870Y-153945871D01*
X171492529Y-154024511D01*
X171459458Y-154048539D01*
X171352390Y-154126329D01*
X171352388Y-154126331D01*
X171352387Y-154126331D01*
X171229906Y-154248812D01*
X171229906Y-154248813D01*
X171229904Y-154248815D01*
X171191253Y-154302014D01*
X171128086Y-154388954D01*
X171049446Y-154543295D01*
X171049445Y-154543297D01*
X171049445Y-154543298D01*
X171029234Y-154605500D01*
X170995915Y-154708045D01*
X170968818Y-154879132D01*
X170968818Y-155052353D01*
X170994960Y-155217413D01*
X170995916Y-155223444D01*
X171049445Y-155388188D01*
X171128086Y-155542531D01*
X171229904Y-155682671D01*
X171352390Y-155805157D01*
X171440828Y-155869411D01*
X171492531Y-155906976D01*
X171601112Y-155962300D01*
X171651909Y-156010274D01*
X171668818Y-156072785D01*
X171668818Y-159389238D01*
X171668818Y-159494692D01*
X171671348Y-159504134D01*
X171696111Y-159596554D01*
X171707515Y-159616305D01*
X171748838Y-159687878D01*
X171748840Y-159687880D01*
X173889181Y-161828221D01*
X173922666Y-161889544D01*
X173925500Y-161915902D01*
X173925500Y-162049918D01*
X173925500Y-162049920D01*
X173925499Y-162049920D01*
X173954340Y-162194907D01*
X173954343Y-162194917D01*
X174010912Y-162331488D01*
X174010919Y-162331501D01*
X174093048Y-162454415D01*
X174093051Y-162454419D01*
X174197580Y-162558948D01*
X174197584Y-162558951D01*
X174206076Y-162564625D01*
X174223298Y-162585230D01*
X174243147Y-162603317D01*
X174245364Y-162611630D01*
X174250884Y-162618235D01*
X174254232Y-162644882D01*
X174261151Y-162670827D01*
X174258521Y-162679020D01*
X174259594Y-162687560D01*
X174248005Y-162711783D01*
X174239799Y-162737354D01*
X174233155Y-162742825D01*
X174229442Y-162750589D01*
X174206596Y-162764702D01*
X174185868Y-162781776D01*
X174175302Y-162784035D01*
X174170001Y-162787310D01*
X174151766Y-162790870D01*
X174145591Y-162791600D01*
X174114332Y-162792159D01*
X174098195Y-162797211D01*
X174086733Y-162798568D01*
X174063204Y-162794583D01*
X174039346Y-162795008D01*
X174028507Y-162788706D01*
X174017845Y-162786901D01*
X174004528Y-162774766D01*
X173984476Y-162763109D01*
X172693379Y-161472012D01*
X171398819Y-160177451D01*
X171365334Y-160116128D01*
X171362500Y-160089770D01*
X171362500Y-158666356D01*
X171333659Y-158521369D01*
X171333658Y-158521368D01*
X171333658Y-158521364D01*
X171322932Y-158495469D01*
X171313494Y-158448018D01*
X171313494Y-157380901D01*
X171313493Y-157380895D01*
X171307086Y-157321288D01*
X171256792Y-157186443D01*
X171256788Y-157186436D01*
X171170542Y-157071227D01*
X171170539Y-157071224D01*
X171055330Y-156984978D01*
X171055323Y-156984974D01*
X170920477Y-156934680D01*
X170920478Y-156934680D01*
X170860878Y-156928273D01*
X170860876Y-156928272D01*
X170860868Y-156928272D01*
X170860860Y-156928272D01*
X170403818Y-156928272D01*
X170336779Y-156908587D01*
X170291024Y-156855783D01*
X170279818Y-156804272D01*
X170279818Y-155822947D01*
X170299503Y-155755908D01*
X170316137Y-155735266D01*
X170368732Y-155682671D01*
X170470550Y-155542531D01*
X170549191Y-155388188D01*
X170602720Y-155223444D01*
X170629818Y-155052354D01*
X170629818Y-154879132D01*
X170602720Y-154708042D01*
X170549191Y-154543298D01*
X170470550Y-154388955D01*
X170368732Y-154248815D01*
X170316137Y-154196220D01*
X170282652Y-154134897D01*
X170279818Y-154108539D01*
X170279818Y-153282947D01*
X170299503Y-153215908D01*
X170316137Y-153195266D01*
X170329818Y-153181585D01*
X170368732Y-153142671D01*
X170470550Y-153002531D01*
X170549191Y-152848188D01*
X170602720Y-152683444D01*
X170629818Y-152512354D01*
X170629818Y-152339132D01*
X170602720Y-152168042D01*
X170549191Y-152003298D01*
X170470550Y-151848955D01*
X170368732Y-151708815D01*
X170246246Y-151586329D01*
X170149195Y-151515817D01*
X170106531Y-151460488D01*
X170100552Y-151390874D01*
X170133158Y-151329079D01*
X170193997Y-151294722D01*
X170222082Y-151291500D01*
X173916554Y-151291500D01*
X173983593Y-151311185D01*
G37*
G04 #@! TD.AperFunction*
G04 #@! TA.AperFunction,Conductor*
G36*
X142237183Y-175848907D02*
G01*
X142248996Y-175858996D01*
X142591004Y-176201004D01*
X142618781Y-176255521D01*
X142620000Y-176271008D01*
X142620000Y-182390000D01*
X142620001Y-182390000D01*
X143298059Y-182390000D01*
X143353060Y-182406684D01*
X143356189Y-182408775D01*
X143356192Y-182408777D01*
X143428073Y-182438550D01*
X143483672Y-182461580D01*
X143619007Y-182488500D01*
X143619008Y-182488500D01*
X143756992Y-182488500D01*
X143756993Y-182488500D01*
X143892328Y-182461580D01*
X143972716Y-182428282D01*
X144019807Y-182408777D01*
X144019808Y-182408776D01*
X144019811Y-182408775D01*
X144022939Y-182406684D01*
X144077941Y-182390000D01*
X144498062Y-182390000D01*
X144553063Y-182406684D01*
X144556192Y-182408775D01*
X144556195Y-182408777D01*
X144628076Y-182438550D01*
X144683675Y-182461580D01*
X144819010Y-182488500D01*
X144819011Y-182488500D01*
X144956995Y-182488500D01*
X144956996Y-182488500D01*
X145092331Y-182461580D01*
X145172719Y-182428282D01*
X145219810Y-182408777D01*
X145219811Y-182408776D01*
X145219814Y-182408775D01*
X145222942Y-182406684D01*
X145277944Y-182390000D01*
X145851182Y-182390000D01*
X145909373Y-182408907D01*
X145945337Y-182458407D01*
X145950182Y-182489000D01*
X145950182Y-183309117D01*
X145931275Y-183367308D01*
X145881775Y-183403272D01*
X145820589Y-183403272D01*
X145781179Y-183379121D01*
X145730336Y-183328279D01*
X145558279Y-183213315D01*
X145367100Y-183134126D01*
X145164149Y-183093757D01*
X145164147Y-183093757D01*
X144957217Y-183093757D01*
X144957214Y-183093757D01*
X144754263Y-183134126D01*
X144563084Y-183213315D01*
X144391030Y-183328277D01*
X144244702Y-183474605D01*
X144129740Y-183646659D01*
X144050551Y-183837838D01*
X144010182Y-184040789D01*
X144010182Y-184247724D01*
X144050551Y-184450675D01*
X144129740Y-184641854D01*
X144211181Y-184763740D01*
X144244705Y-184813912D01*
X144391027Y-184960234D01*
X144563084Y-185075198D01*
X144754262Y-185154387D01*
X144957217Y-185194757D01*
X144957218Y-185194757D01*
X145164146Y-185194757D01*
X145164147Y-185194757D01*
X145367102Y-185154387D01*
X145558280Y-185075198D01*
X145730337Y-184960234D01*
X145781180Y-184909390D01*
X145835695Y-184881615D01*
X145896127Y-184891186D01*
X145939392Y-184934451D01*
X145950182Y-184979396D01*
X145950182Y-185381530D01*
X145950182Y-185486984D01*
X145974252Y-185576816D01*
X145977476Y-185588849D01*
X146030198Y-185680165D01*
X146030199Y-185680166D01*
X146030200Y-185680167D01*
X146030202Y-185680170D01*
X146314882Y-185964850D01*
X146583996Y-186233964D01*
X146611773Y-186288481D01*
X146605457Y-186341851D01*
X146590552Y-186377836D01*
X146590552Y-186377837D01*
X146550182Y-186580789D01*
X146550182Y-186787724D01*
X146590551Y-186990675D01*
X146669740Y-187181854D01*
X146752045Y-187305033D01*
X146784705Y-187353912D01*
X146931027Y-187500234D01*
X147103084Y-187615198D01*
X147294262Y-187694387D01*
X147497217Y-187734757D01*
X147497218Y-187734757D01*
X147704146Y-187734757D01*
X147704147Y-187734757D01*
X147907102Y-187694387D01*
X148098280Y-187615198D01*
X148270337Y-187500234D01*
X148416659Y-187353912D01*
X148531623Y-187181855D01*
X148610812Y-186990677D01*
X148651182Y-186787722D01*
X148651182Y-186580792D01*
X148651181Y-186580789D01*
X149090182Y-186580789D01*
X149090182Y-186787724D01*
X149130551Y-186990675D01*
X149209740Y-187181854D01*
X149292045Y-187305033D01*
X149324705Y-187353912D01*
X149471027Y-187500234D01*
X149643084Y-187615198D01*
X149834262Y-187694387D01*
X150037217Y-187734757D01*
X150037218Y-187734757D01*
X150244146Y-187734757D01*
X150244147Y-187734757D01*
X150447102Y-187694387D01*
X150638280Y-187615198D01*
X150810337Y-187500234D01*
X150956659Y-187353912D01*
X151071623Y-187181855D01*
X151150812Y-186990677D01*
X151191182Y-186787722D01*
X151191182Y-186580792D01*
X151191181Y-186580789D01*
X151630182Y-186580789D01*
X151630182Y-186787724D01*
X151670551Y-186990675D01*
X151749740Y-187181854D01*
X151832045Y-187305033D01*
X151864705Y-187353912D01*
X152011027Y-187500234D01*
X152183084Y-187615198D01*
X152374262Y-187694387D01*
X152577217Y-187734757D01*
X152577218Y-187734757D01*
X152784146Y-187734757D01*
X152784147Y-187734757D01*
X152987102Y-187694387D01*
X153178280Y-187615198D01*
X153350337Y-187500234D01*
X153496659Y-187353912D01*
X153611623Y-187181855D01*
X153690812Y-186990677D01*
X153731182Y-186787722D01*
X153731182Y-186580792D01*
X153731181Y-186580789D01*
X154170182Y-186580789D01*
X154170182Y-186787724D01*
X154210551Y-186990675D01*
X154289740Y-187181854D01*
X154372045Y-187305033D01*
X154404705Y-187353912D01*
X154551027Y-187500234D01*
X154723084Y-187615198D01*
X154914262Y-187694387D01*
X155117217Y-187734757D01*
X155117218Y-187734757D01*
X155324146Y-187734757D01*
X155324147Y-187734757D01*
X155527102Y-187694387D01*
X155718280Y-187615198D01*
X155890337Y-187500234D01*
X156036659Y-187353912D01*
X156151623Y-187181855D01*
X156230812Y-186990677D01*
X156271182Y-186787722D01*
X156271182Y-186580792D01*
X156271181Y-186580789D01*
X159250182Y-186580789D01*
X159250182Y-186787724D01*
X159290551Y-186990675D01*
X159369740Y-187181854D01*
X159452045Y-187305033D01*
X159484705Y-187353912D01*
X159631027Y-187500234D01*
X159803084Y-187615198D01*
X159994262Y-187694387D01*
X160197217Y-187734757D01*
X160197218Y-187734757D01*
X160404146Y-187734757D01*
X160404147Y-187734757D01*
X160607102Y-187694387D01*
X160798280Y-187615198D01*
X160970337Y-187500234D01*
X161116659Y-187353912D01*
X161231623Y-187181855D01*
X161310812Y-186990677D01*
X161351182Y-186787722D01*
X161351182Y-186580792D01*
X161351181Y-186580789D01*
X161790182Y-186580789D01*
X161790182Y-186787724D01*
X161830551Y-186990675D01*
X161909740Y-187181854D01*
X161992045Y-187305033D01*
X162024705Y-187353912D01*
X162171027Y-187500234D01*
X162343084Y-187615198D01*
X162534262Y-187694387D01*
X162737217Y-187734757D01*
X162737218Y-187734757D01*
X162944146Y-187734757D01*
X162944147Y-187734757D01*
X163147102Y-187694387D01*
X163338280Y-187615198D01*
X163510337Y-187500234D01*
X163656659Y-187353912D01*
X163771623Y-187181855D01*
X163850812Y-186990677D01*
X163891182Y-186787722D01*
X163891182Y-186580792D01*
X163891181Y-186580789D01*
X166870182Y-186580789D01*
X166870182Y-186787724D01*
X166910551Y-186990675D01*
X166989740Y-187181854D01*
X167072045Y-187305033D01*
X167104705Y-187353912D01*
X167251027Y-187500234D01*
X167423084Y-187615198D01*
X167614262Y-187694387D01*
X167817217Y-187734757D01*
X167817218Y-187734757D01*
X168024146Y-187734757D01*
X168024147Y-187734757D01*
X168227102Y-187694387D01*
X168418280Y-187615198D01*
X168590337Y-187500234D01*
X168736659Y-187353912D01*
X168851623Y-187181855D01*
X168930812Y-186990677D01*
X168971182Y-186787722D01*
X168971182Y-186580792D01*
X168971181Y-186580789D01*
X169410182Y-186580789D01*
X169410182Y-186787724D01*
X169450551Y-186990675D01*
X169529740Y-187181854D01*
X169612045Y-187305033D01*
X169644705Y-187353912D01*
X169791027Y-187500234D01*
X169963084Y-187615198D01*
X170154262Y-187694387D01*
X170357217Y-187734757D01*
X170357218Y-187734757D01*
X170564146Y-187734757D01*
X170564147Y-187734757D01*
X170767102Y-187694387D01*
X170958280Y-187615198D01*
X171130337Y-187500234D01*
X171276659Y-187353912D01*
X171391623Y-187181855D01*
X171470812Y-186990677D01*
X171511182Y-186787722D01*
X171511182Y-186580792D01*
X171511181Y-186580789D01*
X171950182Y-186580789D01*
X171950182Y-186787724D01*
X171990551Y-186990675D01*
X172069740Y-187181854D01*
X172152045Y-187305033D01*
X172184705Y-187353912D01*
X172331027Y-187500234D01*
X172503084Y-187615198D01*
X172694262Y-187694387D01*
X172897217Y-187734757D01*
X172897218Y-187734757D01*
X173104146Y-187734757D01*
X173104147Y-187734757D01*
X173307102Y-187694387D01*
X173498280Y-187615198D01*
X173670337Y-187500234D01*
X173816659Y-187353912D01*
X173931623Y-187181855D01*
X174010812Y-186990677D01*
X174051182Y-186787722D01*
X174051182Y-186580792D01*
X174010812Y-186377837D01*
X173931623Y-186186659D01*
X173816659Y-186014602D01*
X173670337Y-185868280D01*
X173670333Y-185868277D01*
X173498279Y-185753315D01*
X173307100Y-185674126D01*
X173104149Y-185633757D01*
X173104147Y-185633757D01*
X172897217Y-185633757D01*
X172897214Y-185633757D01*
X172694263Y-185674126D01*
X172503084Y-185753315D01*
X172331030Y-185868277D01*
X172184702Y-186014605D01*
X172069740Y-186186659D01*
X171990551Y-186377838D01*
X171950182Y-186580789D01*
X171511181Y-186580789D01*
X171470812Y-186377837D01*
X171391623Y-186186659D01*
X171276659Y-186014602D01*
X171130337Y-185868280D01*
X171130333Y-185868277D01*
X170958279Y-185753315D01*
X170767100Y-185674126D01*
X170564149Y-185633757D01*
X170564147Y-185633757D01*
X170357217Y-185633757D01*
X170357214Y-185633757D01*
X170154263Y-185674126D01*
X169963084Y-185753315D01*
X169791030Y-185868277D01*
X169644702Y-186014605D01*
X169529740Y-186186659D01*
X169450551Y-186377838D01*
X169410182Y-186580789D01*
X168971181Y-186580789D01*
X168930812Y-186377837D01*
X168851623Y-186186659D01*
X168736659Y-186014602D01*
X168590337Y-185868280D01*
X168590333Y-185868277D01*
X168418279Y-185753315D01*
X168227100Y-185674126D01*
X168024149Y-185633757D01*
X168024147Y-185633757D01*
X167817217Y-185633757D01*
X167817214Y-185633757D01*
X167614263Y-185674126D01*
X167423084Y-185753315D01*
X167251030Y-185868277D01*
X167104702Y-186014605D01*
X166989740Y-186186659D01*
X166910551Y-186377838D01*
X166870182Y-186580789D01*
X163891181Y-186580789D01*
X163850812Y-186377837D01*
X163771623Y-186186659D01*
X163656659Y-186014602D01*
X163510337Y-185868280D01*
X163510333Y-185868277D01*
X163338279Y-185753315D01*
X163147100Y-185674126D01*
X162944149Y-185633757D01*
X162944147Y-185633757D01*
X162737217Y-185633757D01*
X162737214Y-185633757D01*
X162534263Y-185674126D01*
X162343084Y-185753315D01*
X162171030Y-185868277D01*
X162024702Y-186014605D01*
X161909740Y-186186659D01*
X161830551Y-186377838D01*
X161790182Y-186580789D01*
X161351181Y-186580789D01*
X161310812Y-186377837D01*
X161231623Y-186186659D01*
X161116659Y-186014602D01*
X160970337Y-185868280D01*
X160970333Y-185868277D01*
X160798279Y-185753315D01*
X160607100Y-185674126D01*
X160404149Y-185633757D01*
X160404147Y-185633757D01*
X160197217Y-185633757D01*
X160197214Y-185633757D01*
X159994263Y-185674126D01*
X159803084Y-185753315D01*
X159631030Y-185868277D01*
X159484702Y-186014605D01*
X159369740Y-186186659D01*
X159290551Y-186377838D01*
X159250182Y-186580789D01*
X156271181Y-186580789D01*
X156230812Y-186377837D01*
X156151623Y-186186659D01*
X156036659Y-186014602D01*
X155890337Y-185868280D01*
X155890333Y-185868277D01*
X155718279Y-185753315D01*
X155527100Y-185674126D01*
X155324149Y-185633757D01*
X155324147Y-185633757D01*
X155117217Y-185633757D01*
X155117214Y-185633757D01*
X154914263Y-185674126D01*
X154723084Y-185753315D01*
X154551030Y-185868277D01*
X154404702Y-186014605D01*
X154289740Y-186186659D01*
X154210551Y-186377838D01*
X154170182Y-186580789D01*
X153731181Y-186580789D01*
X153690812Y-186377837D01*
X153611623Y-186186659D01*
X153496659Y-186014602D01*
X153350337Y-185868280D01*
X153350333Y-185868277D01*
X153178279Y-185753315D01*
X152987100Y-185674126D01*
X152784149Y-185633757D01*
X152784147Y-185633757D01*
X152577217Y-185633757D01*
X152577214Y-185633757D01*
X152374263Y-185674126D01*
X152183084Y-185753315D01*
X152011030Y-185868277D01*
X151864702Y-186014605D01*
X151749740Y-186186659D01*
X151670551Y-186377838D01*
X151630182Y-186580789D01*
X151191181Y-186580789D01*
X151150812Y-186377837D01*
X151071623Y-186186659D01*
X150956659Y-186014602D01*
X150810337Y-185868280D01*
X150810333Y-185868277D01*
X150638279Y-185753315D01*
X150447100Y-185674126D01*
X150244149Y-185633757D01*
X150244147Y-185633757D01*
X150037217Y-185633757D01*
X150037214Y-185633757D01*
X149834263Y-185674126D01*
X149643084Y-185753315D01*
X149471030Y-185868277D01*
X149324702Y-186014605D01*
X149209740Y-186186659D01*
X149130551Y-186377838D01*
X149090182Y-186580789D01*
X148651181Y-186580789D01*
X148610812Y-186377837D01*
X148531623Y-186186659D01*
X148416659Y-186014602D01*
X148270337Y-185868280D01*
X148270333Y-185868277D01*
X148098279Y-185753315D01*
X147907100Y-185674126D01*
X147704149Y-185633757D01*
X147704147Y-185633757D01*
X147497217Y-185633757D01*
X147497214Y-185633757D01*
X147294262Y-185674127D01*
X147294261Y-185674127D01*
X147258276Y-185689032D01*
X147197280Y-185693831D01*
X147150389Y-185667571D01*
X146780178Y-185297360D01*
X146752401Y-185242843D01*
X146751182Y-185227356D01*
X146751182Y-185019396D01*
X146770089Y-184961205D01*
X146819589Y-184925241D01*
X146880775Y-184925241D01*
X146920183Y-184949390D01*
X146931027Y-184960234D01*
X147103084Y-185075198D01*
X147294262Y-185154387D01*
X147497217Y-185194757D01*
X147497218Y-185194757D01*
X147704146Y-185194757D01*
X147704147Y-185194757D01*
X147907102Y-185154387D01*
X148098280Y-185075198D01*
X148270337Y-184960234D01*
X148416659Y-184813912D01*
X148531623Y-184641855D01*
X148610812Y-184450677D01*
X148651182Y-184247722D01*
X148651182Y-184040792D01*
X148651181Y-184040789D01*
X151630182Y-184040789D01*
X151630182Y-184247724D01*
X151670551Y-184450675D01*
X151749740Y-184641854D01*
X151831181Y-184763740D01*
X151864705Y-184813912D01*
X152011027Y-184960234D01*
X152183084Y-185075198D01*
X152374262Y-185154387D01*
X152577217Y-185194757D01*
X152577218Y-185194757D01*
X152784146Y-185194757D01*
X152784147Y-185194757D01*
X152987102Y-185154387D01*
X153178280Y-185075198D01*
X153350337Y-184960234D01*
X153496659Y-184813912D01*
X153611623Y-184641855D01*
X153690812Y-184450677D01*
X153731182Y-184247722D01*
X153731182Y-184040792D01*
X153731181Y-184040789D01*
X154170182Y-184040789D01*
X154170182Y-184247724D01*
X154210551Y-184450675D01*
X154289740Y-184641854D01*
X154371181Y-184763740D01*
X154404705Y-184813912D01*
X154551027Y-184960234D01*
X154723084Y-185075198D01*
X154914262Y-185154387D01*
X155117217Y-185194757D01*
X155117218Y-185194757D01*
X155324146Y-185194757D01*
X155324147Y-185194757D01*
X155527102Y-185154387D01*
X155718280Y-185075198D01*
X155890337Y-184960234D01*
X156036659Y-184813912D01*
X156151623Y-184641855D01*
X156230812Y-184450677D01*
X156271182Y-184247722D01*
X156271182Y-184040792D01*
X156271181Y-184040789D01*
X156710182Y-184040789D01*
X156710182Y-184247724D01*
X156750551Y-184450675D01*
X156829740Y-184641854D01*
X156911181Y-184763740D01*
X156944705Y-184813912D01*
X157091027Y-184960234D01*
X157263084Y-185075198D01*
X157454262Y-185154387D01*
X157657217Y-185194757D01*
X157657218Y-185194757D01*
X157864146Y-185194757D01*
X157864147Y-185194757D01*
X158067102Y-185154387D01*
X158258280Y-185075198D01*
X158430337Y-184960234D01*
X158576659Y-184813912D01*
X158691623Y-184641855D01*
X158770812Y-184450677D01*
X158811182Y-184247722D01*
X158811182Y-184040792D01*
X158770812Y-183837837D01*
X158691623Y-183646659D01*
X158576659Y-183474602D01*
X158430337Y-183328280D01*
X158409060Y-183314063D01*
X158258279Y-183213315D01*
X158067100Y-183134126D01*
X157864149Y-183093757D01*
X157864147Y-183093757D01*
X157657217Y-183093757D01*
X157657214Y-183093757D01*
X157454263Y-183134126D01*
X157263084Y-183213315D01*
X157091030Y-183328277D01*
X156944702Y-183474605D01*
X156829740Y-183646659D01*
X156750551Y-183837838D01*
X156710182Y-184040789D01*
X156271181Y-184040789D01*
X156230812Y-183837837D01*
X156151623Y-183646659D01*
X156036659Y-183474602D01*
X155890337Y-183328280D01*
X155869060Y-183314063D01*
X155718279Y-183213315D01*
X155527100Y-183134126D01*
X155324149Y-183093757D01*
X155324147Y-183093757D01*
X155117217Y-183093757D01*
X155117214Y-183093757D01*
X154914263Y-183134126D01*
X154723084Y-183213315D01*
X154551030Y-183328277D01*
X154404702Y-183474605D01*
X154289740Y-183646659D01*
X154210551Y-183837838D01*
X154170182Y-184040789D01*
X153731181Y-184040789D01*
X153690812Y-183837837D01*
X153611623Y-183646659D01*
X153496659Y-183474602D01*
X153350337Y-183328280D01*
X153329060Y-183314063D01*
X153178279Y-183213315D01*
X152987100Y-183134126D01*
X152784149Y-183093757D01*
X152784147Y-183093757D01*
X152577217Y-183093757D01*
X152577214Y-183093757D01*
X152374263Y-183134126D01*
X152183084Y-183213315D01*
X152011030Y-183328277D01*
X151864702Y-183474605D01*
X151749740Y-183646659D01*
X151670551Y-183837838D01*
X151630182Y-184040789D01*
X148651181Y-184040789D01*
X148610812Y-183837837D01*
X148531623Y-183646659D01*
X148416659Y-183474602D01*
X148270337Y-183328280D01*
X148249060Y-183314063D01*
X148095181Y-183211245D01*
X148057301Y-183163195D01*
X148051182Y-183128929D01*
X148051182Y-182489000D01*
X148070089Y-182430809D01*
X148119589Y-182394845D01*
X148150182Y-182390000D01*
X157868314Y-182390000D01*
X157926505Y-182408907D01*
X157938318Y-182418996D01*
X159264185Y-183744863D01*
X159291962Y-183799380D01*
X159291279Y-183834181D01*
X159250182Y-184040789D01*
X159250182Y-184247724D01*
X159290551Y-184450675D01*
X159369740Y-184641854D01*
X159451181Y-184763740D01*
X159484705Y-184813912D01*
X159631027Y-184960234D01*
X159803084Y-185075198D01*
X159994262Y-185154387D01*
X160197217Y-185194757D01*
X160197218Y-185194757D01*
X160404146Y-185194757D01*
X160404147Y-185194757D01*
X160607102Y-185154387D01*
X160798280Y-185075198D01*
X160970337Y-184960234D01*
X161116659Y-184813912D01*
X161231623Y-184641855D01*
X161310812Y-184450677D01*
X161351182Y-184247722D01*
X161351182Y-184040792D01*
X161351181Y-184040789D01*
X161790182Y-184040789D01*
X161790182Y-184247724D01*
X161830551Y-184450675D01*
X161909740Y-184641854D01*
X161991181Y-184763740D01*
X162024705Y-184813912D01*
X162171027Y-184960234D01*
X162343084Y-185075198D01*
X162534262Y-185154387D01*
X162737217Y-185194757D01*
X162737218Y-185194757D01*
X162944146Y-185194757D01*
X162944147Y-185194757D01*
X163147102Y-185154387D01*
X163338280Y-185075198D01*
X163510337Y-184960234D01*
X163656659Y-184813912D01*
X163771623Y-184641855D01*
X163850812Y-184450677D01*
X163891182Y-184247722D01*
X163891182Y-184040792D01*
X163891181Y-184040789D01*
X164330182Y-184040789D01*
X164330182Y-184247724D01*
X164370551Y-184450675D01*
X164449740Y-184641854D01*
X164531181Y-184763740D01*
X164564705Y-184813912D01*
X164711027Y-184960234D01*
X164883084Y-185075198D01*
X165074262Y-185154387D01*
X165277217Y-185194757D01*
X165277218Y-185194757D01*
X165484146Y-185194757D01*
X165484147Y-185194757D01*
X165687102Y-185154387D01*
X165878280Y-185075198D01*
X166050337Y-184960234D01*
X166196659Y-184813912D01*
X166311623Y-184641855D01*
X166390812Y-184450677D01*
X166431182Y-184247722D01*
X166431182Y-184040792D01*
X166431181Y-184040789D01*
X166870182Y-184040789D01*
X166870182Y-184247724D01*
X166910551Y-184450675D01*
X166989740Y-184641854D01*
X167071181Y-184763740D01*
X167104705Y-184813912D01*
X167251027Y-184960234D01*
X167423084Y-185075198D01*
X167614262Y-185154387D01*
X167817217Y-185194757D01*
X167817218Y-185194757D01*
X168024146Y-185194757D01*
X168024147Y-185194757D01*
X168227102Y-185154387D01*
X168418280Y-185075198D01*
X168590337Y-184960234D01*
X168736659Y-184813912D01*
X168851623Y-184641855D01*
X168930812Y-184450677D01*
X168971182Y-184247722D01*
X168971182Y-184040792D01*
X168971181Y-184040789D01*
X171950182Y-184040789D01*
X171950182Y-184247724D01*
X171990551Y-184450675D01*
X172069740Y-184641854D01*
X172151181Y-184763740D01*
X172184705Y-184813912D01*
X172331027Y-184960234D01*
X172503084Y-185075198D01*
X172694262Y-185154387D01*
X172897217Y-185194757D01*
X172897218Y-185194757D01*
X173104146Y-185194757D01*
X173104147Y-185194757D01*
X173307102Y-185154387D01*
X173498280Y-185075198D01*
X173670337Y-184960234D01*
X173816659Y-184813912D01*
X173931623Y-184641855D01*
X174010812Y-184450677D01*
X174051182Y-184247722D01*
X174051182Y-184040792D01*
X174051181Y-184040789D01*
X174490182Y-184040789D01*
X174490182Y-184247724D01*
X174530551Y-184450675D01*
X174609740Y-184641854D01*
X174691181Y-184763740D01*
X174724705Y-184813912D01*
X174871027Y-184960234D01*
X175043084Y-185075198D01*
X175234262Y-185154387D01*
X175437217Y-185194757D01*
X175437218Y-185194757D01*
X175644146Y-185194757D01*
X175644147Y-185194757D01*
X175847102Y-185154387D01*
X176038280Y-185075198D01*
X176210337Y-184960234D01*
X176356659Y-184813912D01*
X176471623Y-184641855D01*
X176550812Y-184450677D01*
X176591182Y-184247722D01*
X176591182Y-184040792D01*
X176591181Y-184040789D01*
X177030182Y-184040789D01*
X177030182Y-184247724D01*
X177070551Y-184450675D01*
X177149740Y-184641854D01*
X177231181Y-184763740D01*
X177264705Y-184813912D01*
X177411027Y-184960234D01*
X177583084Y-185075198D01*
X177774262Y-185154387D01*
X177977217Y-185194757D01*
X177977218Y-185194757D01*
X178184146Y-185194757D01*
X178184147Y-185194757D01*
X178387102Y-185154387D01*
X178578280Y-185075198D01*
X178750337Y-184960234D01*
X178896659Y-184813912D01*
X179011623Y-184641855D01*
X179090812Y-184450677D01*
X179131182Y-184247722D01*
X179131182Y-184040792D01*
X179090812Y-183837837D01*
X179011623Y-183646659D01*
X178896659Y-183474602D01*
X178750337Y-183328280D01*
X178729060Y-183314063D01*
X178578279Y-183213315D01*
X178387100Y-183134126D01*
X178184149Y-183093757D01*
X178184147Y-183093757D01*
X177977217Y-183093757D01*
X177977214Y-183093757D01*
X177774263Y-183134126D01*
X177583084Y-183213315D01*
X177411030Y-183328277D01*
X177264702Y-183474605D01*
X177149740Y-183646659D01*
X177070551Y-183837838D01*
X177030182Y-184040789D01*
X176591181Y-184040789D01*
X176550812Y-183837837D01*
X176471623Y-183646659D01*
X176356659Y-183474602D01*
X176210337Y-183328280D01*
X176189060Y-183314063D01*
X176038279Y-183213315D01*
X175847100Y-183134126D01*
X175644149Y-183093757D01*
X175644147Y-183093757D01*
X175437217Y-183093757D01*
X175437214Y-183093757D01*
X175234263Y-183134126D01*
X175043084Y-183213315D01*
X174871030Y-183328277D01*
X174724702Y-183474605D01*
X174609740Y-183646659D01*
X174530551Y-183837838D01*
X174490182Y-184040789D01*
X174051181Y-184040789D01*
X174010812Y-183837837D01*
X173931623Y-183646659D01*
X173816659Y-183474602D01*
X173670337Y-183328280D01*
X173649060Y-183314063D01*
X173498279Y-183213315D01*
X173307100Y-183134126D01*
X173104149Y-183093757D01*
X173104147Y-183093757D01*
X172897217Y-183093757D01*
X172897214Y-183093757D01*
X172694263Y-183134126D01*
X172503084Y-183213315D01*
X172331030Y-183328277D01*
X172184702Y-183474605D01*
X172069740Y-183646659D01*
X171990551Y-183837838D01*
X171950182Y-184040789D01*
X168971181Y-184040789D01*
X168930812Y-183837837D01*
X168851623Y-183646659D01*
X168736659Y-183474602D01*
X168590337Y-183328280D01*
X168569060Y-183314063D01*
X168418279Y-183213315D01*
X168227100Y-183134126D01*
X168024149Y-183093757D01*
X168024147Y-183093757D01*
X167817217Y-183093757D01*
X167817214Y-183093757D01*
X167614263Y-183134126D01*
X167423084Y-183213315D01*
X167251030Y-183328277D01*
X167104702Y-183474605D01*
X166989740Y-183646659D01*
X166910551Y-183837838D01*
X166870182Y-184040789D01*
X166431181Y-184040789D01*
X166390812Y-183837837D01*
X166311623Y-183646659D01*
X166196659Y-183474602D01*
X166050337Y-183328280D01*
X166029060Y-183314063D01*
X165878279Y-183213315D01*
X165687100Y-183134126D01*
X165484149Y-183093757D01*
X165484147Y-183093757D01*
X165277217Y-183093757D01*
X165277214Y-183093757D01*
X165074263Y-183134126D01*
X164883084Y-183213315D01*
X164711030Y-183328277D01*
X164564702Y-183474605D01*
X164449740Y-183646659D01*
X164370551Y-183837838D01*
X164330182Y-184040789D01*
X163891181Y-184040789D01*
X163850812Y-183837837D01*
X163771623Y-183646659D01*
X163656659Y-183474602D01*
X163510337Y-183328280D01*
X163489060Y-183314063D01*
X163338279Y-183213315D01*
X163147100Y-183134126D01*
X162944149Y-183093757D01*
X162944147Y-183093757D01*
X162737217Y-183093757D01*
X162737214Y-183093757D01*
X162534263Y-183134126D01*
X162343084Y-183213315D01*
X162171030Y-183328277D01*
X162024702Y-183474605D01*
X161909740Y-183646659D01*
X161830551Y-183837838D01*
X161790182Y-184040789D01*
X161351181Y-184040789D01*
X161310812Y-183837837D01*
X161231623Y-183646659D01*
X161116659Y-183474602D01*
X160970337Y-183328280D01*
X160949060Y-183314063D01*
X160798279Y-183213315D01*
X160607100Y-183134126D01*
X160404149Y-183093757D01*
X160404147Y-183093757D01*
X160197217Y-183093757D01*
X160197214Y-183093757D01*
X159990606Y-183134854D01*
X159929845Y-183127662D01*
X159901288Y-183107760D01*
X159352532Y-182559004D01*
X159324755Y-182504487D01*
X159334326Y-182444055D01*
X159377591Y-182400790D01*
X159422536Y-182390000D01*
X181372182Y-182390000D01*
X181430373Y-182408907D01*
X181466337Y-182458407D01*
X181471182Y-182489000D01*
X181471182Y-182994757D01*
X181452275Y-183052948D01*
X181402775Y-183088912D01*
X181372182Y-183093757D01*
X179750934Y-183093757D01*
X179750933Y-183093757D01*
X179750923Y-183093758D01*
X179692454Y-183105389D01*
X179692448Y-183105391D01*
X179626133Y-183149702D01*
X179626127Y-183149708D01*
X179581816Y-183216023D01*
X179581814Y-183216029D01*
X179570183Y-183274498D01*
X179570182Y-183274510D01*
X179570182Y-185014003D01*
X179570183Y-185014015D01*
X179581814Y-185072484D01*
X179581816Y-185072490D01*
X179626127Y-185138805D01*
X179626130Y-185138809D01*
X179692451Y-185183124D01*
X179736913Y-185191968D01*
X179750923Y-185194755D01*
X179750928Y-185194755D01*
X179750934Y-185194757D01*
X181372182Y-185194757D01*
X181430373Y-185213664D01*
X181466337Y-185263164D01*
X181471182Y-185293757D01*
X181471182Y-185810117D01*
X181452275Y-185868308D01*
X181402775Y-185904272D01*
X181341589Y-185904272D01*
X181302181Y-185880123D01*
X181290337Y-185868280D01*
X181118279Y-185753315D01*
X180927100Y-185674126D01*
X180724149Y-185633757D01*
X180724147Y-185633757D01*
X180517217Y-185633757D01*
X180517214Y-185633757D01*
X180314263Y-185674126D01*
X180123084Y-185753315D01*
X179951027Y-185868279D01*
X179864545Y-185954761D01*
X179810028Y-185982538D01*
X179794542Y-185983757D01*
X178906822Y-185983757D01*
X178848631Y-185964850D01*
X178836819Y-185954761D01*
X178750336Y-185868279D01*
X178578279Y-185753315D01*
X178387100Y-185674126D01*
X178184149Y-185633757D01*
X178184147Y-185633757D01*
X177977217Y-185633757D01*
X177977214Y-185633757D01*
X177774263Y-185674126D01*
X177583084Y-185753315D01*
X177411030Y-185868277D01*
X177264702Y-186014605D01*
X177149740Y-186186659D01*
X177070551Y-186377838D01*
X177030182Y-186580789D01*
X177030182Y-186787724D01*
X177070551Y-186990675D01*
X177149740Y-187181854D01*
X177232045Y-187305033D01*
X177264705Y-187353912D01*
X177411027Y-187500234D01*
X177583084Y-187615198D01*
X177774262Y-187694387D01*
X177977217Y-187734757D01*
X177977218Y-187734757D01*
X178184146Y-187734757D01*
X178184147Y-187734757D01*
X178387102Y-187694387D01*
X178578280Y-187615198D01*
X178750337Y-187500234D01*
X178793577Y-187456993D01*
X178836819Y-187413753D01*
X178891336Y-187385976D01*
X178906822Y-187384757D01*
X179794542Y-187384757D01*
X179852733Y-187403664D01*
X179864545Y-187413753D01*
X179951027Y-187500234D01*
X180123084Y-187615198D01*
X180314262Y-187694387D01*
X180517217Y-187734757D01*
X180517218Y-187734757D01*
X180724146Y-187734757D01*
X180724147Y-187734757D01*
X180927102Y-187694387D01*
X181118280Y-187615198D01*
X181290337Y-187500234D01*
X181333577Y-187456993D01*
X181376819Y-187413753D01*
X181431336Y-187385976D01*
X181446822Y-187384757D01*
X181891756Y-187384757D01*
X181891757Y-187384757D01*
X182027091Y-187357837D01*
X182154574Y-187305032D01*
X182269306Y-187228371D01*
X182269305Y-187228371D01*
X182273350Y-187225669D01*
X182274197Y-187226937D01*
X182325149Y-187206983D01*
X182384355Y-187222418D01*
X182423182Y-187269706D01*
X182430000Y-187305810D01*
X182430000Y-190460500D01*
X182411093Y-190518691D01*
X182361593Y-190554655D01*
X182331000Y-190559500D01*
X130729000Y-190559500D01*
X130670809Y-190540593D01*
X130634845Y-190491093D01*
X130630000Y-190460500D01*
X130630000Y-186580789D01*
X131310182Y-186580789D01*
X131310182Y-186787724D01*
X131350551Y-186990675D01*
X131429740Y-187181854D01*
X131512045Y-187305033D01*
X131544705Y-187353912D01*
X131691027Y-187500234D01*
X131863084Y-187615198D01*
X132054262Y-187694387D01*
X132257217Y-187734757D01*
X132257218Y-187734757D01*
X132464146Y-187734757D01*
X132464147Y-187734757D01*
X132667102Y-187694387D01*
X132858280Y-187615198D01*
X133030337Y-187500234D01*
X133176659Y-187353912D01*
X133291623Y-187181855D01*
X133370812Y-186990677D01*
X133411182Y-186787722D01*
X133411182Y-186580792D01*
X133411181Y-186580789D01*
X133850182Y-186580789D01*
X133850182Y-186787724D01*
X133890551Y-186990675D01*
X133969740Y-187181854D01*
X134052045Y-187305033D01*
X134084705Y-187353912D01*
X134231027Y-187500234D01*
X134403084Y-187615198D01*
X134594262Y-187694387D01*
X134797217Y-187734757D01*
X134797218Y-187734757D01*
X135004146Y-187734757D01*
X135004147Y-187734757D01*
X135207102Y-187694387D01*
X135398280Y-187615198D01*
X135570337Y-187500234D01*
X135716659Y-187353912D01*
X135831623Y-187181855D01*
X135910812Y-186990677D01*
X135951182Y-186787722D01*
X135951182Y-186580792D01*
X135951181Y-186580789D01*
X136390182Y-186580789D01*
X136390182Y-186787724D01*
X136430551Y-186990675D01*
X136509740Y-187181854D01*
X136592045Y-187305033D01*
X136624705Y-187353912D01*
X136771027Y-187500234D01*
X136943084Y-187615198D01*
X137134262Y-187694387D01*
X137337217Y-187734757D01*
X137337218Y-187734757D01*
X137544146Y-187734757D01*
X137544147Y-187734757D01*
X137747102Y-187694387D01*
X137938280Y-187615198D01*
X138110337Y-187500234D01*
X138256659Y-187353912D01*
X138371623Y-187181855D01*
X138450812Y-186990677D01*
X138491182Y-186787722D01*
X138491182Y-186580792D01*
X138491181Y-186580789D01*
X141470182Y-186580789D01*
X141470182Y-186787724D01*
X141510551Y-186990675D01*
X141589740Y-187181854D01*
X141672045Y-187305033D01*
X141704705Y-187353912D01*
X141851027Y-187500234D01*
X142023084Y-187615198D01*
X142214262Y-187694387D01*
X142417217Y-187734757D01*
X142417218Y-187734757D01*
X142624146Y-187734757D01*
X142624147Y-187734757D01*
X142827102Y-187694387D01*
X143018280Y-187615198D01*
X143190337Y-187500234D01*
X143336659Y-187353912D01*
X143451623Y-187181855D01*
X143530812Y-186990677D01*
X143571182Y-186787722D01*
X143571182Y-186580792D01*
X143530812Y-186377837D01*
X143451623Y-186186659D01*
X143336659Y-186014602D01*
X143190337Y-185868280D01*
X143190333Y-185868277D01*
X143018279Y-185753315D01*
X142827100Y-185674126D01*
X142624149Y-185633757D01*
X142624147Y-185633757D01*
X142417217Y-185633757D01*
X142417214Y-185633757D01*
X142214263Y-185674126D01*
X142023084Y-185753315D01*
X141851030Y-185868277D01*
X141704702Y-186014605D01*
X141589740Y-186186659D01*
X141510551Y-186377838D01*
X141470182Y-186580789D01*
X138491181Y-186580789D01*
X138450812Y-186377837D01*
X138371623Y-186186659D01*
X138256659Y-186014602D01*
X138110337Y-185868280D01*
X138110333Y-185868277D01*
X137938279Y-185753315D01*
X137747100Y-185674126D01*
X137544149Y-185633757D01*
X137544147Y-185633757D01*
X137337217Y-185633757D01*
X137337214Y-185633757D01*
X137134263Y-185674126D01*
X136943084Y-185753315D01*
X136771030Y-185868277D01*
X136624702Y-186014605D01*
X136509740Y-186186659D01*
X136430551Y-186377838D01*
X136390182Y-186580789D01*
X135951181Y-186580789D01*
X135910812Y-186377837D01*
X135831623Y-186186659D01*
X135716659Y-186014602D01*
X135570337Y-185868280D01*
X135570333Y-185868277D01*
X135398279Y-185753315D01*
X135207100Y-185674126D01*
X135004149Y-185633757D01*
X135004147Y-185633757D01*
X134797217Y-185633757D01*
X134797214Y-185633757D01*
X134594263Y-185674126D01*
X134403084Y-185753315D01*
X134231030Y-185868277D01*
X134084702Y-186014605D01*
X133969740Y-186186659D01*
X133890551Y-186377838D01*
X133850182Y-186580789D01*
X133411181Y-186580789D01*
X133370812Y-186377837D01*
X133291623Y-186186659D01*
X133176659Y-186014602D01*
X133030337Y-185868280D01*
X133030333Y-185868277D01*
X132858279Y-185753315D01*
X132667100Y-185674126D01*
X132464149Y-185633757D01*
X132464147Y-185633757D01*
X132257217Y-185633757D01*
X132257214Y-185633757D01*
X132054263Y-185674126D01*
X131863084Y-185753315D01*
X131691030Y-185868277D01*
X131544702Y-186014605D01*
X131429740Y-186186659D01*
X131350551Y-186377838D01*
X131310182Y-186580789D01*
X130630000Y-186580789D01*
X130630000Y-184040789D01*
X133850182Y-184040789D01*
X133850182Y-184247724D01*
X133890551Y-184450675D01*
X133969740Y-184641854D01*
X134051181Y-184763740D01*
X134084705Y-184813912D01*
X134231027Y-184960234D01*
X134403084Y-185075198D01*
X134594262Y-185154387D01*
X134797217Y-185194757D01*
X134797218Y-185194757D01*
X135004146Y-185194757D01*
X135004147Y-185194757D01*
X135207102Y-185154387D01*
X135398280Y-185075198D01*
X135570337Y-184960234D01*
X135716659Y-184813912D01*
X135831623Y-184641855D01*
X135910812Y-184450677D01*
X135951182Y-184247722D01*
X135951182Y-184040792D01*
X135951181Y-184040789D01*
X136390182Y-184040789D01*
X136390182Y-184247724D01*
X136430551Y-184450675D01*
X136509740Y-184641854D01*
X136591181Y-184763740D01*
X136624705Y-184813912D01*
X136771027Y-184960234D01*
X136943084Y-185075198D01*
X137134262Y-185154387D01*
X137337217Y-185194757D01*
X137337218Y-185194757D01*
X137544146Y-185194757D01*
X137544147Y-185194757D01*
X137747102Y-185154387D01*
X137938280Y-185075198D01*
X138110337Y-184960234D01*
X138256659Y-184813912D01*
X138371623Y-184641855D01*
X138450812Y-184450677D01*
X138491182Y-184247722D01*
X138491182Y-184040792D01*
X138491181Y-184040789D01*
X138930182Y-184040789D01*
X138930182Y-184247724D01*
X138970551Y-184450675D01*
X139049740Y-184641854D01*
X139131181Y-184763740D01*
X139164705Y-184813912D01*
X139311027Y-184960234D01*
X139483084Y-185075198D01*
X139674262Y-185154387D01*
X139877217Y-185194757D01*
X139877218Y-185194757D01*
X140084146Y-185194757D01*
X140084147Y-185194757D01*
X140287102Y-185154387D01*
X140478280Y-185075198D01*
X140650337Y-184960234D01*
X140796659Y-184813912D01*
X140911623Y-184641855D01*
X140990812Y-184450677D01*
X141031182Y-184247722D01*
X141031182Y-184040792D01*
X141031181Y-184040789D01*
X141470182Y-184040789D01*
X141470182Y-184247724D01*
X141510551Y-184450675D01*
X141589740Y-184641854D01*
X141671181Y-184763740D01*
X141704705Y-184813912D01*
X141851027Y-184960234D01*
X142023084Y-185075198D01*
X142214262Y-185154387D01*
X142417217Y-185194757D01*
X142417218Y-185194757D01*
X142624146Y-185194757D01*
X142624147Y-185194757D01*
X142827102Y-185154387D01*
X143018280Y-185075198D01*
X143190337Y-184960234D01*
X143336659Y-184813912D01*
X143451623Y-184641855D01*
X143530812Y-184450677D01*
X143571182Y-184247722D01*
X143571182Y-184040792D01*
X143530812Y-183837837D01*
X143451623Y-183646659D01*
X143336659Y-183474602D01*
X143190337Y-183328280D01*
X143169060Y-183314063D01*
X143018279Y-183213315D01*
X142827100Y-183134126D01*
X142624149Y-183093757D01*
X142624147Y-183093757D01*
X142417217Y-183093757D01*
X142417214Y-183093757D01*
X142214263Y-183134126D01*
X142023084Y-183213315D01*
X141851030Y-183328277D01*
X141704702Y-183474605D01*
X141589740Y-183646659D01*
X141510551Y-183837838D01*
X141470182Y-184040789D01*
X141031181Y-184040789D01*
X140990812Y-183837837D01*
X140911623Y-183646659D01*
X140796659Y-183474602D01*
X140650337Y-183328280D01*
X140629060Y-183314063D01*
X140478279Y-183213315D01*
X140287100Y-183134126D01*
X140084149Y-183093757D01*
X140084147Y-183093757D01*
X139877217Y-183093757D01*
X139877214Y-183093757D01*
X139674263Y-183134126D01*
X139483084Y-183213315D01*
X139311030Y-183328277D01*
X139164702Y-183474605D01*
X139049740Y-183646659D01*
X138970551Y-183837838D01*
X138930182Y-184040789D01*
X138491181Y-184040789D01*
X138450812Y-183837837D01*
X138371623Y-183646659D01*
X138256659Y-183474602D01*
X138110337Y-183328280D01*
X138089060Y-183314063D01*
X137938279Y-183213315D01*
X137747100Y-183134126D01*
X137544149Y-183093757D01*
X137544147Y-183093757D01*
X137337217Y-183093757D01*
X137337214Y-183093757D01*
X137134263Y-183134126D01*
X136943084Y-183213315D01*
X136771030Y-183328277D01*
X136624702Y-183474605D01*
X136509740Y-183646659D01*
X136430551Y-183837838D01*
X136390182Y-184040789D01*
X135951181Y-184040789D01*
X135910812Y-183837837D01*
X135831623Y-183646659D01*
X135716659Y-183474602D01*
X135570337Y-183328280D01*
X135549060Y-183314063D01*
X135398279Y-183213315D01*
X135207100Y-183134126D01*
X135004149Y-183093757D01*
X135004147Y-183093757D01*
X134797217Y-183093757D01*
X134797214Y-183093757D01*
X134594263Y-183134126D01*
X134403084Y-183213315D01*
X134231030Y-183328277D01*
X134084702Y-183474605D01*
X133969740Y-183646659D01*
X133890551Y-183837838D01*
X133850182Y-184040789D01*
X130630000Y-184040789D01*
X130630000Y-182449000D01*
X130648907Y-182390809D01*
X130698407Y-182354845D01*
X130729000Y-182350000D01*
X134678993Y-182350000D01*
X134737184Y-182368907D01*
X134738464Y-182370000D01*
X134739999Y-182370000D01*
X134739999Y-182369999D01*
X134740000Y-182370000D01*
X134760000Y-182350000D01*
X134760000Y-175929000D01*
X134778907Y-175870809D01*
X134828407Y-175834845D01*
X134859000Y-175830000D01*
X142178992Y-175830000D01*
X142237183Y-175848907D01*
G37*
G04 #@! TD.AperFunction*
G04 #@! TA.AperFunction,Conductor*
G36*
X174211333Y-163051179D02*
G01*
X174255680Y-163079680D01*
X175373499Y-164197499D01*
X175406984Y-164258822D01*
X175409818Y-164285180D01*
X175409818Y-164687050D01*
X175414774Y-164705545D01*
X175413110Y-164775395D01*
X175382680Y-164825318D01*
X173168559Y-167039439D01*
X173107236Y-167072924D01*
X173046136Y-167068554D01*
X173046054Y-167068971D01*
X173042738Y-167068311D01*
X173037544Y-167067940D01*
X173034144Y-167066602D01*
X172936336Y-167047147D01*
X172936332Y-167047147D01*
X172838598Y-167066587D01*
X172838595Y-167066588D01*
X172776648Y-167107979D01*
X171610387Y-168274240D01*
X171568996Y-168336187D01*
X171568995Y-168336190D01*
X171549555Y-168433923D01*
X171549555Y-168433928D01*
X171571379Y-168543646D01*
X171570112Y-168543897D01*
X171576195Y-168600490D01*
X171544919Y-168662968D01*
X171541847Y-168666151D01*
X167165831Y-173042167D01*
X167104508Y-173075652D01*
X167034816Y-173070668D01*
X166978883Y-173028796D01*
X166975049Y-173023379D01*
X166950189Y-172986174D01*
X166943727Y-172976503D01*
X166943725Y-172976501D01*
X166943723Y-172976498D01*
X166519931Y-172552706D01*
X166519927Y-172552703D01*
X166519924Y-172552700D01*
X166495112Y-172536121D01*
X166457982Y-172511310D01*
X166457980Y-172511309D01*
X166360243Y-172491869D01*
X166360239Y-172491869D01*
X166262505Y-172511309D01*
X166262502Y-172511310D01*
X166200555Y-172552701D01*
X165146309Y-173606947D01*
X165084986Y-173640432D01*
X165015294Y-173635448D01*
X164970947Y-173606947D01*
X164758108Y-173394108D01*
X164724623Y-173332785D01*
X164729607Y-173263093D01*
X164758106Y-173218748D01*
X165812356Y-172164499D01*
X165853745Y-172102556D01*
X165873187Y-172004816D01*
X165873187Y-172004813D01*
X165853746Y-171907076D01*
X165853745Y-171907074D01*
X165837166Y-171882263D01*
X165812356Y-171845133D01*
X165812352Y-171845129D01*
X165812350Y-171845126D01*
X165388560Y-171421336D01*
X165388555Y-171421332D01*
X165388553Y-171421330D01*
X165363741Y-171404751D01*
X165326611Y-171379940D01*
X165326609Y-171379939D01*
X165228872Y-171360499D01*
X165228868Y-171360499D01*
X165131134Y-171379939D01*
X165131131Y-171379940D01*
X165069184Y-171421331D01*
X165069183Y-171421332D01*
X164014939Y-172475577D01*
X163953616Y-172509062D01*
X163883924Y-172504078D01*
X163839577Y-172475577D01*
X163626737Y-172262737D01*
X163593252Y-172201414D01*
X163598236Y-172131722D01*
X163626735Y-172087377D01*
X164680985Y-171033128D01*
X164722374Y-170971185D01*
X164724019Y-170962916D01*
X164741816Y-170873447D01*
X164741816Y-170873442D01*
X164722375Y-170775705D01*
X164722374Y-170775703D01*
X164693122Y-170731926D01*
X164687470Y-170713879D01*
X164677246Y-170697969D01*
X164672794Y-170667011D01*
X164672243Y-170665249D01*
X164672223Y-170663034D01*
X164672223Y-170426479D01*
X164691908Y-170359440D01*
X164744712Y-170313685D01*
X164748771Y-170311918D01*
X164871488Y-170261087D01*
X164871488Y-170261086D01*
X164871495Y-170261084D01*
X164994416Y-170178951D01*
X165098951Y-170074416D01*
X165181084Y-169951495D01*
X165237658Y-169814913D01*
X165263921Y-169682884D01*
X165266500Y-169669920D01*
X165266500Y-169522079D01*
X165237659Y-169377092D01*
X165237658Y-169377091D01*
X165237658Y-169377087D01*
X165222820Y-169341264D01*
X165181087Y-169240511D01*
X165181077Y-169240493D01*
X165113617Y-169139531D01*
X165092739Y-169072854D01*
X165111224Y-169005474D01*
X165129030Y-168982969D01*
X165585821Y-168526178D01*
X165647142Y-168492695D01*
X165716834Y-168497679D01*
X165772767Y-168539551D01*
X165797184Y-168605015D01*
X165797500Y-168613861D01*
X165797500Y-168653918D01*
X165797500Y-168653920D01*
X165797499Y-168653920D01*
X165826340Y-168798907D01*
X165826343Y-168798917D01*
X165882912Y-168935488D01*
X165882919Y-168935501D01*
X165965048Y-169058415D01*
X165965051Y-169058419D01*
X166069580Y-169162948D01*
X166069584Y-169162951D01*
X166192498Y-169245080D01*
X166192511Y-169245087D01*
X166329082Y-169301656D01*
X166329087Y-169301658D01*
X166329091Y-169301658D01*
X166329092Y-169301659D01*
X166474079Y-169330500D01*
X166474082Y-169330500D01*
X166621920Y-169330500D01*
X166719462Y-169311096D01*
X166766913Y-169301658D01*
X166903495Y-169245084D01*
X167026416Y-169162951D01*
X167130951Y-169058416D01*
X167213084Y-168935495D01*
X167269658Y-168798913D01*
X167298500Y-168653918D01*
X167298500Y-168506082D01*
X167298500Y-168506079D01*
X167269659Y-168361092D01*
X167269658Y-168361091D01*
X167269658Y-168361087D01*
X167233685Y-168274240D01*
X167213087Y-168224511D01*
X167213080Y-168224498D01*
X167130951Y-168101584D01*
X167130948Y-168101580D01*
X167026419Y-167997051D01*
X167026415Y-167997048D01*
X166903501Y-167914919D01*
X166903488Y-167914912D01*
X166766917Y-167858343D01*
X166766907Y-167858340D01*
X166621920Y-167829500D01*
X166621918Y-167829500D01*
X166581861Y-167829500D01*
X166514822Y-167809815D01*
X166469067Y-167757011D01*
X166459123Y-167687853D01*
X166488148Y-167624297D01*
X166494166Y-167617833D01*
X168477466Y-165634533D01*
X168538787Y-165601050D01*
X168608479Y-165606034D01*
X168634339Y-165620922D01*
X168635012Y-165619916D01*
X168702017Y-165664689D01*
X168702019Y-165664690D01*
X168799757Y-165684131D01*
X168799759Y-165684131D01*
X168799761Y-165684131D01*
X168897494Y-165664690D01*
X168897494Y-165664689D01*
X168897499Y-165664689D01*
X168959442Y-165623300D01*
X170125707Y-164457035D01*
X170167096Y-164395092D01*
X170175592Y-164352378D01*
X170207976Y-164290470D01*
X170268691Y-164255895D01*
X170338460Y-164259634D01*
X170384890Y-164288890D01*
X170682052Y-164586052D01*
X170715537Y-164647375D01*
X170710553Y-164717067D01*
X170668681Y-164773000D01*
X170618564Y-164795350D01*
X170575855Y-164803845D01*
X170575853Y-164803846D01*
X170513906Y-164845237D01*
X169347645Y-166011498D01*
X169306254Y-166073445D01*
X169306253Y-166073448D01*
X169286813Y-166171181D01*
X169286813Y-166171186D01*
X169306253Y-166268923D01*
X169306254Y-166268925D01*
X169331065Y-166306055D01*
X169347644Y-166330867D01*
X169347647Y-166330870D01*
X169347650Y-166330874D01*
X169771440Y-166754664D01*
X169771443Y-166754666D01*
X169771447Y-166754670D01*
X169808577Y-166779480D01*
X169833388Y-166796059D01*
X169833390Y-166796060D01*
X169931128Y-166815501D01*
X169931130Y-166815501D01*
X169931132Y-166815501D01*
X170028865Y-166796060D01*
X170028865Y-166796059D01*
X170028870Y-166796059D01*
X170090813Y-166754670D01*
X171257078Y-165588405D01*
X171298467Y-165526462D01*
X171306963Y-165483749D01*
X171339347Y-165421841D01*
X171400062Y-165387266D01*
X171469832Y-165391005D01*
X171516261Y-165420261D01*
X171627999Y-165531999D01*
X171628000Y-165532000D01*
X172032583Y-165127416D01*
X172093900Y-165093935D01*
X172137905Y-165092363D01*
X172145850Y-165093505D01*
X172242404Y-165107387D01*
X172381304Y-165087417D01*
X172508949Y-165029123D01*
X172554469Y-164992442D01*
X172956352Y-164590559D01*
X172993033Y-164545039D01*
X173051327Y-164417394D01*
X173071297Y-164278494D01*
X173056273Y-164173995D01*
X173066217Y-164104837D01*
X173091325Y-164068674D01*
X174080322Y-163079677D01*
X174141641Y-163046195D01*
X174211333Y-163051179D01*
G37*
G04 #@! TD.AperFunction*
M02*
