M48
; DRILL file {KiCad 9.0.1-9.0.1-0~ubuntu24.04.1} date 2025-04-20T11:35:08-0600
; FORMAT={-:-/ absolute / metric / decimal}
; #@! TF.CreationDate,2025-04-20T11:35:08-06:00
; #@! TF.GenerationSoftware,Kicad,Pcbnew,9.0.1-9.0.1-0~ubuntu24.04.1
; #@! TF.FileFunction,Plated,1,2,PTH
FMAT,2
METRIC
; #@! TA.AperFunction,Plated,PTH,ViaDrill
T1C0.300
; #@! TA.AperFunction,Plated,PTH,ViaDrill
T2C0.500
; #@! TA.AperFunction,Plated,PTH,ViaDrill
T3C0.600
; #@! TA.AperFunction,Plated,PTH,ComponentDrill
T4C1.000
%
G90
G05
T1
X132.55Y-172.79
T2
X132.512Y-174.168
X132.512Y-175.692
X132.512Y-177.216
X132.512Y-178.74
X134.036Y-174.168
X135.56Y-174.168
X137.084Y-174.168
X138.608Y-174.168
X140.132Y-161.468
X140.132Y-164.008
X140.132Y-166.04
X140.132Y-168.072
X140.132Y-170.104
X140.132Y-174.168
X143.688Y-181.788
X144.888Y-181.788
X146.228Y-161.468
X146.228Y-162.992
X147.752Y-159.944
X147.752Y-162.992
X149.276Y-159.944
X153.34Y-169.596
X155.372Y-175.184
X156.896Y-173.66
X156.896Y-176.708
X158.42Y-167.056
X158.42Y-178.232
X159.436Y-156.896
X159.436Y-158.42
X160.452Y-166.04
X160.452Y-180.264
X160.493Y-171.587
X164.516Y-169.596
X164.616Y-168.163
X165.024Y-161.976
X166.548Y-168.58
X167.056Y-156.896
X167.056Y-158.42
X167.056Y-159.944
X167.056Y-161.468
X169.088Y-177.724
X169.088Y-180.264
X170.612Y-179.248
X172.136Y-173.152
X174.676Y-161.976
X176.16Y-168.62
X176.2Y-170.104
X176.2Y-171.628
X176.2Y-174.334
X176.2Y-177.216
X176.2Y-180.264
X178.232Y-173.66
X178.232Y-176.708
X178.232Y-180.264
X180.264Y-164.516
X180.264Y-169.088
X180.264Y-173.66
X180.264Y-176.708
X180.264Y-180.264
X183.312Y-171.628
X183.82Y-173.66
X183.82Y-176.708
X183.82Y-180.264
X184.328Y-171.628
X185.344Y-171.628
X185.852Y-173.66
X185.852Y-176.708
X185.852Y-180.264
X187.884Y-173.66
X187.884Y-176.708
X187.884Y-180.264
X190.932Y-159.436
X197.536Y-169.088
X203.632Y-173.152
X211.76Y-160.96
X212.268Y-175.184
T3
X161.293Y-165.092
T4
X132.361Y-184.144
X132.361Y-186.684
X134.901Y-184.144
X134.901Y-186.684
X137.441Y-184.144
X137.441Y-186.684
X139.981Y-184.144
X139.981Y-186.684
X142.521Y-184.144
X142.521Y-186.684
X145.061Y-184.144
X145.061Y-186.684
X147.601Y-184.144
X147.601Y-186.684
X148.53Y-152.49
X148.53Y-155.03
X150.141Y-184.144
X150.141Y-186.684
X151.07Y-152.49
X151.07Y-155.03
X152.681Y-184.144
X152.681Y-186.684
X155.221Y-184.144
X155.221Y-186.684
X156.829Y-152.426
X156.829Y-154.966
X157.761Y-184.144
X157.761Y-186.684
X159.369Y-152.426
X159.369Y-154.966
X160.301Y-184.144
X160.301Y-186.684
X161.909Y-152.426
X161.909Y-154.966
X162.841Y-184.144
X162.841Y-186.684
X164.449Y-152.426
X164.449Y-154.966
X165.381Y-184.144
X165.381Y-186.684
X166.989Y-152.426
X166.989Y-154.966
X167.921Y-184.144
X167.921Y-186.684
X169.529Y-152.426
X169.529Y-154.966
X170.461Y-184.144
X170.461Y-186.684
X172.069Y-152.426
X172.069Y-154.966
X173.001Y-184.144
X173.001Y-186.684
X174.609Y-152.426
X174.609Y-154.966
X175.541Y-184.144
X175.541Y-186.684
X177.149Y-152.426
X177.149Y-154.966
X178.081Y-184.144
X178.081Y-186.684
X179.689Y-152.426
X179.689Y-154.966
X180.621Y-184.144
X180.621Y-186.684
X182.229Y-152.426
X182.229Y-154.966
X188.58Y-152.56
X188.58Y-155.1
X191.12Y-152.56
X191.12Y-155.1
X193.66Y-152.56
X193.66Y-155.1
M30
