G04 #@! TF.GenerationSoftware,KiCad,Pcbnew,7.0.10-7.0.10~ubuntu22.04.1*
G04 #@! TF.CreationDate,2025-04-10T19:03:43-06:00*
G04 #@! TF.ProjectId,OAC,4f41432e-6b69-4636-9164-5f7063625858,rev?*
G04 #@! TF.SameCoordinates,Original*
G04 #@! TF.FileFunction,Soldermask,Bot*
G04 #@! TF.FilePolarity,Negative*
%FSLAX46Y46*%
G04 Gerber Fmt 4.6, Leading zero omitted, Abs format (unit mm)*
G04 Created by KiCad (PCBNEW 7.0.10-7.0.10~ubuntu22.04.1) date 2025-04-10 19:03:43*
%MOMM*%
%LPD*%
G01*
G04 APERTURE LIST*
G04 Aperture macros list*
%AMRoundRect*
0 Rectangle with rounded corners*
0 $1 Rounding radius*
0 $2 $3 $4 $5 $6 $7 $8 $9 X,Y pos of 4 corners*
0 Add a 4 corners polygon primitive as box body*
4,1,4,$2,$3,$4,$5,$6,$7,$8,$9,$2,$3,0*
0 Add four circle primitives for the rounded corners*
1,1,$1+$1,$2,$3*
1,1,$1+$1,$4,$5*
1,1,$1+$1,$6,$7*
1,1,$1+$1,$8,$9*
0 Add four rect primitives between the rounded corners*
20,1,$1+$1,$2,$3,$4,$5,0*
20,1,$1+$1,$4,$5,$6,$7,0*
20,1,$1+$1,$6,$7,$8,$9,0*
20,1,$1+$1,$8,$9,$2,$3,0*%
%AMFreePoly0*
4,1,37,0.559954,2.682520,0.597008,2.631520,0.602000,2.600000,0.602000,1.032051,1.117027,0.517026,1.139138,0.483934,1.157736,0.439033,1.165500,0.400000,1.165500,-0.400000,1.157736,-0.439033,1.139138,-0.483934,1.117027,-0.517026,0.602000,-1.032051,0.602000,-2.600000,0.582520,-2.659954,0.531520,-2.697008,0.500000,-2.702000,-0.500000,-2.702000,-0.559954,-2.682520,-0.597008,-2.631520,
-0.602000,-2.600000,-0.602000,-1.032052,-1.117026,-0.517026,-1.139136,-0.483935,-1.157735,-0.439034,-1.165500,-0.400000,-1.165500,0.400000,-1.157735,0.439034,-1.139136,0.483935,-1.117026,0.517026,-0.602000,1.032052,-0.602000,2.600000,-0.582520,2.659954,-0.531520,2.697008,-0.500000,2.702000,0.500000,2.702000,0.559954,2.682520,0.559954,2.682520,$1*%
G04 Aperture macros list end*
%ADD10C,0.127000*%
%ADD11C,2.750000*%
%ADD12C,2.000000*%
%ADD13C,6.200000*%
%ADD14C,6.000000*%
%ADD15R,1.700000X1.700000*%
%ADD16O,1.700000X1.700000*%
%ADD17RoundRect,0.250000X0.650000X-1.500000X0.650000X1.500000X-0.650000X1.500000X-0.650000X-1.500000X0*%
%ADD18RoundRect,0.250000X0.350000X0.450000X-0.350000X0.450000X-0.350000X-0.450000X0.350000X-0.450000X0*%
%ADD19RoundRect,0.250000X1.075000X-0.400000X1.075000X0.400000X-1.075000X0.400000X-1.075000X-0.400000X0*%
%ADD20RoundRect,0.250000X1.500000X0.650000X-1.500000X0.650000X-1.500000X-0.650000X1.500000X-0.650000X0*%
%ADD21R,3.251200X2.489200*%
%ADD22RoundRect,0.250000X0.400000X1.075000X-0.400000X1.075000X-0.400000X-1.075000X0.400000X-1.075000X0*%
%ADD23RoundRect,0.237500X-0.250000X-0.237500X0.250000X-0.237500X0.250000X0.237500X-0.250000X0.237500X0*%
%ADD24RoundRect,0.250000X0.450000X-0.350000X0.450000X0.350000X-0.450000X0.350000X-0.450000X-0.350000X0*%
%ADD25RoundRect,0.102000X-0.350000X-0.750000X0.350000X-0.750000X0.350000X0.750000X-0.350000X0.750000X0*%
%ADD26FreePoly0,0.000000*%
%ADD27RoundRect,0.250000X-0.450000X0.350000X-0.450000X-0.350000X0.450000X-0.350000X0.450000X0.350000X0*%
%ADD28RoundRect,0.250000X-1.500000X-0.650000X1.500000X-0.650000X1.500000X0.650000X-1.500000X0.650000X0*%
%ADD29RoundRect,0.250000X-0.400000X-1.075000X0.400000X-1.075000X0.400000X1.075000X-0.400000X1.075000X0*%
%ADD30R,2.489200X3.251200*%
%ADD31RoundRect,0.102000X2.120000X2.600000X-2.120000X2.600000X-2.120000X-2.600000X2.120000X-2.600000X0*%
%ADD32RoundRect,0.102000X2.120000X1.650000X-2.120000X1.650000X-2.120000X-1.650000X2.120000X-1.650000X0*%
%ADD33RoundRect,0.102000X-2.120000X-1.650000X2.120000X-1.650000X2.120000X1.650000X-2.120000X1.650000X0*%
%ADD34RoundRect,0.102000X-2.120000X-2.600000X2.120000X-2.600000X2.120000X2.600000X-2.120000X2.600000X0*%
%ADD35RoundRect,0.250000X-0.350000X-0.450000X0.350000X-0.450000X0.350000X0.450000X-0.350000X0.450000X0*%
%ADD36RoundRect,0.102000X-0.750000X0.350000X-0.750000X-0.350000X0.750000X-0.350000X0.750000X0.350000X0*%
%ADD37FreePoly0,270.000000*%
%ADD38RoundRect,0.250000X-1.075000X0.400000X-1.075000X-0.400000X1.075000X-0.400000X1.075000X0.400000X0*%
G04 APERTURE END LIST*
D10*
X257999998Y-156960000D02*
X257999998Y-157760000D01*
X256999998Y-158760000D01*
X255999998Y-157760000D01*
X255999998Y-156960000D01*
X256999998Y-155960000D01*
X257999998Y-156960000D01*
G36*
X257999998Y-156960000D02*
G01*
X257999998Y-157760000D01*
X256999998Y-158760000D01*
X255999998Y-157760000D01*
X255999998Y-156960000D01*
X256999998Y-155960000D01*
X257999998Y-156960000D01*
G37*
X251219998Y-184170000D02*
X251219998Y-184970000D01*
X250219998Y-185970000D01*
X249219998Y-184970000D01*
X249219998Y-184170000D01*
X250219998Y-183170000D01*
X251219998Y-184170000D01*
G36*
X251219998Y-184170000D02*
G01*
X251219998Y-184970000D01*
X250219998Y-185970000D01*
X249219998Y-184970000D01*
X249219998Y-184170000D01*
X250219998Y-183170000D01*
X251219998Y-184170000D01*
G37*
X263021748Y-168074250D02*
X263021748Y-168874250D01*
X262021748Y-169874250D01*
X261021748Y-168874250D01*
X261021748Y-168074250D01*
X262021748Y-167074250D01*
X263021748Y-168074250D01*
G36*
X263021748Y-168074250D02*
G01*
X263021748Y-168874250D01*
X262021748Y-169874250D01*
X261021748Y-168874250D01*
X261021748Y-168074250D01*
X262021748Y-167074250D01*
X263021748Y-168074250D01*
G37*
X267509998Y-187530000D02*
X266509998Y-188530000D01*
X265709998Y-188530000D01*
X264709998Y-187530000D01*
X265709998Y-186530000D01*
X266509998Y-186530000D01*
X267509998Y-187530000D01*
G36*
X267509998Y-187530000D02*
G01*
X266509998Y-188530000D01*
X265709998Y-188530000D01*
X264709998Y-187530000D01*
X265709998Y-186530000D01*
X266509998Y-186530000D01*
X267509998Y-187530000D01*
G37*
D11*
X238860000Y-98567500D03*
X238860000Y-133407500D03*
D12*
X245945174Y-116308579D03*
X245945174Y-128808579D03*
D13*
X256435174Y-116398579D03*
D12*
X266945174Y-116318579D03*
X266945174Y-128818579D03*
D11*
X273700000Y-98567500D03*
X273700000Y-133407500D03*
D14*
X127490682Y-185414257D03*
X185490682Y-185414257D03*
X127490682Y-162414257D03*
X185490682Y-162414257D03*
D15*
X180620682Y-184144257D03*
D16*
X180620682Y-186684257D03*
X178080682Y-184144257D03*
X178080682Y-186684257D03*
X175540682Y-184144257D03*
X175540682Y-186684257D03*
X173000682Y-184144257D03*
X173000682Y-186684257D03*
X170460682Y-184144257D03*
X170460682Y-186684257D03*
X167920682Y-184144257D03*
X167920682Y-186684257D03*
X165380682Y-184144257D03*
X165380682Y-186684257D03*
X162840682Y-184144257D03*
X162840682Y-186684257D03*
X160300682Y-184144257D03*
X160300682Y-186684257D03*
X157760682Y-184144257D03*
X157760682Y-186684257D03*
X155220682Y-184144257D03*
X155220682Y-186684257D03*
X152680682Y-184144257D03*
X152680682Y-186684257D03*
X150140682Y-184144257D03*
X150140682Y-186684257D03*
X147600682Y-184144257D03*
X147600682Y-186684257D03*
X145060682Y-184144257D03*
X145060682Y-186684257D03*
X142520682Y-184144257D03*
X142520682Y-186684257D03*
X139980682Y-184144257D03*
X139980682Y-186684257D03*
X137440682Y-184144257D03*
X137440682Y-186684257D03*
X134900682Y-184144257D03*
X134900682Y-186684257D03*
X132360682Y-184144257D03*
X132360682Y-186684257D03*
D11*
X238655386Y-152910000D03*
X238655386Y-187750000D03*
D12*
X245740560Y-170651079D03*
X245740560Y-183151079D03*
X266740560Y-170661079D03*
X266740560Y-183161079D03*
D11*
X273495386Y-152910000D03*
X273495386Y-187750000D03*
D15*
X254795000Y-133507500D03*
D16*
X257335000Y-133507500D03*
D15*
X188105000Y-152480000D03*
D16*
X188105000Y-155020000D03*
X190645000Y-152480000D03*
X190645000Y-155020000D03*
X193185000Y-152480000D03*
X193185000Y-155020000D03*
D15*
X274150000Y-113677500D03*
D16*
X274150000Y-116217500D03*
D15*
X254464998Y-187700000D03*
D16*
X257004998Y-187700000D03*
D15*
X238259998Y-164700000D03*
D16*
X238259998Y-162160000D03*
X238259998Y-159620000D03*
D15*
X238590000Y-105442500D03*
D16*
X238590000Y-107982500D03*
X238590000Y-110522500D03*
D15*
X256464998Y-152420000D03*
D16*
X259004998Y-152420000D03*
D15*
X256795000Y-98227500D03*
D16*
X259335000Y-98227500D03*
D15*
X238600000Y-114237500D03*
D16*
X238600000Y-116777500D03*
X148530000Y-155030000D03*
X151070000Y-155030000D03*
X148530000Y-152490000D03*
D15*
X151070000Y-152490000D03*
X273819998Y-167870000D03*
D16*
X273819998Y-170410000D03*
D12*
X118170000Y-153230000D03*
X118170000Y-188070000D03*
X216370000Y-153230000D03*
X216370000Y-188070000D03*
D15*
X156829318Y-152425743D03*
D16*
X159369318Y-152425743D03*
X161909318Y-152425743D03*
X164449318Y-152425743D03*
X166989318Y-152425743D03*
X169529318Y-152425743D03*
X172069318Y-152425743D03*
X174609318Y-152425743D03*
X177149318Y-152425743D03*
X179689318Y-152425743D03*
X182229318Y-152425743D03*
X156829318Y-154965743D03*
X159369318Y-154965743D03*
X161909318Y-154965743D03*
X164449318Y-154965743D03*
X166989318Y-154965743D03*
X169529318Y-154965743D03*
X172069318Y-154965743D03*
X174609318Y-154965743D03*
X177149318Y-154965743D03*
X179689318Y-154965743D03*
X182229318Y-154965743D03*
D15*
X238269998Y-168430000D03*
D16*
X238269998Y-170970000D03*
D17*
X262149998Y-179240000D03*
X262149998Y-174240000D03*
D18*
X270859998Y-166740000D03*
X268859998Y-166740000D03*
D19*
X242889998Y-164880000D03*
X242889998Y-161780000D03*
D20*
X269299998Y-163300000D03*
X264299998Y-163300000D03*
D21*
X245749998Y-158114400D03*
X245749998Y-152120000D03*
D22*
X241949998Y-182340000D03*
X238849998Y-182340000D03*
D23*
X237307498Y-156610000D03*
X239132498Y-156610000D03*
D17*
X252279998Y-157910000D03*
X252279998Y-152910000D03*
D24*
X260699998Y-162880000D03*
X260699998Y-160880000D03*
D25*
X255499998Y-155510000D03*
D26*
X256999998Y-157360000D03*
D25*
X258499998Y-155510000D03*
X258499998Y-159210000D03*
X255499998Y-159210000D03*
X248719998Y-182720000D03*
D26*
X250219998Y-184570000D03*
D25*
X251719998Y-182720000D03*
X251719998Y-186420000D03*
X248719998Y-186420000D03*
D19*
X246270000Y-164900000D03*
X246270000Y-161800000D03*
D27*
X261569998Y-186630000D03*
X261569998Y-188630000D03*
D12*
X215900000Y-132702500D03*
X215900000Y-97862500D03*
X117700000Y-132702500D03*
X117700000Y-97862500D03*
D15*
X177240682Y-97058243D03*
D16*
X174700682Y-97058243D03*
X172160682Y-97058243D03*
X169620682Y-97058243D03*
X167080682Y-97058243D03*
X164540682Y-97058243D03*
X162000682Y-97058243D03*
X159460682Y-97058243D03*
X156920682Y-97058243D03*
X154380682Y-97058243D03*
X151840682Y-97058243D03*
X177240682Y-99598243D03*
X174700682Y-99598243D03*
X172160682Y-99598243D03*
X169620682Y-99598243D03*
X167080682Y-99598243D03*
X164540682Y-99598243D03*
X162000682Y-99598243D03*
X159460682Y-99598243D03*
X156920682Y-99598243D03*
X154380682Y-99598243D03*
X151840682Y-99598243D03*
D28*
X239742498Y-178240000D03*
X244742498Y-178240000D03*
D29*
X259959998Y-183590000D03*
X263059998Y-183590000D03*
D21*
X271919998Y-179914400D03*
X271919998Y-173920000D03*
X251919998Y-174072800D03*
X251919998Y-180067200D03*
D30*
X269547198Y-156790000D03*
X263552798Y-156790000D03*
D19*
X273779998Y-159770000D03*
X273779998Y-156670000D03*
D29*
X242269998Y-187350000D03*
X245369998Y-187350000D03*
D19*
X257839998Y-180650000D03*
X257839998Y-177550000D03*
D22*
X253539998Y-162140000D03*
X250439998Y-162140000D03*
D29*
X255569998Y-162150000D03*
X258669998Y-162150000D03*
D31*
X144740000Y-106292500D03*
D32*
X128730000Y-106479544D03*
D33*
X205455000Y-106462500D03*
D34*
X189445000Y-106462500D03*
D35*
X249339998Y-188570000D03*
X251339998Y-188570000D03*
D31*
X144922500Y-125257044D03*
D32*
X128912500Y-125444088D03*
D33*
X205637500Y-125427044D03*
D34*
X189627500Y-125427044D03*
D25*
X260521748Y-166624250D03*
D26*
X262021748Y-168474250D03*
D25*
X263521748Y-166624250D03*
X263521748Y-170324250D03*
X260521748Y-170324250D03*
D36*
X267959998Y-186030000D03*
D37*
X266109998Y-187530000D03*
D36*
X267959998Y-189030000D03*
X264259998Y-189030000D03*
X264259998Y-186030000D03*
D38*
X273779998Y-161730000D03*
X273779998Y-164830000D03*
M02*
