M48
; DRILL file {KiCad 7.0.11+dfsg-1build4} date Sun 09 Feb 2025 05:53:56 PM MST
; FORMAT={-:-/ absolute / metric / decimal}
; #@! TF.CreationDate,2025-02-09T17:53:56-07:00
; #@! TF.GenerationSoftware,Kicad,Pcbnew,7.0.11+dfsg-1build4
; #@! TF.FileFunction,Plated,1,2,PTH
FMAT,2
METRIC
; #@! TA.AperFunction,Plated,PTH,ViaDrill
T1C0.300
; #@! TA.AperFunction,Plated,PTH,ComponentDrill
T2C0.500
; #@! TA.AperFunction,Plated,PTH,ComponentDrill
T3C0.800
; #@! TA.AperFunction,Plated,PTH,ComponentDrill
T4C1.000
%
G90
G05
T1
X100.896Y-89.125
X102.31Y-89.153
X102.889Y-162.804
X103.81Y-149.532
X104.064Y-147.752
X104.064Y-169.596
X104.698Y-82.344
X105.19Y-162.436
X107.112Y-144.196
X109.144Y-162.484
X109.81Y-69.515
X111.176Y-150.8
X112.7Y-172.136
X113.4Y-173.343
X113.65Y-69.515
X114.224Y-98.476
X114.224Y-144.704
X114.38Y-138.82
X114.478Y-141.004
X117.78Y-109.652
X117.78Y-111.176
X117.78Y-112.7
X117.78Y-114.224
X117.78Y-115.748
X117.78Y-117.272
X119.304Y-109.652
X119.304Y-111.176
X119.304Y-112.7
X119.304Y-114.224
X119.304Y-115.748
X119.304Y-117.272
X120.828Y-109.652
X120.828Y-111.176
X120.828Y-112.7
X120.828Y-114.224
X120.828Y-115.748
X120.828Y-117.272
X121.336Y-81.949
X121.336Y-83.236
X122.023Y-77.498
X122.352Y-109.652
X122.352Y-111.176
X122.352Y-112.7
X122.352Y-114.224
X122.352Y-115.748
X122.352Y-117.272
X123.876Y-109.652
X123.876Y-111.176
X123.876Y-112.7
X123.876Y-114.224
X123.876Y-115.748
X123.876Y-117.272
X124.008Y-122.237
X125.4Y-89.84
X125.4Y-109.652
X125.4Y-111.176
X125.4Y-112.7
X125.4Y-114.224
X125.4Y-115.748
X126.924Y-109.652
X126.924Y-111.176
X126.924Y-112.7
X126.924Y-114.224
X127.132Y-174.113
X127.178Y-167.928
X127.178Y-171.628
X127.394Y-77.503
X127.747Y-139.941
X128.956Y-141.148
X132.622Y-148.768
X134.965Y-143.859
X136.068Y-163.5
X136.322Y-148.768
X136.596Y-77.492
X137.084Y-162.484
X138.1Y-93.048
X138.357Y-148.657
X139.059Y-112.761
X139.34Y-82.663
X140.64Y-85.268
X141.656Y-90.348
X141.656Y-91.448
X141.799Y-86.283
X144.196Y-91.364
X145.13Y-68.078
X154.457Y-89.173
X155.303Y-62.629
X155.51Y-67.522
X156.083Y-158.46
X156.088Y-86.201
X160.871Y-157.388
X165.46Y-156.37
T2
X107.758Y-90.776
X107.758Y-98.726
X112.258Y-90.776
X112.258Y-98.726
X152.908Y-90.986
X152.908Y-98.936
X157.408Y-90.986
X157.408Y-98.936
T3
X116.347Y-88.58
X116.347Y-96.2
X118.887Y-88.58
X118.887Y-96.2
X121.427Y-88.58
X121.427Y-96.2
X123.967Y-88.58
X123.967Y-96.2
X126.507Y-88.58
X126.507Y-96.2
X129.047Y-88.58
X129.047Y-96.2
X129.628Y-82.126
X131.587Y-88.58
X131.587Y-96.2
X134.127Y-88.58
X134.127Y-96.2
X134.508Y-82.126
X136.667Y-88.58
X136.667Y-96.2
X139.207Y-88.58
X139.207Y-96.2
X141.747Y-88.58
X141.747Y-96.2
X144.287Y-88.58
X144.287Y-96.2
X146.827Y-88.58
X146.827Y-96.2
X149.367Y-88.58
X149.367Y-96.2
T4
X103.556Y-116.774
X103.556Y-119.314
X107.604Y-83.851
X107.635Y-80.163
X108.37Y-72.23
X108.37Y-74.77
X108.89Y-168.072
X108.89Y-170.612
X108.89Y-173.152
X110.144Y-83.851
X110.175Y-80.163
X110.91Y-72.23
X110.91Y-74.77
X112.684Y-83.851
X112.715Y-80.163
X113.45Y-72.23
X113.45Y-74.77
X115.99Y-72.23
X115.99Y-74.77
X117.78Y-63.424
X117.78Y-65.964
X117.78Y-68.504
X118.53Y-72.23
X118.53Y-74.77
X121.07Y-72.23
X121.07Y-74.77
X123.61Y-72.23
X123.61Y-74.77
X126.15Y-72.23
X126.15Y-74.77
X128.69Y-72.23
X128.69Y-74.77
X131.23Y-72.23
X131.23Y-74.77
X132.233Y-139.131
X132.233Y-141.671
X132.233Y-144.211
X133.77Y-72.23
X133.77Y-74.77
X136.31Y-72.23
X136.31Y-74.77
X138.85Y-72.23
X138.85Y-74.77
X141.39Y-72.23
X141.39Y-74.77
X142.168Y-63.424
X142.168Y-65.964
X142.168Y-68.504
X143.93Y-72.23
X143.93Y-74.77
X145.639Y-155.799
X145.639Y-158.339
X145.639Y-160.879
X146.47Y-72.23
X146.47Y-74.77
X149.01Y-72.23
X149.01Y-74.77
X150.8Y-65.974
X150.8Y-68.514
X151.55Y-72.23
X151.55Y-74.77
X154.09Y-72.23
X154.09Y-74.77
X156.63Y-72.23
X156.63Y-74.77
X158.023Y-63.385
X158.023Y-65.925
X158.023Y-68.465
X163.037Y-84.76
X163.037Y-87.3
X163.161Y-118.228
X163.161Y-120.768
T4
X173.756Y-157.329G85X173.756Y-155.329
G05
X177.756Y-151.63G85X175.756Y-151.63
G05
X179.756Y-157.329G85X179.756Y-155.329
G05
M30
