G04 #@! TF.GenerationSoftware,KiCad,Pcbnew,7.0.11+dfsg-1build4*
G04 #@! TF.CreationDate,2025-02-09T17:53:47-07:00*
G04 #@! TF.ProjectId,iJet,694a6574-2e6b-4696-9361-645f70636258,rev?*
G04 #@! TF.SameCoordinates,Original*
G04 #@! TF.FileFunction,Soldermask,Bot*
G04 #@! TF.FilePolarity,Negative*
%FSLAX46Y46*%
G04 Gerber Fmt 4.6, Leading zero omitted, Abs format (unit mm)*
G04 Created by KiCad (PCBNEW 7.0.11+dfsg-1build4) date 2025-02-09 17:53:47*
%MOMM*%
%LPD*%
G01*
G04 APERTURE LIST*
G04 Aperture macros list*
%AMRoundRect*
0 Rectangle with rounded corners*
0 $1 Rounding radius*
0 $2 $3 $4 $5 $6 $7 $8 $9 X,Y pos of 4 corners*
0 Add a 4 corners polygon primitive as box body*
4,1,4,$2,$3,$4,$5,$6,$7,$8,$9,$2,$3,0*
0 Add four circle primitives for the rounded corners*
1,1,$1+$1,$2,$3*
1,1,$1+$1,$4,$5*
1,1,$1+$1,$6,$7*
1,1,$1+$1,$8,$9*
0 Add four rect primitives between the rounded corners*
20,1,$1+$1,$2,$3,$4,$5,0*
20,1,$1+$1,$4,$5,$6,$7,0*
20,1,$1+$1,$6,$7,$8,$9,0*
20,1,$1+$1,$8,$9,$2,$3,0*%
%AMOutline4P*
0 Free polygon, 4 corners , with rotation*
0 The origin of the aperture is its center*
0 number of corners: always 4*
0 $1 to $8 corner X, Y*
0 $9 Rotation angle, in degrees counterclockwise*
0 create outline with 4 corners*
4,1,4,$1,$2,$3,$4,$5,$6,$7,$8,$1,$2,$9*%
%AMFreePoly0*
4,1,37,0.559954,2.682520,0.597008,2.631520,0.602000,2.600000,0.602000,1.032051,1.117027,0.517026,1.139138,0.483934,1.157736,0.439033,1.165500,0.400000,1.165500,-0.400000,1.157736,-0.439033,1.139138,-0.483934,1.117027,-0.517026,0.602000,-1.032051,0.602000,-2.600000,0.582520,-2.659954,0.531520,-2.697008,0.500000,-2.702000,-0.500000,-2.702000,-0.559954,-2.682520,-0.597008,-2.631520,
-0.602000,-2.600000,-0.602000,-1.032052,-1.117026,-0.517026,-1.139136,-0.483935,-1.157735,-0.439034,-1.165500,-0.400000,-1.165500,0.400000,-1.157735,0.439034,-1.139136,0.483935,-1.117026,0.517026,-0.602000,1.032052,-0.602000,2.600000,-0.582520,2.659954,-0.531520,2.697008,-0.500000,2.702000,0.500000,2.702000,0.559954,2.682520,0.559954,2.682520,$1*%
G04 Aperture macros list end*
%ADD10C,0.127000*%
%ADD11R,1.300000X1.550000*%
%ADD12RoundRect,0.250000X-0.450000X0.350000X-0.450000X-0.350000X0.450000X-0.350000X0.450000X0.350000X0*%
%ADD13RoundRect,0.250000X0.450000X-0.350000X0.450000X0.350000X-0.450000X0.350000X-0.450000X-0.350000X0*%
%ADD14RoundRect,0.250000X0.350000X0.450000X-0.350000X0.450000X-0.350000X-0.450000X0.350000X-0.450000X0*%
%ADD15RoundRect,0.250000X-0.350000X-0.450000X0.350000X-0.450000X0.350000X0.450000X-0.350000X0.450000X0*%
%ADD16O,1.700000X1.700000*%
%ADD17R,1.700000X1.700000*%
%ADD18C,2.700000*%
%ADD19RoundRect,0.237500X0.250000X0.237500X-0.250000X0.237500X-0.250000X-0.237500X0.250000X-0.237500X0*%
%ADD20RoundRect,0.237500X-0.250000X-0.237500X0.250000X-0.237500X0.250000X0.237500X-0.250000X0.237500X0*%
%ADD21RoundRect,0.208750X0.431250X-0.208750X0.431250X0.208750X-0.431250X0.208750X-0.431250X-0.208750X0*%
%ADD22RoundRect,0.208750X-0.431250X0.208750X-0.431250X-0.208750X0.431250X-0.208750X0.431250X0.208750X0*%
%ADD23RoundRect,0.208750X-0.208750X-0.431250X0.208750X-0.431250X0.208750X0.431250X-0.208750X0.431250X0*%
%ADD24RoundRect,0.208750X0.208750X0.431250X-0.208750X0.431250X-0.208750X-0.431250X0.208750X-0.431250X0*%
%ADD25C,1.500000*%
%ADD26RoundRect,0.102000X0.750000X-0.350000X0.750000X0.350000X-0.750000X0.350000X-0.750000X-0.350000X0*%
%ADD27FreePoly0,90.000000*%
%ADD28FreePoly0,270.000000*%
%ADD29RoundRect,0.102000X-0.750000X0.350000X-0.750000X-0.350000X0.750000X-0.350000X0.750000X0.350000X0*%
%ADD30FreePoly0,0.000000*%
%ADD31RoundRect,0.102000X-0.350000X-0.750000X0.350000X-0.750000X0.350000X0.750000X-0.350000X0.750000X0*%
%ADD32RoundRect,0.102000X0.350000X0.750000X-0.350000X0.750000X-0.350000X-0.750000X0.350000X-0.750000X0*%
%ADD33FreePoly0,180.000000*%
%ADD34R,1.600000X1.600000*%
%ADD35O,1.600000X1.600000*%
%ADD36RoundRect,0.475000X2.075000X-0.475000X2.075000X0.475000X-2.075000X0.475000X-2.075000X-0.475000X0*%
%ADD37RoundRect,0.475000X-2.075000X0.475000X-2.075000X-0.475000X2.075000X-0.475000X2.075000X0.475000X0*%
%ADD38RoundRect,0.475000X-0.475000X-2.075000X0.475000X-2.075000X0.475000X2.075000X-0.475000X2.075000X0*%
%ADD39RoundRect,0.475000X0.475000X2.075000X-0.475000X2.075000X-0.475000X-2.075000X0.475000X-2.075000X0*%
%ADD40R,3.500000X3.500000*%
%ADD41RoundRect,0.750000X0.750000X1.000000X-0.750000X1.000000X-0.750000X-1.000000X0.750000X-1.000000X0*%
%ADD42RoundRect,0.875000X0.875000X0.875000X-0.875000X0.875000X-0.875000X-0.875000X0.875000X-0.875000X0*%
%ADD43Outline4P,-1.800000X-1.150000X1.800000X-0.550000X1.800000X0.550000X-1.800000X1.150000X180.000000*%
%ADD44Outline4P,-1.800000X-1.150000X1.800000X-0.550000X1.800000X0.550000X-1.800000X1.150000X0.000000*%
%ADD45Outline4P,-1.800000X-1.150000X1.800000X-0.550000X1.800000X0.550000X-1.800000X1.150000X90.000000*%
%ADD46Outline4P,-1.800000X-1.150000X1.800000X-0.550000X1.800000X0.550000X-1.800000X1.150000X270.000000*%
G04 APERTURE END LIST*
D10*
X135872000Y-150268000D02*
X134872000Y-151268000D01*
X134072000Y-151268000D01*
X133072000Y-150268000D01*
X134072000Y-149268000D01*
X134872000Y-149268000D01*
X135872000Y-150268000D01*
G36*
X135872000Y-150268000D02*
G01*
X134872000Y-151268000D01*
X134072000Y-151268000D01*
X133072000Y-150268000D01*
X134072000Y-149268000D01*
X134872000Y-149268000D01*
X135872000Y-150268000D01*
G37*
X108440000Y-160936000D02*
X107440000Y-161936000D01*
X106640000Y-161936000D01*
X105640000Y-160936000D01*
X106640000Y-159936000D01*
X107440000Y-159936000D01*
X108440000Y-160936000D01*
G36*
X108440000Y-160936000D02*
G01*
X107440000Y-161936000D01*
X106640000Y-161936000D01*
X105640000Y-160936000D01*
X106640000Y-159936000D01*
X107440000Y-159936000D01*
X108440000Y-160936000D01*
G37*
X126678000Y-169378000D02*
X126678000Y-170178000D01*
X125678000Y-171178000D01*
X124678000Y-170178000D01*
X124678000Y-169378000D01*
X125678000Y-168378000D01*
X126678000Y-169378000D01*
G36*
X126678000Y-169378000D02*
G01*
X126678000Y-170178000D01*
X125678000Y-171178000D01*
X124678000Y-170178000D01*
X124678000Y-169378000D01*
X125678000Y-168378000D01*
X126678000Y-169378000D01*
G37*
X116978000Y-142454000D02*
X116978000Y-143254000D01*
X115978000Y-144254000D01*
X114978000Y-143254000D01*
X114978000Y-142454000D01*
X115978000Y-141454000D01*
X116978000Y-142454000D01*
G36*
X116978000Y-142454000D02*
G01*
X116978000Y-143254000D01*
X115978000Y-144254000D01*
X114978000Y-143254000D01*
X114978000Y-142454000D01*
X115978000Y-141454000D01*
X116978000Y-142454000D01*
G37*
D11*
X107757930Y-98725928D03*
X107757930Y-90775928D03*
X112257930Y-98725928D03*
X112257930Y-90775928D03*
D12*
X138356976Y-146656973D03*
X138356976Y-148656973D03*
D13*
X102889441Y-164804084D03*
X102889441Y-162804084D03*
D14*
X129131723Y-174113164D03*
X127131723Y-174113164D03*
D15*
X114380145Y-138819699D03*
X112380145Y-138819699D03*
D16*
X163161273Y-118228285D03*
D17*
X163161273Y-120768285D03*
X145638680Y-160878680D03*
D16*
X145638680Y-158338680D03*
X145638680Y-155798680D03*
D18*
X178804000Y-140221320D03*
X145720000Y-140132000D03*
X145720000Y-173241320D03*
X178804000Y-173241320D03*
X137116000Y-140132000D03*
X137116000Y-173241320D03*
X104032000Y-173152000D03*
X104032000Y-140132000D03*
X161649243Y-129983285D03*
X161649243Y-106983285D03*
D17*
X103556000Y-119314000D03*
D16*
X103556000Y-116774000D03*
D18*
X103649243Y-129983285D03*
X103649243Y-106983285D03*
D16*
X158022704Y-63385429D03*
X158022704Y-65925429D03*
D17*
X158022704Y-68465429D03*
D19*
X106149646Y-169366035D03*
X104324646Y-169366035D03*
D20*
X134965360Y-143858782D03*
X136790360Y-143858782D03*
D21*
X138491358Y-150513177D03*
X138491358Y-151768177D03*
D22*
X102713752Y-160867615D03*
X102713752Y-159612615D03*
D23*
X125477822Y-174268742D03*
X124222822Y-174268742D03*
D24*
X116100589Y-138608000D03*
X117355589Y-138608000D03*
D25*
X129628064Y-82125717D03*
X134508064Y-82125717D03*
D26*
X132622000Y-151768000D03*
X132622000Y-148768000D03*
X136322000Y-151768000D03*
X136322000Y-148768000D03*
D27*
X134472000Y-150268000D03*
D28*
X107040000Y-160936000D03*
D29*
X105190000Y-162436000D03*
X105190000Y-159436000D03*
X108890000Y-162436000D03*
X108890000Y-159436000D03*
D30*
X125678000Y-169778000D03*
D31*
X127178000Y-171628000D03*
X124178000Y-171628000D03*
X127178000Y-167928000D03*
X124178000Y-167928000D03*
D32*
X117478000Y-144704000D03*
X114478000Y-144704000D03*
X117478000Y-141004000D03*
X114478000Y-141004000D03*
D33*
X115978000Y-142854000D03*
D34*
X149367173Y-88580000D03*
D35*
X146827173Y-88580000D03*
X144287173Y-88580000D03*
X141747173Y-88580000D03*
X139207173Y-88580000D03*
X136667173Y-88580000D03*
X134127173Y-88580000D03*
X131587173Y-88580000D03*
X129047173Y-88580000D03*
X126507173Y-88580000D03*
X123967173Y-88580000D03*
X121427173Y-88580000D03*
X118887173Y-88580000D03*
X116347173Y-88580000D03*
X116347173Y-96200000D03*
X118887173Y-96200000D03*
X121427173Y-96200000D03*
X123967173Y-96200000D03*
X126507173Y-96200000D03*
X129047173Y-96200000D03*
X131587173Y-96200000D03*
X134127173Y-96200000D03*
X136667173Y-96200000D03*
X139207173Y-96200000D03*
X141747173Y-96200000D03*
X144287173Y-96200000D03*
X146827173Y-96200000D03*
X149367173Y-96200000D03*
D11*
X152907596Y-98936495D03*
X152907596Y-90986495D03*
X157407596Y-98936495D03*
X157407596Y-90986495D03*
D36*
X134290000Y-159368000D03*
X134290000Y-163568000D03*
D37*
X106858000Y-151884000D03*
X106858000Y-147684000D03*
D38*
X117086000Y-170612000D03*
X112886000Y-170612000D03*
D39*
X128770000Y-142672000D03*
X124570000Y-142672000D03*
D16*
X150800000Y-68514000D03*
D17*
X150800000Y-65974000D03*
X142168488Y-63424000D03*
D16*
X142168488Y-65964000D03*
X142168488Y-68504000D03*
D17*
X107635000Y-80163000D03*
D16*
X110175000Y-80163000D03*
X112715000Y-80163000D03*
D17*
X117780000Y-63424000D03*
D16*
X117780000Y-65964000D03*
X117780000Y-68504000D03*
X163037030Y-87300000D03*
D17*
X163037030Y-84760000D03*
X112683726Y-83851450D03*
D16*
X110143726Y-83851450D03*
X107603726Y-83851450D03*
D40*
X173756000Y-156329500D03*
D41*
X179756000Y-156329500D03*
D42*
X176756000Y-151629500D03*
D17*
X132233000Y-139131000D03*
D16*
X132233000Y-141671000D03*
X132233000Y-144211000D03*
D17*
X108890000Y-173152000D03*
D16*
X108890000Y-170612000D03*
X108890000Y-168072000D03*
D43*
X137190000Y-155372000D03*
D44*
X131390000Y-155372000D03*
X103958000Y-155880000D03*
D43*
X109758000Y-155880000D03*
D45*
X121082000Y-173004000D03*
D46*
X121082000Y-167204000D03*
D45*
X120565306Y-145637493D03*
D46*
X120565306Y-139837493D03*
D16*
X156630000Y-72230000D03*
X156630000Y-74770000D03*
X154090000Y-72230000D03*
X154090000Y-74770000D03*
X151550000Y-72230000D03*
X151550000Y-74770000D03*
X149010000Y-72230000D03*
X149010000Y-74770000D03*
X146470000Y-72230000D03*
X146470000Y-74770000D03*
X143930000Y-72230000D03*
X143930000Y-74770000D03*
X141390000Y-72230000D03*
X141390000Y-74770000D03*
X138850000Y-72230000D03*
X138850000Y-74770000D03*
X136310000Y-72230000D03*
X136310000Y-74770000D03*
X133770000Y-72230000D03*
X133770000Y-74770000D03*
X131230000Y-72230000D03*
X131230000Y-74770000D03*
X128690000Y-72230000D03*
X128690000Y-74770000D03*
X126150000Y-72230000D03*
X126150000Y-74770000D03*
X123610000Y-72230000D03*
X123610000Y-74770000D03*
X121070000Y-72230000D03*
X121070000Y-74770000D03*
X118530000Y-72230000D03*
X118530000Y-74770000D03*
X115990000Y-72230000D03*
X115990000Y-74770000D03*
X113450000Y-72230000D03*
X113450000Y-74770000D03*
X110910000Y-72230000D03*
X110910000Y-74770000D03*
X108370000Y-72230000D03*
D17*
X108370000Y-74770000D03*
D18*
X161500000Y-73500000D03*
X161500000Y-96500000D03*
X103500000Y-96500000D03*
X103500000Y-73500000D03*
M02*
