G04 #@! TF.GenerationSoftware,KiCad,Pcbnew,7.0.11+dfsg-1build4*
G04 #@! TF.CreationDate,2025-02-09T17:53:47-07:00*
G04 #@! TF.ProjectId,iJet,694a6574-2e6b-4696-9361-645f70636258,rev?*
G04 #@! TF.SameCoordinates,Original*
G04 #@! TF.FileFunction,Paste,Top*
G04 #@! TF.FilePolarity,Positive*
%FSLAX46Y46*%
G04 Gerber Fmt 4.6, Leading zero omitted, Abs format (unit mm)*
G04 Created by KiCad (PCBNEW 7.0.11+dfsg-1build4) date 2025-02-09 17:53:47*
%MOMM*%
%LPD*%
G01*
G04 APERTURE LIST*
G04 Aperture macros list*
%AMRoundRect*
0 Rectangle with rounded corners*
0 $1 Rounding radius*
0 $2 $3 $4 $5 $6 $7 $8 $9 X,Y pos of 4 corners*
0 Add a 4 corners polygon primitive as box body*
4,1,4,$2,$3,$4,$5,$6,$7,$8,$9,$2,$3,0*
0 Add four circle primitives for the rounded corners*
1,1,$1+$1,$2,$3*
1,1,$1+$1,$4,$5*
1,1,$1+$1,$6,$7*
1,1,$1+$1,$8,$9*
0 Add four rect primitives between the rounded corners*
20,1,$1+$1,$2,$3,$4,$5,0*
20,1,$1+$1,$4,$5,$6,$7,0*
20,1,$1+$1,$6,$7,$8,$9,0*
20,1,$1+$1,$8,$9,$2,$3,0*%
%AMOutline4P*
0 Free polygon, 4 corners , with rotation*
0 The origin of the aperture is its center*
0 number of corners: always 4*
0 $1 to $8 corner X, Y*
0 $9 Rotation angle, in degrees counterclockwise*
0 create outline with 4 corners*
4,1,4,$1,$2,$3,$4,$5,$6,$7,$8,$1,$2,$9*%
G04 Aperture macros list end*
%ADD10C,0.010000*%
%ADD11RoundRect,0.237500X-0.237500X0.250000X-0.237500X-0.250000X0.237500X-0.250000X0.237500X0.250000X0*%
%ADD12RoundRect,0.237500X-0.250000X-0.237500X0.250000X-0.237500X0.250000X0.237500X-0.250000X0.237500X0*%
%ADD13RoundRect,0.150000X-0.400000X-0.150000X0.400000X-0.150000X0.400000X0.150000X-0.400000X0.150000X0*%
%ADD14RoundRect,0.237500X0.250000X0.237500X-0.250000X0.237500X-0.250000X-0.237500X0.250000X-0.237500X0*%
%ADD15R,2.950000X3.500000*%
%ADD16RoundRect,0.237500X0.237500X-0.250000X0.237500X0.250000X-0.237500X0.250000X-0.237500X-0.250000X0*%
%ADD17RoundRect,0.208750X0.431250X-0.208750X0.431250X0.208750X-0.431250X0.208750X-0.431250X-0.208750X0*%
%ADD18RoundRect,0.208750X-0.208750X-0.431250X0.208750X-0.431250X0.208750X0.431250X-0.208750X0.431250X0*%
%ADD19RoundRect,0.208750X0.208750X0.431250X-0.208750X0.431250X-0.208750X-0.431250X0.208750X-0.431250X0*%
%ADD20RoundRect,0.208750X-0.431250X0.208750X-0.431250X-0.208750X0.431250X-0.208750X0.431250X0.208750X0*%
%ADD21RoundRect,0.250000X0.550000X-1.500000X0.550000X1.500000X-0.550000X1.500000X-0.550000X-1.500000X0*%
%ADD22RoundRect,0.039000X0.381000X0.091000X-0.381000X0.091000X-0.381000X-0.091000X0.381000X-0.091000X0*%
%ADD23RoundRect,0.250000X0.300000X-2.050000X0.300000X2.050000X-0.300000X2.050000X-0.300000X-2.050000X0*%
%ADD24RoundRect,0.250000X2.375000X-2.025000X2.375000X2.025000X-2.375000X2.025000X-2.375000X-2.025000X0*%
%ADD25RoundRect,0.075000X-0.910000X-0.225000X0.910000X-0.225000X0.910000X0.225000X-0.910000X0.225000X0*%
%ADD26RoundRect,0.150000X0.150000X-0.587500X0.150000X0.587500X-0.150000X0.587500X-0.150000X-0.587500X0*%
%ADD27R,3.020000X0.970000*%
%ADD28Outline4P,-1.800000X-1.150000X1.800000X-0.550000X1.800000X0.550000X-1.800000X1.150000X0.000000*%
%ADD29Outline4P,-1.800000X-1.150000X1.800000X-0.550000X1.800000X0.550000X-1.800000X1.150000X180.000000*%
%ADD30R,0.900000X1.500000*%
%ADD31R,1.500000X0.900000*%
%ADD32RoundRect,0.500000X-0.500000X0.643000X-0.500000X-0.643000X0.500000X-0.643000X0.500000X0.643000X0*%
%ADD33RoundRect,0.500000X0.500000X-0.643000X0.500000X0.643000X-0.500000X0.643000X-0.500000X-0.643000X0*%
%ADD34RoundRect,0.500000X0.643000X0.500000X-0.643000X0.500000X-0.643000X-0.500000X0.643000X-0.500000X0*%
%ADD35RoundRect,0.500000X-0.643000X-0.500000X0.643000X-0.500000X0.643000X0.500000X-0.643000X0.500000X0*%
G04 APERTURE END LIST*
D10*
X161341575Y-158128000D02*
X160401000Y-158128000D01*
X160401000Y-156647095D01*
X161341575Y-156647095D01*
X161341575Y-158128000D01*
G36*
X161341575Y-158128000D02*
G01*
X160401000Y-158128000D01*
X160401000Y-156647095D01*
X161341575Y-156647095D01*
X161341575Y-158128000D01*
G37*
X150240097Y-79826523D02*
X148880097Y-79826523D01*
X148880097Y-78106523D01*
X150240097Y-78106523D01*
X150240097Y-79826523D01*
G36*
X150240097Y-79826523D02*
G01*
X148880097Y-79826523D01*
X148880097Y-78106523D01*
X150240097Y-78106523D01*
X150240097Y-79826523D01*
G37*
X148130097Y-79826523D02*
X146770097Y-79826523D01*
X146770097Y-78106523D01*
X148130097Y-78106523D01*
X148130097Y-79826523D01*
G36*
X148130097Y-79826523D02*
G01*
X146770097Y-79826523D01*
X146770097Y-78106523D01*
X148130097Y-78106523D01*
X148130097Y-79826523D01*
G37*
X146020097Y-79826523D02*
X144660097Y-79826523D01*
X144660097Y-78106523D01*
X146020097Y-78106523D01*
X146020097Y-79826523D01*
G36*
X146020097Y-79826523D02*
G01*
X144660097Y-79826523D01*
X144660097Y-78106523D01*
X146020097Y-78106523D01*
X146020097Y-79826523D01*
G37*
X150240097Y-82646523D02*
X148880097Y-82646523D01*
X148880097Y-80926523D01*
X150240097Y-80926523D01*
X150240097Y-82646523D01*
G36*
X150240097Y-82646523D02*
G01*
X148880097Y-82646523D01*
X148880097Y-80926523D01*
X150240097Y-80926523D01*
X150240097Y-82646523D01*
G37*
X148130097Y-82646523D02*
X146770097Y-82646523D01*
X146770097Y-80926523D01*
X148130097Y-80926523D01*
X148130097Y-82646523D01*
G36*
X148130097Y-82646523D02*
G01*
X146770097Y-82646523D01*
X146770097Y-80926523D01*
X148130097Y-80926523D01*
X148130097Y-82646523D01*
G37*
X146020097Y-82646523D02*
X144660097Y-82646523D01*
X144660097Y-80926523D01*
X146020097Y-80926523D01*
X146020097Y-82646523D01*
G36*
X146020097Y-82646523D02*
G01*
X144660097Y-82646523D01*
X144660097Y-80926523D01*
X146020097Y-80926523D01*
X146020097Y-82646523D01*
G37*
D11*
X124423534Y-84837778D03*
X124423534Y-86662778D03*
D12*
X120130725Y-77519035D03*
X121955725Y-77519035D03*
D13*
X153097656Y-62611952D03*
X155297656Y-62611952D03*
D12*
X153657704Y-65770799D03*
X155482704Y-65770799D03*
D14*
X155509675Y-67521568D03*
X153684675Y-67521568D03*
D15*
X129855835Y-121342000D03*
X135305835Y-121342000D03*
D16*
X122877438Y-86660832D03*
X122877438Y-84835832D03*
D12*
X156083022Y-158460179D03*
X157908022Y-158460179D03*
X101030710Y-90787887D03*
X102855710Y-90787887D03*
D14*
X154456987Y-89173042D03*
X152631987Y-89173042D03*
X133932500Y-77552456D03*
X132107500Y-77552456D03*
X130574569Y-77552456D03*
X128749569Y-77552456D03*
D12*
X150179673Y-86596367D03*
X148354673Y-86596367D03*
X145042484Y-86596367D03*
X146867484Y-86596367D03*
X109909822Y-64074021D03*
X108084822Y-64074021D03*
X109900704Y-65802093D03*
X108075704Y-65802093D03*
D14*
X113589383Y-65802093D03*
X111764383Y-65802093D03*
X111779179Y-64074021D03*
X113604179Y-64074021D03*
D11*
X139059452Y-110935810D03*
X139059452Y-112760810D03*
D16*
X139054833Y-116161883D03*
X139054833Y-114336883D03*
D14*
X138701911Y-86660574D03*
X140526911Y-86660574D03*
D12*
X135374249Y-86669029D03*
X137199249Y-86669029D03*
D16*
X121362834Y-84835689D03*
X121362834Y-86660689D03*
D17*
X137444907Y-116336770D03*
X137444907Y-115081770D03*
D18*
X164204627Y-158051208D03*
X165459627Y-158051208D03*
X165473500Y-156356000D03*
X164218500Y-156356000D03*
X126138730Y-77503310D03*
X127393730Y-77503310D03*
X135341268Y-77492456D03*
X136596268Y-77492456D03*
X128217046Y-98172289D03*
X129472046Y-98172289D03*
D19*
X131941092Y-98172289D03*
X130686092Y-98172289D03*
D18*
X111012705Y-149499961D03*
X112267705Y-149499961D03*
D17*
X114732000Y-116375500D03*
X114732000Y-115120500D03*
D20*
X140671159Y-115060214D03*
X140671159Y-116315214D03*
D21*
X132336000Y-108890000D03*
X132336000Y-114490000D03*
X109652000Y-118040000D03*
X109652000Y-112440000D03*
X156087503Y-86201144D03*
X156087503Y-80601144D03*
D19*
X102151500Y-89124741D03*
X100896500Y-89124741D03*
D22*
X162306000Y-158388000D03*
X162306000Y-157888000D03*
X162306000Y-156888000D03*
X162306000Y-157388000D03*
X159436000Y-157388000D03*
X159436000Y-156888000D03*
X162306000Y-156388000D03*
X159436000Y-156388000D03*
X159436000Y-157888000D03*
X159436000Y-158388000D03*
D23*
X118952000Y-122358000D03*
X120652000Y-122358000D03*
X122352000Y-122358000D03*
D24*
X119577000Y-115633000D03*
X125127000Y-115633000D03*
X119577000Y-110783000D03*
X125127000Y-110783000D03*
D23*
X124052000Y-122358000D03*
X125752000Y-122358000D03*
D25*
X120958845Y-79409153D03*
X120958845Y-80679153D03*
X120958845Y-81949153D03*
X120958845Y-83219153D03*
X116008845Y-83219153D03*
X116008845Y-81949153D03*
X116008845Y-80679153D03*
X116008845Y-79409153D03*
D26*
X108079793Y-69514562D03*
X109979793Y-69514562D03*
X109029793Y-67639562D03*
X112700000Y-67639562D03*
X113650000Y-69514562D03*
X111750000Y-69514562D03*
D27*
X140920097Y-78090523D03*
X140920097Y-82662523D03*
D28*
X107768000Y-122636310D03*
D29*
X113568000Y-122636310D03*
D30*
X101398000Y-87244085D03*
X104698000Y-87244085D03*
X104698000Y-82344085D03*
X101398000Y-82344085D03*
D31*
X111848000Y-147370000D03*
X111848000Y-144070000D03*
X106948000Y-144070000D03*
X106948000Y-147370000D03*
D32*
X134544000Y-149784000D03*
X137084000Y-162484000D03*
D33*
X103810000Y-149532448D03*
X106350000Y-162232448D03*
D34*
X126100500Y-170802906D03*
X113400500Y-173342906D03*
D35*
X127747500Y-139941094D03*
X115047500Y-142481094D03*
M02*
