<?xml version="1.0" standalone="no"?>
 <!DOCTYPE svg PUBLIC "-//W3C//DTD SVG 1.1//EN" 
 "http://www.w3.org/Graphics/SVG/1.1/DTD/svg11.dtd"> 
<svg
  xmlns:svg="http://www.w3.org/2000/svg"
  xmlns="http://www.w3.org/2000/svg"
  xmlns:xlink="http://www.w3.org/1999/xlink"
  version="1.1"
  width="419.989000mm" height="297.002200mm" viewBox="0.000000 0.000000 419.989000 297.002200">
<title>SVG Image created as iJet-B_Fab.svg date 2025/03/09 05:44:55 </title>
  <desc>Image generated by PCBNEW </desc>
<g style="fill:#000000; fill-opacity:1.000000;stroke:#000000; stroke-opacity:1.000000;
stroke-linecap:round; stroke-linejoin:round;"
 transform="translate(0 0) scale(1 1)">
</g>
<g style="fill:#000000; fill-opacity:0.0; 
stroke:#000000; stroke-width:0.000000; stroke-opacity:1; 
stroke-linecap:round; stroke-linejoin:round;">
</g>
<g style="fill:#000000; fill-opacity:0.0; 
stroke:#000000; stroke-width:0.150000; stroke-opacity:1; 
stroke-linecap:round; stroke-linejoin:round;">
<text x="287.489000" y="74.000000"
textLength="1.964286" font-size="1.333333" lengthAdjust="spacingAndGlyphs"
text-anchor="middle" opacity="0">J1</text>
<g class="stroked-text"><desc>J1</desc>
<path d="M287.155667 72.954819
L287.155667 73.669104
" />
<path d="M287.155667 73.669104
L287.108048 73.811961
" />
<path d="M287.108048 73.811961
L287.012810 73.907200
" />
<path d="M287.012810 73.907200
L286.869953 73.954819
" />
<path d="M286.869953 73.954819
L286.774715 73.954819
" />
<path d="M288.155667 73.954819
L287.584239 73.954819
" />
<path d="M287.869953 73.954819
L287.869953 72.954819
" />
<path d="M287.869953 72.954819
L287.774715 73.097676
" />
<path d="M287.774715 73.097676
L287.679477 73.192914
" />
<path d="M287.679477 73.192914
L287.584239 73.240533
" />
</g></g>
<g style="fill:#000000; fill-opacity:0.0; 
stroke:#000000; stroke-width:0.040000; stroke-opacity:1; 
stroke-linecap:round; stroke-linejoin:round;">
<g transform="rotate(90.000000 317.275248 160.240115)">
<text x="317.275248" y="160.385115"
textLength="0.628190" font-size="0.386666" lengthAdjust="spacingAndGlyphs"
text-anchor="middle" opacity="0">C4</text>
</g>
<g class="stroked-text"><desc>C4</desc>
<path d="M317.170788 160.191781
L317.156978 160.177972
" />
<path d="M317.156978 160.177972
L317.143169 160.136543
" />
<path d="M317.143169 160.136543
L317.143169 160.108924
" />
<path d="M317.143169 160.108924
L317.156978 160.067496
" />
<path d="M317.156978 160.067496
L317.184598 160.039877
" />
<path d="M317.184598 160.039877
L317.212217 160.026067
" />
<path d="M317.212217 160.026067
L317.267455 160.012258
" />
<path d="M317.267455 160.012258
L317.308883 160.012258
" />
<path d="M317.308883 160.012258
L317.364121 160.026067
" />
<path d="M317.364121 160.026067
L317.391740 160.039877
" />
<path d="M317.391740 160.039877
L317.419359 160.067496
" />
<path d="M317.419359 160.067496
L317.433169 160.108924
" />
<path d="M317.433169 160.108924
L317.433169 160.136543
" />
<path d="M317.433169 160.136543
L317.419359 160.177972
" />
<path d="M317.419359 160.177972
L317.405550 160.191781
" />
<path d="M317.336502 160.440353
L317.143169 160.440353
" />
<path d="M317.446978 160.371305
L317.239836 160.302258
" />
<path d="M317.239836 160.302258
L317.239836 160.481781
" />
</g><text x="295.138678" y="174.413742"
textLength="0.628190" font-size="0.386666" lengthAdjust="spacingAndGlyphs"
text-anchor="middle" opacity="0">C3</text>
<g class="stroked-text"><desc>C3</desc>
<path d="M295.090345 174.373202
L295.076536 174.387012
" />
<path d="M295.076536 174.387012
L295.035107 174.400821
" />
<path d="M295.035107 174.400821
L295.007488 174.400821
" />
<path d="M295.007488 174.400821
L294.966060 174.387012
" />
<path d="M294.966060 174.387012
L294.938441 174.359392
" />
<path d="M294.938441 174.359392
L294.924631 174.331773
" />
<path d="M294.924631 174.331773
L294.910822 174.276535
" />
<path d="M294.910822 174.276535
L294.910822 174.235107
" />
<path d="M294.910822 174.235107
L294.924631 174.179869
" />
<path d="M294.924631 174.179869
L294.938441 174.152250
" />
<path d="M294.938441 174.152250
L294.966060 174.124631
" />
<path d="M294.966060 174.124631
L295.007488 174.110821
" />
<path d="M295.007488 174.110821
L295.035107 174.110821
" />
<path d="M295.035107 174.110821
L295.076536 174.124631
" />
<path d="M295.076536 174.124631
L295.090345 174.138440
" />
<path d="M295.187012 174.110821
L295.366536 174.110821
" />
<path d="M295.366536 174.110821
L295.269869 174.221297
" />
<path d="M295.269869 174.221297
L295.311298 174.221297
" />
<path d="M295.311298 174.221297
L295.338917 174.235107
" />
<path d="M295.338917 174.235107
L295.352726 174.248916
" />
<path d="M295.352726 174.248916
L295.366536 174.276535
" />
<path d="M295.366536 174.276535
L295.366536 174.345583
" />
<path d="M295.366536 174.345583
L295.352726 174.373202
" />
<path d="M295.352726 174.373202
L295.338917 174.387012
" />
<path d="M295.338917 174.387012
L295.311298 174.400821
" />
<path d="M295.311298 174.400821
L295.228441 174.400821
" />
<path d="M295.228441 174.400821
L295.200822 174.387012
" />
<path d="M295.200822 174.387012
L295.187012 174.373202
" />
</g></g>
<g style="fill:#000000; fill-opacity:0.0; 
stroke:#000000; stroke-width:0.080000; stroke-opacity:1; 
stroke-linecap:round; stroke-linejoin:round;">
<g transform="rotate(90.000000 317.099559 163.804084)">
<text x="317.099559" y="164.054084"
textLength="1.116190" font-size="0.666666" lengthAdjust="spacingAndGlyphs"
text-anchor="middle" opacity="0">R5</text>
</g>
<g class="stroked-text"><desc>R5</desc>
<path d="M316.872410 163.720750
L317.110505 163.554084
" />
<path d="M316.872410 163.435036
L317.372410 163.435036
" />
<path d="M317.372410 163.435036
L317.372410 163.625512
" />
<path d="M317.372410 163.625512
L317.348600 163.673131
" />
<path d="M317.348600 163.673131
L317.324791 163.696941
" />
<path d="M317.324791 163.696941
L317.277172 163.720750
" />
<path d="M317.277172 163.720750
L317.205743 163.720750
" />
<path d="M317.205743 163.720750
L317.158124 163.696941
" />
<path d="M317.158124 163.696941
L317.134315 163.673131
" />
<path d="M317.134315 163.673131
L317.110505 163.625512
" />
<path d="M317.110505 163.625512
L317.110505 163.435036
" />
<path d="M317.372410 164.173131
L317.372410 163.935036
" />
<path d="M317.372410 163.935036
L317.134315 163.911227
" />
<path d="M317.134315 163.911227
L317.158124 163.935036
" />
<path d="M317.158124 163.935036
L317.181934 163.982655
" />
<path d="M317.181934 163.982655
L317.181934 164.101703
" />
<path d="M317.181934 164.101703
L317.158124 164.149322
" />
<path d="M317.158124 164.149322
L317.134315 164.173131
" />
<path d="M317.134315 164.173131
L317.086696 164.196941
" />
<path d="M317.086696 164.196941
L316.967648 164.196941
" />
<path d="M316.967648 164.196941
L316.920029 164.173131
" />
<path d="M316.920029 164.173131
L316.896219 164.149322
" />
<path d="M316.896219 164.149322
L316.872410 164.101703
" />
<path d="M316.872410 164.101703
L316.872410 163.982655
" />
<path d="M316.872410 163.982655
L316.896219 163.935036
" />
<path d="M316.896219 163.935036
L316.920029 163.911227
" />
</g></g>
<g style="fill:#000000; fill-opacity:0.0; 
stroke:#000000; stroke-width:0.060000; stroke-opacity:1; 
stroke-linecap:round; stroke-linejoin:round;">
<text x="284.111140" y="144.058782"
textLength="1.261904" font-size="0.533333" lengthAdjust="spacingAndGlyphs"
text-anchor="middle" opacity="0">R11</text>
<g class="stroked-text"><desc>R11</desc>
<path d="M283.853998 144.040709
L283.720665 143.850233
" />
<path d="M283.625427 144.040709
L283.625427 143.640709
" />
<path d="M283.625427 143.640709
L283.777808 143.640709
" />
<path d="M283.777808 143.640709
L283.815903 143.659757
" />
<path d="M283.815903 143.659757
L283.834950 143.678804
" />
<path d="M283.834950 143.678804
L283.853998 143.716900
" />
<path d="M283.853998 143.716900
L283.853998 143.774042
" />
<path d="M283.853998 143.774042
L283.834950 143.812138
" />
<path d="M283.834950 143.812138
L283.815903 143.831185
" />
<path d="M283.815903 143.831185
L283.777808 143.850233
" />
<path d="M283.777808 143.850233
L283.625427 143.850233
" />
<path d="M284.234950 144.040709
L284.006379 144.040709
" />
<path d="M284.120665 144.040709
L284.120665 143.640709
" />
<path d="M284.120665 143.640709
L284.082569 143.697852
" />
<path d="M284.082569 143.697852
L284.044474 143.735947
" />
<path d="M284.044474 143.735947
L284.006379 143.754995
" />
<path d="M284.615902 144.040709
L284.387331 144.040709
" />
<path d="M284.501617 144.040709
L284.501617 143.640709
" />
<path d="M284.501617 143.640709
L284.463521 143.697852
" />
<path d="M284.463521 143.697852
L284.425426 143.735947
" />
<path d="M284.425426 143.735947
L284.387331 143.754995
" />
</g></g>
<g style="fill:#000000; fill-opacity:0.0; 
stroke:#000000; stroke-width:0.080000; stroke-opacity:1; 
stroke-linecap:round; stroke-linejoin:round;">
<text x="306.608855" y="139.069699"
textLength="1.116190" font-size="0.666666" lengthAdjust="spacingAndGlyphs"
text-anchor="middle" opacity="0">R3</text>
<g class="stroked-text"><desc>R3</desc>
<path d="M306.525522 139.046848
L306.358856 138.808753
" />
<path d="M306.239808 139.046848
L306.239808 138.546848
" />
<path d="M306.239808 138.546848
L306.430284 138.546848
" />
<path d="M306.430284 138.546848
L306.477903 138.570658
" />
<path d="M306.477903 138.570658
L306.501713 138.594467
" />
<path d="M306.501713 138.594467
L306.525522 138.642086
" />
<path d="M306.525522 138.642086
L306.525522 138.713515
" />
<path d="M306.525522 138.713515
L306.501713 138.761134
" />
<path d="M306.501713 138.761134
L306.477903 138.784943
" />
<path d="M306.477903 138.784943
L306.430284 138.808753
" />
<path d="M306.430284 138.808753
L306.239808 138.808753
" />
<path d="M306.692189 138.546848
L307.001713 138.546848
" />
<path d="M307.001713 138.546848
L306.835046 138.737324
" />
<path d="M306.835046 138.737324
L306.906475 138.737324
" />
<path d="M306.906475 138.737324
L306.954094 138.761134
" />
<path d="M306.954094 138.761134
L306.977903 138.784943
" />
<path d="M306.977903 138.784943
L307.001713 138.832562
" />
<path d="M307.001713 138.832562
L307.001713 138.951610
" />
<path d="M307.001713 138.951610
L306.977903 138.999229
" />
<path d="M306.977903 138.999229
L306.954094 139.023039
" />
<path d="M306.954094 139.023039
L306.906475 139.046848
" />
<path d="M306.906475 139.046848
L306.763618 139.046848
" />
<path d="M306.763618 139.046848
L306.715999 139.023039
" />
<path d="M306.715999 139.023039
L306.692189 138.999229
" />
</g></g>
<g style="fill:#000000; fill-opacity:0.0; 
stroke:#000000; stroke-width:0.150000; stroke-opacity:1; 
stroke-linecap:round; stroke-linejoin:round;">
<g transform="rotate(90.000000 287.756000 141.671000)">
<text x="287.756000" y="142.171000"
textLength="1.964286" font-size="1.333333" lengthAdjust="spacingAndGlyphs"
text-anchor="middle" opacity="0">J3</text>
</g>
<g class="stroked-text"><desc>J3</desc>
<path d="M288.301181 141.337666
L287.586896 141.337666
" />
<path d="M287.586896 141.337666
L287.444039 141.290047
" />
<path d="M287.444039 141.290047
L287.348800 141.194809
" />
<path d="M287.348800 141.194809
L287.301181 141.051952
" />
<path d="M287.301181 141.051952
L287.301181 140.956714
" />
<path d="M288.301181 141.718619
L288.301181 142.337666
" />
<path d="M288.301181 142.337666
L287.920229 142.004333
" />
<path d="M287.920229 142.004333
L287.920229 142.147190
" />
<path d="M287.920229 142.147190
L287.872610 142.242428
" />
<path d="M287.872610 142.242428
L287.824991 142.290047
" />
<path d="M287.824991 142.290047
L287.729753 142.337666
" />
<path d="M287.729753 142.337666
L287.491658 142.337666
" />
<path d="M287.491658 142.337666
L287.396420 142.290047
" />
<path d="M287.396420 142.290047
L287.348800 142.242428
" />
<path d="M287.348800 142.242428
L287.301181 142.147190
" />
<path d="M287.301181 142.147190
L287.301181 141.861476
" />
<path d="M287.301181 141.861476
L287.348800 141.766238
" />
<path d="M287.348800 141.766238
L287.396420 141.718619
" />
</g></g>
<g style="fill:#000000; fill-opacity:0.0; 
stroke:#000000; stroke-width:0.080000; stroke-opacity:1; 
stroke-linecap:round; stroke-linejoin:round;">
<g transform="rotate(90.000000 281.632024 147.656973)">
<text x="281.632024" y="147.906973"
textLength="1.116190" font-size="0.666666" lengthAdjust="spacingAndGlyphs"
text-anchor="middle" opacity="0">R6</text>
</g>
<g class="stroked-text"><desc>R6</desc>
<path d="M281.404875 147.573639
L281.642970 147.406973
" />
<path d="M281.404875 147.287925
L281.904875 147.287925
" />
<path d="M281.904875 147.287925
L281.904875 147.478401
" />
<path d="M281.904875 147.478401
L281.881065 147.526020
" />
<path d="M281.881065 147.526020
L281.857256 147.549830
" />
<path d="M281.857256 147.549830
L281.809637 147.573639
" />
<path d="M281.809637 147.573639
L281.738208 147.573639
" />
<path d="M281.738208 147.573639
L281.690589 147.549830
" />
<path d="M281.690589 147.549830
L281.666780 147.526020
" />
<path d="M281.666780 147.526020
L281.642970 147.478401
" />
<path d="M281.642970 147.478401
L281.642970 147.287925
" />
<path d="M281.904875 148.002211
L281.904875 147.906973
" />
<path d="M281.904875 147.906973
L281.881065 147.859354
" />
<path d="M281.881065 147.859354
L281.857256 147.835544
" />
<path d="M281.857256 147.835544
L281.785827 147.787925
" />
<path d="M281.785827 147.787925
L281.690589 147.764116
" />
<path d="M281.690589 147.764116
L281.500113 147.764116
" />
<path d="M281.500113 147.764116
L281.452494 147.787925
" />
<path d="M281.452494 147.787925
L281.428684 147.811735
" />
<path d="M281.428684 147.811735
L281.404875 147.859354
" />
<path d="M281.404875 147.859354
L281.404875 147.954592
" />
<path d="M281.404875 147.954592
L281.428684 148.002211
" />
<path d="M281.428684 148.002211
L281.452494 148.026020
" />
<path d="M281.452494 148.026020
L281.500113 148.049830
" />
<path d="M281.500113 148.049830
L281.619161 148.049830
" />
<path d="M281.619161 148.049830
L281.666780 148.026020
" />
<path d="M281.666780 148.026020
L281.690589 148.002211
" />
<path d="M281.690589 148.002211
L281.714399 147.954592
" />
<path d="M281.714399 147.954592
L281.714399 147.859354
" />
<path d="M281.714399 147.859354
L281.690589 147.811735
" />
<path d="M281.690589 147.811735
L281.666780 147.787925
" />
<path d="M281.666780 147.787925
L281.619161 147.764116
" />
</g></g>
<g style="fill:#000000; fill-opacity:0.0; 
stroke:#000000; stroke-width:0.040000; stroke-opacity:1; 
stroke-linecap:round; stroke-linejoin:round;">
<g transform="rotate(90.000000 281.497642 151.140677)">
<text x="281.497642" y="151.285677"
textLength="0.628190" font-size="0.386666" lengthAdjust="spacingAndGlyphs"
text-anchor="middle" opacity="0">C5</text>
</g>
<g class="stroked-text"><desc>C5</desc>
<path d="M281.393182 151.092343
L281.379372 151.078534
" />
<path d="M281.379372 151.078534
L281.365563 151.037105
" />
<path d="M281.365563 151.037105
L281.365563 151.009486
" />
<path d="M281.365563 151.009486
L281.379372 150.968058
" />
<path d="M281.379372 150.968058
L281.406992 150.940439
" />
<path d="M281.406992 150.940439
L281.434611 150.926629
" />
<path d="M281.434611 150.926629
L281.489849 150.912820
" />
<path d="M281.489849 150.912820
L281.531277 150.912820
" />
<path d="M281.531277 150.912820
L281.586515 150.926629
" />
<path d="M281.586515 150.926629
L281.614134 150.940439
" />
<path d="M281.614134 150.940439
L281.641753 150.968058
" />
<path d="M281.641753 150.968058
L281.655563 151.009486
" />
<path d="M281.655563 151.009486
L281.655563 151.037105
" />
<path d="M281.655563 151.037105
L281.641753 151.078534
" />
<path d="M281.641753 151.078534
L281.627944 151.092343
" />
<path d="M281.655563 151.354724
L281.655563 151.216629
" />
<path d="M281.655563 151.216629
L281.517468 151.202820
" />
<path d="M281.517468 151.202820
L281.531277 151.216629
" />
<path d="M281.531277 151.216629
L281.545087 151.244248
" />
<path d="M281.545087 151.244248
L281.545087 151.313296
" />
<path d="M281.545087 151.313296
L281.531277 151.340915
" />
<path d="M281.531277 151.340915
L281.517468 151.354724
" />
<path d="M281.517468 151.354724
L281.489849 151.368534
" />
<path d="M281.489849 151.368534
L281.420801 151.368534
" />
<path d="M281.420801 151.368534
L281.393182 151.354724
" />
<path d="M281.393182 151.354724
L281.379372 151.340915
" />
<path d="M281.379372 151.340915
L281.365563 151.313296
" />
<path d="M281.365563 151.313296
L281.365563 151.244248
" />
<path d="M281.365563 151.244248
L281.379372 151.216629
" />
<path d="M281.379372 151.216629
L281.393182 151.202820
" />
</g></g>
<g style="fill:#000000; fill-opacity:0.0; 
stroke:#000000; stroke-width:0.150000; stroke-opacity:1; 
stroke-linecap:round; stroke-linejoin:round;">
<g transform="rotate(270.000000 285.699000 161.468000)">
<text x="285.699000" y="161.968000"
textLength="2.011905" font-size="1.333333" lengthAdjust="spacingAndGlyphs"
text-anchor="middle" opacity="0">L4</text>
</g>
<g class="stroked-text"><desc>L4</desc>
<path d="M286.153820 161.634666
L286.153820 162.110856
" />
<path d="M286.153820 162.110856
L285.153820 162.110856
" />
<path d="M285.487153 160.872761
L286.153820 160.872761
" />
<path d="M285.106200 161.110856
L285.820486 161.348951
" />
<path d="M285.820486 161.348951
L285.820486 160.729904
" />
</g></g>
<g style="fill:#000000; fill-opacity:0.0; 
stroke:#000000; stroke-width:0.080000; stroke-opacity:1; 
stroke-linecap:round; stroke-linejoin:round;">
<text x="291.857277" y="174.363164"
textLength="1.116190" font-size="0.666666" lengthAdjust="spacingAndGlyphs"
text-anchor="middle" opacity="0">R4</text>
<g class="stroked-text"><desc>R4</desc>
<path d="M291.773944 174.340313
L291.607278 174.102218
" />
<path d="M291.488230 174.340313
L291.488230 173.840313
" />
<path d="M291.488230 173.840313
L291.678706 173.840313
" />
<path d="M291.678706 173.840313
L291.726325 173.864123
" />
<path d="M291.726325 173.864123
L291.750135 173.887932
" />
<path d="M291.750135 173.887932
L291.773944 173.935551
" />
<path d="M291.773944 173.935551
L291.773944 174.006980
" />
<path d="M291.773944 174.006980
L291.750135 174.054599
" />
<path d="M291.750135 174.054599
L291.726325 174.078408
" />
<path d="M291.726325 174.078408
L291.678706 174.102218
" />
<path d="M291.678706 174.102218
L291.488230 174.102218
" />
<path d="M292.202516 174.006980
L292.202516 174.340313
" />
<path d="M292.083468 173.816504
L291.964421 174.173646
" />
<path d="M291.964421 174.173646
L292.273944 174.173646
" />
</g></g>
<g style="fill:#000000; fill-opacity:0.0; 
stroke:#000000; stroke-width:0.040000; stroke-opacity:1; 
stroke-linecap:round; stroke-linejoin:round;">
<text x="303.260911" y="138.753000"
textLength="0.628190" font-size="0.386666" lengthAdjust="spacingAndGlyphs"
text-anchor="middle" opacity="0">C2</text>
<g class="stroked-text"><desc>C2</desc>
<path d="M303.212578 138.712460
L303.198769 138.726270
" />
<path d="M303.198769 138.726270
L303.157340 138.740079
" />
<path d="M303.157340 138.740079
L303.129721 138.740079
" />
<path d="M303.129721 138.740079
L303.088293 138.726270
" />
<path d="M303.088293 138.726270
L303.060674 138.698650
" />
<path d="M303.060674 138.698650
L303.046864 138.671031
" />
<path d="M303.046864 138.671031
L303.033055 138.615793
" />
<path d="M303.033055 138.615793
L303.033055 138.574365
" />
<path d="M303.033055 138.574365
L303.046864 138.519127
" />
<path d="M303.046864 138.519127
L303.060674 138.491508
" />
<path d="M303.060674 138.491508
L303.088293 138.463889
" />
<path d="M303.088293 138.463889
L303.129721 138.450079
" />
<path d="M303.129721 138.450079
L303.157340 138.450079
" />
<path d="M303.157340 138.450079
L303.198769 138.463889
" />
<path d="M303.198769 138.463889
L303.212578 138.477698
" />
<path d="M303.323055 138.477698
L303.336864 138.463889
" />
<path d="M303.336864 138.463889
L303.364483 138.450079
" />
<path d="M303.364483 138.450079
L303.433531 138.450079
" />
<path d="M303.433531 138.450079
L303.461150 138.463889
" />
<path d="M303.461150 138.463889
L303.474959 138.477698
" />
<path d="M303.474959 138.477698
L303.488769 138.505317
" />
<path d="M303.488769 138.505317
L303.488769 138.532936
" />
<path d="M303.488769 138.532936
L303.474959 138.574365
" />
<path d="M303.474959 138.574365
L303.309245 138.740079
" />
<path d="M303.309245 138.740079
L303.488769 138.740079
" />
</g></g>
<g style="fill:#000000; fill-opacity:0.0; 
stroke:#000000; stroke-width:0.150000; stroke-opacity:1; 
stroke-linecap:round; stroke-linejoin:round;">
<text x="293.319000" y="143.172000"
textLength="2.011905" font-size="1.333333" lengthAdjust="spacingAndGlyphs"
text-anchor="middle" opacity="0">L1</text>
<g class="stroked-text"><desc>L1</desc>
<path d="M293.152334 143.126819
L292.676144 143.126819
" />
<path d="M292.676144 143.126819
L292.676144 142.126819
" />
<path d="M294.009477 143.126819
L293.438049 143.126819
" />
<path d="M293.723763 143.126819
L293.723763 142.126819
" />
<path d="M293.723763 142.126819
L293.628525 142.269676
" />
<path d="M293.628525 142.269676
L293.533287 142.364914
" />
<path d="M293.533287 142.364914
L293.438049 142.412533
" />
</g></g>
<g style="fill:#000000; fill-opacity:0.0; 
stroke:#000000; stroke-width:0.060000; stroke-opacity:1; 
stroke-linecap:round; stroke-linejoin:round;">
<text x="314.751854" y="169.566035"
textLength="1.261904" font-size="0.533333" lengthAdjust="spacingAndGlyphs"
text-anchor="middle" opacity="0">R12</text>
<g class="stroked-text"><desc>R12</desc>
<path d="M314.494712 169.547962
L314.361379 169.357486
" />
<path d="M314.266141 169.547962
L314.266141 169.147962
" />
<path d="M314.266141 169.147962
L314.418522 169.147962
" />
<path d="M314.418522 169.147962
L314.456617 169.167010
" />
<path d="M314.456617 169.167010
L314.475664 169.186057
" />
<path d="M314.475664 169.186057
L314.494712 169.224153
" />
<path d="M314.494712 169.224153
L314.494712 169.281295
" />
<path d="M314.494712 169.281295
L314.475664 169.319391
" />
<path d="M314.475664 169.319391
L314.456617 169.338438
" />
<path d="M314.456617 169.338438
L314.418522 169.357486
" />
<path d="M314.418522 169.357486
L314.266141 169.357486
" />
<path d="M314.875664 169.547962
L314.647093 169.547962
" />
<path d="M314.761379 169.547962
L314.761379 169.147962
" />
<path d="M314.761379 169.147962
L314.723283 169.205105
" />
<path d="M314.723283 169.205105
L314.685188 169.243200
" />
<path d="M314.685188 169.243200
L314.647093 169.262248
" />
<path d="M315.028045 169.186057
L315.047093 169.167010
" />
<path d="M315.047093 169.167010
L315.085188 169.147962
" />
<path d="M315.085188 169.147962
L315.180426 169.147962
" />
<path d="M315.180426 169.147962
L315.218521 169.167010
" />
<path d="M315.218521 169.167010
L315.237569 169.186057
" />
<path d="M315.237569 169.186057
L315.256616 169.224153
" />
<path d="M315.256616 169.224153
L315.256616 169.262248
" />
<path d="M315.256616 169.262248
L315.237569 169.319391
" />
<path d="M315.237569 169.319391
L315.008997 169.547962
" />
<path d="M315.008997 169.547962
L315.256616 169.547962
" />
</g></g>
<g style="fill:#000000; fill-opacity:0.0; 
stroke:#000000; stroke-width:0.150000; stroke-opacity:1; 
stroke-linecap:round; stroke-linejoin:round;">
<g transform="rotate(90.000000 313.131000 149.784000)">
<text x="313.131000" y="150.284000"
textLength="2.011905" font-size="1.333333" lengthAdjust="spacingAndGlyphs"
text-anchor="middle" opacity="0">L3</text>
</g>
<g class="stroked-text"><desc>L3</desc>
<path d="M312.676181 149.617333
L312.676181 149.141143
" />
<path d="M312.676181 149.141143
L313.676181 149.141143
" />
<path d="M313.676181 149.855429
L313.676181 150.474476
" />
<path d="M313.676181 150.474476
L313.295229 150.141143
" />
<path d="M313.295229 150.141143
L313.295229 150.284000
" />
<path d="M313.295229 150.284000
L313.247610 150.379238
" />
<path d="M313.247610 150.379238
L313.199991 150.426857
" />
<path d="M313.199991 150.426857
L313.104753 150.474476
" />
<path d="M313.104753 150.474476
L312.866658 150.474476
" />
<path d="M312.866658 150.474476
L312.771420 150.426857
" />
<path d="M312.771420 150.426857
L312.723800 150.379238
" />
<path d="M312.723800 150.379238
L312.676181 150.284000
" />
<path d="M312.676181 150.284000
L312.676181 149.998286
" />
<path d="M312.676181 149.998286
L312.723800 149.903048
" />
<path d="M312.723800 149.903048
L312.771420 149.855429
" />
</g><g transform="rotate(90.000000 311.099000 170.612000)">
<text x="311.099000" y="171.112000"
textLength="1.964286" font-size="1.333333" lengthAdjust="spacingAndGlyphs"
text-anchor="middle" opacity="0">J2</text>
</g>
<g class="stroked-text"><desc>J2</desc>
<path d="M311.644181 170.278666
L310.929896 170.278666
" />
<path d="M310.929896 170.278666
L310.787039 170.231047
" />
<path d="M310.787039 170.231047
L310.691800 170.135809
" />
<path d="M310.691800 170.135809
L310.644181 169.992952
" />
<path d="M310.644181 169.992952
L310.644181 169.897714
" />
<path d="M311.548943 170.707238
L311.596562 170.754857
" />
<path d="M311.596562 170.754857
L311.644181 170.850095
" />
<path d="M311.644181 170.850095
L311.644181 171.088190
" />
<path d="M311.644181 171.088190
L311.596562 171.183428
" />
<path d="M311.596562 171.183428
L311.548943 171.231047
" />
<path d="M311.548943 171.231047
L311.453705 171.278666
" />
<path d="M311.453705 171.278666
L311.358467 171.278666
" />
<path d="M311.358467 171.278666
L311.215610 171.231047
" />
<path d="M311.215610 171.231047
L310.644181 170.659619
" />
<path d="M310.644181 170.659619
L310.644181 171.278666
" />
</g><g transform="rotate(180.000000 305.003000 170.612000)">
<text x="305.003000" y="171.112000"
textLength="2.011905" font-size="1.333333" lengthAdjust="spacingAndGlyphs"
text-anchor="middle" opacity="0">L2</text>
</g>
<g class="stroked-text"><desc>L2</desc>
<path d="M305.169667 170.157180
L305.645857 170.157180
" />
<path d="M305.645857 170.157180
L305.645857 171.157180
" />
<path d="M304.883952 171.061942
L304.836333 171.109561
" />
<path d="M304.836333 171.109561
L304.741095 171.157180
" />
<path d="M304.741095 171.157180
L304.503000 171.157180
" />
<path d="M304.503000 171.157180
L304.407762 171.109561
" />
<path d="M304.407762 171.109561
L304.360143 171.061942
" />
<path d="M304.360143 171.061942
L304.312524 170.966704
" />
<path d="M304.312524 170.966704
L304.312524 170.871466
" />
<path d="M304.312524 170.871466
L304.360143 170.728609
" />
<path d="M304.360143 170.728609
L304.931571 170.157180
" />
<path d="M304.931571 170.157180
L304.312524 170.157180
" />
</g></g>
<g style="fill:#000000; fill-opacity:0.0; 
stroke:#000000; stroke-width:0.100000; stroke-opacity:1; 
stroke-linecap:round; stroke-linejoin:round;">
<path d="M262.089000 70.960000
L312.889000 70.960000
" />
<path d="M312.889000 70.960000
L312.889000 75.040000
" />
<path d="M312.889000 75.040000
L311.889000 76.040000
" />
<path d="M262.089000 76.040000
L262.089000 70.960000
" />
<path d="M311.889000 76.040000
L262.089000 76.040000
" />
<path d="M316.765248 159.655115
L317.785248 159.655115
" />
<path d="M317.785248 159.655115
L317.785248 160.825115
" />
<path d="M316.765248 160.825115
L316.765248 159.655115
" />
<path d="M317.785248 160.825115
L316.765248 160.825115
" />
<path d="M295.723678 173.758742
L295.723678 174.778742
" />
<path d="M295.723678 174.778742
L294.553678 174.778742
" />
<path d="M294.553678 173.758742
L295.723678 173.758742
" />
<path d="M294.553678 174.778742
L294.553678 173.758742
" />
<path d="M317.724559 164.804084
L316.474559 164.804084
" />
<path d="M316.474559 164.804084
L316.474559 162.804084
" />
<path d="M317.724559 162.804084
L317.724559 164.804084
" />
<path d="M316.474559 162.804084
L317.724559 162.804084
" />
<path d="M284.911140 143.446282
L284.911140 144.271282
" />
<path d="M284.911140 144.271282
L283.311140 144.271282
" />
<path d="M283.311140 143.446282
L284.911140 143.446282
" />
<path d="M283.311140 144.271282
L283.311140 143.446282
" />
<path d="M315.431000 153.880000
L315.431000 157.880000
" />
<path d="M315.431000 154.380000
L315.431000 157.380000
" />
<path d="M313.780440 155.878980
L314.682140 155.878980
" />
<path d="M313.780440 155.878980
L312.629820 155.129680
" />
<path d="M313.780440 155.878980
L312.629820 156.679080
" />
<path d="M313.780440 156.679080
L313.780440 155.078880
" />
<path d="M312.629820 155.129680
L312.629820 156.679080
" />
<path d="M312.629820 155.878980
L311.631600 155.878980
" />
<path d="M310.831000 153.880000
L315.431000 153.880000
" />
<path d="M310.831000 154.380000
L315.431000 154.380000
" />
<path d="M310.831000 157.380000
L315.431000 157.380000
" />
<path d="M310.831000 157.380000
L310.831000 154.380000
" />
<path d="M310.831000 157.880000
L315.431000 157.880000
" />
<path d="M310.831000 157.880000
L310.831000 153.880000
" />
<path d="M307.608855 138.194699
L307.608855 139.444699
" />
<path d="M307.608855 139.444699
L305.608855 139.444699
" />
<path d="M305.608855 138.194699
L307.608855 138.194699
" />
<path d="M305.608855 139.444699
L305.608855 138.194699
" />
<path d="M286.486000 145.481000
L286.486000 137.861000
" />
<path d="M286.486000 137.861000
L288.391000 137.861000
" />
<path d="M288.391000 137.861000
L289.026000 138.496000
" />
<path d="M289.026000 145.481000
L286.486000 145.481000
" />
<path d="M289.026000 138.496000
L289.026000 145.481000
" />
<path d="M281.007024 146.656973
L282.257024 146.656973
" />
<path d="M282.257024 146.656973
L282.257024 148.656973
" />
<path d="M281.007024 148.656973
L281.007024 146.656973
" />
<path d="M282.257024 148.656973
L281.007024 148.656973
" />
<path d="M282.007642 151.725677
L280.987642 151.725677
" />
<path d="M280.987642 151.725677
L280.987642 150.555677
" />
<path d="M282.007642 150.555677
L282.007642 151.725677
" />
<path d="M280.987642 150.555677
L282.007642 150.555677
" />
<path d="M297.423694 140.437493
L301.423694 140.437493
" />
<path d="M297.923694 140.437493
L300.923694 140.437493
" />
<path d="M299.422674 142.088053
L299.422674 141.186353
" />
<path d="M299.422674 142.088053
L298.673374 143.238673
" />
<path d="M299.422674 142.088053
L300.222774 143.238673
" />
<path d="M300.222774 142.088053
L298.622574 142.088053
" />
<path d="M298.673374 143.238673
L300.222774 143.238673
" />
<path d="M299.422674 143.238673
L299.422674 144.236893
" />
<path d="M297.423694 145.037493
L297.423694 140.437493
" />
<path d="M297.923694 145.037493
L297.923694 140.437493
" />
<path d="M300.923694 145.037493
L300.923694 140.437493
" />
<path d="M300.923694 145.037493
L297.923694 145.037493
" />
<path d="M301.423694 145.037493
L301.423694 140.437493
" />
<path d="M301.423694 145.037493
L297.423694 145.037493
" />
<path d="M282.699000 164.468000
L288.699000 164.468000
" />
<path d="M288.699000 164.468000
L288.699000 158.468000
" />
<path d="M288.699000 158.468000
L282.699000 158.468000
" />
<path d="M282.699000 158.468000
L282.699000 164.468000
" />
<path d="M290.857277 174.738164
L290.857277 173.488164
" />
<path d="M290.857277 173.488164
L292.857277 173.488164
" />
<path d="M292.857277 174.738164
L290.857277 174.738164
" />
<path d="M292.857277 173.488164
L292.857277 174.738164
" />
<path d="M300.907000 172.404000
L296.907000 172.404000
" />
<path d="M300.407000 172.404000
L297.407000 172.404000
" />
<path d="M298.908020 170.753440
L298.908020 171.655140
" />
<path d="M298.908020 170.753440
L299.657320 169.602820
" />
<path d="M298.908020 170.753440
L298.107920 169.602820
" />
<path d="M298.107920 170.753440
L299.708120 170.753440
" />
<path d="M299.657320 169.602820
L298.107920 169.602820
" />
<path d="M298.908020 169.602820
L298.908020 168.604600
" />
<path d="M300.907000 167.804000
L300.907000 172.404000
" />
<path d="M300.407000 167.804000
L300.407000 172.404000
" />
<path d="M297.407000 167.804000
L297.407000 172.404000
" />
<path d="M297.407000 167.804000
L300.407000 167.804000
" />
<path d="M296.907000 167.804000
L296.907000 172.404000
" />
<path d="M296.907000 167.804000
L300.907000 167.804000
" />
<path d="M302.675911 139.118000
L302.675911 138.098000
" />
<path d="M302.675911 138.098000
L303.845911 138.098000
" />
<path d="M303.845911 139.118000
L302.675911 139.118000
" />
<path d="M303.845911 138.098000
L303.845911 139.118000
" />
<path d="M290.319000 139.672000
L296.319000 139.672000
" />
<path d="M296.319000 139.672000
L296.319000 145.672000
" />
<path d="M296.319000 145.672000
L290.319000 145.672000
" />
<path d="M290.319000 145.672000
L290.319000 139.672000
" />
<path d="M313.951854 169.778535
L313.951854 168.953535
" />
<path d="M313.951854 168.953535
L315.551854 168.953535
" />
<path d="M315.551854 169.778535
L313.951854 169.778535
" />
<path d="M315.551854 168.953535
L315.551854 169.778535
" />
<path d="M316.131000 146.784000
L310.131000 146.784000
" />
<path d="M310.131000 146.784000
L310.131000 152.784000
" />
<path d="M310.131000 152.784000
L316.131000 152.784000
" />
<path d="M316.131000 152.784000
L316.131000 146.784000
" />
<path d="M312.369000 166.802000
L312.369000 173.787000
" />
<path d="M312.369000 173.787000
L311.734000 174.422000
" />
<path d="M311.734000 174.422000
L309.829000 174.422000
" />
<path d="M309.829000 166.802000
L312.369000 166.802000
" />
<path d="M309.829000 174.422000
L309.829000 166.802000
" />
<path d="M283.399000 157.372000
L283.399000 153.372000
" />
<path d="M283.399000 156.872000
L283.399000 153.872000
" />
<path d="M285.049560 155.373020
L284.147860 155.373020
" />
<path d="M285.049560 155.373020
L286.200180 156.122320
" />
<path d="M285.049560 155.373020
L286.200180 154.572920
" />
<path d="M285.049560 154.572920
L285.049560 156.173120
" />
<path d="M286.200180 156.122320
L286.200180 154.572920
" />
<path d="M286.200180 155.373020
L287.198400 155.373020
" />
<path d="M287.999000 157.372000
L283.399000 157.372000
" />
<path d="M287.999000 156.872000
L283.399000 156.872000
" />
<path d="M287.999000 153.872000
L283.399000 153.872000
" />
<path d="M287.999000 153.872000
L287.999000 156.872000
" />
<path d="M287.999000 153.372000
L283.399000 153.372000
" />
<path d="M287.999000 153.372000
L287.999000 157.372000
" />
<path d="M308.003000 173.612000
L302.003000 173.612000
" />
<path d="M302.003000 173.612000
L302.003000 167.612000
" />
<path d="M302.003000 167.612000
L308.003000 167.612000
" />
<path d="M308.003000 167.612000
L308.003000 173.612000
" />
<g >
</g>
<g >
</g>
<g >
</g>
<g >
</g>
<g >
</g>
<g >
</g>
<g >
</g>
<g >
</g>
<g >
</g>
<g >
</g>
<g >
</g>
<g >
</g>
<g >
</g>
<g >
</g>
<g >
</g>
<g >
</g>
<g >
</g>
<g >
</g>
<g >
</g>
<g >
</g>
<g >
</g>
<g >
</g>
<g >
</g>
<g >
</g>
<g >
</g>
<g >
</g>
<g >
</g>
<g >
</g>
<g >
</g>
<g >
</g>
<g >
</g>
<g >
</g>
<g >
</g>
<g >
</g>
<g >
</g>
<g >
</g>
<g >
</g>
<g >
</g>
<g >
</g>
<g >
</g>
<g >
</g>
<g >
</g>
<g >
</g>
<g >
</g>
<g >
</g>
<g >
</g>
<g >
</g>
<g >
</g>
<g >
</g>
<g >
</g>
<g >
</g>
<g >
</g>
<g >
</g>
<g >
</g>
<g >
</g>
<g >
</g>
<g >
</g>
<g >
</g>
<g >
</g>
<g >
</g>
<g >
</g>
<g >
</g>
<g >
</g>
<g >
</g>
<g >
</g>
<g >
</g>
<g >
</g>
<g >
</g>
<g >
</g>
<g >
</g>
<g >
</g>
<g >
</g>
<g >
</g>
<g >
</g>
<g >
</g>
<g >
</g>
<g >
</g>
<g >
</g>
<g >
</g>
<g >
</g>
<g >
</g>
<g >
</g>
<g >
</g>
<g >
</g>
<g >
</g>
<g >
</g>
<g >
</g>
<g >
</g>
<g >
</g>
<g >
</g>
<g >
</g>
<g >
</g>
<g >
</g>
<g >
</g>
<g >
</g>
<g >
</g>
<g >
</g>
<g >
</g>
<g >
</g>
<g >
</g>
<g >
</g>
<g >
</g>
<g >
</g>
<g >
</g>
<g >
</g>
<g >
</g>
<g >
</g>
<g >
</g>
<g >
</g>
<g >
</g>
</g> 
</svg>
