G04 #@! TF.GenerationSoftware,KiCad,Pcbnew,7.0.11+dfsg-1build4*
G04 #@! TF.CreationDate,2025-02-09T17:53:47-07:00*
G04 #@! TF.ProjectId,iJet,694a6574-2e6b-4696-9361-645f70636258,rev?*
G04 #@! TF.SameCoordinates,Original*
G04 #@! TF.FileFunction,Legend,Bot*
G04 #@! TF.FilePolarity,Positive*
%FSLAX46Y46*%
G04 Gerber Fmt 4.6, Leading zero omitted, Abs format (unit mm)*
G04 Created by KiCad (PCBNEW 7.0.11+dfsg-1build4) date 2025-02-09 17:53:47*
%MOMM*%
%LPD*%
G01*
G04 APERTURE LIST*
G04 Aperture macros list*
%AMRoundRect*
0 Rectangle with rounded corners*
0 $1 Rounding radius*
0 $2 $3 $4 $5 $6 $7 $8 $9 X,Y pos of 4 corners*
0 Add a 4 corners polygon primitive as box body*
4,1,4,$2,$3,$4,$5,$6,$7,$8,$9,$2,$3,0*
0 Add four circle primitives for the rounded corners*
1,1,$1+$1,$2,$3*
1,1,$1+$1,$4,$5*
1,1,$1+$1,$6,$7*
1,1,$1+$1,$8,$9*
0 Add four rect primitives between the rounded corners*
20,1,$1+$1,$2,$3,$4,$5,0*
20,1,$1+$1,$4,$5,$6,$7,0*
20,1,$1+$1,$6,$7,$8,$9,0*
20,1,$1+$1,$8,$9,$2,$3,0*%
%AMOutline4P*
0 Free polygon, 4 corners , with rotation*
0 The origin of the aperture is its center*
0 number of corners: always 4*
0 $1 to $8 corner X, Y*
0 $9 Rotation angle, in degrees counterclockwise*
0 create outline with 4 corners*
4,1,4,$1,$2,$3,$4,$5,$6,$7,$8,$1,$2,$9*%
%AMFreePoly0*
4,1,37,0.559954,2.682520,0.597008,2.631520,0.602000,2.600000,0.602000,1.032051,1.117027,0.517026,1.139138,0.483934,1.157736,0.439033,1.165500,0.400000,1.165500,-0.400000,1.157736,-0.439033,1.139138,-0.483934,1.117027,-0.517026,0.602000,-1.032051,0.602000,-2.600000,0.582520,-2.659954,0.531520,-2.697008,0.500000,-2.702000,-0.500000,-2.702000,-0.559954,-2.682520,-0.597008,-2.631520,
-0.602000,-2.600000,-0.602000,-1.032052,-1.117026,-0.517026,-1.139136,-0.483935,-1.157735,-0.439034,-1.165500,-0.400000,-1.165500,0.400000,-1.157735,0.439034,-1.139136,0.483935,-1.117026,0.517026,-0.602000,1.032052,-0.602000,2.600000,-0.582520,2.659954,-0.531520,2.697008,-0.500000,2.702000,0.500000,2.702000,0.559954,2.682520,0.559954,2.682520,$1*%
G04 Aperture macros list end*
%ADD10C,0.150000*%
%ADD11C,0.120000*%
%ADD12C,0.127000*%
%ADD13R,1.300000X1.550000*%
%ADD14RoundRect,0.250000X-0.450000X0.350000X-0.450000X-0.350000X0.450000X-0.350000X0.450000X0.350000X0*%
%ADD15RoundRect,0.250000X0.450000X-0.350000X0.450000X0.350000X-0.450000X0.350000X-0.450000X-0.350000X0*%
%ADD16RoundRect,0.250000X0.350000X0.450000X-0.350000X0.450000X-0.350000X-0.450000X0.350000X-0.450000X0*%
%ADD17RoundRect,0.250000X-0.350000X-0.450000X0.350000X-0.450000X0.350000X0.450000X-0.350000X0.450000X0*%
%ADD18O,1.700000X1.700000*%
%ADD19R,1.700000X1.700000*%
%ADD20C,2.700000*%
%ADD21RoundRect,0.237500X0.250000X0.237500X-0.250000X0.237500X-0.250000X-0.237500X0.250000X-0.237500X0*%
%ADD22RoundRect,0.237500X-0.250000X-0.237500X0.250000X-0.237500X0.250000X0.237500X-0.250000X0.237500X0*%
%ADD23RoundRect,0.208750X0.431250X-0.208750X0.431250X0.208750X-0.431250X0.208750X-0.431250X-0.208750X0*%
%ADD24RoundRect,0.208750X-0.431250X0.208750X-0.431250X-0.208750X0.431250X-0.208750X0.431250X0.208750X0*%
%ADD25RoundRect,0.208750X-0.208750X-0.431250X0.208750X-0.431250X0.208750X0.431250X-0.208750X0.431250X0*%
%ADD26RoundRect,0.208750X0.208750X0.431250X-0.208750X0.431250X-0.208750X-0.431250X0.208750X-0.431250X0*%
%ADD27C,1.500000*%
%ADD28RoundRect,0.102000X0.750000X-0.350000X0.750000X0.350000X-0.750000X0.350000X-0.750000X-0.350000X0*%
%ADD29FreePoly0,90.000000*%
%ADD30FreePoly0,270.000000*%
%ADD31RoundRect,0.102000X-0.750000X0.350000X-0.750000X-0.350000X0.750000X-0.350000X0.750000X0.350000X0*%
%ADD32FreePoly0,0.000000*%
%ADD33RoundRect,0.102000X-0.350000X-0.750000X0.350000X-0.750000X0.350000X0.750000X-0.350000X0.750000X0*%
%ADD34RoundRect,0.102000X0.350000X0.750000X-0.350000X0.750000X-0.350000X-0.750000X0.350000X-0.750000X0*%
%ADD35FreePoly0,180.000000*%
%ADD36R,1.600000X1.600000*%
%ADD37O,1.600000X1.600000*%
%ADD38RoundRect,0.475000X2.075000X-0.475000X2.075000X0.475000X-2.075000X0.475000X-2.075000X-0.475000X0*%
%ADD39RoundRect,0.475000X-2.075000X0.475000X-2.075000X-0.475000X2.075000X-0.475000X2.075000X0.475000X0*%
%ADD40RoundRect,0.475000X-0.475000X-2.075000X0.475000X-2.075000X0.475000X2.075000X-0.475000X2.075000X0*%
%ADD41RoundRect,0.475000X0.475000X2.075000X-0.475000X2.075000X-0.475000X-2.075000X0.475000X-2.075000X0*%
%ADD42R,3.500000X3.500000*%
%ADD43RoundRect,0.750000X0.750000X1.000000X-0.750000X1.000000X-0.750000X-1.000000X0.750000X-1.000000X0*%
%ADD44RoundRect,0.875000X0.875000X0.875000X-0.875000X0.875000X-0.875000X-0.875000X0.875000X-0.875000X0*%
%ADD45Outline4P,-1.800000X-1.150000X1.800000X-0.550000X1.800000X0.550000X-1.800000X1.150000X180.000000*%
%ADD46Outline4P,-1.800000X-1.150000X1.800000X-0.550000X1.800000X0.550000X-1.800000X1.150000X0.000000*%
%ADD47Outline4P,-1.800000X-1.150000X1.800000X-0.550000X1.800000X0.550000X-1.800000X1.150000X90.000000*%
%ADD48Outline4P,-1.800000X-1.150000X1.800000X-0.550000X1.800000X0.550000X-1.800000X1.150000X270.000000*%
G04 APERTURE END LIST*
D10*
X135028094Y-155826819D02*
X135028094Y-154826819D01*
X135028094Y-154826819D02*
X134789999Y-154826819D01*
X134789999Y-154826819D02*
X134647142Y-154874438D01*
X134647142Y-154874438D02*
X134551904Y-154969676D01*
X134551904Y-154969676D02*
X134504285Y-155064914D01*
X134504285Y-155064914D02*
X134456666Y-155255390D01*
X134456666Y-155255390D02*
X134456666Y-155398247D01*
X134456666Y-155398247D02*
X134504285Y-155588723D01*
X134504285Y-155588723D02*
X134551904Y-155683961D01*
X134551904Y-155683961D02*
X134647142Y-155779200D01*
X134647142Y-155779200D02*
X134789999Y-155826819D01*
X134789999Y-155826819D02*
X135028094Y-155826819D01*
X133885237Y-155255390D02*
X133980475Y-155207771D01*
X133980475Y-155207771D02*
X134028094Y-155160152D01*
X134028094Y-155160152D02*
X134075713Y-155064914D01*
X134075713Y-155064914D02*
X134075713Y-155017295D01*
X134075713Y-155017295D02*
X134028094Y-154922057D01*
X134028094Y-154922057D02*
X133980475Y-154874438D01*
X133980475Y-154874438D02*
X133885237Y-154826819D01*
X133885237Y-154826819D02*
X133694761Y-154826819D01*
X133694761Y-154826819D02*
X133599523Y-154874438D01*
X133599523Y-154874438D02*
X133551904Y-154922057D01*
X133551904Y-154922057D02*
X133504285Y-155017295D01*
X133504285Y-155017295D02*
X133504285Y-155064914D01*
X133504285Y-155064914D02*
X133551904Y-155160152D01*
X133551904Y-155160152D02*
X133599523Y-155207771D01*
X133599523Y-155207771D02*
X133694761Y-155255390D01*
X133694761Y-155255390D02*
X133885237Y-155255390D01*
X133885237Y-155255390D02*
X133980475Y-155303009D01*
X133980475Y-155303009D02*
X134028094Y-155350628D01*
X134028094Y-155350628D02*
X134075713Y-155445866D01*
X134075713Y-155445866D02*
X134075713Y-155636342D01*
X134075713Y-155636342D02*
X134028094Y-155731580D01*
X134028094Y-155731580D02*
X133980475Y-155779200D01*
X133980475Y-155779200D02*
X133885237Y-155826819D01*
X133885237Y-155826819D02*
X133694761Y-155826819D01*
X133694761Y-155826819D02*
X133599523Y-155779200D01*
X133599523Y-155779200D02*
X133551904Y-155731580D01*
X133551904Y-155731580D02*
X133504285Y-155636342D01*
X133504285Y-155636342D02*
X133504285Y-155445866D01*
X133504285Y-155445866D02*
X133551904Y-155350628D01*
X133551904Y-155350628D02*
X133599523Y-155303009D01*
X133599523Y-155303009D02*
X133694761Y-155255390D01*
X107596094Y-156334819D02*
X107596094Y-155334819D01*
X107596094Y-155334819D02*
X107357999Y-155334819D01*
X107357999Y-155334819D02*
X107215142Y-155382438D01*
X107215142Y-155382438D02*
X107119904Y-155477676D01*
X107119904Y-155477676D02*
X107072285Y-155572914D01*
X107072285Y-155572914D02*
X107024666Y-155763390D01*
X107024666Y-155763390D02*
X107024666Y-155906247D01*
X107024666Y-155906247D02*
X107072285Y-156096723D01*
X107072285Y-156096723D02*
X107119904Y-156191961D01*
X107119904Y-156191961D02*
X107215142Y-156287200D01*
X107215142Y-156287200D02*
X107357999Y-156334819D01*
X107357999Y-156334819D02*
X107596094Y-156334819D01*
X106167523Y-155334819D02*
X106357999Y-155334819D01*
X106357999Y-155334819D02*
X106453237Y-155382438D01*
X106453237Y-155382438D02*
X106500856Y-155430057D01*
X106500856Y-155430057D02*
X106596094Y-155572914D01*
X106596094Y-155572914D02*
X106643713Y-155763390D01*
X106643713Y-155763390D02*
X106643713Y-156144342D01*
X106643713Y-156144342D02*
X106596094Y-156239580D01*
X106596094Y-156239580D02*
X106548475Y-156287200D01*
X106548475Y-156287200D02*
X106453237Y-156334819D01*
X106453237Y-156334819D02*
X106262761Y-156334819D01*
X106262761Y-156334819D02*
X106167523Y-156287200D01*
X106167523Y-156287200D02*
X106119904Y-156239580D01*
X106119904Y-156239580D02*
X106072285Y-156144342D01*
X106072285Y-156144342D02*
X106072285Y-155906247D01*
X106072285Y-155906247D02*
X106119904Y-155811009D01*
X106119904Y-155811009D02*
X106167523Y-155763390D01*
X106167523Y-155763390D02*
X106262761Y-155715771D01*
X106262761Y-155715771D02*
X106453237Y-155715771D01*
X106453237Y-155715771D02*
X106548475Y-155763390D01*
X106548475Y-155763390D02*
X106596094Y-155811009D01*
X106596094Y-155811009D02*
X106643713Y-155906247D01*
X121536819Y-169365905D02*
X120536819Y-169365905D01*
X120536819Y-169365905D02*
X120536819Y-169604000D01*
X120536819Y-169604000D02*
X120584438Y-169746857D01*
X120584438Y-169746857D02*
X120679676Y-169842095D01*
X120679676Y-169842095D02*
X120774914Y-169889714D01*
X120774914Y-169889714D02*
X120965390Y-169937333D01*
X120965390Y-169937333D02*
X121108247Y-169937333D01*
X121108247Y-169937333D02*
X121298723Y-169889714D01*
X121298723Y-169889714D02*
X121393961Y-169842095D01*
X121393961Y-169842095D02*
X121489200Y-169746857D01*
X121489200Y-169746857D02*
X121536819Y-169604000D01*
X121536819Y-169604000D02*
X121536819Y-169365905D01*
X120870152Y-170794476D02*
X121536819Y-170794476D01*
X120489200Y-170556381D02*
X121203485Y-170318286D01*
X121203485Y-170318286D02*
X121203485Y-170937333D01*
X121020125Y-141999398D02*
X120020125Y-141999398D01*
X120020125Y-141999398D02*
X120020125Y-142237493D01*
X120020125Y-142237493D02*
X120067744Y-142380350D01*
X120067744Y-142380350D02*
X120162982Y-142475588D01*
X120162982Y-142475588D02*
X120258220Y-142523207D01*
X120258220Y-142523207D02*
X120448696Y-142570826D01*
X120448696Y-142570826D02*
X120591553Y-142570826D01*
X120591553Y-142570826D02*
X120782029Y-142523207D01*
X120782029Y-142523207D02*
X120877267Y-142475588D01*
X120877267Y-142475588D02*
X120972506Y-142380350D01*
X120972506Y-142380350D02*
X121020125Y-142237493D01*
X121020125Y-142237493D02*
X121020125Y-141999398D01*
X120115363Y-142951779D02*
X120067744Y-142999398D01*
X120067744Y-142999398D02*
X120020125Y-143094636D01*
X120020125Y-143094636D02*
X120020125Y-143332731D01*
X120020125Y-143332731D02*
X120067744Y-143427969D01*
X120067744Y-143427969D02*
X120115363Y-143475588D01*
X120115363Y-143475588D02*
X120210601Y-143523207D01*
X120210601Y-143523207D02*
X120305839Y-143523207D01*
X120305839Y-143523207D02*
X120448696Y-143475588D01*
X120448696Y-143475588D02*
X121020125Y-142904160D01*
X121020125Y-142904160D02*
X121020125Y-143523207D01*
D11*
X137621976Y-147429909D02*
X137621976Y-147884037D01*
X139091976Y-147429909D02*
X139091976Y-147884037D01*
X103624441Y-164031148D02*
X103624441Y-163577020D01*
X102154441Y-164031148D02*
X102154441Y-163577020D01*
X128358787Y-173378164D02*
X127904659Y-173378164D01*
X128358787Y-174848164D02*
X127904659Y-174848164D01*
X113153081Y-138084699D02*
X113607209Y-138084699D01*
X113153081Y-139554699D02*
X113607209Y-139554699D01*
X105491870Y-168843535D02*
X104982422Y-168843535D01*
X105491870Y-169888535D02*
X104982422Y-169888535D01*
X135623136Y-144381282D02*
X136132584Y-144381282D01*
X135623136Y-143336282D02*
X136132584Y-143336282D01*
X137871358Y-151242646D02*
X137871358Y-151038708D01*
X139111358Y-151242646D02*
X139111358Y-151038708D01*
X103333752Y-160138146D02*
X103333752Y-160342084D01*
X102093752Y-160138146D02*
X102093752Y-160342084D01*
X124748353Y-173648742D02*
X124952291Y-173648742D01*
X124748353Y-174888742D02*
X124952291Y-174888742D01*
X116830058Y-139228000D02*
X116626120Y-139228000D01*
X116830058Y-137988000D02*
X116626120Y-137988000D01*
X137390000Y-164568000D02*
X137390000Y-158368000D01*
X131190000Y-164568000D02*
X131590000Y-164568000D01*
X137390000Y-164568000D02*
X136990000Y-164568000D01*
X137390000Y-158368000D02*
X136990000Y-158368000D01*
X131190000Y-164568000D02*
X131190000Y-158368000D01*
X131190000Y-158368000D02*
X131590000Y-158368000D01*
X103758000Y-146684000D02*
X103758000Y-152884000D01*
X109958000Y-146684000D02*
X109558000Y-146684000D01*
X103758000Y-146684000D02*
X104158000Y-146684000D01*
X103758000Y-152884000D02*
X104158000Y-152884000D01*
X109958000Y-146684000D02*
X109958000Y-152884000D01*
X109958000Y-152884000D02*
X109558000Y-152884000D01*
X111886000Y-173712000D02*
X118086000Y-173712000D01*
X111886000Y-167512000D02*
X111886000Y-167912000D01*
X111886000Y-173712000D02*
X111886000Y-173312000D01*
X118086000Y-173712000D02*
X118086000Y-173312000D01*
X111886000Y-167512000D02*
X118086000Y-167512000D01*
X118086000Y-167512000D02*
X118086000Y-167912000D01*
X123570000Y-145772000D02*
X123570000Y-145372000D01*
X129770000Y-145772000D02*
X123570000Y-145772000D01*
X123570000Y-139572000D02*
X123570000Y-139972000D01*
X129770000Y-139572000D02*
X129770000Y-139972000D01*
X129770000Y-145772000D02*
X129770000Y-145372000D01*
X129770000Y-139572000D02*
X123570000Y-139572000D01*
X132233000Y-137801000D02*
X130903000Y-137801000D01*
X130903000Y-140401000D02*
X130903000Y-145541000D01*
X133563000Y-140401000D02*
X133563000Y-145541000D01*
X133563000Y-140401000D02*
X130903000Y-140401000D01*
X130903000Y-137801000D02*
X130903000Y-139131000D01*
X133563000Y-145541000D02*
X130903000Y-145541000D01*
X107560000Y-166742000D02*
X110220000Y-166742000D01*
X107560000Y-171882000D02*
X107560000Y-166742000D01*
X107560000Y-173152000D02*
X107560000Y-174482000D01*
X110220000Y-171882000D02*
X110220000Y-166742000D01*
X107560000Y-174482000D02*
X108890000Y-174482000D01*
X107560000Y-171882000D02*
X110220000Y-171882000D01*
X139250000Y-153222000D02*
X131590000Y-153222000D01*
X139250000Y-153222000D02*
X139250000Y-157522000D01*
X139250000Y-157522000D02*
X131590000Y-157522000D01*
X101898000Y-158030000D02*
X109558000Y-158030000D01*
X101898000Y-158030000D02*
X101898000Y-153730000D01*
X101898000Y-153730000D02*
X109558000Y-153730000D01*
X123232000Y-175064000D02*
X123232000Y-167404000D01*
X123232000Y-175064000D02*
X118932000Y-175064000D01*
X118932000Y-175064000D02*
X118932000Y-167404000D01*
X122715306Y-137777493D02*
X122715306Y-145437493D01*
X118415306Y-137777493D02*
X122715306Y-137777493D01*
X118415306Y-137777493D02*
X118415306Y-145437493D01*
X107040000Y-76100000D02*
X108370000Y-76100000D01*
X109640000Y-76100000D02*
X157960000Y-76100000D01*
X107040000Y-74770000D02*
X107040000Y-76100000D01*
X107040000Y-73500000D02*
X109640000Y-73500000D01*
X109640000Y-73500000D02*
X109640000Y-76100000D01*
X107040000Y-70900000D02*
X107040000Y-73500000D01*
X107040000Y-70900000D02*
X157960000Y-70900000D01*
X157960000Y-70900000D02*
X157960000Y-76100000D01*
%LPC*%
D12*
X135872000Y-150268000D02*
X134872000Y-151268000D01*
X134072000Y-151268000D01*
X133072000Y-150268000D01*
X134072000Y-149268000D01*
X134872000Y-149268000D01*
X135872000Y-150268000D01*
G36*
X135872000Y-150268000D02*
G01*
X134872000Y-151268000D01*
X134072000Y-151268000D01*
X133072000Y-150268000D01*
X134072000Y-149268000D01*
X134872000Y-149268000D01*
X135872000Y-150268000D01*
G37*
X108440000Y-160936000D02*
X107440000Y-161936000D01*
X106640000Y-161936000D01*
X105640000Y-160936000D01*
X106640000Y-159936000D01*
X107440000Y-159936000D01*
X108440000Y-160936000D01*
G36*
X108440000Y-160936000D02*
G01*
X107440000Y-161936000D01*
X106640000Y-161936000D01*
X105640000Y-160936000D01*
X106640000Y-159936000D01*
X107440000Y-159936000D01*
X108440000Y-160936000D01*
G37*
X126678000Y-169378000D02*
X126678000Y-170178000D01*
X125678000Y-171178000D01*
X124678000Y-170178000D01*
X124678000Y-169378000D01*
X125678000Y-168378000D01*
X126678000Y-169378000D01*
G36*
X126678000Y-169378000D02*
G01*
X126678000Y-170178000D01*
X125678000Y-171178000D01*
X124678000Y-170178000D01*
X124678000Y-169378000D01*
X125678000Y-168378000D01*
X126678000Y-169378000D01*
G37*
X116978000Y-142454000D02*
X116978000Y-143254000D01*
X115978000Y-144254000D01*
X114978000Y-143254000D01*
X114978000Y-142454000D01*
X115978000Y-141454000D01*
X116978000Y-142454000D01*
G36*
X116978000Y-142454000D02*
G01*
X116978000Y-143254000D01*
X115978000Y-144254000D01*
X114978000Y-143254000D01*
X114978000Y-142454000D01*
X115978000Y-141454000D01*
X116978000Y-142454000D01*
G37*
D13*
X107757930Y-98725928D03*
X107757930Y-90775928D03*
X112257930Y-98725928D03*
X112257930Y-90775928D03*
D14*
X138356976Y-146656973D03*
X138356976Y-148656973D03*
D15*
X102889441Y-164804084D03*
X102889441Y-162804084D03*
D16*
X129131723Y-174113164D03*
X127131723Y-174113164D03*
D17*
X114380145Y-138819699D03*
X112380145Y-138819699D03*
D18*
X163161273Y-118228285D03*
D19*
X163161273Y-120768285D03*
X145638680Y-160878680D03*
D18*
X145638680Y-158338680D03*
X145638680Y-155798680D03*
D20*
X178804000Y-140221320D03*
X145720000Y-140132000D03*
X145720000Y-173241320D03*
X178804000Y-173241320D03*
X137116000Y-140132000D03*
X137116000Y-173241320D03*
X104032000Y-173152000D03*
X104032000Y-140132000D03*
X161649243Y-129983285D03*
X161649243Y-106983285D03*
D19*
X103556000Y-119314000D03*
D18*
X103556000Y-116774000D03*
D20*
X103649243Y-129983285D03*
X103649243Y-106983285D03*
D18*
X158022704Y-63385429D03*
X158022704Y-65925429D03*
D19*
X158022704Y-68465429D03*
D21*
X106149646Y-169366035D03*
X104324646Y-169366035D03*
D22*
X134965360Y-143858782D03*
X136790360Y-143858782D03*
D23*
X138491358Y-150513177D03*
X138491358Y-151768177D03*
D24*
X102713752Y-160867615D03*
X102713752Y-159612615D03*
D25*
X125477822Y-174268742D03*
X124222822Y-174268742D03*
D26*
X116100589Y-138608000D03*
X117355589Y-138608000D03*
D27*
X129628064Y-82125717D03*
X134508064Y-82125717D03*
D28*
X132622000Y-151768000D03*
X132622000Y-148768000D03*
X136322000Y-151768000D03*
X136322000Y-148768000D03*
D29*
X134472000Y-150268000D03*
D30*
X107040000Y-160936000D03*
D31*
X105190000Y-162436000D03*
X105190000Y-159436000D03*
X108890000Y-162436000D03*
X108890000Y-159436000D03*
D32*
X125678000Y-169778000D03*
D33*
X127178000Y-171628000D03*
X124178000Y-171628000D03*
X127178000Y-167928000D03*
X124178000Y-167928000D03*
D34*
X117478000Y-144704000D03*
X114478000Y-144704000D03*
X117478000Y-141004000D03*
X114478000Y-141004000D03*
D35*
X115978000Y-142854000D03*
D36*
X149367173Y-88580000D03*
D37*
X146827173Y-88580000D03*
X144287173Y-88580000D03*
X141747173Y-88580000D03*
X139207173Y-88580000D03*
X136667173Y-88580000D03*
X134127173Y-88580000D03*
X131587173Y-88580000D03*
X129047173Y-88580000D03*
X126507173Y-88580000D03*
X123967173Y-88580000D03*
X121427173Y-88580000D03*
X118887173Y-88580000D03*
X116347173Y-88580000D03*
X116347173Y-96200000D03*
X118887173Y-96200000D03*
X121427173Y-96200000D03*
X123967173Y-96200000D03*
X126507173Y-96200000D03*
X129047173Y-96200000D03*
X131587173Y-96200000D03*
X134127173Y-96200000D03*
X136667173Y-96200000D03*
X139207173Y-96200000D03*
X141747173Y-96200000D03*
X144287173Y-96200000D03*
X146827173Y-96200000D03*
X149367173Y-96200000D03*
D13*
X152907596Y-98936495D03*
X152907596Y-90986495D03*
X157407596Y-98936495D03*
X157407596Y-90986495D03*
D38*
X134290000Y-159368000D03*
X134290000Y-163568000D03*
D39*
X106858000Y-151884000D03*
X106858000Y-147684000D03*
D40*
X117086000Y-170612000D03*
X112886000Y-170612000D03*
D41*
X128770000Y-142672000D03*
X124570000Y-142672000D03*
D18*
X150800000Y-68514000D03*
D19*
X150800000Y-65974000D03*
X142168488Y-63424000D03*
D18*
X142168488Y-65964000D03*
X142168488Y-68504000D03*
D19*
X107635000Y-80163000D03*
D18*
X110175000Y-80163000D03*
X112715000Y-80163000D03*
D19*
X117780000Y-63424000D03*
D18*
X117780000Y-65964000D03*
X117780000Y-68504000D03*
X163037030Y-87300000D03*
D19*
X163037030Y-84760000D03*
X112683726Y-83851450D03*
D18*
X110143726Y-83851450D03*
X107603726Y-83851450D03*
D42*
X173756000Y-156329500D03*
D43*
X179756000Y-156329500D03*
D44*
X176756000Y-151629500D03*
D19*
X132233000Y-139131000D03*
D18*
X132233000Y-141671000D03*
X132233000Y-144211000D03*
D19*
X108890000Y-173152000D03*
D18*
X108890000Y-170612000D03*
X108890000Y-168072000D03*
D45*
X137190000Y-155372000D03*
D46*
X131390000Y-155372000D03*
X103958000Y-155880000D03*
D45*
X109758000Y-155880000D03*
D47*
X121082000Y-173004000D03*
D48*
X121082000Y-167204000D03*
D47*
X120565306Y-145637493D03*
D48*
X120565306Y-139837493D03*
D18*
X156630000Y-72230000D03*
X156630000Y-74770000D03*
X154090000Y-72230000D03*
X154090000Y-74770000D03*
X151550000Y-72230000D03*
X151550000Y-74770000D03*
X149010000Y-72230000D03*
X149010000Y-74770000D03*
X146470000Y-72230000D03*
X146470000Y-74770000D03*
X143930000Y-72230000D03*
X143930000Y-74770000D03*
X141390000Y-72230000D03*
X141390000Y-74770000D03*
X138850000Y-72230000D03*
X138850000Y-74770000D03*
X136310000Y-72230000D03*
X136310000Y-74770000D03*
X133770000Y-72230000D03*
X133770000Y-74770000D03*
X131230000Y-72230000D03*
X131230000Y-74770000D03*
X128690000Y-72230000D03*
X128690000Y-74770000D03*
X126150000Y-72230000D03*
X126150000Y-74770000D03*
X123610000Y-72230000D03*
X123610000Y-74770000D03*
X121070000Y-72230000D03*
X121070000Y-74770000D03*
X118530000Y-72230000D03*
X118530000Y-74770000D03*
X115990000Y-72230000D03*
X115990000Y-74770000D03*
X113450000Y-72230000D03*
X113450000Y-74770000D03*
X110910000Y-72230000D03*
X110910000Y-74770000D03*
X108370000Y-72230000D03*
D19*
X108370000Y-74770000D03*
D20*
X161500000Y-73500000D03*
X161500000Y-96500000D03*
X103500000Y-96500000D03*
X103500000Y-73500000D03*
%LPD*%
M02*
