G04 #@! TF.GenerationSoftware,KiCad,Pcbnew,7.0.11+dfsg-1build4*
G04 #@! TF.CreationDate,2025-02-09T17:53:47-07:00*
G04 #@! TF.ProjectId,iJet,694a6574-2e6b-4696-9361-645f70636258,rev?*
G04 #@! TF.SameCoordinates,Original*
G04 #@! TF.FileFunction,Soldermask,Top*
G04 #@! TF.FilePolarity,Negative*
%FSLAX46Y46*%
G04 Gerber Fmt 4.6, Leading zero omitted, Abs format (unit mm)*
G04 Created by KiCad (PCBNEW 7.0.11+dfsg-1build4) date 2025-02-09 17:53:47*
%MOMM*%
%LPD*%
G01*
G04 APERTURE LIST*
G04 Aperture macros list*
%AMRoundRect*
0 Rectangle with rounded corners*
0 $1 Rounding radius*
0 $2 $3 $4 $5 $6 $7 $8 $9 X,Y pos of 4 corners*
0 Add a 4 corners polygon primitive as box body*
4,1,4,$2,$3,$4,$5,$6,$7,$8,$9,$2,$3,0*
0 Add four circle primitives for the rounded corners*
1,1,$1+$1,$2,$3*
1,1,$1+$1,$4,$5*
1,1,$1+$1,$6,$7*
1,1,$1+$1,$8,$9*
0 Add four rect primitives between the rounded corners*
20,1,$1+$1,$2,$3,$4,$5,0*
20,1,$1+$1,$4,$5,$6,$7,0*
20,1,$1+$1,$6,$7,$8,$9,0*
20,1,$1+$1,$8,$9,$2,$3,0*%
%AMOutline4P*
0 Free polygon, 4 corners , with rotation*
0 The origin of the aperture is its center*
0 number of corners: always 4*
0 $1 to $8 corner X, Y*
0 $9 Rotation angle, in degrees counterclockwise*
0 create outline with 4 corners*
4,1,4,$1,$2,$3,$4,$5,$6,$7,$8,$1,$2,$9*%
G04 Aperture macros list end*
%ADD10R,1.300000X1.550000*%
%ADD11O,1.700000X1.700000*%
%ADD12R,1.700000X1.700000*%
%ADD13RoundRect,0.237500X-0.237500X0.250000X-0.237500X-0.250000X0.237500X-0.250000X0.237500X0.250000X0*%
%ADD14RoundRect,0.237500X-0.250000X-0.237500X0.250000X-0.237500X0.250000X0.237500X-0.250000X0.237500X0*%
%ADD15C,2.700000*%
%ADD16RoundRect,0.150000X-0.400000X-0.150000X0.400000X-0.150000X0.400000X0.150000X-0.400000X0.150000X0*%
%ADD17RoundRect,0.237500X0.250000X0.237500X-0.250000X0.237500X-0.250000X-0.237500X0.250000X-0.237500X0*%
%ADD18R,2.950000X3.500000*%
%ADD19RoundRect,0.237500X0.237500X-0.250000X0.237500X0.250000X-0.237500X0.250000X-0.237500X-0.250000X0*%
%ADD20RoundRect,0.208750X0.431250X-0.208750X0.431250X0.208750X-0.431250X0.208750X-0.431250X-0.208750X0*%
%ADD21RoundRect,0.208750X-0.208750X-0.431250X0.208750X-0.431250X0.208750X0.431250X-0.208750X0.431250X0*%
%ADD22RoundRect,0.208750X0.208750X0.431250X-0.208750X0.431250X-0.208750X-0.431250X0.208750X-0.431250X0*%
%ADD23RoundRect,0.208750X-0.431250X0.208750X-0.431250X-0.208750X0.431250X-0.208750X0.431250X0.208750X0*%
%ADD24RoundRect,0.250000X0.550000X-1.500000X0.550000X1.500000X-0.550000X1.500000X-0.550000X-1.500000X0*%
%ADD25C,1.500000*%
%ADD26RoundRect,0.069600X0.452400X0.162400X-0.452400X0.162400X-0.452400X-0.162400X0.452400X-0.162400X0*%
%ADD27RoundRect,0.102000X0.750000X1.175000X-0.750000X1.175000X-0.750000X-1.175000X0.750000X-1.175000X0*%
%ADD28R,1.600000X1.600000*%
%ADD29O,1.600000X1.600000*%
%ADD30RoundRect,0.250000X0.300000X-2.050000X0.300000X2.050000X-0.300000X2.050000X-0.300000X-2.050000X0*%
%ADD31RoundRect,0.250002X5.149998X-4.449998X5.149998X4.449998X-5.149998X4.449998X-5.149998X-4.449998X0*%
%ADD32RoundRect,0.100500X-0.986500X-0.301500X0.986500X-0.301500X0.986500X0.301500X-0.986500X0.301500X0*%
%ADD33RoundRect,0.150000X0.150000X-0.587500X0.150000X0.587500X-0.150000X0.587500X-0.150000X-0.587500X0*%
%ADD34RoundRect,0.102000X-1.510000X0.485000X-1.510000X-0.485000X1.510000X-0.485000X1.510000X0.485000X0*%
%ADD35RoundRect,0.102000X-3.160000X2.835000X-3.160000X-2.835000X3.160000X-2.835000X3.160000X2.835000X0*%
%ADD36R,1.500000X1.000000*%
%ADD37R,3.500000X3.500000*%
%ADD38RoundRect,0.750000X0.750000X1.000000X-0.750000X1.000000X-0.750000X-1.000000X0.750000X-1.000000X0*%
%ADD39RoundRect,0.875000X0.875000X0.875000X-0.875000X0.875000X-0.875000X-0.875000X0.875000X-0.875000X0*%
%ADD40Outline4P,-1.800000X-1.150000X1.800000X-0.550000X1.800000X0.550000X-1.800000X1.150000X0.000000*%
%ADD41Outline4P,-1.800000X-1.150000X1.800000X-0.550000X1.800000X0.550000X-1.800000X1.150000X180.000000*%
%ADD42R,0.900000X1.500000*%
%ADD43R,1.500000X0.900000*%
%ADD44RoundRect,0.500000X-0.500000X0.643000X-0.500000X-0.643000X0.500000X-0.643000X0.500000X0.643000X0*%
%ADD45RoundRect,0.500000X0.500000X-0.643000X0.500000X0.643000X-0.500000X0.643000X-0.500000X-0.643000X0*%
%ADD46RoundRect,0.500000X0.643000X0.500000X-0.643000X0.500000X-0.643000X-0.500000X0.643000X-0.500000X0*%
%ADD47RoundRect,0.500000X-0.643000X-0.500000X0.643000X-0.500000X0.643000X0.500000X-0.643000X0.500000X0*%
G04 APERTURE END LIST*
D10*
X107757930Y-98725928D03*
X107757930Y-90775928D03*
X112257930Y-98725928D03*
X112257930Y-90775928D03*
D11*
X163161273Y-118228285D03*
D12*
X163161273Y-120768285D03*
X145638680Y-160878680D03*
D11*
X145638680Y-158338680D03*
X145638680Y-155798680D03*
D13*
X124423534Y-84837778D03*
X124423534Y-86662778D03*
D14*
X120130725Y-77519035D03*
X121955725Y-77519035D03*
D15*
X178804000Y-140221320D03*
X145720000Y-140132000D03*
X145720000Y-173241320D03*
X178804000Y-173241320D03*
X137116000Y-140132000D03*
X137116000Y-173241320D03*
X104032000Y-173152000D03*
X104032000Y-140132000D03*
X161649243Y-129983285D03*
X161649243Y-106983285D03*
D12*
X103556000Y-119314000D03*
D11*
X103556000Y-116774000D03*
D15*
X103649243Y-129983285D03*
X103649243Y-106983285D03*
D16*
X153097656Y-62611952D03*
X155297656Y-62611952D03*
D14*
X153657704Y-65770799D03*
X155482704Y-65770799D03*
D17*
X155509675Y-67521568D03*
X153684675Y-67521568D03*
D11*
X158022704Y-63385429D03*
X158022704Y-65925429D03*
D12*
X158022704Y-68465429D03*
D18*
X129855835Y-121342000D03*
X135305835Y-121342000D03*
D19*
X122877438Y-86660832D03*
X122877438Y-84835832D03*
D14*
X156083022Y-158460179D03*
X157908022Y-158460179D03*
X101030710Y-90787887D03*
X102855710Y-90787887D03*
D17*
X154456987Y-89173042D03*
X152631987Y-89173042D03*
X133932500Y-77552456D03*
X132107500Y-77552456D03*
X130574569Y-77552456D03*
X128749569Y-77552456D03*
D14*
X150179673Y-86596367D03*
X148354673Y-86596367D03*
X145042484Y-86596367D03*
X146867484Y-86596367D03*
X109909822Y-64074021D03*
X108084822Y-64074021D03*
X109900704Y-65802093D03*
X108075704Y-65802093D03*
D17*
X113589383Y-65802093D03*
X111764383Y-65802093D03*
X111779179Y-64074021D03*
X113604179Y-64074021D03*
D13*
X139059452Y-110935810D03*
X139059452Y-112760810D03*
D19*
X139054833Y-116161883D03*
X139054833Y-114336883D03*
D17*
X138701911Y-86660574D03*
X140526911Y-86660574D03*
D14*
X135374249Y-86669029D03*
X137199249Y-86669029D03*
D19*
X121362834Y-84835689D03*
X121362834Y-86660689D03*
D20*
X137444907Y-116336770D03*
X137444907Y-115081770D03*
D21*
X164204627Y-158051208D03*
X165459627Y-158051208D03*
X165473500Y-156356000D03*
X164218500Y-156356000D03*
X126138730Y-77503310D03*
X127393730Y-77503310D03*
X135341268Y-77492456D03*
X136596268Y-77492456D03*
X128217046Y-98172289D03*
X129472046Y-98172289D03*
D22*
X131941092Y-98172289D03*
X130686092Y-98172289D03*
D21*
X111012705Y-149499961D03*
X112267705Y-149499961D03*
D20*
X114732000Y-116375500D03*
X114732000Y-115120500D03*
D23*
X140671159Y-115060214D03*
X140671159Y-116315214D03*
D24*
X132336000Y-108890000D03*
X132336000Y-114490000D03*
X109652000Y-118040000D03*
X109652000Y-112440000D03*
X156087503Y-86201144D03*
X156087503Y-80601144D03*
D22*
X102151500Y-89124741D03*
X100896500Y-89124741D03*
D25*
X129628064Y-82125717D03*
X134508064Y-82125717D03*
D26*
X162306000Y-158388000D03*
X162306000Y-157888000D03*
X162306000Y-156888000D03*
X162306000Y-157388000D03*
X159436000Y-157388000D03*
X159436000Y-156888000D03*
X162306000Y-156388000D03*
X159436000Y-156388000D03*
X159436000Y-157888000D03*
X159436000Y-158388000D03*
D27*
X160871000Y-157388000D03*
D28*
X149367173Y-88580000D03*
D29*
X146827173Y-88580000D03*
X144287173Y-88580000D03*
X141747173Y-88580000D03*
X139207173Y-88580000D03*
X136667173Y-88580000D03*
X134127173Y-88580000D03*
X131587173Y-88580000D03*
X129047173Y-88580000D03*
X126507173Y-88580000D03*
X123967173Y-88580000D03*
X121427173Y-88580000D03*
X118887173Y-88580000D03*
X116347173Y-88580000D03*
X116347173Y-96200000D03*
X118887173Y-96200000D03*
X121427173Y-96200000D03*
X123967173Y-96200000D03*
X126507173Y-96200000D03*
X129047173Y-96200000D03*
X131587173Y-96200000D03*
X134127173Y-96200000D03*
X136667173Y-96200000D03*
X139207173Y-96200000D03*
X141747173Y-96200000D03*
X144287173Y-96200000D03*
X146827173Y-96200000D03*
X149367173Y-96200000D03*
D30*
X118952000Y-122358000D03*
X120652000Y-122358000D03*
X122352000Y-122358000D03*
D31*
X122352000Y-113208000D03*
D30*
X124052000Y-122358000D03*
X125752000Y-122358000D03*
D32*
X120958845Y-79409153D03*
X120958845Y-80679153D03*
X120958845Y-81949153D03*
X120958845Y-83219153D03*
X116008845Y-83219153D03*
X116008845Y-81949153D03*
X116008845Y-80679153D03*
X116008845Y-79409153D03*
D10*
X152907596Y-98936495D03*
X152907596Y-90986495D03*
X157407596Y-98936495D03*
X157407596Y-90986495D03*
D33*
X108079793Y-69514562D03*
X109979793Y-69514562D03*
X109029793Y-67639562D03*
X112700000Y-67639562D03*
X113650000Y-69514562D03*
X111750000Y-69514562D03*
D34*
X140920097Y-78090523D03*
X140920097Y-82662523D03*
D35*
X147450097Y-80376523D03*
D36*
X123725186Y-79538000D03*
X123725186Y-80838000D03*
D11*
X150800000Y-68514000D03*
D12*
X150800000Y-65974000D03*
X142168488Y-63424000D03*
D11*
X142168488Y-65964000D03*
X142168488Y-68504000D03*
D12*
X107635000Y-80163000D03*
D11*
X110175000Y-80163000D03*
X112715000Y-80163000D03*
D12*
X117780000Y-63424000D03*
D11*
X117780000Y-65964000D03*
X117780000Y-68504000D03*
X163037030Y-87300000D03*
D12*
X163037030Y-84760000D03*
X112683726Y-83851450D03*
D11*
X110143726Y-83851450D03*
X107603726Y-83851450D03*
D37*
X173756000Y-156329500D03*
D38*
X179756000Y-156329500D03*
D39*
X176756000Y-151629500D03*
D12*
X132233000Y-139131000D03*
D11*
X132233000Y-141671000D03*
X132233000Y-144211000D03*
D12*
X108890000Y-173152000D03*
D11*
X108890000Y-170612000D03*
X108890000Y-168072000D03*
D40*
X107768000Y-122636310D03*
D41*
X113568000Y-122636310D03*
D42*
X101398000Y-87244085D03*
X104698000Y-87244085D03*
X104698000Y-82344085D03*
X101398000Y-82344085D03*
D43*
X111848000Y-147370000D03*
X111848000Y-144070000D03*
X106948000Y-144070000D03*
X106948000Y-147370000D03*
D44*
X134544000Y-149784000D03*
X137084000Y-162484000D03*
D45*
X103810000Y-149532448D03*
X106350000Y-162232448D03*
D46*
X126100500Y-170802906D03*
X113400500Y-173342906D03*
D47*
X127747500Y-139941094D03*
X115047500Y-142481094D03*
D11*
X156630000Y-72230000D03*
X156630000Y-74770000D03*
X154090000Y-72230000D03*
X154090000Y-74770000D03*
X151550000Y-72230000D03*
X151550000Y-74770000D03*
X149010000Y-72230000D03*
X149010000Y-74770000D03*
X146470000Y-72230000D03*
X146470000Y-74770000D03*
X143930000Y-72230000D03*
X143930000Y-74770000D03*
X141390000Y-72230000D03*
X141390000Y-74770000D03*
X138850000Y-72230000D03*
X138850000Y-74770000D03*
X136310000Y-72230000D03*
X136310000Y-74770000D03*
X133770000Y-72230000D03*
X133770000Y-74770000D03*
X131230000Y-72230000D03*
X131230000Y-74770000D03*
X128690000Y-72230000D03*
X128690000Y-74770000D03*
X126150000Y-72230000D03*
X126150000Y-74770000D03*
X123610000Y-72230000D03*
X123610000Y-74770000D03*
X121070000Y-72230000D03*
X121070000Y-74770000D03*
X118530000Y-72230000D03*
X118530000Y-74770000D03*
X115990000Y-72230000D03*
X115990000Y-74770000D03*
X113450000Y-72230000D03*
X113450000Y-74770000D03*
X110910000Y-72230000D03*
X110910000Y-74770000D03*
X108370000Y-72230000D03*
D12*
X108370000Y-74770000D03*
D15*
X161500000Y-73500000D03*
X161500000Y-96500000D03*
X103500000Y-96500000D03*
X103500000Y-73500000D03*
M02*
