  0
SECTION
  2
HEADER
  9
$ACADVER
  1
AC1014
  9
$HANDSEED
  5
FFFF
  9
$MEASUREMENT
 70
     1
  0
ENDSEC
  0
SECTION
  2
TABLES
  0
TABLE
  2
VPORT
  5
8
330
0
100
AcDbSymbolTable
 70
     4
  0
VPORT
  5
2E
330
8
100
AcDbSymbolTableRecord
100
AcDbViewportTableRecord
  2
*ACTIVE
 70
     0
 10
0.0
 20
0.0
 11
1.0
 21
1.0
 12
210.0
 22
148.5
 13
0.0
 23
0.0
 14
10.0
 24
10.0
 15
10.0
 25
10.0
 16
0.0
 26
0.0
 36
1.0
 17
0.0
 27
0.0
 37
0.0
 40
341.0
 41
1.24
 42
50.0
 43
0.0
 44
0.0
 50
0.0
 51
0.0
 71
     0
 72
   100
 73
     1
 74
     3
 75
     0
 76
     0
 77
     0
 78
     0
  0
ENDTAB
  0
TABLE
  2
LTYPE
  5
5
330
0
100
AcDbSymbolTable
 70
     1
  0
LTYPE
  5
14
330
5
100
AcDbSymbolTableRecord
100
AcDbLinetypeTableRecord
  2
BYBLOCK
 70
     0
  3

 72
    65
 73
     0
 40
0.0
  0
LTYPE
  5
15
330
5
100
AcDbSymbolTableRecord
100
AcDbLinetypeTableRecord
  2
BYLAYER
 70
     0
  3

 72
    65
 73
     0
 40
0.0
  0
LTYPE
  5
16
330
5
100
AcDbSymbolTableRecord
100
AcDbLinetypeTableRecord
  2
CONTINUOUS
 70
     0
  3
Solid line
 72
    65
 73
     0
 40
0.0
  0
ENDTAB
  0
TABLE
  2
LAYER
  5
2
100
AcDbSymbolTable
 70
2
  0
LAYER
  5
50
100
AcDbSymbolTableRecord
100
AcDbLayerTableRecord
  2
0
 70
0
  6
CONTINUOUS
  0
LAYER
  5
51
100
AcDbSymbolTableRecord
100
AcDbLayerTableRecord
  2
camera-module-3-standard-mechanical-drawing
 70
0
  6
CONTINUOUS
  0
ENDTAB
  0
TABLE
  2
STYLE
  5
3
330
0
100
AcDbSymbolTable
 70
     1
  0
STYLE
  5
11
330
3
100
AcDbSymbolTableRecord
100
AcDbTextStyleTableRecord
  2
STANDARD
 70
     0
 40
0.0
 41
1.0
 50
0.0
 71
     0
 42
2.5
  3
txt
  4

  0
ENDTAB
  0
TABLE
  2
VIEW
  5
6
330
0
100
AcDbSymbolTable
 70
     0
  0
ENDTAB
  0
TABLE
  2
UCS
  5
7
330
0
100
AcDbSymbolTable
 70
     0
  0
ENDTAB
  0
TABLE
  2
APPID
  5
9
330
0
100
AcDbSymbolTable
 70
     2
  0
APPID
  5
12
330
9
100
AcDbSymbolTableRecord
100
AcDbRegAppTableRecord
  2
ACAD
 70
     0
  0
ENDTAB
  0
TABLE
  2
DIMSTYLE
  5
A
330
0
100
AcDbSymbolTable
 70
     1
  0
DIMSTYLE
105
27
330
A
100
AcDbSymbolTableRecord
100
AcDbDimStyleTableRecord
  2
ISO-25
 70
     0
  3

  4

  5

  6

  7

 40
1.0
 41
2.5
 42
0.625
 43
3.75
 44
1.25
 45
0.0
 46
0.0
 47
0.0
 48
0.0
140
2.5
141
2.5
142
0.0
143
0.03937007874016
144
1.0
145
0.0
146
1.0
147
0.625
 71
     0
 72
     0
 73
     0
 74
     0
 75
     0
 76
     0
 77
     1
 78
     8
170
     0
171
     3
172
     1
173
     0
174
     0
175
     0
176
     0
177
     0
178
     0
270
     2
271
     2
272
     2
273
     2
274
     3
340
11
275
     0
280
     0
281
     0
282
     0
283
     0
284
     8
285
     0
286
     0
287
     3
288
     0
  0
ENDTAB
  0
TABLE
  2
BLOCK_RECORD
  5
1
330
0
100
AcDbSymbolTable
 70
     1
  0
BLOCK_RECORD
  5
1F
330
1
100
AcDbSymbolTableRecord
100
AcDbBlockTableRecord
  2
*MODEL_SPACE
  0
BLOCK_RECORD
  5
1B
330
1
100
AcDbSymbolTableRecord
100
AcDbBlockTableRecord
  2
*PAPER_SPACE
  0
ENDTAB
  0
ENDSEC
  0
SECTION
  2
BLOCKS
  0
BLOCK
  5
20
330
1F
100
AcDbEntity
  8
0
100
AcDbBlockBegin
  2
*MODEL_SPACE
 70
     0
 10
0.0
 20
0.0
 30
0.0
  3
*MODEL_SPACE
  1

  0
ENDBLK
  5
21
330
1F
100
AcDbEntity
  8
0
100
AcDbBlockEnd
  0
BLOCK
  5
1C
330
1B
100
AcDbEntity
 67
     1
  8
0
100
AcDbBlockBegin
  2
*PAPER_SPACE
  1

  0
ENDBLK
  5
1D
330
1B
100
AcDbEntity
 67
     1
  8
0
100
AcDbBlockEnd
  0
ENDSEC
  0
SECTION
  2
ENTITIES
  0
LWPOLYLINE
  5
100
100
AcDbEntity
  8
camera-module-3-standard-mechanical-drawing
 62
1
100
AcDbPolyline
 90
4
 70
1
 10
44.172255
 20
49.734138
 30
0.0
 10
33.372343
 20
49.734138
 30
0.0
 10
33.372343
 20
60.534050
 30
0.0
 10
44.172255
 20
60.534050
 30
0.0
  0
SPLINE
  5
101
100
AcDbEntity
  8
camera-module-3-standard-mechanical-drawing
 62
1
100
AcDbSpline
 70
8
 71
3
 72
8
 73
4
 74
0
 40
0
 40
0
 40
0
 40
0
 40
1
 40
1
 40
1
 40
1
 10
38.772299
 20
52.258963
 30
0.0
 10
37.184450
 20
52.258963
 30
0.0
 10
35.897167
 20
53.546245
 30
0.0
 10
35.897167
 20
55.134094
 30
0.0
  0
LWPOLYLINE
  5
102
100
AcDbEntity
  8
camera-module-3-standard-mechanical-drawing
 62
1
100
AcDbPolyline
 90
1
 70
1
 10
38.772299
 20
52.258963
 30
0.0
  0
SPLINE
  5
103
100
AcDbEntity
  8
camera-module-3-standard-mechanical-drawing
 62
1
100
AcDbSpline
 70
8
 71
3
 72
8
 73
4
 74
0
 40
0
 40
0
 40
0
 40
0
 40
1
 40
1
 40
1
 40
1
 10
35.897167
 20
55.134094
 30
0.0
 10
35.897167
 20
56.721943
 30
0.0
 10
37.184450
 20
58.008873
 30
0.0
 10
38.772299
 20
58.008873
 30
0.0
  0
LWPOLYLINE
  5
104
100
AcDbEntity
  8
camera-module-3-standard-mechanical-drawing
 62
1
100
AcDbPolyline
 90
1
 70
1
 10
35.897167
 20
55.134094
 30
0.0
  0
SPLINE
  5
105
100
AcDbEntity
  8
camera-module-3-standard-mechanical-drawing
 62
1
100
AcDbSpline
 70
8
 71
3
 72
8
 73
4
 74
0
 40
0
 40
0
 40
0
 40
0
 40
1
 40
1
 40
1
 40
1
 10
38.772299
 20
58.008873
 30
0.0
 10
40.360148
 20
58.008873
 30
0.0
 10
41.647431
 20
56.721943
 30
0.0
 10
41.647431
 20
55.134094
 30
0.0
  0
LWPOLYLINE
  5
106
100
AcDbEntity
  8
camera-module-3-standard-mechanical-drawing
 62
1
100
AcDbPolyline
 90
1
 70
1
 10
38.772299
 20
58.008873
 30
0.0
  0
SPLINE
  5
107
100
AcDbEntity
  8
camera-module-3-standard-mechanical-drawing
 62
1
100
AcDbSpline
 70
8
 71
3
 72
8
 73
4
 74
0
 40
0
 40
0
 40
0
 40
0
 40
1
 40
1
 40
1
 40
1
 10
41.647431
 20
55.134094
 30
0.0
 10
41.647431
 20
53.546245
 30
0.0
 10
40.360148
 20
52.258963
 30
0.0
 10
38.772299
 20
52.258963
 30
0.0
  0
LWPOLYLINE
  5
108
100
AcDbEntity
  8
camera-module-3-standard-mechanical-drawing
 62
1
100
AcDbPolyline
 90
1
 70
1
 10
41.647431
 20
55.134094
 30
0.0
  0
LWPOLYLINE
  5
109
100
AcDbEntity
  8
camera-module-3-standard-mechanical-drawing
 62
1
100
AcDbPolyline
 90
1
 70
1
 10
38.772299
 20
52.258963
 30
0.0
  0
SPLINE
  5
10a
100
AcDbEntity
  8
camera-module-3-standard-mechanical-drawing
 62
1
100
AcDbSpline
 70
8
 71
3
 72
8
 73
4
 74
0
 40
0
 40
0
 40
0
 40
0
 40
1
 40
1
 40
1
 40
1
 10
34.992012
 20
49.733785
 30
0.0
 10
35.434041
 20
49.733785
 30
0.0
 10
35.792110
 20
49.396531
 30
0.0
 10
35.792110
 20
48.954854
 30
0.0
  0
LWPOLYLINE
  5
10b
100
AcDbEntity
  8
camera-module-3-standard-mechanical-drawing
 62
1
100
AcDbPolyline
 90
2
 70
0
 10
33.372413
 20
49.733785
 30
0.0
 10
34.992012
 20
49.733785
 30
0.0
  0
SPLINE
  5
10c
100
AcDbEntity
  8
camera-module-3-standard-mechanical-drawing
 62
1
100
AcDbSpline
 70
8
 71
3
 72
8
 73
4
 74
0
 40
0
 40
0
 40
0
 40
0
 40
1
 40
1
 40
1
 40
1
 10
43.292147
 20
46.433910
 30
0.0
 10
43.015923
 20
46.433910
 30
0.0
 10
42.791909
 20
46.657571
 30
0.0
 10
42.791909
 20
46.933795
 30
0.0
  0
LWPOLYLINE
  5
10d
100
AcDbEntity
  8
camera-module-3-standard-mechanical-drawing
 62
1
100
AcDbPolyline
 90
5
 70
0
 10
35.792110
 20
48.954854
 30
0.0
 10
35.792110
 20
42.433773
 30
0.0
 10
44.691966
 20
42.433773
 30
0.0
 10
44.691966
 20
46.433910
 30
0.0
 10
43.292147
 20
46.433910
 30
0.0
  0
SPLINE
  5
10e
100
AcDbEntity
  8
camera-module-3-standard-mechanical-drawing
 62
1
100
AcDbSpline
 70
8
 71
3
 72
8
 73
4
 74
0
 40
0
 40
0
 40
0
 40
0
 40
1
 40
1
 40
1
 40
1
 10
42.791909
 20
48.933687
 30
0.0
 10
42.791909
 20
49.375717
 30
0.0
 10
43.150331
 20
49.733785
 30
0.0
 10
43.592007
 20
49.733785
 30
0.0
  0
LWPOLYLINE
  5
10f
100
AcDbEntity
  8
camera-module-3-standard-mechanical-drawing
 62
1
100
AcDbPolyline
 90
2
 70
0
 10
42.791909
 20
46.933795
 30
0.0
 10
42.791909
 20
48.933687
 30
0.0
  0
LWPOLYLINE
  5
110
100
AcDbEntity
  8
camera-module-3-standard-mechanical-drawing
 62
1
100
AcDbPolyline
 90
2
 70
0
 10
43.592007
 20
49.733785
 30
0.0
 10
44.172325
 20
49.733785
 30
0.0
  0
SPLINE
  5
111
100
AcDbEntity
  8
camera-module-3-standard-mechanical-drawing
 62
1
100
AcDbSpline
 70
8
 71
3
 72
8
 73
4
 74
0
 40
0
 40
0
 40
0
 40
0
 40
1
 40
1
 40
1
 40
1
 10
51.272243
 20
42.735044
 30
0.0
 10
51.272243
 20
41.630147
 30
0.0
 10
50.376190
 20
40.734094
 30
0.0
 10
49.271292
 20
40.734094
 30
0.0
  0
LWPOLYLINE
  5
112
100
AcDbEntity
  8
camera-module-3-standard-mechanical-drawing
 62
1
100
AcDbPolyline
 90
2
 70
0
 10
51.272243
 20
62.594973
 30
0.0
 10
51.272243
 20
42.735044
 30
0.0
  0
SPLINE
  5
113
100
AcDbEntity
  8
camera-module-3-standard-mechanical-drawing
 62
1
100
AcDbSpline
 70
8
 71
3
 72
8
 73
4
 74
0
 40
0
 40
0
 40
0
 40
0
 40
1
 40
1
 40
1
 40
1
 10
28.273305
 20
40.734094
 30
0.0
 10
27.168055
 20
40.734094
 30
0.0
 10
26.272355
 20
41.630147
 30
0.0
 10
26.272355
 20
42.735044
 30
0.0
  0
LWPOLYLINE
  5
114
100
AcDbEntity
  8
camera-module-3-standard-mechanical-drawing
 62
1
100
AcDbPolyline
 90
2
 70
0
 10
49.271292
 20
40.734094
 30
0.0
 10
28.273305
 20
40.734094
 30
0.0
  0
SPLINE
  5
115
100
AcDbEntity
  8
camera-module-3-standard-mechanical-drawing
 62
1
100
AcDbSpline
 70
8
 71
3
 72
8
 73
4
 74
0
 40
0
 40
0
 40
0
 40
0
 40
1
 40
1
 40
1
 40
1
 10
26.272355
 20
62.594973
 30
0.0
 10
26.272355
 20
63.700223
 30
0.0
 10
27.168055
 20
64.595924
 30
0.0
 10
28.273305
 20
64.595924
 30
0.0
  0
LWPOLYLINE
  5
116
100
AcDbEntity
  8
camera-module-3-standard-mechanical-drawing
 62
1
100
AcDbPolyline
 90
2
 70
0
 10
26.272355
 20
42.735044
 30
0.0
 10
26.272355
 20
62.594973
 30
0.0
  0
SPLINE
  5
117
100
AcDbEntity
  8
camera-module-3-standard-mechanical-drawing
 62
1
100
AcDbSpline
 70
8
 71
3
 72
8
 73
4
 74
0
 40
0
 40
0
 40
0
 40
0
 40
1
 40
1
 40
1
 40
1
 10
49.271292
 20
64.595924
 30
0.0
 10
50.376190
 20
64.595924
 30
0.0
 10
51.272243
 20
63.700223
 30
0.0
 10
51.272243
 20
62.594973
 30
0.0
  0
LWPOLYLINE
  5
118
100
AcDbEntity
  8
camera-module-3-standard-mechanical-drawing
 62
1
100
AcDbPolyline
 90
2
 70
0
 10
28.273305
 20
64.595924
 30
0.0
 10
49.271292
 20
64.595924
 30
0.0
  0
SPLINE
  5
119
100
AcDbEntity
  8
camera-module-3-standard-mechanical-drawing
 62
1
100
AcDbSpline
 70
8
 71
3
 72
8
 73
4
 74
0
 40
0
 40
0
 40
0
 40
0
 40
1
 40
1
 40
1
 40
1
 10
49.272351
 20
54.133972
 30
0.0
 10
49.879832
 20
54.133972
 30
0.0
 10
50.372309
 20
54.626448
 30
0.0
 10
50.372309
 20
55.233930
 30
0.0
  0
SPLINE
  5
11a
100
AcDbEntity
  8
camera-module-3-standard-mechanical-drawing
 62
1
100
AcDbSpline
 70
8
 71
3
 72
8
 73
4
 74
0
 40
0
 40
0
 40
0
 40
0
 40
1
 40
1
 40
1
 40
1
 10
50.372309
 20
55.233930
 30
0.0
 10
50.372309
 20
55.841412
 30
0.0
 10
49.879832
 20
56.333889
 30
0.0
 10
49.272351
 20
56.333889
 30
0.0
  0
SPLINE
  5
11b
100
AcDbEntity
  8
camera-module-3-standard-mechanical-drawing
 62
1
100
AcDbSpline
 70
8
 71
3
 72
8
 73
4
 74
0
 40
0
 40
0
 40
0
 40
0
 40
1
 40
1
 40
1
 40
1
 10
49.272351
 20
56.333889
 30
0.0
 10
48.664869
 20
56.333889
 30
0.0
 10
48.172392
 20
55.841412
 30
0.0
 10
48.172392
 20
55.233930
 30
0.0
  0
SPLINE
  5
11c
100
AcDbEntity
  8
camera-module-3-standard-mechanical-drawing
 62
1
100
AcDbSpline
 70
8
 71
3
 72
8
 73
4
 74
0
 40
0
 40
0
 40
0
 40
0
 40
1
 40
1
 40
1
 40
1
 10
48.172392
 20
55.233930
 30
0.0
 10
48.172392
 20
54.626448
 30
0.0
 10
48.664869
 20
54.133972
 30
0.0
 10
49.272351
 20
54.133972
 30
0.0
  0
LWPOLYLINE
  5
11d
100
AcDbEntity
  8
camera-module-3-standard-mechanical-drawing
 62
1
100
AcDbPolyline
 90
1
 70
1
 10
51.272243
 20
62.594973
 30
0.0
  0
SPLINE
  5
11e
100
AcDbEntity
  8
camera-module-3-standard-mechanical-drawing
 62
1
100
AcDbSpline
 70
8
 71
3
 72
8
 73
4
 74
0
 40
0
 40
0
 40
0
 40
0
 40
1
 40
1
 40
1
 40
1
 10
49.272351
 20
52.859036
 30
0.0
 10
50.583975
 20
52.859036
 30
0.0
 10
51.647245
 20
53.922306
 30
0.0
 10
51.647245
 20
55.233930
 30
0.0
  0
SPLINE
  5
11f
100
AcDbEntity
  8
camera-module-3-standard-mechanical-drawing
 62
1
100
AcDbSpline
 70
8
 71
3
 72
8
 73
4
 74
0
 40
0
 40
0
 40
0
 40
0
 40
1
 40
1
 40
1
 40
1
 10
51.647245
 20
55.233930
 30
0.0
 10
51.647245
 20
56.545555
 30
0.0
 10
50.583975
 20
57.609177
 30
0.0
 10
49.272351
 20
57.609177
 30
0.0
  0
SPLINE
  5
120
100
AcDbEntity
  8
camera-module-3-standard-mechanical-drawing
 62
1
100
AcDbSpline
 70
8
 71
3
 72
8
 73
4
 74
0
 40
0
 40
0
 40
0
 40
0
 40
1
 40
1
 40
1
 40
1
 10
49.272351
 20
57.609177
 30
0.0
 10
47.960726
 20
57.609177
 30
0.0
 10
46.897456
 20
56.545555
 30
0.0
 10
46.897456
 20
55.233930
 30
0.0
  0
SPLINE
  5
121
100
AcDbEntity
  8
camera-module-3-standard-mechanical-drawing
 62
1
100
AcDbSpline
 70
8
 71
3
 72
8
 73
4
 74
0
 40
0
 40
0
 40
0
 40
0
 40
1
 40
1
 40
1
 40
1
 10
46.897456
 20
55.233930
 30
0.0
 10
46.897456
 20
53.922306
 30
0.0
 10
47.960726
 20
52.859036
 30
0.0
 10
49.272351
 20
52.859036
 30
0.0
  0
LWPOLYLINE
  5
122
100
AcDbEntity
  8
camera-module-3-standard-mechanical-drawing
 62
1
100
AcDbPolyline
 90
1
 70
1
 10
49.272351
 20
54.133972
 30
0.0
  0
SPLINE
  5
123
100
AcDbEntity
  8
camera-module-3-standard-mechanical-drawing
 62
1
100
AcDbSpline
 70
8
 71
3
 72
8
 73
4
 74
0
 40
0
 40
0
 40
0
 40
0
 40
1
 40
1
 40
1
 40
1
 10
28.272423
 20
54.133972
 30
0.0
 10
28.879905
 20
54.133972
 30
0.0
 10
29.372382
 20
54.626448
 30
0.0
 10
29.372382
 20
55.233930
 30
0.0
  0
SPLINE
  5
124
100
AcDbEntity
  8
camera-module-3-standard-mechanical-drawing
 62
1
100
AcDbSpline
 70
8
 71
3
 72
8
 73
4
 74
0
 40
0
 40
0
 40
0
 40
0
 40
1
 40
1
 40
1
 40
1
 10
29.372382
 20
55.233930
 30
0.0
 10
29.372382
 20
55.841412
 30
0.0
 10
28.879905
 20
56.333889
 30
0.0
 10
28.272423
 20
56.333889
 30
0.0
  0
SPLINE
  5
125
100
AcDbEntity
  8
camera-module-3-standard-mechanical-drawing
 62
1
100
AcDbSpline
 70
8
 71
3
 72
8
 73
4
 74
0
 40
0
 40
0
 40
0
 40
0
 40
1
 40
1
 40
1
 40
1
 10
28.272423
 20
56.333889
 30
0.0
 10
27.664941
 20
56.333889
 30
0.0
 10
27.172465
 20
55.841412
 30
0.0
 10
27.172465
 20
55.233930
 30
0.0
  0
SPLINE
  5
126
100
AcDbEntity
  8
camera-module-3-standard-mechanical-drawing
 62
1
100
AcDbSpline
 70
8
 71
3
 72
8
 73
4
 74
0
 40
0
 40
0
 40
0
 40
0
 40
1
 40
1
 40
1
 40
1
 10
27.172465
 20
55.233930
 30
0.0
 10
27.172465
 20
54.626448
 30
0.0
 10
27.664941
 20
54.133972
 30
0.0
 10
28.272423
 20
54.133972
 30
0.0
  0
LWPOLYLINE
  5
127
100
AcDbEntity
  8
camera-module-3-standard-mechanical-drawing
 62
1
100
AcDbPolyline
 90
1
 70
1
 10
49.272351
 20
52.859036
 30
0.0
  0
SPLINE
  5
128
100
AcDbEntity
  8
camera-module-3-standard-mechanical-drawing
 62
1
100
AcDbSpline
 70
8
 71
3
 72
8
 73
4
 74
0
 40
0
 40
0
 40
0
 40
0
 40
1
 40
1
 40
1
 40
1
 10
28.272423
 20
52.859036
 30
0.0
 10
29.584048
 20
52.859036
 30
0.0
 10
30.647317
 20
53.922306
 30
0.0
 10
30.647317
 20
55.233930
 30
0.0
  0
SPLINE
  5
129
100
AcDbEntity
  8
camera-module-3-standard-mechanical-drawing
 62
1
100
AcDbSpline
 70
8
 71
3
 72
8
 73
4
 74
0
 40
0
 40
0
 40
0
 40
0
 40
1
 40
1
 40
1
 40
1
 10
30.647317
 20
55.233930
 30
0.0
 10
30.647317
 20
56.545555
 30
0.0
 10
29.584048
 20
57.609177
 30
0.0
 10
28.272423
 20
57.609177
 30
0.0
  0
SPLINE
  5
12a
100
AcDbEntity
  8
camera-module-3-standard-mechanical-drawing
 62
1
100
AcDbSpline
 70
8
 71
3
 72
8
 73
4
 74
0
 40
0
 40
0
 40
0
 40
0
 40
1
 40
1
 40
1
 40
1
 10
28.272423
 20
57.609177
 30
0.0
 10
26.960799
 20
57.609177
 30
0.0
 10
25.897529
 20
56.545555
 30
0.0
 10
25.897529
 20
55.233930
 30
0.0
  0
SPLINE
  5
12b
100
AcDbEntity
  8
camera-module-3-standard-mechanical-drawing
 62
1
100
AcDbSpline
 70
8
 71
3
 72
8
 73
4
 74
0
 40
0
 40
0
 40
0
 40
0
 40
1
 40
1
 40
1
 40
1
 10
25.897529
 20
55.233930
 30
0.0
 10
25.897529
 20
53.922306
 30
0.0
 10
26.960799
 20
52.859036
 30
0.0
 10
28.272423
 20
52.859036
 30
0.0
  0
LWPOLYLINE
  5
12c
100
AcDbEntity
  8
camera-module-3-standard-mechanical-drawing
 62
1
100
AcDbPolyline
 90
1
 70
1
 10
28.272423
 20
54.133972
 30
0.0
  0
SPLINE
  5
12d
100
AcDbEntity
  8
camera-module-3-standard-mechanical-drawing
 62
1
100
AcDbSpline
 70
8
 71
3
 72
8
 73
4
 74
0
 40
0
 40
0
 40
0
 40
0
 40
1
 40
1
 40
1
 40
1
 10
28.272423
 20
41.634028
 30
0.0
 10
28.879905
 20
41.634028
 30
0.0
 10
29.372382
 20
42.126504
 30
0.0
 10
29.372382
 20
42.733986
 30
0.0
  0
SPLINE
  5
12e
100
AcDbEntity
  8
camera-module-3-standard-mechanical-drawing
 62
1
100
AcDbSpline
 70
8
 71
3
 72
8
 73
4
 74
0
 40
0
 40
0
 40
0
 40
0
 40
1
 40
1
 40
1
 40
1
 10
29.372382
 20
42.733986
 30
0.0
 10
29.372382
 20
43.341468
 30
0.0
 10
28.879905
 20
43.833944
 30
0.0
 10
28.272423
 20
43.833944
 30
0.0
  0
SPLINE
  5
12f
100
AcDbEntity
  8
camera-module-3-standard-mechanical-drawing
 62
1
100
AcDbSpline
 70
8
 71
3
 72
8
 73
4
 74
0
 40
0
 40
0
 40
0
 40
0
 40
1
 40
1
 40
1
 40
1
 10
28.272423
 20
43.833944
 30
0.0
 10
27.664941
 20
43.833944
 30
0.0
 10
27.172465
 20
43.341468
 30
0.0
 10
27.172465
 20
42.733986
 30
0.0
  0
SPLINE
  5
130
100
AcDbEntity
  8
camera-module-3-standard-mechanical-drawing
 62
1
100
AcDbSpline
 70
8
 71
3
 72
8
 73
4
 74
0
 40
0
 40
0
 40
0
 40
0
 40
1
 40
1
 40
1
 40
1
 10
27.172465
 20
42.733986
 30
0.0
 10
27.172465
 20
42.126504
 30
0.0
 10
27.664941
 20
41.634028
 30
0.0
 10
28.272423
 20
41.634028
 30
0.0
  0
LWPOLYLINE
  5
131
100
AcDbEntity
  8
camera-module-3-standard-mechanical-drawing
 62
1
100
AcDbPolyline
 90
1
 70
1
 10
28.272423
 20
52.859036
 30
0.0
  0
SPLINE
  5
132
100
AcDbEntity
  8
camera-module-3-standard-mechanical-drawing
 62
1
100
AcDbSpline
 70
8
 71
3
 72
8
 73
4
 74
0
 40
0
 40
0
 40
0
 40
0
 40
1
 40
1
 40
1
 40
1
 10
28.272423
 20
40.359092
 30
0.0
 10
29.584048
 20
40.359092
 30
0.0
 10
30.647317
 20
41.422361
 30
0.0
 10
30.647317
 20
42.733986
 30
0.0
  0
SPLINE
  5
133
100
AcDbEntity
  8
camera-module-3-standard-mechanical-drawing
 62
1
100
AcDbSpline
 70
8
 71
3
 72
8
 73
4
 74
0
 40
0
 40
0
 40
0
 40
0
 40
1
 40
1
 40
1
 40
1
 10
30.647317
 20
42.733986
 30
0.0
 10
30.647317
 20
44.045611
 30
0.0
 10
29.584048
 20
45.109233
 30
0.0
 10
28.272423
 20
45.109233
 30
0.0
  0
SPLINE
  5
134
100
AcDbEntity
  8
camera-module-3-standard-mechanical-drawing
 62
1
100
AcDbSpline
 70
8
 71
3
 72
8
 73
4
 74
0
 40
0
 40
0
 40
0
 40
0
 40
1
 40
1
 40
1
 40
1
 10
28.272423
 20
45.109233
 30
0.0
 10
26.960799
 20
45.109233
 30
0.0
 10
25.897529
 20
44.045611
 30
0.0
 10
25.897529
 20
42.733986
 30
0.0
  0
SPLINE
  5
135
100
AcDbEntity
  8
camera-module-3-standard-mechanical-drawing
 62
1
100
AcDbSpline
 70
8
 71
3
 72
8
 73
4
 74
0
 40
0
 40
0
 40
0
 40
0
 40
1
 40
1
 40
1
 40
1
 10
25.897529
 20
42.733986
 30
0.0
 10
25.897529
 20
41.422361
 30
0.0
 10
26.960799
 20
40.359092
 30
0.0
 10
28.272423
 20
40.359092
 30
0.0
  0
LWPOLYLINE
  5
136
100
AcDbEntity
  8
camera-module-3-standard-mechanical-drawing
 62
1
100
AcDbPolyline
 90
1
 70
1
 10
28.272423
 20
41.634028
 30
0.0
  0
SPLINE
  5
137
100
AcDbEntity
  8
camera-module-3-standard-mechanical-drawing
 62
1
100
AcDbSpline
 70
8
 71
3
 72
8
 73
4
 74
0
 40
0
 40
0
 40
0
 40
0
 40
1
 40
1
 40
1
 40
1
 10
49.272351
 20
41.634028
 30
0.0
 10
49.879832
 20
41.634028
 30
0.0
 10
50.372309
 20
42.126504
 30
0.0
 10
50.372309
 20
42.733986
 30
0.0
  0
SPLINE
  5
138
100
AcDbEntity
  8
camera-module-3-standard-mechanical-drawing
 62
1
100
AcDbSpline
 70
8
 71
3
 72
8
 73
4
 74
0
 40
0
 40
0
 40
0
 40
0
 40
1
 40
1
 40
1
 40
1
 10
50.372309
 20
42.733986
 30
0.0
 10
50.372309
 20
43.341468
 30
0.0
 10
49.879832
 20
43.833944
 30
0.0
 10
49.272351
 20
43.833944
 30
0.0
  0
SPLINE
  5
139
100
AcDbEntity
  8
camera-module-3-standard-mechanical-drawing
 62
1
100
AcDbSpline
 70
8
 71
3
 72
8
 73
4
 74
0
 40
0
 40
0
 40
0
 40
0
 40
1
 40
1
 40
1
 40
1
 10
49.272351
 20
43.833944
 30
0.0
 10
48.664869
 20
43.833944
 30
0.0
 10
48.172392
 20
43.341468
 30
0.0
 10
48.172392
 20
42.733986
 30
0.0
  0
SPLINE
  5
13a
100
AcDbEntity
  8
camera-module-3-standard-mechanical-drawing
 62
1
100
AcDbSpline
 70
8
 71
3
 72
8
 73
4
 74
0
 40
0
 40
0
 40
0
 40
0
 40
1
 40
1
 40
1
 40
1
 10
48.172392
 20
42.733986
 30
0.0
 10
48.172392
 20
42.126504
 30
0.0
 10
48.664869
 20
41.634028
 30
0.0
 10
49.272351
 20
41.634028
 30
0.0
  0
LWPOLYLINE
  5
13b
100
AcDbEntity
  8
camera-module-3-standard-mechanical-drawing
 62
1
100
AcDbPolyline
 90
1
 70
1
 10
28.272423
 20
40.359092
 30
0.0
  0
SPLINE
  5
13c
100
AcDbEntity
  8
camera-module-3-standard-mechanical-drawing
 62
1
100
AcDbSpline
 70
8
 71
3
 72
8
 73
4
 74
0
 40
0
 40
0
 40
0
 40
0
 40
1
 40
1
 40
1
 40
1
 10
49.272351
 20
40.359092
 30
0.0
 10
50.583975
 20
40.359092
 30
0.0
 10
51.647245
 20
41.422361
 30
0.0
 10
51.647245
 20
42.733986
 30
0.0
  0
SPLINE
  5
13d
100
AcDbEntity
  8
camera-module-3-standard-mechanical-drawing
 62
1
100
AcDbSpline
 70
8
 71
3
 72
8
 73
4
 74
0
 40
0
 40
0
 40
0
 40
0
 40
1
 40
1
 40
1
 40
1
 10
51.647245
 20
42.733986
 30
0.0
 10
51.647245
 20
44.045611
 30
0.0
 10
50.583975
 20
45.109233
 30
0.0
 10
49.272351
 20
45.109233
 30
0.0
  0
SPLINE
  5
13e
100
AcDbEntity
  8
camera-module-3-standard-mechanical-drawing
 62
1
100
AcDbSpline
 70
8
 71
3
 72
8
 73
4
 74
0
 40
0
 40
0
 40
0
 40
0
 40
1
 40
1
 40
1
 40
1
 10
49.272351
 20
45.109233
 30
0.0
 10
47.960726
 20
45.109233
 30
0.0
 10
46.897456
 20
44.045611
 30
0.0
 10
46.897456
 20
42.733986
 30
0.0
  0
SPLINE
  5
13f
100
AcDbEntity
  8
camera-module-3-standard-mechanical-drawing
 62
1
100
AcDbSpline
 70
8
 71
3
 72
8
 73
4
 74
0
 40
0
 40
0
 40
0
 40
0
 40
1
 40
1
 40
1
 40
1
 10
46.897456
 20
42.733986
 30
0.0
 10
46.897456
 20
41.422361
 30
0.0
 10
47.960726
 20
40.359092
 30
0.0
 10
49.272351
 20
40.359092
 30
0.0
  0
LWPOLYLINE
  5
140
100
AcDbEntity
  8
camera-module-3-standard-mechanical-drawing
 62
1
100
AcDbPolyline
 90
1
 70
1
 10
49.272351
 20
41.634028
 30
0.0
  0
SPLINE
  5
141
100
AcDbEntity
  8
camera-module-3-standard-mechanical-drawing
 62
1
100
AcDbSpline
 70
8
 71
3
 72
8
 73
4
 74
0
 40
0
 40
0
 40
0
 40
0
 40
1
 40
1
 40
1
 40
1
 10
40.075104
 20
55.142914
 30
0.0
 10
40.075104
 20
54.430304
 30
0.0
 10
39.497608
 20
53.852809
 30
0.0
 10
38.784999
 20
53.852809
 30
0.0
  0
SPLINE
  5
142
100
AcDbEntity
  8
camera-module-3-standard-mechanical-drawing
 62
1
100
AcDbSpline
 70
8
 71
3
 72
8
 73
4
 74
0
 40
0
 40
0
 40
0
 40
0
 40
1
 40
1
 40
1
 40
1
 10
38.784999
 20
53.852809
 30
0.0
 10
38.072742
 20
53.852809
 30
0.0
 10
37.495246
 20
54.430304
 30
0.0
 10
37.495246
 20
55.142914
 30
0.0
  0
SPLINE
  5
143
100
AcDbEntity
  8
camera-module-3-standard-mechanical-drawing
 62
1
100
AcDbSpline
 70
8
 71
3
 72
8
 73
4
 74
0
 40
0
 40
0
 40
0
 40
0
 40
1
 40
1
 40
1
 40
1
 10
37.495246
 20
55.142914
 30
0.0
 10
37.495246
 20
55.855523
 30
0.0
 10
38.072742
 20
56.433019
 30
0.0
 10
38.784999
 20
56.433019
 30
0.0
  0
SPLINE
  5
144
100
AcDbEntity
  8
camera-module-3-standard-mechanical-drawing
 62
1
100
AcDbSpline
 70
8
 71
3
 72
8
 73
4
 74
0
 40
0
 40
0
 40
0
 40
0
 40
1
 40
1
 40
1
 40
1
 10
38.784999
 20
56.433019
 30
0.0
 10
39.497608
 20
56.433019
 30
0.0
 10
40.075104
 20
55.855523
 30
0.0
 10
40.075104
 20
55.142914
 30
0.0
  0
LWPOLYLINE
  5
145
100
AcDbEntity
  8
camera-module-3-standard-mechanical-drawing
 62
1
100
AcDbPolyline
 90
1
 70
1
 10
49.272351
 20
40.359092
 30
0.0
  0
LWPOLYLINE
  5
146
100
AcDbEntity
  8
camera-module-3-standard-mechanical-drawing
 62
1
100
AcDbPolyline
 90
1
 70
1
 10
40.075104
 20
55.142914
 30
0.0
  0
ENDSEC
  0
SECTION
  2
OBJECTS
  0
DICTIONARY
  5
C
330
0
100
AcDbDictionary
  3
ACAD_GROUP
350
D
  3
ACAD_MLINESTYLE
350
17
  0
DICTIONARY
  5
D
330
C
100
AcDbDictionary
  0
DICTIONARY
  5
1A
330
C
100
AcDbDictionary
  0
DICTIONARY
  5
17
330
C
100
AcDbDictionary
  3
STANDARD
350
18
  0
DICTIONARY
  5
19
330
C
100
AcDbDictionary
  0
ENDSEC
  0
EOF
