M48
; DRILL file {KiCad 7.0.10-7.0.10~ubuntu22.04.1} date Thu 10 Apr 2025 07:05:00 PM
; FORMAT={-:-/ absolute / metric / decimal}
; #@! TF.CreationDate,2025-04-10T19:05:00-06:00
; #@! TF.GenerationSoftware,Kicad,Pcbnew,7.0.10-7.0.10~ubuntu22.04.1
; #@! TF.FileFunction,NonPlated,1,2,NPTH
FMAT,2
METRIC
; #@! TA.AperFunction,NonPlated,NPTH,ComponentDrill
T1C2.000
; #@! TA.AperFunction,NonPlated,NPTH,ComponentDrill
T2C2.750
; #@! TA.AperFunction,NonPlated,NPTH,ComponentDrill
T3C6.200
%
G90
G05
T1
X245.741Y-170.651
X245.741Y-183.151
X245.945Y-116.309
X245.945Y-128.809
X266.741Y-170.661
X266.741Y-183.161
X266.945Y-116.319
X266.945Y-128.819
T2
X117.7Y-97.862
X117.7Y-132.702
X118.17Y-153.23
X118.17Y-188.07
X127.491Y-162.414
X127.491Y-185.414
X185.491Y-162.414
X185.491Y-185.414
X215.9Y-97.862
X215.9Y-132.702
X216.37Y-153.23
X216.37Y-188.07
X238.655Y-152.91
X238.655Y-187.75
X238.86Y-98.567
X238.86Y-133.407
X273.495Y-152.91
X273.495Y-187.75
X273.7Y-98.567
X273.7Y-133.407
T3
X256.435Y-116.399
M30
